<?xml version="1.0" encoding="utf-8" standalone="no"?>
<!DOCTYPE svg PUBLIC "-//W3C//DTD SVG 1.1//EN"
  "http://www.w3.org/Graphics/SVG/1.1/DTD/svg11.dtd">
<svg xmlns:xlink="http://www.w3.org/1999/xlink" width="1080pt" height="216pt" viewBox="0 0 1080 216" xmlns="http://www.w3.org/2000/svg" version="1.1">
 <metadata>
  <rdf:RDF xmlns:dc="http://purl.org/dc/elements/1.1/" xmlns:cc="http://creativecommons.org/ns#" xmlns:rdf="http://www.w3.org/1999/02/22-rdf-syntax-ns#">
   <cc:Work>
    <dc:type rdf:resource="http://purl.org/dc/dcmitype/StillImage"/>
    <dc:date>2022-04-09T11:33:35.620908</dc:date>
    <dc:format>image/svg+xml</dc:format>
    <dc:creator>
     <cc:Agent>
      <dc:title>Matplotlib v3.5.1, https://matplotlib.org/</dc:title>
     </cc:Agent>
    </dc:creator>
   </cc:Work>
  </rdf:RDF>
 </metadata>
 <defs>
  <style type="text/css">*{stroke-linejoin: round; stroke-linecap: butt}</style>
 </defs>
 <g id="figure_1">
  <g id="patch_1">
   <path d="M 0 216 
L 1080 216 
L 1080 0 
L 0 0 
z
" style="fill: #ffffff"/>
  </g>
  <g id="axes_1">
   <g id="patch_2">
    <path d="M 14.3 170.4 
L 327.857839 170.4 
L 327.857839 10.8 
L 14.3 10.8 
z
" style="fill: #ffffff"/>
   </g>
   <g id="patch_3">
    <path d="M 14.3 50.7 
L 161.672184 50.7 
L 161.672184 77.3 
L 14.3 77.3 
z
" clip-path="url(#p651a3d8b45)" style="fill: #3b4cc0"/>
   </g>
   <g id="patch_4">
    <path d="M 14.3 77.3 
L 17.435578 77.3 
L 17.435578 103.9 
L 14.3 103.9 
z
" clip-path="url(#p651a3d8b45)" style="fill: #dddcdc"/>
   </g>
   <g id="patch_5">
    <path d="M 14.3 103.9 
L 177.350076 103.9 
L 177.350076 130.5 
L 14.3 130.5 
z
" clip-path="url(#p651a3d8b45)" style="fill: #b40426"/>
   </g>
   <g id="matplotlib.axis_1">
    <g id="xtick_1">
     <g id="line2d_1">
      <defs>
       <path id="m6b9a45fb4c" d="M 0 0 
L 0 3.5 
" style="stroke: #000000; stroke-width: 0.8"/>
      </defs>
      <g>
       <use xlink:href="#m6b9a45fb4c" x="14.3" y="170.4" style="stroke: #000000; stroke-width: 0.8"/>
      </g>
     </g>
    </g>
    <g id="text_1">
     <!-- winner -->
     <g transform="translate(154.131263 188.998437)scale(0.1 -0.1)">
      <defs>
       <path id="DejaVuSans-77" d="M 269 3500 
L 844 3500 
L 1563 769 
L 2278 3500 
L 2956 3500 
L 3675 769 
L 4391 3500 
L 4966 3500 
L 4050 0 
L 3372 0 
L 2619 2869 
L 1863 0 
L 1184 0 
L 269 3500 
z
" transform="scale(0.015625)"/>
       <path id="DejaVuSans-69" d="M 603 3500 
L 1178 3500 
L 1178 0 
L 603 0 
L 603 3500 
z
M 603 4863 
L 1178 4863 
L 1178 4134 
L 603 4134 
L 603 4863 
z
" transform="scale(0.015625)"/>
       <path id="DejaVuSans-6e" d="M 3513 2113 
L 3513 0 
L 2938 0 
L 2938 2094 
Q 2938 2591 2744 2837 
Q 2550 3084 2163 3084 
Q 1697 3084 1428 2787 
Q 1159 2491 1159 1978 
L 1159 0 
L 581 0 
L 581 3500 
L 1159 3500 
L 1159 2956 
Q 1366 3272 1645 3428 
Q 1925 3584 2291 3584 
Q 2894 3584 3203 3211 
Q 3513 2838 3513 2113 
z
" transform="scale(0.015625)"/>
       <path id="DejaVuSans-65" d="M 3597 1894 
L 3597 1613 
L 953 1613 
Q 991 1019 1311 708 
Q 1631 397 2203 397 
Q 2534 397 2845 478 
Q 3156 559 3463 722 
L 3463 178 
Q 3153 47 2828 -22 
Q 2503 -91 2169 -91 
Q 1331 -91 842 396 
Q 353 884 353 1716 
Q 353 2575 817 3079 
Q 1281 3584 2069 3584 
Q 2775 3584 3186 3129 
Q 3597 2675 3597 1894 
z
M 3022 2063 
Q 3016 2534 2758 2815 
Q 2500 3097 2075 3097 
Q 1594 3097 1305 2825 
Q 1016 2553 972 2059 
L 3022 2063 
z
" transform="scale(0.015625)"/>
       <path id="DejaVuSans-72" d="M 2631 2963 
Q 2534 3019 2420 3045 
Q 2306 3072 2169 3072 
Q 1681 3072 1420 2755 
Q 1159 2438 1159 1844 
L 1159 0 
L 581 0 
L 581 3500 
L 1159 3500 
L 1159 2956 
Q 1341 3275 1631 3429 
Q 1922 3584 2338 3584 
Q 2397 3584 2469 3576 
Q 2541 3569 2628 3553 
L 2631 2963 
z
" transform="scale(0.015625)"/>
      </defs>
      <use xlink:href="#DejaVuSans-77"/>
      <use xlink:href="#DejaVuSans-69" x="81.787109"/>
      <use xlink:href="#DejaVuSans-6e" x="109.570312"/>
      <use xlink:href="#DejaVuSans-6e" x="172.949219"/>
      <use xlink:href="#DejaVuSans-65" x="236.328125"/>
      <use xlink:href="#DejaVuSans-72" x="297.851562"/>
     </g>
    </g>
   </g>
   <g id="matplotlib.axis_2"/>
   <g id="patch_6">
    <path d="M 14.3 170.4 
L 14.3 10.8 
" style="fill: none; stroke: #000000; stroke-width: 0.8; stroke-linejoin: miter; stroke-linecap: square"/>
   </g>
   <g id="patch_7">
    <path d="M 327.857839 170.4 
L 327.857839 10.8 
" style="fill: none; stroke: #000000; stroke-width: 0.8; stroke-linejoin: miter; stroke-linecap: square"/>
   </g>
   <g id="patch_8">
    <path d="M 14.3 170.4 
L 327.857839 170.4 
" style="fill: none; stroke: #000000; stroke-width: 0.8; stroke-linejoin: miter; stroke-linecap: square"/>
   </g>
   <g id="patch_9">
    <path d="M 14.3 10.8 
L 327.857839 10.8 
" style="fill: none; stroke: #000000; stroke-width: 0.8; stroke-linejoin: miter; stroke-linecap: square"/>
   </g>
   <g id="text_2">
    <!-- az_100_01-0-01: 47.0% -->
    <g transform="translate(17.435578 63.320031)scale(0.1 -0.1)">
     <defs>
      <path id="DejaVuSans-61" d="M 2194 1759 
Q 1497 1759 1228 1600 
Q 959 1441 959 1056 
Q 959 750 1161 570 
Q 1363 391 1709 391 
Q 2188 391 2477 730 
Q 2766 1069 2766 1631 
L 2766 1759 
L 2194 1759 
z
M 3341 1997 
L 3341 0 
L 2766 0 
L 2766 531 
Q 2569 213 2275 61 
Q 1981 -91 1556 -91 
Q 1019 -91 701 211 
Q 384 513 384 1019 
Q 384 1609 779 1909 
Q 1175 2209 1959 2209 
L 2766 2209 
L 2766 2266 
Q 2766 2663 2505 2880 
Q 2244 3097 1772 3097 
Q 1472 3097 1187 3025 
Q 903 2953 641 2809 
L 641 3341 
Q 956 3463 1253 3523 
Q 1550 3584 1831 3584 
Q 2591 3584 2966 3190 
Q 3341 2797 3341 1997 
z
" transform="scale(0.015625)"/>
      <path id="DejaVuSans-7a" d="M 353 3500 
L 3084 3500 
L 3084 2975 
L 922 459 
L 3084 459 
L 3084 0 
L 275 0 
L 275 525 
L 2438 3041 
L 353 3041 
L 353 3500 
z
" transform="scale(0.015625)"/>
      <path id="DejaVuSans-5f" d="M 3263 -1063 
L 3263 -1509 
L -63 -1509 
L -63 -1063 
L 3263 -1063 
z
" transform="scale(0.015625)"/>
      <path id="DejaVuSans-31" d="M 794 531 
L 1825 531 
L 1825 4091 
L 703 3866 
L 703 4441 
L 1819 4666 
L 2450 4666 
L 2450 531 
L 3481 531 
L 3481 0 
L 794 0 
L 794 531 
z
" transform="scale(0.015625)"/>
      <path id="DejaVuSans-30" d="M 2034 4250 
Q 1547 4250 1301 3770 
Q 1056 3291 1056 2328 
Q 1056 1369 1301 889 
Q 1547 409 2034 409 
Q 2525 409 2770 889 
Q 3016 1369 3016 2328 
Q 3016 3291 2770 3770 
Q 2525 4250 2034 4250 
z
M 2034 4750 
Q 2819 4750 3233 4129 
Q 3647 3509 3647 2328 
Q 3647 1150 3233 529 
Q 2819 -91 2034 -91 
Q 1250 -91 836 529 
Q 422 1150 422 2328 
Q 422 3509 836 4129 
Q 1250 4750 2034 4750 
z
" transform="scale(0.015625)"/>
      <path id="DejaVuSans-2d" d="M 313 2009 
L 1997 2009 
L 1997 1497 
L 313 1497 
L 313 2009 
z
" transform="scale(0.015625)"/>
      <path id="DejaVuSans-3a" d="M 750 794 
L 1409 794 
L 1409 0 
L 750 0 
L 750 794 
z
M 750 3309 
L 1409 3309 
L 1409 2516 
L 750 2516 
L 750 3309 
z
" transform="scale(0.015625)"/>
      <path id="DejaVuSans-20" transform="scale(0.015625)"/>
      <path id="DejaVuSans-34" d="M 2419 4116 
L 825 1625 
L 2419 1625 
L 2419 4116 
z
M 2253 4666 
L 3047 4666 
L 3047 1625 
L 3713 1625 
L 3713 1100 
L 3047 1100 
L 3047 0 
L 2419 0 
L 2419 1100 
L 313 1100 
L 313 1709 
L 2253 4666 
z
" transform="scale(0.015625)"/>
      <path id="DejaVuSans-37" d="M 525 4666 
L 3525 4666 
L 3525 4397 
L 1831 0 
L 1172 0 
L 2766 4134 
L 525 4134 
L 525 4666 
z
" transform="scale(0.015625)"/>
      <path id="DejaVuSans-2e" d="M 684 794 
L 1344 794 
L 1344 0 
L 684 0 
L 684 794 
z
" transform="scale(0.015625)"/>
      <path id="DejaVuSans-25" d="M 4653 2053 
Q 4381 2053 4226 1822 
Q 4072 1591 4072 1178 
Q 4072 772 4226 539 
Q 4381 306 4653 306 
Q 4919 306 5073 539 
Q 5228 772 5228 1178 
Q 5228 1588 5073 1820 
Q 4919 2053 4653 2053 
z
M 4653 2450 
Q 5147 2450 5437 2106 
Q 5728 1763 5728 1178 
Q 5728 594 5436 251 
Q 5144 -91 4653 -91 
Q 4153 -91 3862 251 
Q 3572 594 3572 1178 
Q 3572 1766 3864 2108 
Q 4156 2450 4653 2450 
z
M 1428 4353 
Q 1159 4353 1004 4120 
Q 850 3888 850 3481 
Q 850 3069 1003 2837 
Q 1156 2606 1428 2606 
Q 1700 2606 1854 2837 
Q 2009 3069 2009 3481 
Q 2009 3884 1853 4118 
Q 1697 4353 1428 4353 
z
M 4250 4750 
L 4750 4750 
L 1831 -91 
L 1331 -91 
L 4250 4750 
z
M 1428 4750 
Q 1922 4750 2215 4408 
Q 2509 4066 2509 3481 
Q 2509 2891 2217 2550 
Q 1925 2209 1428 2209 
Q 931 2209 642 2551 
Q 353 2894 353 3481 
Q 353 4063 643 4406 
Q 934 4750 1428 4750 
z
" transform="scale(0.015625)"/>
     </defs>
     <use xlink:href="#DejaVuSans-61"/>
     <use xlink:href="#DejaVuSans-7a" x="61.279297"/>
     <use xlink:href="#DejaVuSans-5f" x="113.769531"/>
     <use xlink:href="#DejaVuSans-31" x="163.769531"/>
     <use xlink:href="#DejaVuSans-30" x="227.392578"/>
     <use xlink:href="#DejaVuSans-30" x="291.015625"/>
     <use xlink:href="#DejaVuSans-5f" x="354.638672"/>
     <use xlink:href="#DejaVuSans-30" x="404.638672"/>
     <use xlink:href="#DejaVuSans-31" x="468.261719"/>
     <use xlink:href="#DejaVuSans-2d" x="531.884766"/>
     <use xlink:href="#DejaVuSans-30" x="567.96875"/>
     <use xlink:href="#DejaVuSans-2d" x="631.591797"/>
     <use xlink:href="#DejaVuSans-30" x="667.675781"/>
     <use xlink:href="#DejaVuSans-31" x="731.298828"/>
     <use xlink:href="#DejaVuSans-3a" x="794.921875"/>
     <use xlink:href="#DejaVuSans-20" x="828.613281"/>
     <use xlink:href="#DejaVuSans-34" x="860.400391"/>
     <use xlink:href="#DejaVuSans-37" x="924.023438"/>
     <use xlink:href="#DejaVuSans-2e" x="987.646484"/>
     <use xlink:href="#DejaVuSans-30" x="1019.433594"/>
     <use xlink:href="#DejaVuSans-25" x="1083.056641"/>
    </g>
   </g>
   <g id="text_3">
    <!-- draw: 1.0% -->
    <g transform="translate(17.435578 90.147375)scale(0.1 -0.1)">
     <defs>
      <path id="DejaVuSans-64" d="M 2906 2969 
L 2906 4863 
L 3481 4863 
L 3481 0 
L 2906 0 
L 2906 525 
Q 2725 213 2448 61 
Q 2172 -91 1784 -91 
Q 1150 -91 751 415 
Q 353 922 353 1747 
Q 353 2572 751 3078 
Q 1150 3584 1784 3584 
Q 2172 3584 2448 3432 
Q 2725 3281 2906 2969 
z
M 947 1747 
Q 947 1113 1208 752 
Q 1469 391 1925 391 
Q 2381 391 2643 752 
Q 2906 1113 2906 1747 
Q 2906 2381 2643 2742 
Q 2381 3103 1925 3103 
Q 1469 3103 1208 2742 
Q 947 2381 947 1747 
z
" transform="scale(0.015625)"/>
     </defs>
     <use xlink:href="#DejaVuSans-64"/>
     <use xlink:href="#DejaVuSans-72" x="63.476562"/>
     <use xlink:href="#DejaVuSans-61" x="104.589844"/>
     <use xlink:href="#DejaVuSans-77" x="165.869141"/>
     <use xlink:href="#DejaVuSans-3a" x="242.15625"/>
     <use xlink:href="#DejaVuSans-20" x="275.847656"/>
     <use xlink:href="#DejaVuSans-31" x="307.634766"/>
     <use xlink:href="#DejaVuSans-2e" x="371.257812"/>
     <use xlink:href="#DejaVuSans-30" x="403.044922"/>
     <use xlink:href="#DejaVuSans-25" x="466.667969"/>
    </g>
   </g>
   <g id="text_4">
    <!-- az_100_1-10-01: 52.0% -->
    <g transform="translate(17.435578 116.520031)scale(0.1 -0.1)">
     <defs>
      <path id="DejaVuSans-35" d="M 691 4666 
L 3169 4666 
L 3169 4134 
L 1269 4134 
L 1269 2991 
Q 1406 3038 1543 3061 
Q 1681 3084 1819 3084 
Q 2600 3084 3056 2656 
Q 3513 2228 3513 1497 
Q 3513 744 3044 326 
Q 2575 -91 1722 -91 
Q 1428 -91 1123 -41 
Q 819 9 494 109 
L 494 744 
Q 775 591 1075 516 
Q 1375 441 1709 441 
Q 2250 441 2565 725 
Q 2881 1009 2881 1497 
Q 2881 1984 2565 2268 
Q 2250 2553 1709 2553 
Q 1456 2553 1204 2497 
Q 953 2441 691 2322 
L 691 4666 
z
" transform="scale(0.015625)"/>
      <path id="DejaVuSans-32" d="M 1228 531 
L 3431 531 
L 3431 0 
L 469 0 
L 469 531 
Q 828 903 1448 1529 
Q 2069 2156 2228 2338 
Q 2531 2678 2651 2914 
Q 2772 3150 2772 3378 
Q 2772 3750 2511 3984 
Q 2250 4219 1831 4219 
Q 1534 4219 1204 4116 
Q 875 4013 500 3803 
L 500 4441 
Q 881 4594 1212 4672 
Q 1544 4750 1819 4750 
Q 2544 4750 2975 4387 
Q 3406 4025 3406 3419 
Q 3406 3131 3298 2873 
Q 3191 2616 2906 2266 
Q 2828 2175 2409 1742 
Q 1991 1309 1228 531 
z
" transform="scale(0.015625)"/>
     </defs>
     <use xlink:href="#DejaVuSans-61"/>
     <use xlink:href="#DejaVuSans-7a" x="61.279297"/>
     <use xlink:href="#DejaVuSans-5f" x="113.769531"/>
     <use xlink:href="#DejaVuSans-31" x="163.769531"/>
     <use xlink:href="#DejaVuSans-30" x="227.392578"/>
     <use xlink:href="#DejaVuSans-30" x="291.015625"/>
     <use xlink:href="#DejaVuSans-5f" x="354.638672"/>
     <use xlink:href="#DejaVuSans-31" x="404.638672"/>
     <use xlink:href="#DejaVuSans-2d" x="468.261719"/>
     <use xlink:href="#DejaVuSans-31" x="504.345703"/>
     <use xlink:href="#DejaVuSans-30" x="567.96875"/>
     <use xlink:href="#DejaVuSans-2d" x="631.591797"/>
     <use xlink:href="#DejaVuSans-30" x="667.675781"/>
     <use xlink:href="#DejaVuSans-31" x="731.298828"/>
     <use xlink:href="#DejaVuSans-3a" x="794.921875"/>
     <use xlink:href="#DejaVuSans-20" x="828.613281"/>
     <use xlink:href="#DejaVuSans-35" x="860.400391"/>
     <use xlink:href="#DejaVuSans-32" x="924.023438"/>
     <use xlink:href="#DejaVuSans-2e" x="987.646484"/>
     <use xlink:href="#DejaVuSans-30" x="1019.433594"/>
     <use xlink:href="#DejaVuSans-25" x="1083.056641"/>
    </g>
   </g>
   <g id="legend_1">
    <g id="patch_10">
     <path d="M 316.857839 23.8 
L 320.857839 23.8 
Q 322.857839 23.8 322.857839 21.8 
L 322.857839 17.8 
Q 322.857839 15.8 320.857839 15.8 
L 316.857839 15.8 
Q 314.857839 15.8 314.857839 17.8 
L 314.857839 21.8 
Q 314.857839 23.8 316.857839 23.8 
z
" style="fill: #ffffff; opacity: 0.8; stroke: #cccccc; stroke-linejoin: miter"/>
    </g>
   </g>
  </g>
  <g id="axes_2">
   <g id="patch_11">
    <path d="M 384.971081 170.4 
L 698.528919 170.4 
L 698.528919 10.8 
L 384.971081 10.8 
z
" style="fill: #ffffff"/>
   </g>
   <g id="PolyCollection_1">
    <defs>
     <path id="m533e5f1a6e" d="M 637.12671 -165.202308 
L 637.12671 -165.397692 
L 637.335659 -165.462345 
L 637.543017 -165.562131 
L 637.748809 -165.712568 
L 637.953057 -165.934669 
L 638.155784 -166.256052 
L 638.357014 -166.711383 
L 638.556768 -167.341359 
L 638.755068 -168.189412 
L 638.951934 -169.295712 
L 639.147387 -170.688835 
L 639.341448 -172.376621 
L 639.534136 -174.33867 
L 639.72547 -176.523286 
L 639.915469 -178.85088 
L 640.104152 -181.224039 
L 640.291537 -183.542046 
L 640.477641 -185.715617 
L 640.662482 -187.677067 
L 640.846078 -189.382474 
L 641.028443 -190.805477 
L 641.209596 -191.925864 
L 641.389552 -192.718501 
L 641.568327 -193.148181 
L 641.745936 -193.173525 
L 641.922394 -192.759096 
L 642.097716 -191.891239 
L 642.271917 -190.591457 
L 642.44501 -188.921937 
L 642.617011 -186.980776 
L 642.787932 -184.888071 
L 642.957787 -182.766909 
L 643.126589 -180.724584 
L 643.294352 -178.838754 
L 643.461087 -177.151426 
L 643.626808 -175.671235 
L 643.791527 -174.382273 
L 643.955256 -173.256286 
L 644.118006 -172.264581 
L 644.279789 -171.386577 
L 644.440617 -170.613314 
L 644.600501 -169.94596 
L 644.759451 -169.390846 
L 644.91748 -168.953401 
L 645.074596 -168.633182 
L 645.230812 -168.42138 
L 645.386136 -168.300946 
L 645.54058 -168.248596 
L 645.694153 -168.237604 
L 645.846865 -168.240516 
L 645.998725 -168.231498 
L 646.149744 -168.188411 
L 646.299929 -168.09479 
L 646.449291 -167.941647 
L 646.597838 -167.728674 
L 646.74558 -167.464281 
L 646.892524 -167.164152 
L 647.03868 -166.84842 
L 647.184055 -166.538092 
L 647.328659 -166.251594 
L 647.472499 -166.002246 
L 647.615583 -165.797125 
L 647.75792 -165.637326 
L 647.899516 -165.519262 
L 648.04038 -165.436446 
L 648.18052 -165.38125 
L 648.319942 -165.346276 
L 648.458654 -165.325198 
L 648.596663 -165.313113 
L 648.733976 -165.306525 
L 648.8706 -165.303115 
L 649.006542 -165.30146 
L 649.14181 -165.300755 
L 649.276408 -165.30061 
L 649.410345 -165.300926 
L 649.543626 -165.301845 
L 649.676259 -165.30377 
L 649.808248 -165.307428 
L 649.939601 -165.313951 
L 650.070324 -165.32493 
L 650.200422 -165.342372 
L 650.329901 -165.368494 
L 650.458768 -165.405302 
L 650.587028 -165.453967 
L 650.714687 -165.514106 
L 650.84175 -165.583163 
L 650.968223 -165.656168 
L 651.094112 -165.726071 
L 651.219421 -165.784749 
L 651.344157 -165.824519 
L 651.468323 -165.839776 
L 651.591927 -165.828294 
L 651.714971 -165.791751 
L 651.837463 -165.735336 
L 651.959406 -165.666532 
L 652.080805 -165.5935 
L 652.201666 -165.523518 
L 652.321993 -165.461893 
L 652.44179 -165.411519 
L 652.561063 -165.37306 
L 652.561063 -165.22694 
L 652.561063 -165.22694 
L 652.44179 -165.188481 
L 652.321993 -165.138107 
L 652.201666 -165.076482 
L 652.080805 -165.0065 
L 651.959406 -164.933468 
L 651.837463 -164.864664 
L 651.714971 -164.808249 
L 651.591927 -164.771706 
L 651.468323 -164.760224 
L 651.344157 -164.775481 
L 651.219421 -164.815251 
L 651.094112 -164.873929 
L 650.968223 -164.943832 
L 650.84175 -165.016837 
L 650.714687 -165.085894 
L 650.587028 -165.146033 
L 650.458768 -165.194698 
L 650.329901 -165.231506 
L 650.200422 -165.257628 
L 650.070324 -165.27507 
L 649.939601 -165.286049 
L 649.808248 -165.292572 
L 649.676259 -165.29623 
L 649.543626 -165.298155 
L 649.410345 -165.299074 
L 649.276408 -165.29939 
L 649.14181 -165.299245 
L 649.006542 -165.29854 
L 648.8706 -165.296885 
L 648.733976 -165.293475 
L 648.596663 -165.286887 
L 648.458654 -165.274802 
L 648.319942 -165.253724 
L 648.18052 -165.21875 
L 648.04038 -165.163554 
L 647.899516 -165.080738 
L 647.75792 -164.962674 
L 647.615583 -164.802875 
L 647.472499 -164.597754 
L 647.328659 -164.348406 
L 647.184055 -164.061908 
L 647.03868 -163.75158 
L 646.892524 -163.435848 
L 646.74558 -163.135719 
L 646.597838 -162.871326 
L 646.449291 -162.658353 
L 646.299929 -162.50521 
L 646.149744 -162.411589 
L 645.998725 -162.368502 
L 645.846865 -162.359484 
L 645.694153 -162.362396 
L 645.54058 -162.351404 
L 645.386136 -162.299054 
L 645.230812 -162.17862 
L 645.074596 -161.966818 
L 644.91748 -161.646599 
L 644.759451 -161.209154 
L 644.600501 -160.65404 
L 644.440617 -159.986686 
L 644.279789 -159.213423 
L 644.118006 -158.335419 
L 643.955256 -157.343714 
L 643.791527 -156.217727 
L 643.626808 -154.928765 
L 643.461087 -153.448574 
L 643.294352 -151.761246 
L 643.126589 -149.875416 
L 642.957787 -147.833091 
L 642.787932 -145.711929 
L 642.617011 -143.619224 
L 642.44501 -141.678063 
L 642.271917 -140.008543 
L 642.097716 -138.708761 
L 641.922394 -137.840904 
L 641.745936 -137.426475 
L 641.568327 -137.451819 
L 641.389552 -137.881499 
L 641.209596 -138.674136 
L 641.028443 -139.794523 
L 640.846078 -141.217526 
L 640.662482 -142.922933 
L 640.477641 -144.884383 
L 640.291537 -147.057954 
L 640.104152 -149.375961 
L 639.915469 -151.74912 
L 639.72547 -154.076714 
L 639.534136 -156.26133 
L 639.341448 -158.223379 
L 639.147387 -159.911165 
L 638.951934 -161.304288 
L 638.755068 -162.410588 
L 638.556768 -163.258641 
L 638.357014 -163.888617 
L 638.155784 -164.343948 
L 637.953057 -164.665331 
L 637.748809 -164.887432 
L 637.543017 -165.037869 
L 637.335659 -165.137655 
L 637.12671 -165.202308 
z
" style="stroke: #797979; stroke-width: 1.5"/>
    </defs>
    <g clip-path="url(#p4513a77e68)">
     <use xlink:href="#m533e5f1a6e" x="0" y="216" style="fill: #aac7fd; stroke: #797979; stroke-width: 1.5"/>
    </g>
   </g>
   <g id="PolyCollection_2">
    <defs>
     <path id="m3d69669043" d="M 637.323155 -85.358207 
L 637.323155 -85.641793 
L 637.490022 -85.725154 
L 637.655873 -85.844361 
L 637.820721 -86.008022 
L 637.984576 -86.224194 
L 638.147451 -86.499696 
L 638.309359 -86.839808 
L 638.470309 -87.248568 
L 638.630314 -87.729712 
L 638.789384 -88.28801 
L 638.947531 -88.930499 
L 639.104764 -89.666974 
L 639.261096 -90.509228 
L 639.416534 -91.46889 
L 639.571091 -92.554255 
L 639.724776 -93.767074 
L 639.877598 -95.100546 
L 640.029568 -96.539661 
L 640.180694 -98.064375 
L 640.330986 -99.655018 
L 640.480454 -101.298183 
L 640.629106 -102.990523 
L 640.77695 -104.737965 
L 640.923997 -106.549017 
L 641.070254 -108.422945 
L 641.215729 -110.335957 
L 641.360432 -112.230135 
L 641.50437 -114.009958 
L 641.647551 -115.549435 
L 641.789984 -116.709699 
L 641.931675 -117.363427 
L 642.072633 -117.42 
L 642.212866 -116.844832 
L 642.35238 -115.667884 
L 642.491183 -113.979475 
L 642.629282 -111.914911 
L 642.766684 -109.632096 
L 642.903397 -107.287466 
L 643.039427 -105.01525 
L 643.174781 -102.913525 
L 643.309465 -101.038548 
L 643.443487 -99.406871 
L 643.576852 -98.003328 
L 643.709568 -96.792213 
L 643.84164 -95.728956 
L 643.973074 -94.770096 
L 644.103878 -93.880275 
L 644.234056 -93.03586 
L 644.363615 -92.225584 
L 644.49256 -91.449014 
L 644.620898 -90.713751 
L 644.748634 -90.032169 
L 644.875774 -89.418232 
L 645.002323 -88.884728 
L 645.128286 -88.441061 
L 645.25367 -88.091645 
L 645.378479 -87.834912 
L 645.502719 -87.662945 
L 645.626395 -87.561799 
L 645.749511 -87.512561 
L 645.872074 -87.49316 
L 645.994087 -87.480791 
L 646.115556 -87.454654 
L 646.236486 -87.398568 
L 646.356882 -87.30293 
L 646.476747 -87.165626 
L 646.596087 -86.991668 
L 646.714907 -86.791649 
L 646.83321 -86.579382 
L 646.951002 -86.369266 
L 647.068287 -86.173932 
L 647.185068 -86.002627 
L 647.301351 -85.860525 
L 647.41714 -85.748934 
L 647.532438 -85.666163 
L 647.647251 -85.608722 
L 647.761581 -85.572542 
L 647.875434 -85.553963 
L 647.988812 -85.550374 
L 648.101721 -85.560436 
L 648.214163 -85.583921 
L 648.326143 -85.621207 
L 648.437665 -85.672528 
L 648.548731 -85.737133 
L 648.659347 -85.812528 
L 648.769515 -85.894046 
L 648.879239 -85.974942 
L 648.988524 -86.047092 
L 649.097371 -86.102246 
L 649.205785 -86.133532 
L 649.313769 -86.136855 
L 649.421327 -86.111772 
L 649.528461 -86.061583 
L 649.635176 -85.992623 
L 649.741475 -85.912944 
L 649.84736 -85.830783 
L 649.952835 -85.753205 
L 650.057903 -85.685215 
L 650.162567 -85.629466 
L 650.266831 -85.586479 
L 650.266831 -85.413521 
L 650.266831 -85.413521 
L 650.162567 -85.370534 
L 650.057903 -85.314785 
L 649.952835 -85.246795 
L 649.84736 -85.169217 
L 649.741475 -85.087056 
L 649.635176 -85.007377 
L 649.528461 -84.938417 
L 649.421327 -84.888228 
L 649.313769 -84.863145 
L 649.205785 -84.866468 
L 649.097371 -84.897754 
L 648.988524 -84.952908 
L 648.879239 -85.025058 
L 648.769515 -85.105954 
L 648.659347 -85.187472 
L 648.548731 -85.262867 
L 648.437665 -85.327472 
L 648.326143 -85.378793 
L 648.214163 -85.416079 
L 648.101721 -85.439564 
L 647.988812 -85.449626 
L 647.875434 -85.446037 
L 647.761581 -85.427458 
L 647.647251 -85.391278 
L 647.532438 -85.333837 
L 647.41714 -85.251066 
L 647.301351 -85.139475 
L 647.185068 -84.997373 
L 647.068287 -84.826068 
L 646.951002 -84.630734 
L 646.83321 -84.420618 
L 646.714907 -84.208351 
L 646.596087 -84.008332 
L 646.476747 -83.834374 
L 646.356882 -83.69707 
L 646.236486 -83.601432 
L 646.115556 -83.545346 
L 645.994087 -83.519209 
L 645.872074 -83.50684 
L 645.749511 -83.487439 
L 645.626395 -83.438201 
L 645.502719 -83.337055 
L 645.378479 -83.165088 
L 645.25367 -82.908355 
L 645.128286 -82.558939 
L 645.002323 -82.115272 
L 644.875774 -81.581768 
L 644.748634 -80.967831 
L 644.620898 -80.286249 
L 644.49256 -79.550986 
L 644.363615 -78.774416 
L 644.234056 -77.96414 
L 644.103878 -77.119725 
L 643.973074 -76.229904 
L 643.84164 -75.271044 
L 643.709568 -74.207787 
L 643.576852 -72.996672 
L 643.443487 -71.593129 
L 643.309465 -69.961452 
L 643.174781 -68.086475 
L 643.039427 -65.98475 
L 642.903397 -63.712534 
L 642.766684 -61.367904 
L 642.629282 -59.085089 
L 642.491183 -57.020525 
L 642.35238 -55.332116 
L 642.212866 -54.155168 
L 642.072633 -53.58 
L 641.931675 -53.636573 
L 641.789984 -54.290301 
L 641.647551 -55.450565 
L 641.50437 -56.990042 
L 641.360432 -58.769865 
L 641.215729 -60.664043 
L 641.070254 -62.577055 
L 640.923997 -64.450983 
L 640.77695 -66.262035 
L 640.629106 -68.009477 
L 640.480454 -69.701817 
L 640.330986 -71.344982 
L 640.180694 -72.935625 
L 640.029568 -74.460339 
L 639.877598 -75.899454 
L 639.724776 -77.232926 
L 639.571091 -78.445745 
L 639.416534 -79.53111 
L 639.261096 -80.490772 
L 639.104764 -81.333026 
L 638.947531 -82.069501 
L 638.789384 -82.71199 
L 638.630314 -83.270288 
L 638.470309 -83.751432 
L 638.309359 -84.160192 
L 638.147451 -84.500304 
L 637.984576 -84.775806 
L 637.820721 -84.991978 
L 637.655873 -85.155639 
L 637.490022 -85.274846 
L 637.323155 -85.358207 
z
" style="stroke: #797979; stroke-width: 1.5"/>
    </defs>
    <g clip-path="url(#p4513a77e68)">
     <use xlink:href="#m3d69669043" x="0" y="216" style="fill: #f7b89c; stroke: #797979; stroke-width: 1.5"/>
    </g>
   </g>
   <g id="matplotlib.axis_3">
    <g id="xtick_2">
     <g id="line2d_2">
      <g>
       <use xlink:href="#m6b9a45fb4c" x="384.971081" y="170.4" style="stroke: #000000; stroke-width: 0.8"/>
      </g>
     </g>
     <g id="text_5">
      <!-- $\mathdefault{10^{-4}}$ -->
      <g transform="translate(373.221081 184.998437)scale(0.1 -0.1)">
       <defs>
        <path id="DejaVuSans-2212" d="M 678 2272 
L 4684 2272 
L 4684 1741 
L 678 1741 
L 678 2272 
z
" transform="scale(0.015625)"/>
       </defs>
       <use xlink:href="#DejaVuSans-31" transform="translate(0 0.684375)"/>
       <use xlink:href="#DejaVuSans-30" transform="translate(63.623047 0.684375)"/>
       <use xlink:href="#DejaVuSans-2212" transform="translate(128.203125 38.965625)scale(0.7)"/>
       <use xlink:href="#DejaVuSans-34" transform="translate(186.855469 38.965625)scale(0.7)"/>
      </g>
     </g>
    </g>
    <g id="xtick_3">
     <g id="line2d_3">
      <g>
       <use xlink:href="#m6b9a45fb4c" x="447.682648" y="170.4" style="stroke: #000000; stroke-width: 0.8"/>
      </g>
     </g>
     <g id="text_6">
      <!-- $\mathdefault{10^{-3}}$ -->
      <g transform="translate(435.932648 184.998437)scale(0.1 -0.1)">
       <defs>
        <path id="DejaVuSans-33" d="M 2597 2516 
Q 3050 2419 3304 2112 
Q 3559 1806 3559 1356 
Q 3559 666 3084 287 
Q 2609 -91 1734 -91 
Q 1441 -91 1130 -33 
Q 819 25 488 141 
L 488 750 
Q 750 597 1062 519 
Q 1375 441 1716 441 
Q 2309 441 2620 675 
Q 2931 909 2931 1356 
Q 2931 1769 2642 2001 
Q 2353 2234 1838 2234 
L 1294 2234 
L 1294 2753 
L 1863 2753 
Q 2328 2753 2575 2939 
Q 2822 3125 2822 3475 
Q 2822 3834 2567 4026 
Q 2313 4219 1838 4219 
Q 1578 4219 1281 4162 
Q 984 4106 628 3988 
L 628 4550 
Q 988 4650 1302 4700 
Q 1616 4750 1894 4750 
Q 2613 4750 3031 4423 
Q 3450 4097 3450 3541 
Q 3450 3153 3228 2886 
Q 3006 2619 2597 2516 
z
" transform="scale(0.015625)"/>
       </defs>
       <use xlink:href="#DejaVuSans-31" transform="translate(0 0.765625)"/>
       <use xlink:href="#DejaVuSans-30" transform="translate(63.623047 0.765625)"/>
       <use xlink:href="#DejaVuSans-2212" transform="translate(128.203125 39.046875)scale(0.7)"/>
       <use xlink:href="#DejaVuSans-33" transform="translate(186.855469 39.046875)scale(0.7)"/>
      </g>
     </g>
    </g>
    <g id="xtick_4">
     <g id="line2d_4">
      <g>
       <use xlink:href="#m6b9a45fb4c" x="510.394216" y="170.4" style="stroke: #000000; stroke-width: 0.8"/>
      </g>
     </g>
     <g id="text_7">
      <!-- $\mathdefault{10^{-2}}$ -->
      <g transform="translate(498.644216 184.998437)scale(0.1 -0.1)">
       <use xlink:href="#DejaVuSans-31" transform="translate(0 0.765625)"/>
       <use xlink:href="#DejaVuSans-30" transform="translate(63.623047 0.765625)"/>
       <use xlink:href="#DejaVuSans-2212" transform="translate(128.203125 39.046875)scale(0.7)"/>
       <use xlink:href="#DejaVuSans-32" transform="translate(186.855469 39.046875)scale(0.7)"/>
      </g>
     </g>
    </g>
    <g id="xtick_5">
     <g id="line2d_5">
      <g>
       <use xlink:href="#m6b9a45fb4c" x="573.105784" y="170.4" style="stroke: #000000; stroke-width: 0.8"/>
      </g>
     </g>
     <g id="text_8">
      <!-- $\mathdefault{10^{-1}}$ -->
      <g transform="translate(561.355784 184.998437)scale(0.1 -0.1)">
       <use xlink:href="#DejaVuSans-31" transform="translate(0 0.684375)"/>
       <use xlink:href="#DejaVuSans-30" transform="translate(63.623047 0.684375)"/>
       <use xlink:href="#DejaVuSans-2212" transform="translate(128.203125 38.965625)scale(0.7)"/>
       <use xlink:href="#DejaVuSans-31" transform="translate(186.855469 38.965625)scale(0.7)"/>
      </g>
     </g>
    </g>
    <g id="xtick_6">
     <g id="line2d_6">
      <g>
       <use xlink:href="#m6b9a45fb4c" x="635.817352" y="170.4" style="stroke: #000000; stroke-width: 0.8"/>
      </g>
     </g>
     <g id="text_9">
      <!-- $\mathdefault{10^{0}}$ -->
      <g transform="translate(627.017352 184.998437)scale(0.1 -0.1)">
       <use xlink:href="#DejaVuSans-31" transform="translate(0 0.765625)"/>
       <use xlink:href="#DejaVuSans-30" transform="translate(63.623047 0.765625)"/>
       <use xlink:href="#DejaVuSans-30" transform="translate(128.203125 39.046875)scale(0.7)"/>
      </g>
     </g>
    </g>
    <g id="xtick_7">
     <g id="line2d_7">
      <g>
       <use xlink:href="#m6b9a45fb4c" x="698.528919" y="170.4" style="stroke: #000000; stroke-width: 0.8"/>
      </g>
     </g>
     <g id="text_10">
      <!-- $\mathdefault{10^{1}}$ -->
      <g transform="translate(689.728919 184.998437)scale(0.1 -0.1)">
       <use xlink:href="#DejaVuSans-31" transform="translate(0 0.684375)"/>
       <use xlink:href="#DejaVuSans-30" transform="translate(63.623047 0.684375)"/>
       <use xlink:href="#DejaVuSans-31" transform="translate(128.203125 38.965625)scale(0.7)"/>
      </g>
     </g>
    </g>
    <g id="xtick_8">
     <g id="line2d_8">
      <defs>
       <path id="m9a394690ca" d="M 0 0 
L 0 2 
" style="stroke: #000000; stroke-width: 0.6"/>
      </defs>
      <g>
       <use xlink:href="#m9a394690ca" x="403.849144" y="170.4" style="stroke: #000000; stroke-width: 0.6"/>
      </g>
     </g>
    </g>
    <g id="xtick_9">
     <g id="line2d_9">
      <g>
       <use xlink:href="#m9a394690ca" x="414.892103" y="170.4" style="stroke: #000000; stroke-width: 0.6"/>
      </g>
     </g>
    </g>
    <g id="xtick_10">
     <g id="line2d_10">
      <g>
       <use xlink:href="#m9a394690ca" x="422.727207" y="170.4" style="stroke: #000000; stroke-width: 0.6"/>
      </g>
     </g>
    </g>
    <g id="xtick_11">
     <g id="line2d_11">
      <g>
       <use xlink:href="#m9a394690ca" x="428.804585" y="170.4" style="stroke: #000000; stroke-width: 0.6"/>
      </g>
     </g>
    </g>
    <g id="xtick_12">
     <g id="line2d_12">
      <g>
       <use xlink:href="#m9a394690ca" x="433.770166" y="170.4" style="stroke: #000000; stroke-width: 0.6"/>
      </g>
     </g>
    </g>
    <g id="xtick_13">
     <g id="line2d_13">
      <g>
       <use xlink:href="#m9a394690ca" x="437.968504" y="170.4" style="stroke: #000000; stroke-width: 0.6"/>
      </g>
     </g>
    </g>
    <g id="xtick_14">
     <g id="line2d_14">
      <g>
       <use xlink:href="#m9a394690ca" x="441.60527" y="170.4" style="stroke: #000000; stroke-width: 0.6"/>
      </g>
     </g>
    </g>
    <g id="xtick_15">
     <g id="line2d_15">
      <g>
       <use xlink:href="#m9a394690ca" x="444.813124" y="170.4" style="stroke: #000000; stroke-width: 0.6"/>
      </g>
     </g>
    </g>
    <g id="xtick_16">
     <g id="line2d_16">
      <g>
       <use xlink:href="#m9a394690ca" x="466.560711" y="170.4" style="stroke: #000000; stroke-width: 0.6"/>
      </g>
     </g>
    </g>
    <g id="xtick_17">
     <g id="line2d_17">
      <g>
       <use xlink:href="#m9a394690ca" x="477.60367" y="170.4" style="stroke: #000000; stroke-width: 0.6"/>
      </g>
     </g>
    </g>
    <g id="xtick_18">
     <g id="line2d_18">
      <g>
       <use xlink:href="#m9a394690ca" x="485.438774" y="170.4" style="stroke: #000000; stroke-width: 0.6"/>
      </g>
     </g>
    </g>
    <g id="xtick_19">
     <g id="line2d_19">
      <g>
       <use xlink:href="#m9a394690ca" x="491.516153" y="170.4" style="stroke: #000000; stroke-width: 0.6"/>
      </g>
     </g>
    </g>
    <g id="xtick_20">
     <g id="line2d_20">
      <g>
       <use xlink:href="#m9a394690ca" x="496.481733" y="170.4" style="stroke: #000000; stroke-width: 0.6"/>
      </g>
     </g>
    </g>
    <g id="xtick_21">
     <g id="line2d_21">
      <g>
       <use xlink:href="#m9a394690ca" x="500.680071" y="170.4" style="stroke: #000000; stroke-width: 0.6"/>
      </g>
     </g>
    </g>
    <g id="xtick_22">
     <g id="line2d_22">
      <g>
       <use xlink:href="#m9a394690ca" x="504.316837" y="170.4" style="stroke: #000000; stroke-width: 0.6"/>
      </g>
     </g>
    </g>
    <g id="xtick_23">
     <g id="line2d_23">
      <g>
       <use xlink:href="#m9a394690ca" x="507.524692" y="170.4" style="stroke: #000000; stroke-width: 0.6"/>
      </g>
     </g>
    </g>
    <g id="xtick_24">
     <g id="line2d_24">
      <g>
       <use xlink:href="#m9a394690ca" x="529.272279" y="170.4" style="stroke: #000000; stroke-width: 0.6"/>
      </g>
     </g>
    </g>
    <g id="xtick_25">
     <g id="line2d_25">
      <g>
       <use xlink:href="#m9a394690ca" x="540.315238" y="170.4" style="stroke: #000000; stroke-width: 0.6"/>
      </g>
     </g>
    </g>
    <g id="xtick_26">
     <g id="line2d_26">
      <g>
       <use xlink:href="#m9a394690ca" x="548.150342" y="170.4" style="stroke: #000000; stroke-width: 0.6"/>
      </g>
     </g>
    </g>
    <g id="xtick_27">
     <g id="line2d_27">
      <g>
       <use xlink:href="#m9a394690ca" x="554.227721" y="170.4" style="stroke: #000000; stroke-width: 0.6"/>
      </g>
     </g>
    </g>
    <g id="xtick_28">
     <g id="line2d_28">
      <g>
       <use xlink:href="#m9a394690ca" x="559.193301" y="170.4" style="stroke: #000000; stroke-width: 0.6"/>
      </g>
     </g>
    </g>
    <g id="xtick_29">
     <g id="line2d_29">
      <g>
       <use xlink:href="#m9a394690ca" x="563.391639" y="170.4" style="stroke: #000000; stroke-width: 0.6"/>
      </g>
     </g>
    </g>
    <g id="xtick_30">
     <g id="line2d_30">
      <g>
       <use xlink:href="#m9a394690ca" x="567.028405" y="170.4" style="stroke: #000000; stroke-width: 0.6"/>
      </g>
     </g>
    </g>
    <g id="xtick_31">
     <g id="line2d_31">
      <g>
       <use xlink:href="#m9a394690ca" x="570.23626" y="170.4" style="stroke: #000000; stroke-width: 0.6"/>
      </g>
     </g>
    </g>
    <g id="xtick_32">
     <g id="line2d_32">
      <g>
       <use xlink:href="#m9a394690ca" x="591.983847" y="170.4" style="stroke: #000000; stroke-width: 0.6"/>
      </g>
     </g>
    </g>
    <g id="xtick_33">
     <g id="line2d_33">
      <g>
       <use xlink:href="#m9a394690ca" x="603.026806" y="170.4" style="stroke: #000000; stroke-width: 0.6"/>
      </g>
     </g>
    </g>
    <g id="xtick_34">
     <g id="line2d_34">
      <g>
       <use xlink:href="#m9a394690ca" x="610.86191" y="170.4" style="stroke: #000000; stroke-width: 0.6"/>
      </g>
     </g>
    </g>
    <g id="xtick_35">
     <g id="line2d_35">
      <g>
       <use xlink:href="#m9a394690ca" x="616.939289" y="170.4" style="stroke: #000000; stroke-width: 0.6"/>
      </g>
     </g>
    </g>
    <g id="xtick_36">
     <g id="line2d_36">
      <g>
       <use xlink:href="#m9a394690ca" x="621.904869" y="170.4" style="stroke: #000000; stroke-width: 0.6"/>
      </g>
     </g>
    </g>
    <g id="xtick_37">
     <g id="line2d_37">
      <g>
       <use xlink:href="#m9a394690ca" x="626.103207" y="170.4" style="stroke: #000000; stroke-width: 0.6"/>
      </g>
     </g>
    </g>
    <g id="xtick_38">
     <g id="line2d_38">
      <g>
       <use xlink:href="#m9a394690ca" x="629.739973" y="170.4" style="stroke: #000000; stroke-width: 0.6"/>
      </g>
     </g>
    </g>
    <g id="xtick_39">
     <g id="line2d_39">
      <g>
       <use xlink:href="#m9a394690ca" x="632.947828" y="170.4" style="stroke: #000000; stroke-width: 0.6"/>
      </g>
     </g>
    </g>
    <g id="xtick_40">
     <g id="line2d_40">
      <g>
       <use xlink:href="#m9a394690ca" x="654.695415" y="170.4" style="stroke: #000000; stroke-width: 0.6"/>
      </g>
     </g>
    </g>
    <g id="xtick_41">
     <g id="line2d_41">
      <g>
       <use xlink:href="#m9a394690ca" x="665.738373" y="170.4" style="stroke: #000000; stroke-width: 0.6"/>
      </g>
     </g>
    </g>
    <g id="xtick_42">
     <g id="line2d_42">
      <g>
       <use xlink:href="#m9a394690ca" x="673.573477" y="170.4" style="stroke: #000000; stroke-width: 0.6"/>
      </g>
     </g>
    </g>
    <g id="xtick_43">
     <g id="line2d_43">
      <g>
       <use xlink:href="#m9a394690ca" x="679.650856" y="170.4" style="stroke: #000000; stroke-width: 0.6"/>
      </g>
     </g>
    </g>
    <g id="xtick_44">
     <g id="line2d_44">
      <g>
       <use xlink:href="#m9a394690ca" x="684.616436" y="170.4" style="stroke: #000000; stroke-width: 0.6"/>
      </g>
     </g>
    </g>
    <g id="xtick_45">
     <g id="line2d_45">
      <g>
       <use xlink:href="#m9a394690ca" x="688.814775" y="170.4" style="stroke: #000000; stroke-width: 0.6"/>
      </g>
     </g>
    </g>
    <g id="xtick_46">
     <g id="line2d_46">
      <g>
       <use xlink:href="#m9a394690ca" x="692.45154" y="170.4" style="stroke: #000000; stroke-width: 0.6"/>
      </g>
     </g>
    </g>
    <g id="xtick_47">
     <g id="line2d_47">
      <g>
       <use xlink:href="#m9a394690ca" x="695.659395" y="170.4" style="stroke: #000000; stroke-width: 0.6"/>
      </g>
     </g>
    </g>
    <g id="text_11">
     <!-- distribution of time to move (s) -->
     <g transform="translate(463.704687 198.676562)scale(0.1 -0.1)">
      <defs>
       <path id="DejaVuSans-73" d="M 2834 3397 
L 2834 2853 
Q 2591 2978 2328 3040 
Q 2066 3103 1784 3103 
Q 1356 3103 1142 2972 
Q 928 2841 928 2578 
Q 928 2378 1081 2264 
Q 1234 2150 1697 2047 
L 1894 2003 
Q 2506 1872 2764 1633 
Q 3022 1394 3022 966 
Q 3022 478 2636 193 
Q 2250 -91 1575 -91 
Q 1294 -91 989 -36 
Q 684 19 347 128 
L 347 722 
Q 666 556 975 473 
Q 1284 391 1588 391 
Q 1994 391 2212 530 
Q 2431 669 2431 922 
Q 2431 1156 2273 1281 
Q 2116 1406 1581 1522 
L 1381 1569 
Q 847 1681 609 1914 
Q 372 2147 372 2553 
Q 372 3047 722 3315 
Q 1072 3584 1716 3584 
Q 2034 3584 2315 3537 
Q 2597 3491 2834 3397 
z
" transform="scale(0.015625)"/>
       <path id="DejaVuSans-74" d="M 1172 4494 
L 1172 3500 
L 2356 3500 
L 2356 3053 
L 1172 3053 
L 1172 1153 
Q 1172 725 1289 603 
Q 1406 481 1766 481 
L 2356 481 
L 2356 0 
L 1766 0 
Q 1100 0 847 248 
Q 594 497 594 1153 
L 594 3053 
L 172 3053 
L 172 3500 
L 594 3500 
L 594 4494 
L 1172 4494 
z
" transform="scale(0.015625)"/>
       <path id="DejaVuSans-62" d="M 3116 1747 
Q 3116 2381 2855 2742 
Q 2594 3103 2138 3103 
Q 1681 3103 1420 2742 
Q 1159 2381 1159 1747 
Q 1159 1113 1420 752 
Q 1681 391 2138 391 
Q 2594 391 2855 752 
Q 3116 1113 3116 1747 
z
M 1159 2969 
Q 1341 3281 1617 3432 
Q 1894 3584 2278 3584 
Q 2916 3584 3314 3078 
Q 3713 2572 3713 1747 
Q 3713 922 3314 415 
Q 2916 -91 2278 -91 
Q 1894 -91 1617 61 
Q 1341 213 1159 525 
L 1159 0 
L 581 0 
L 581 4863 
L 1159 4863 
L 1159 2969 
z
" transform="scale(0.015625)"/>
       <path id="DejaVuSans-75" d="M 544 1381 
L 544 3500 
L 1119 3500 
L 1119 1403 
Q 1119 906 1312 657 
Q 1506 409 1894 409 
Q 2359 409 2629 706 
Q 2900 1003 2900 1516 
L 2900 3500 
L 3475 3500 
L 3475 0 
L 2900 0 
L 2900 538 
Q 2691 219 2414 64 
Q 2138 -91 1772 -91 
Q 1169 -91 856 284 
Q 544 659 544 1381 
z
M 1991 3584 
L 1991 3584 
z
" transform="scale(0.015625)"/>
       <path id="DejaVuSans-6f" d="M 1959 3097 
Q 1497 3097 1228 2736 
Q 959 2375 959 1747 
Q 959 1119 1226 758 
Q 1494 397 1959 397 
Q 2419 397 2687 759 
Q 2956 1122 2956 1747 
Q 2956 2369 2687 2733 
Q 2419 3097 1959 3097 
z
M 1959 3584 
Q 2709 3584 3137 3096 
Q 3566 2609 3566 1747 
Q 3566 888 3137 398 
Q 2709 -91 1959 -91 
Q 1206 -91 779 398 
Q 353 888 353 1747 
Q 353 2609 779 3096 
Q 1206 3584 1959 3584 
z
" transform="scale(0.015625)"/>
       <path id="DejaVuSans-66" d="M 2375 4863 
L 2375 4384 
L 1825 4384 
Q 1516 4384 1395 4259 
Q 1275 4134 1275 3809 
L 1275 3500 
L 2222 3500 
L 2222 3053 
L 1275 3053 
L 1275 0 
L 697 0 
L 697 3053 
L 147 3053 
L 147 3500 
L 697 3500 
L 697 3744 
Q 697 4328 969 4595 
Q 1241 4863 1831 4863 
L 2375 4863 
z
" transform="scale(0.015625)"/>
       <path id="DejaVuSans-6d" d="M 3328 2828 
Q 3544 3216 3844 3400 
Q 4144 3584 4550 3584 
Q 5097 3584 5394 3201 
Q 5691 2819 5691 2113 
L 5691 0 
L 5113 0 
L 5113 2094 
Q 5113 2597 4934 2840 
Q 4756 3084 4391 3084 
Q 3944 3084 3684 2787 
Q 3425 2491 3425 1978 
L 3425 0 
L 2847 0 
L 2847 2094 
Q 2847 2600 2669 2842 
Q 2491 3084 2119 3084 
Q 1678 3084 1418 2786 
Q 1159 2488 1159 1978 
L 1159 0 
L 581 0 
L 581 3500 
L 1159 3500 
L 1159 2956 
Q 1356 3278 1631 3431 
Q 1906 3584 2284 3584 
Q 2666 3584 2933 3390 
Q 3200 3197 3328 2828 
z
" transform="scale(0.015625)"/>
       <path id="DejaVuSans-76" d="M 191 3500 
L 800 3500 
L 1894 563 
L 2988 3500 
L 3597 3500 
L 2284 0 
L 1503 0 
L 191 3500 
z
" transform="scale(0.015625)"/>
       <path id="DejaVuSans-28" d="M 1984 4856 
Q 1566 4138 1362 3434 
Q 1159 2731 1159 2009 
Q 1159 1288 1364 580 
Q 1569 -128 1984 -844 
L 1484 -844 
Q 1016 -109 783 600 
Q 550 1309 550 2009 
Q 550 2706 781 3412 
Q 1013 4119 1484 4856 
L 1984 4856 
z
" transform="scale(0.015625)"/>
       <path id="DejaVuSans-29" d="M 513 4856 
L 1013 4856 
Q 1481 4119 1714 3412 
Q 1947 2706 1947 2009 
Q 1947 1309 1714 600 
Q 1481 -109 1013 -844 
L 513 -844 
Q 928 -128 1133 580 
Q 1338 1288 1338 2009 
Q 1338 2731 1133 3434 
Q 928 4138 513 4856 
z
" transform="scale(0.015625)"/>
      </defs>
      <use xlink:href="#DejaVuSans-64"/>
      <use xlink:href="#DejaVuSans-69" x="63.476562"/>
      <use xlink:href="#DejaVuSans-73" x="91.259766"/>
      <use xlink:href="#DejaVuSans-74" x="143.359375"/>
      <use xlink:href="#DejaVuSans-72" x="182.568359"/>
      <use xlink:href="#DejaVuSans-69" x="223.681641"/>
      <use xlink:href="#DejaVuSans-62" x="251.464844"/>
      <use xlink:href="#DejaVuSans-75" x="314.941406"/>
      <use xlink:href="#DejaVuSans-74" x="378.320312"/>
      <use xlink:href="#DejaVuSans-69" x="417.529297"/>
      <use xlink:href="#DejaVuSans-6f" x="445.3125"/>
      <use xlink:href="#DejaVuSans-6e" x="506.494141"/>
      <use xlink:href="#DejaVuSans-20" x="569.873047"/>
      <use xlink:href="#DejaVuSans-6f" x="601.660156"/>
      <use xlink:href="#DejaVuSans-66" x="662.841797"/>
      <use xlink:href="#DejaVuSans-20" x="698.046875"/>
      <use xlink:href="#DejaVuSans-74" x="729.833984"/>
      <use xlink:href="#DejaVuSans-69" x="769.042969"/>
      <use xlink:href="#DejaVuSans-6d" x="796.826172"/>
      <use xlink:href="#DejaVuSans-65" x="894.238281"/>
      <use xlink:href="#DejaVuSans-20" x="955.761719"/>
      <use xlink:href="#DejaVuSans-74" x="987.548828"/>
      <use xlink:href="#DejaVuSans-6f" x="1026.757812"/>
      <use xlink:href="#DejaVuSans-20" x="1087.939453"/>
      <use xlink:href="#DejaVuSans-6d" x="1119.726562"/>
      <use xlink:href="#DejaVuSans-6f" x="1217.138672"/>
      <use xlink:href="#DejaVuSans-76" x="1278.320312"/>
      <use xlink:href="#DejaVuSans-65" x="1337.5"/>
      <use xlink:href="#DejaVuSans-20" x="1399.023438"/>
      <use xlink:href="#DejaVuSans-28" x="1430.810547"/>
      <use xlink:href="#DejaVuSans-73" x="1469.824219"/>
      <use xlink:href="#DejaVuSans-29" x="1521.923828"/>
     </g>
    </g>
   </g>
   <g id="matplotlib.axis_4">
    <g id="ytick_1">
     <g id="line2d_48">
      <defs>
       <path id="me88e98d4f4" d="M 0 0 
L -3.5 0 
" style="stroke: #000000; stroke-width: 0.8"/>
      </defs>
      <g>
       <use xlink:href="#me88e98d4f4" x="384.971081" y="50.7" style="stroke: #000000; stroke-width: 0.8"/>
      </g>
     </g>
     <g id="text_12">
      <!-- az_100_1-10-01 -->
      <g transform="translate(375.613268 126.48125)rotate(-90)scale(0.1 -0.1)">
       <use xlink:href="#DejaVuSans-61"/>
       <use xlink:href="#DejaVuSans-7a" x="61.279297"/>
       <use xlink:href="#DejaVuSans-5f" x="113.769531"/>
       <use xlink:href="#DejaVuSans-31" x="163.769531"/>
       <use xlink:href="#DejaVuSans-30" x="227.392578"/>
       <use xlink:href="#DejaVuSans-30" x="291.015625"/>
       <use xlink:href="#DejaVuSans-5f" x="354.638672"/>
       <use xlink:href="#DejaVuSans-31" x="404.638672"/>
       <use xlink:href="#DejaVuSans-2d" x="468.261719"/>
       <use xlink:href="#DejaVuSans-31" x="504.345703"/>
       <use xlink:href="#DejaVuSans-30" x="567.96875"/>
       <use xlink:href="#DejaVuSans-2d" x="631.591797"/>
       <use xlink:href="#DejaVuSans-30" x="667.675781"/>
       <use xlink:href="#DejaVuSans-31" x="731.298828"/>
      </g>
     </g>
    </g>
    <g id="ytick_2">
     <g id="line2d_49">
      <g>
       <use xlink:href="#me88e98d4f4" x="384.971081" y="130.5" style="stroke: #000000; stroke-width: 0.8"/>
      </g>
     </g>
     <g id="text_13">
      <!-- az_100_01-0-01 -->
      <g transform="translate(375.613268 206.28125)rotate(-90)scale(0.1 -0.1)">
       <use xlink:href="#DejaVuSans-61"/>
       <use xlink:href="#DejaVuSans-7a" x="61.279297"/>
       <use xlink:href="#DejaVuSans-5f" x="113.769531"/>
       <use xlink:href="#DejaVuSans-31" x="163.769531"/>
       <use xlink:href="#DejaVuSans-30" x="227.392578"/>
       <use xlink:href="#DejaVuSans-30" x="291.015625"/>
       <use xlink:href="#DejaVuSans-5f" x="354.638672"/>
       <use xlink:href="#DejaVuSans-30" x="404.638672"/>
       <use xlink:href="#DejaVuSans-31" x="468.261719"/>
       <use xlink:href="#DejaVuSans-2d" x="531.884766"/>
       <use xlink:href="#DejaVuSans-30" x="567.96875"/>
       <use xlink:href="#DejaVuSans-2d" x="631.591797"/>
       <use xlink:href="#DejaVuSans-30" x="667.675781"/>
       <use xlink:href="#DejaVuSans-31" x="731.298828"/>
      </g>
     </g>
    </g>
    <g id="text_14">
     <!-- player -->
     <g transform="translate(362.111706 106.31875)rotate(-90)scale(0.1 -0.1)">
      <defs>
       <path id="DejaVuSans-70" d="M 1159 525 
L 1159 -1331 
L 581 -1331 
L 581 3500 
L 1159 3500 
L 1159 2969 
Q 1341 3281 1617 3432 
Q 1894 3584 2278 3584 
Q 2916 3584 3314 3078 
Q 3713 2572 3713 1747 
Q 3713 922 3314 415 
Q 2916 -91 2278 -91 
Q 1894 -91 1617 61 
Q 1341 213 1159 525 
z
M 3116 1747 
Q 3116 2381 2855 2742 
Q 2594 3103 2138 3103 
Q 1681 3103 1420 2742 
Q 1159 2381 1159 1747 
Q 1159 1113 1420 752 
Q 1681 391 2138 391 
Q 2594 391 2855 752 
Q 3116 1113 3116 1747 
z
" transform="scale(0.015625)"/>
       <path id="DejaVuSans-6c" d="M 603 4863 
L 1178 4863 
L 1178 0 
L 603 0 
L 603 4863 
z
" transform="scale(0.015625)"/>
       <path id="DejaVuSans-79" d="M 2059 -325 
Q 1816 -950 1584 -1140 
Q 1353 -1331 966 -1331 
L 506 -1331 
L 506 -850 
L 844 -850 
Q 1081 -850 1212 -737 
Q 1344 -625 1503 -206 
L 1606 56 
L 191 3500 
L 800 3500 
L 1894 763 
L 2988 3500 
L 3597 3500 
L 2059 -325 
z
" transform="scale(0.015625)"/>
      </defs>
      <use xlink:href="#DejaVuSans-70"/>
      <use xlink:href="#DejaVuSans-6c" x="63.476562"/>
      <use xlink:href="#DejaVuSans-61" x="91.259766"/>
      <use xlink:href="#DejaVuSans-79" x="152.539062"/>
      <use xlink:href="#DejaVuSans-65" x="211.71875"/>
      <use xlink:href="#DejaVuSans-72" x="273.242188"/>
     </g>
    </g>
   </g>
   <g id="line2d_50">
    <path d="M 638.937914 50.7 
L 645.215649 50.7 
" clip-path="url(#p4513a77e68)" style="fill: none; stroke: #797979; stroke-width: 1.5; stroke-linecap: square"/>
   </g>
   <g id="line2d_51">
    <path d="M 640.846407 50.7 
L 642.759466 50.7 
" clip-path="url(#p4513a77e68)" style="fill: none; stroke: #797979; stroke-width: 4.5; stroke-linecap: square"/>
   </g>
   <g id="line2d_52">
    <path d="M 639.254228 130.5 
L 644.711476 130.5 
" clip-path="url(#p4513a77e68)" style="fill: none; stroke: #797979; stroke-width: 1.5; stroke-linecap: square"/>
   </g>
   <g id="line2d_53">
    <path d="M 641.403357 130.5 
L 642.832189 130.5 
" clip-path="url(#p4513a77e68)" style="fill: none; stroke: #797979; stroke-width: 4.5; stroke-linecap: square"/>
   </g>
   <g id="patch_12">
    <path d="M 384.971081 170.4 
L 384.971081 10.8 
" style="fill: none; stroke: #000000; stroke-width: 0.8; stroke-linejoin: miter; stroke-linecap: square"/>
   </g>
   <g id="patch_13">
    <path d="M 698.528919 170.4 
L 698.528919 10.8 
" style="fill: none; stroke: #000000; stroke-width: 0.8; stroke-linejoin: miter; stroke-linecap: square"/>
   </g>
   <g id="patch_14">
    <path d="M 384.971081 170.4 
L 698.528919 170.4 
" style="fill: none; stroke: #000000; stroke-width: 0.8; stroke-linejoin: miter; stroke-linecap: square"/>
   </g>
   <g id="patch_15">
    <path d="M 384.971081 10.8 
L 698.528919 10.8 
" style="fill: none; stroke: #000000; stroke-width: 0.8; stroke-linejoin: miter; stroke-linecap: square"/>
   </g>
   <g id="PathCollection_1">
    <defs>
     <path id="m9ff50c598c" d="M 0 1.5 
C 0.397805 1.5 0.77937 1.341951 1.06066 1.06066 
C 1.341951 0.77937 1.5 0.397805 1.5 0 
C 1.5 -0.397805 1.341951 -0.77937 1.06066 -1.06066 
C 0.77937 -1.341951 0.397805 -1.5 0 -1.5 
C -0.397805 -1.5 -0.77937 -1.341951 -1.06066 -1.06066 
C -1.341951 -0.77937 -1.5 -0.397805 -1.5 0 
C -1.5 0.397805 -1.341951 0.77937 -1.06066 1.06066 
C -0.77937 1.341951 -0.397805 1.5 0 1.5 
z
" style="stroke: #797979"/>
    </defs>
    <g clip-path="url(#p4513a77e68)">
     <use xlink:href="#m9ff50c598c" x="641.892551" y="50.7" style="fill: #ffffff; stroke: #797979"/>
    </g>
   </g>
   <g id="PathCollection_2">
    <g clip-path="url(#p4513a77e68)">
     <use xlink:href="#m9ff50c598c" x="642.058737" y="130.5" style="fill: #ffffff; stroke: #797979"/>
    </g>
   </g>
  </g>
  <g id="axes_3">
   <g id="patch_16">
    <path d="M 755.642161 170.4 
L 1069.2 170.4 
L 1069.2 10.8 
L 755.642161 10.8 
z
" style="fill: #ffffff"/>
   </g>
   <g id="patch_17">
    <path d="M 964.68072 170.4 
L 967.111401 170.4 
L 967.111401 168.09697 
L 964.68072 168.09697 
z
" clip-path="url(#p9d110293d8)" style="fill: #1f77b4; fill-opacity: 0.75; stroke: #000000; stroke-width: 0.520458; stroke-linejoin: miter"/>
   </g>
   <g id="patch_18">
    <path d="M 967.111401 170.4 
L 969.542082 170.4 
L 969.542082 170.4 
L 967.111401 170.4 
z
" clip-path="url(#p9d110293d8)" style="fill: #1f77b4; fill-opacity: 0.75; stroke: #000000; stroke-width: 0.520458; stroke-linejoin: miter"/>
   </g>
   <g id="patch_19">
    <path d="M 969.542082 170.4 
L 971.972763 170.4 
L 971.972763 170.4 
L 969.542082 170.4 
z
" clip-path="url(#p9d110293d8)" style="fill: #1f77b4; fill-opacity: 0.75; stroke: #000000; stroke-width: 0.520458; stroke-linejoin: miter"/>
   </g>
   <g id="patch_20">
    <path d="M 971.972763 170.4 
L 974.403444 170.4 
L 974.403444 170.4 
L 971.972763 170.4 
z
" clip-path="url(#p9d110293d8)" style="fill: #1f77b4; fill-opacity: 0.75; stroke: #000000; stroke-width: 0.520458; stroke-linejoin: miter"/>
   </g>
   <g id="patch_21">
    <path d="M 974.403444 170.4 
L 976.834125 170.4 
L 976.834125 170.4 
L 974.403444 170.4 
z
" clip-path="url(#p9d110293d8)" style="fill: #1f77b4; fill-opacity: 0.75; stroke: #000000; stroke-width: 0.520458; stroke-linejoin: miter"/>
   </g>
   <g id="patch_22">
    <path d="M 976.834125 170.4 
L 979.264806 170.4 
L 979.264806 170.4 
L 976.834125 170.4 
z
" clip-path="url(#p9d110293d8)" style="fill: #1f77b4; fill-opacity: 0.75; stroke: #000000; stroke-width: 0.520458; stroke-linejoin: miter"/>
   </g>
   <g id="patch_23">
    <path d="M 979.264806 170.4 
L 981.695487 170.4 
L 981.695487 170.4 
L 979.264806 170.4 
z
" clip-path="url(#p9d110293d8)" style="fill: #1f77b4; fill-opacity: 0.75; stroke: #000000; stroke-width: 0.520458; stroke-linejoin: miter"/>
   </g>
   <g id="patch_24">
    <path d="M 981.695487 170.4 
L 984.126168 170.4 
L 984.126168 170.4 
L 981.695487 170.4 
z
" clip-path="url(#p9d110293d8)" style="fill: #1f77b4; fill-opacity: 0.75; stroke: #000000; stroke-width: 0.520458; stroke-linejoin: miter"/>
   </g>
   <g id="patch_25">
    <path d="M 984.126168 170.4 
L 986.556849 170.4 
L 986.556849 170.4 
L 984.126168 170.4 
z
" clip-path="url(#p9d110293d8)" style="fill: #1f77b4; fill-opacity: 0.75; stroke: #000000; stroke-width: 0.520458; stroke-linejoin: miter"/>
   </g>
   <g id="patch_26">
    <path d="M 986.556849 170.4 
L 988.98753 170.4 
L 988.98753 170.4 
L 986.556849 170.4 
z
" clip-path="url(#p9d110293d8)" style="fill: #1f77b4; fill-opacity: 0.75; stroke: #000000; stroke-width: 0.520458; stroke-linejoin: miter"/>
   </g>
   <g id="patch_27">
    <path d="M 988.98753 170.4 
L 991.418211 170.4 
L 991.418211 170.4 
L 988.98753 170.4 
z
" clip-path="url(#p9d110293d8)" style="fill: #1f77b4; fill-opacity: 0.75; stroke: #000000; stroke-width: 0.520458; stroke-linejoin: miter"/>
   </g>
   <g id="patch_28">
    <path d="M 991.418211 170.4 
L 993.848892 170.4 
L 993.848892 170.4 
L 991.418211 170.4 
z
" clip-path="url(#p9d110293d8)" style="fill: #1f77b4; fill-opacity: 0.75; stroke: #000000; stroke-width: 0.520458; stroke-linejoin: miter"/>
   </g>
   <g id="patch_29">
    <path d="M 993.848892 170.4 
L 996.279572 170.4 
L 996.279572 170.4 
L 993.848892 170.4 
z
" clip-path="url(#p9d110293d8)" style="fill: #1f77b4; fill-opacity: 0.75; stroke: #000000; stroke-width: 0.520458; stroke-linejoin: miter"/>
   </g>
   <g id="patch_30">
    <path d="M 996.279572 170.4 
L 998.710253 170.4 
L 998.710253 170.4 
L 996.279572 170.4 
z
" clip-path="url(#p9d110293d8)" style="fill: #1f77b4; fill-opacity: 0.75; stroke: #000000; stroke-width: 0.520458; stroke-linejoin: miter"/>
   </g>
   <g id="patch_31">
    <path d="M 998.710253 170.4 
L 1001.140934 170.4 
L 1001.140934 170.4 
L 998.710253 170.4 
z
" clip-path="url(#p9d110293d8)" style="fill: #1f77b4; fill-opacity: 0.75; stroke: #000000; stroke-width: 0.520458; stroke-linejoin: miter"/>
   </g>
   <g id="patch_32">
    <path d="M 1001.140934 170.4 
L 1003.571615 170.4 
L 1003.571615 170.4 
L 1001.140934 170.4 
z
" clip-path="url(#p9d110293d8)" style="fill: #1f77b4; fill-opacity: 0.75; stroke: #000000; stroke-width: 0.520458; stroke-linejoin: miter"/>
   </g>
   <g id="patch_33">
    <path d="M 1003.571615 170.4 
L 1006.002296 170.4 
L 1006.002296 170.4 
L 1003.571615 170.4 
z
" clip-path="url(#p9d110293d8)" style="fill: #1f77b4; fill-opacity: 0.75; stroke: #000000; stroke-width: 0.520458; stroke-linejoin: miter"/>
   </g>
   <g id="patch_34">
    <path d="M 1006.002296 170.4 
L 1008.432977 170.4 
L 1008.432977 170.4 
L 1006.002296 170.4 
z
" clip-path="url(#p9d110293d8)" style="fill: #1f77b4; fill-opacity: 0.75; stroke: #000000; stroke-width: 0.520458; stroke-linejoin: miter"/>
   </g>
   <g id="patch_35">
    <path d="M 1008.432977 170.4 
L 1010.863658 170.4 
L 1010.863658 170.4 
L 1008.432977 170.4 
z
" clip-path="url(#p9d110293d8)" style="fill: #1f77b4; fill-opacity: 0.75; stroke: #000000; stroke-width: 0.520458; stroke-linejoin: miter"/>
   </g>
   <g id="patch_36">
    <path d="M 1010.863658 170.4 
L 1013.294339 170.4 
L 1013.294339 170.4 
L 1010.863658 170.4 
z
" clip-path="url(#p9d110293d8)" style="fill: #1f77b4; fill-opacity: 0.75; stroke: #000000; stroke-width: 0.520458; stroke-linejoin: miter"/>
   </g>
   <g id="patch_37">
    <path d="M 1013.294339 170.4 
L 1015.72502 170.4 
L 1015.72502 170.4 
L 1013.294339 170.4 
z
" clip-path="url(#p9d110293d8)" style="fill: #1f77b4; fill-opacity: 0.75; stroke: #000000; stroke-width: 0.520458; stroke-linejoin: miter"/>
   </g>
   <g id="patch_38">
    <path d="M 1015.72502 170.4 
L 1018.155701 170.4 
L 1018.155701 170.4 
L 1015.72502 170.4 
z
" clip-path="url(#p9d110293d8)" style="fill: #1f77b4; fill-opacity: 0.75; stroke: #000000; stroke-width: 0.520458; stroke-linejoin: miter"/>
   </g>
   <g id="patch_39">
    <path d="M 1018.155701 170.4 
L 1020.586382 170.4 
L 1020.586382 170.4 
L 1018.155701 170.4 
z
" clip-path="url(#p9d110293d8)" style="fill: #1f77b4; fill-opacity: 0.75; stroke: #000000; stroke-width: 0.520458; stroke-linejoin: miter"/>
   </g>
   <g id="patch_40">
    <path d="M 1020.586382 170.4 
L 1023.017063 170.4 
L 1023.017063 170.4 
L 1020.586382 170.4 
z
" clip-path="url(#p9d110293d8)" style="fill: #1f77b4; fill-opacity: 0.75; stroke: #000000; stroke-width: 0.520458; stroke-linejoin: miter"/>
   </g>
   <g id="patch_41">
    <path d="M 1023.017063 170.4 
L 1025.447743 170.4 
L 1025.447743 170.4 
L 1023.017063 170.4 
z
" clip-path="url(#p9d110293d8)" style="fill: #1f77b4; fill-opacity: 0.75; stroke: #000000; stroke-width: 0.520458; stroke-linejoin: miter"/>
   </g>
   <g id="patch_42">
    <path d="M 1025.447743 170.4 
L 1027.878424 170.4 
L 1027.878424 170.4 
L 1025.447743 170.4 
z
" clip-path="url(#p9d110293d8)" style="fill: #1f77b4; fill-opacity: 0.75; stroke: #000000; stroke-width: 0.520458; stroke-linejoin: miter"/>
   </g>
   <g id="patch_43">
    <path d="M 1027.878424 170.4 
L 1030.309105 170.4 
L 1030.309105 170.4 
L 1027.878424 170.4 
z
" clip-path="url(#p9d110293d8)" style="fill: #1f77b4; fill-opacity: 0.75; stroke: #000000; stroke-width: 0.520458; stroke-linejoin: miter"/>
   </g>
   <g id="patch_44">
    <path d="M 1030.309105 170.4 
L 1032.739786 170.4 
L 1032.739786 170.4 
L 1030.309105 170.4 
z
" clip-path="url(#p9d110293d8)" style="fill: #1f77b4; fill-opacity: 0.75; stroke: #000000; stroke-width: 0.520458; stroke-linejoin: miter"/>
   </g>
   <g id="patch_45">
    <path d="M 1032.739786 170.4 
L 1035.170467 170.4 
L 1035.170467 170.4 
L 1032.739786 170.4 
z
" clip-path="url(#p9d110293d8)" style="fill: #1f77b4; fill-opacity: 0.75; stroke: #000000; stroke-width: 0.520458; stroke-linejoin: miter"/>
   </g>
   <g id="patch_46">
    <path d="M 1035.170467 170.4 
L 1037.601148 170.4 
L 1037.601148 170.4 
L 1035.170467 170.4 
z
" clip-path="url(#p9d110293d8)" style="fill: #1f77b4; fill-opacity: 0.75; stroke: #000000; stroke-width: 0.520458; stroke-linejoin: miter"/>
   </g>
   <g id="patch_47">
    <path d="M 1037.601148 170.4 
L 1040.031829 170.4 
L 1040.031829 18.4 
L 1037.601148 18.4 
z
" clip-path="url(#p9d110293d8)" style="fill: #1f77b4; fill-opacity: 0.75; stroke: #000000; stroke-width: 0.520458; stroke-linejoin: miter"/>
   </g>
   <g id="patch_48">
    <path d="M 1040.031829 170.4 
L 1042.46251 170.4 
L 1042.46251 170.4 
L 1040.031829 170.4 
z
" clip-path="url(#p9d110293d8)" style="fill: #1f77b4; fill-opacity: 0.75; stroke: #000000; stroke-width: 0.520458; stroke-linejoin: miter"/>
   </g>
   <g id="patch_49">
    <path d="M 1042.46251 170.4 
L 1044.893191 170.4 
L 1044.893191 170.4 
L 1042.46251 170.4 
z
" clip-path="url(#p9d110293d8)" style="fill: #1f77b4; fill-opacity: 0.75; stroke: #000000; stroke-width: 0.520458; stroke-linejoin: miter"/>
   </g>
   <g id="patch_50">
    <path d="M 1044.893191 170.4 
L 1047.323872 170.4 
L 1047.323872 96.70303 
L 1044.893191 96.70303 
z
" clip-path="url(#p9d110293d8)" style="fill: #1f77b4; fill-opacity: 0.75; stroke: #000000; stroke-width: 0.520458; stroke-linejoin: miter"/>
   </g>
   <g id="patch_51">
    <path d="M 1047.323872 170.4 
L 1049.754553 170.4 
L 1049.754553 170.4 
L 1047.323872 170.4 
z
" clip-path="url(#p9d110293d8)" style="fill: #1f77b4; fill-opacity: 0.75; stroke: #000000; stroke-width: 0.520458; stroke-linejoin: miter"/>
   </g>
   <g id="patch_52">
    <path d="M 1049.754553 170.4 
L 1052.185234 170.4 
L 1052.185234 170.4 
L 1049.754553 170.4 
z
" clip-path="url(#p9d110293d8)" style="fill: #1f77b4; fill-opacity: 0.75; stroke: #000000; stroke-width: 0.520458; stroke-linejoin: miter"/>
   </g>
   <g id="patch_53">
    <path d="M 1052.185234 170.4 
L 1054.615914 170.4 
L 1054.615914 170.4 
L 1052.185234 170.4 
z
" clip-path="url(#p9d110293d8)" style="fill: #1f77b4; fill-opacity: 0.75; stroke: #000000; stroke-width: 0.520458; stroke-linejoin: miter"/>
   </g>
   <g id="patch_54">
    <path d="M 1054.615914 170.4 
L 1057.046595 170.4 
L 1057.046595 170.4 
L 1054.615914 170.4 
z
" clip-path="url(#p9d110293d8)" style="fill: #1f77b4; fill-opacity: 0.75; stroke: #000000; stroke-width: 0.520458; stroke-linejoin: miter"/>
   </g>
   <g id="patch_55">
    <path d="M 1057.046595 170.4 
L 1059.477276 170.4 
L 1059.477276 170.4 
L 1057.046595 170.4 
z
" clip-path="url(#p9d110293d8)" style="fill: #1f77b4; fill-opacity: 0.75; stroke: #000000; stroke-width: 0.520458; stroke-linejoin: miter"/>
   </g>
   <g id="patch_56">
    <path d="M 1059.477276 170.4 
L 1061.907957 170.4 
L 1061.907957 170.4 
L 1059.477276 170.4 
z
" clip-path="url(#p9d110293d8)" style="fill: #1f77b4; fill-opacity: 0.75; stroke: #000000; stroke-width: 0.520458; stroke-linejoin: miter"/>
   </g>
   <g id="patch_57">
    <path d="M 1061.907957 170.4 
L 1064.338638 170.4 
L 1064.338638 170.4 
L 1061.907957 170.4 
z
" clip-path="url(#p9d110293d8)" style="fill: #1f77b4; fill-opacity: 0.75; stroke: #000000; stroke-width: 0.520458; stroke-linejoin: miter"/>
   </g>
   <g id="patch_58">
    <path d="M 1064.338638 170.4 
L 1066.769319 170.4 
L 1066.769319 170.4 
L 1064.338638 170.4 
z
" clip-path="url(#p9d110293d8)" style="fill: #1f77b4; fill-opacity: 0.75; stroke: #000000; stroke-width: 0.520458; stroke-linejoin: miter"/>
   </g>
   <g id="patch_59">
    <path d="M 1066.769319 170.4 
L 1069.2 170.4 
L 1069.2 168.09697 
L 1066.769319 168.09697 
z
" clip-path="url(#p9d110293d8)" style="fill: #1f77b4; fill-opacity: 0.75; stroke: #000000; stroke-width: 0.520458; stroke-linejoin: miter"/>
   </g>
   <g id="matplotlib.axis_5">
    <g id="xtick_48">
     <g id="line2d_54">
      <g>
       <use xlink:href="#m6b9a45fb4c" x="755.642161" y="170.4" style="stroke: #000000; stroke-width: 0.8"/>
      </g>
     </g>
     <g id="text_15">
      <!-- 0 -->
      <g transform="translate(752.460911 184.998437)scale(0.1 -0.1)">
       <use xlink:href="#DejaVuSans-30"/>
      </g>
     </g>
    </g>
    <g id="xtick_49">
     <g id="line2d_55">
      <g>
       <use xlink:href="#m6b9a45fb4c" x="792.970476" y="170.4" style="stroke: #000000; stroke-width: 0.8"/>
      </g>
     </g>
     <g id="text_16">
      <!-- 5 -->
      <g transform="translate(789.789226 184.998437)scale(0.1 -0.1)">
       <use xlink:href="#DejaVuSans-35"/>
      </g>
     </g>
    </g>
    <g id="xtick_50">
     <g id="line2d_56">
      <g>
       <use xlink:href="#m6b9a45fb4c" x="830.29879" y="170.4" style="stroke: #000000; stroke-width: 0.8"/>
      </g>
     </g>
     <g id="text_17">
      <!-- 10 -->
      <g transform="translate(823.93629 184.998437)scale(0.1 -0.1)">
       <use xlink:href="#DejaVuSans-31"/>
       <use xlink:href="#DejaVuSans-30" x="63.623047"/>
      </g>
     </g>
    </g>
    <g id="xtick_51">
     <g id="line2d_57">
      <g>
       <use xlink:href="#m6b9a45fb4c" x="867.627104" y="170.4" style="stroke: #000000; stroke-width: 0.8"/>
      </g>
     </g>
     <g id="text_18">
      <!-- 15 -->
      <g transform="translate(861.264604 184.998437)scale(0.1 -0.1)">
       <use xlink:href="#DejaVuSans-31"/>
       <use xlink:href="#DejaVuSans-35" x="63.623047"/>
      </g>
     </g>
    </g>
    <g id="xtick_52">
     <g id="line2d_58">
      <g>
       <use xlink:href="#m6b9a45fb4c" x="904.955418" y="170.4" style="stroke: #000000; stroke-width: 0.8"/>
      </g>
     </g>
     <g id="text_19">
      <!-- 20 -->
      <g transform="translate(898.592918 184.998437)scale(0.1 -0.1)">
       <use xlink:href="#DejaVuSans-32"/>
       <use xlink:href="#DejaVuSans-30" x="63.623047"/>
      </g>
     </g>
    </g>
    <g id="xtick_53">
     <g id="line2d_59">
      <g>
       <use xlink:href="#m6b9a45fb4c" x="942.283732" y="170.4" style="stroke: #000000; stroke-width: 0.8"/>
      </g>
     </g>
     <g id="text_20">
      <!-- 25 -->
      <g transform="translate(935.921232 184.998437)scale(0.1 -0.1)">
       <use xlink:href="#DejaVuSans-32"/>
       <use xlink:href="#DejaVuSans-35" x="63.623047"/>
      </g>
     </g>
    </g>
    <g id="xtick_54">
     <g id="line2d_60">
      <g>
       <use xlink:href="#m6b9a45fb4c" x="979.612046" y="170.4" style="stroke: #000000; stroke-width: 0.8"/>
      </g>
     </g>
     <g id="text_21">
      <!-- 30 -->
      <g transform="translate(973.249546 184.998437)scale(0.1 -0.1)">
       <use xlink:href="#DejaVuSans-33"/>
       <use xlink:href="#DejaVuSans-30" x="63.623047"/>
      </g>
     </g>
    </g>
    <g id="xtick_55">
     <g id="line2d_61">
      <g>
       <use xlink:href="#m6b9a45fb4c" x="1016.94036" y="170.4" style="stroke: #000000; stroke-width: 0.8"/>
      </g>
     </g>
     <g id="text_22">
      <!-- 35 -->
      <g transform="translate(1010.57786 184.998437)scale(0.1 -0.1)">
       <use xlink:href="#DejaVuSans-33"/>
       <use xlink:href="#DejaVuSans-35" x="63.623047"/>
      </g>
     </g>
    </g>
    <g id="xtick_56">
     <g id="line2d_62">
      <g>
       <use xlink:href="#m6b9a45fb4c" x="1054.268674" y="170.4" style="stroke: #000000; stroke-width: 0.8"/>
      </g>
     </g>
     <g id="text_23">
      <!-- 40 -->
      <g transform="translate(1047.906174 184.998437)scale(0.1 -0.1)">
       <use xlink:href="#DejaVuSans-34"/>
       <use xlink:href="#DejaVuSans-30" x="63.623047"/>
      </g>
     </g>
    </g>
    <g id="text_24">
     <!-- game_length -->
     <g transform="translate(879.798424 198.676562)scale(0.1 -0.1)">
      <defs>
       <path id="DejaVuSans-67" d="M 2906 1791 
Q 2906 2416 2648 2759 
Q 2391 3103 1925 3103 
Q 1463 3103 1205 2759 
Q 947 2416 947 1791 
Q 947 1169 1205 825 
Q 1463 481 1925 481 
Q 2391 481 2648 825 
Q 2906 1169 2906 1791 
z
M 3481 434 
Q 3481 -459 3084 -895 
Q 2688 -1331 1869 -1331 
Q 1566 -1331 1297 -1286 
Q 1028 -1241 775 -1147 
L 775 -588 
Q 1028 -725 1275 -790 
Q 1522 -856 1778 -856 
Q 2344 -856 2625 -561 
Q 2906 -266 2906 331 
L 2906 616 
Q 2728 306 2450 153 
Q 2172 0 1784 0 
Q 1141 0 747 490 
Q 353 981 353 1791 
Q 353 2603 747 3093 
Q 1141 3584 1784 3584 
Q 2172 3584 2450 3431 
Q 2728 3278 2906 2969 
L 2906 3500 
L 3481 3500 
L 3481 434 
z
" transform="scale(0.015625)"/>
       <path id="DejaVuSans-68" d="M 3513 2113 
L 3513 0 
L 2938 0 
L 2938 2094 
Q 2938 2591 2744 2837 
Q 2550 3084 2163 3084 
Q 1697 3084 1428 2787 
Q 1159 2491 1159 1978 
L 1159 0 
L 581 0 
L 581 4863 
L 1159 4863 
L 1159 2956 
Q 1366 3272 1645 3428 
Q 1925 3584 2291 3584 
Q 2894 3584 3203 3211 
Q 3513 2838 3513 2113 
z
" transform="scale(0.015625)"/>
      </defs>
      <use xlink:href="#DejaVuSans-67"/>
      <use xlink:href="#DejaVuSans-61" x="63.476562"/>
      <use xlink:href="#DejaVuSans-6d" x="124.755859"/>
      <use xlink:href="#DejaVuSans-65" x="222.167969"/>
      <use xlink:href="#DejaVuSans-5f" x="283.691406"/>
      <use xlink:href="#DejaVuSans-6c" x="333.691406"/>
      <use xlink:href="#DejaVuSans-65" x="361.474609"/>
      <use xlink:href="#DejaVuSans-6e" x="422.998047"/>
      <use xlink:href="#DejaVuSans-67" x="486.376953"/>
      <use xlink:href="#DejaVuSans-74" x="549.853516"/>
      <use xlink:href="#DejaVuSans-68" x="589.0625"/>
     </g>
    </g>
   </g>
   <g id="matplotlib.axis_6">
    <g id="ytick_3">
     <g id="line2d_63">
      <g>
       <use xlink:href="#me88e98d4f4" x="755.642161" y="170.4" style="stroke: #000000; stroke-width: 0.8"/>
      </g>
     </g>
     <g id="text_25">
      <!-- 0.0 -->
      <g transform="translate(732.739036 174.199219)scale(0.1 -0.1)">
       <use xlink:href="#DejaVuSans-30"/>
       <use xlink:href="#DejaVuSans-2e" x="63.623047"/>
       <use xlink:href="#DejaVuSans-30" x="95.410156"/>
      </g>
     </g>
    </g>
    <g id="ytick_4">
     <g id="line2d_64">
      <g>
       <use xlink:href="#me88e98d4f4" x="755.642161" y="147.369697" style="stroke: #000000; stroke-width: 0.8"/>
      </g>
     </g>
     <g id="text_26">
      <!-- 0.1 -->
      <g transform="translate(732.739036 151.168916)scale(0.1 -0.1)">
       <use xlink:href="#DejaVuSans-30"/>
       <use xlink:href="#DejaVuSans-2e" x="63.623047"/>
       <use xlink:href="#DejaVuSans-31" x="95.410156"/>
      </g>
     </g>
    </g>
    <g id="ytick_5">
     <g id="line2d_65">
      <g>
       <use xlink:href="#me88e98d4f4" x="755.642161" y="124.339394" style="stroke: #000000; stroke-width: 0.8"/>
      </g>
     </g>
     <g id="text_27">
      <!-- 0.2 -->
      <g transform="translate(732.739036 128.138613)scale(0.1 -0.1)">
       <use xlink:href="#DejaVuSans-30"/>
       <use xlink:href="#DejaVuSans-2e" x="63.623047"/>
       <use xlink:href="#DejaVuSans-32" x="95.410156"/>
      </g>
     </g>
    </g>
    <g id="ytick_6">
     <g id="line2d_66">
      <g>
       <use xlink:href="#me88e98d4f4" x="755.642161" y="101.309091" style="stroke: #000000; stroke-width: 0.8"/>
      </g>
     </g>
     <g id="text_28">
      <!-- 0.3 -->
      <g transform="translate(732.739036 105.10831)scale(0.1 -0.1)">
       <use xlink:href="#DejaVuSans-30"/>
       <use xlink:href="#DejaVuSans-2e" x="63.623047"/>
       <use xlink:href="#DejaVuSans-33" x="95.410156"/>
      </g>
     </g>
    </g>
    <g id="ytick_7">
     <g id="line2d_67">
      <g>
       <use xlink:href="#me88e98d4f4" x="755.642161" y="78.278788" style="stroke: #000000; stroke-width: 0.8"/>
      </g>
     </g>
     <g id="text_29">
      <!-- 0.4 -->
      <g transform="translate(732.739036 82.078007)scale(0.1 -0.1)">
       <use xlink:href="#DejaVuSans-30"/>
       <use xlink:href="#DejaVuSans-2e" x="63.623047"/>
       <use xlink:href="#DejaVuSans-34" x="95.410156"/>
      </g>
     </g>
    </g>
    <g id="ytick_8">
     <g id="line2d_68">
      <g>
       <use xlink:href="#me88e98d4f4" x="755.642161" y="55.248485" style="stroke: #000000; stroke-width: 0.8"/>
      </g>
     </g>
     <g id="text_30">
      <!-- 0.5 -->
      <g transform="translate(732.739036 59.047704)scale(0.1 -0.1)">
       <use xlink:href="#DejaVuSans-30"/>
       <use xlink:href="#DejaVuSans-2e" x="63.623047"/>
       <use xlink:href="#DejaVuSans-35" x="95.410156"/>
      </g>
     </g>
    </g>
    <g id="ytick_9">
     <g id="line2d_69">
      <g>
       <use xlink:href="#me88e98d4f4" x="755.642161" y="32.218182" style="stroke: #000000; stroke-width: 0.8"/>
      </g>
     </g>
     <g id="text_31">
      <!-- 0.6 -->
      <g transform="translate(732.739036 36.017401)scale(0.1 -0.1)">
       <defs>
        <path id="DejaVuSans-36" d="M 2113 2584 
Q 1688 2584 1439 2293 
Q 1191 2003 1191 1497 
Q 1191 994 1439 701 
Q 1688 409 2113 409 
Q 2538 409 2786 701 
Q 3034 994 3034 1497 
Q 3034 2003 2786 2293 
Q 2538 2584 2113 2584 
z
M 3366 4563 
L 3366 3988 
Q 3128 4100 2886 4159 
Q 2644 4219 2406 4219 
Q 1781 4219 1451 3797 
Q 1122 3375 1075 2522 
Q 1259 2794 1537 2939 
Q 1816 3084 2150 3084 
Q 2853 3084 3261 2657 
Q 3669 2231 3669 1497 
Q 3669 778 3244 343 
Q 2819 -91 2113 -91 
Q 1303 -91 875 529 
Q 447 1150 447 2328 
Q 447 3434 972 4092 
Q 1497 4750 2381 4750 
Q 2619 4750 2861 4703 
Q 3103 4656 3366 4563 
z
" transform="scale(0.015625)"/>
       </defs>
       <use xlink:href="#DejaVuSans-30"/>
       <use xlink:href="#DejaVuSans-2e" x="63.623047"/>
       <use xlink:href="#DejaVuSans-36" x="95.410156"/>
      </g>
     </g>
    </g>
    <g id="text_32">
     <!-- Probability -->
     <g transform="translate(726.659349 117.028906)rotate(-90)scale(0.1 -0.1)">
      <defs>
       <path id="DejaVuSans-50" d="M 1259 4147 
L 1259 2394 
L 2053 2394 
Q 2494 2394 2734 2622 
Q 2975 2850 2975 3272 
Q 2975 3691 2734 3919 
Q 2494 4147 2053 4147 
L 1259 4147 
z
M 628 4666 
L 2053 4666 
Q 2838 4666 3239 4311 
Q 3641 3956 3641 3272 
Q 3641 2581 3239 2228 
Q 2838 1875 2053 1875 
L 1259 1875 
L 1259 0 
L 628 0 
L 628 4666 
z
" transform="scale(0.015625)"/>
      </defs>
      <use xlink:href="#DejaVuSans-50"/>
      <use xlink:href="#DejaVuSans-72" x="58.552734"/>
      <use xlink:href="#DejaVuSans-6f" x="97.416016"/>
      <use xlink:href="#DejaVuSans-62" x="158.597656"/>
      <use xlink:href="#DejaVuSans-61" x="222.074219"/>
      <use xlink:href="#DejaVuSans-62" x="283.353516"/>
      <use xlink:href="#DejaVuSans-69" x="346.830078"/>
      <use xlink:href="#DejaVuSans-6c" x="374.613281"/>
      <use xlink:href="#DejaVuSans-69" x="402.396484"/>
      <use xlink:href="#DejaVuSans-74" x="430.179688"/>
      <use xlink:href="#DejaVuSans-79" x="469.388672"/>
     </g>
    </g>
   </g>
   <g id="patch_60">
    <path d="M 755.642161 170.4 
L 755.642161 10.8 
" style="fill: none; stroke: #000000; stroke-width: 0.8; stroke-linejoin: miter; stroke-linecap: square"/>
   </g>
   <g id="patch_61">
    <path d="M 1069.2 170.4 
L 1069.2 10.8 
" style="fill: none; stroke: #000000; stroke-width: 0.8; stroke-linejoin: miter; stroke-linecap: square"/>
   </g>
   <g id="patch_62">
    <path d="M 755.642161 170.4 
L 1069.2 170.4 
" style="fill: none; stroke: #000000; stroke-width: 0.8; stroke-linejoin: miter; stroke-linecap: square"/>
   </g>
   <g id="patch_63">
    <path d="M 755.642161 10.8 
L 1069.2 10.8 
" style="fill: none; stroke: #000000; stroke-width: 0.8; stroke-linejoin: miter; stroke-linecap: square"/>
   </g>
  </g>
 </g>
 <defs>
  <clipPath id="p651a3d8b45">
   <rect x="14.3" y="10.8" width="313.557839" height="159.6"/>
  </clipPath>
  <clipPath id="p4513a77e68">
   <rect x="384.971081" y="10.8" width="313.557839" height="159.6"/>
  </clipPath>
  <clipPath id="p9d110293d8">
   <rect x="755.642161" y="10.8" width="313.557839" height="159.6"/>
  </clipPath>
 </defs>
</svg>
