<?xml version="1.0" encoding="utf-8" standalone="no"?>
<!DOCTYPE svg PUBLIC "-//W3C//DTD SVG 1.1//EN"
  "http://www.w3.org/Graphics/SVG/1.1/DTD/svg11.dtd">
<svg xmlns:xlink="http://www.w3.org/1999/xlink" width="1080pt" height="216pt" viewBox="0 0 1080 216" xmlns="http://www.w3.org/2000/svg" version="1.1">
 <metadata>
  <rdf:RDF xmlns:dc="http://purl.org/dc/elements/1.1/" xmlns:cc="http://creativecommons.org/ns#" xmlns:rdf="http://www.w3.org/1999/02/22-rdf-syntax-ns#">
   <cc:Work>
    <dc:type rdf:resource="http://purl.org/dc/dcmitype/StillImage"/>
    <dc:date>2022-04-09T11:33:34.664355</dc:date>
    <dc:format>image/svg+xml</dc:format>
    <dc:creator>
     <cc:Agent>
      <dc:title>Matplotlib v3.5.1, https://matplotlib.org/</dc:title>
     </cc:Agent>
    </dc:creator>
   </cc:Work>
  </rdf:RDF>
 </metadata>
 <defs>
  <style type="text/css">*{stroke-linejoin: round; stroke-linecap: butt}</style>
 </defs>
 <g id="figure_1">
  <g id="patch_1">
   <path d="M 0 216 
L 1080 216 
L 1080 0 
L 0 0 
z
" style="fill: #ffffff"/>
  </g>
  <g id="axes_1">
   <g id="patch_2">
    <path d="M 14.3 170.4 
L 327.857839 170.4 
L 327.857839 12.389951 
L 14.3 12.389951 
z
" style="fill: #ffffff"/>
   </g>
   <g id="patch_3">
    <path d="M 14.3 51.892463 
L 58.198097 51.892463 
L 58.198097 78.227471 
L 14.3 78.227471 
z
" clip-path="url(#pe5e68fd62f)" style="fill: #3b4cc0"/>
   </g>
   <g id="patch_4">
    <path d="M 14.3 78.227471 
L 23.706735 78.227471 
L 23.706735 104.562479 
L 14.3 104.562479 
z
" clip-path="url(#pe5e68fd62f)" style="fill: #dddcdc"/>
   </g>
   <g id="patch_5">
    <path d="M 14.3 104.562479 
L 274.553006 104.562479 
L 274.553006 130.897488 
L 14.3 130.897488 
z
" clip-path="url(#pe5e68fd62f)" style="fill: #b40426"/>
   </g>
   <g id="matplotlib.axis_1">
    <g id="xtick_1">
     <g id="line2d_1">
      <defs>
       <path id="mc9a18e162a" d="M 0 0 
L 0 3.5 
" style="stroke: #000000; stroke-width: 0.8"/>
      </defs>
      <g>
       <use xlink:href="#mc9a18e162a" x="14.3" y="170.4" style="stroke: #000000; stroke-width: 0.8"/>
      </g>
     </g>
    </g>
    <g id="text_1">
     <!-- winner -->
     <g transform="translate(154.131263 188.998437)scale(0.1 -0.1)">
      <defs>
       <path id="DejaVuSans-77" d="M 269 3500 
L 844 3500 
L 1563 769 
L 2278 3500 
L 2956 3500 
L 3675 769 
L 4391 3500 
L 4966 3500 
L 4050 0 
L 3372 0 
L 2619 2869 
L 1863 0 
L 1184 0 
L 269 3500 
z
" transform="scale(0.015625)"/>
       <path id="DejaVuSans-69" d="M 603 3500 
L 1178 3500 
L 1178 0 
L 603 0 
L 603 3500 
z
M 603 4863 
L 1178 4863 
L 1178 4134 
L 603 4134 
L 603 4863 
z
" transform="scale(0.015625)"/>
       <path id="DejaVuSans-6e" d="M 3513 2113 
L 3513 0 
L 2938 0 
L 2938 2094 
Q 2938 2591 2744 2837 
Q 2550 3084 2163 3084 
Q 1697 3084 1428 2787 
Q 1159 2491 1159 1978 
L 1159 0 
L 581 0 
L 581 3500 
L 1159 3500 
L 1159 2956 
Q 1366 3272 1645 3428 
Q 1925 3584 2291 3584 
Q 2894 3584 3203 3211 
Q 3513 2838 3513 2113 
z
" transform="scale(0.015625)"/>
       <path id="DejaVuSans-65" d="M 3597 1894 
L 3597 1613 
L 953 1613 
Q 991 1019 1311 708 
Q 1631 397 2203 397 
Q 2534 397 2845 478 
Q 3156 559 3463 722 
L 3463 178 
Q 3153 47 2828 -22 
Q 2503 -91 2169 -91 
Q 1331 -91 842 396 
Q 353 884 353 1716 
Q 353 2575 817 3079 
Q 1281 3584 2069 3584 
Q 2775 3584 3186 3129 
Q 3597 2675 3597 1894 
z
M 3022 2063 
Q 3016 2534 2758 2815 
Q 2500 3097 2075 3097 
Q 1594 3097 1305 2825 
Q 1016 2553 972 2059 
L 3022 2063 
z
" transform="scale(0.015625)"/>
       <path id="DejaVuSans-72" d="M 2631 2963 
Q 2534 3019 2420 3045 
Q 2306 3072 2169 3072 
Q 1681 3072 1420 2755 
Q 1159 2438 1159 1844 
L 1159 0 
L 581 0 
L 581 3500 
L 1159 3500 
L 1159 2956 
Q 1341 3275 1631 3429 
Q 1922 3584 2338 3584 
Q 2397 3584 2469 3576 
Q 2541 3569 2628 3553 
L 2631 2963 
z
" transform="scale(0.015625)"/>
      </defs>
      <use xlink:href="#DejaVuSans-77"/>
      <use xlink:href="#DejaVuSans-69" x="81.787109"/>
      <use xlink:href="#DejaVuSans-6e" x="109.570312"/>
      <use xlink:href="#DejaVuSans-6e" x="172.949219"/>
      <use xlink:href="#DejaVuSans-65" x="236.328125"/>
      <use xlink:href="#DejaVuSans-72" x="297.851562"/>
     </g>
    </g>
   </g>
   <g id="matplotlib.axis_2"/>
   <g id="patch_6">
    <path d="M 14.3 170.4 
L 14.3 12.389951 
" style="fill: none; stroke: #000000; stroke-width: 0.8; stroke-linejoin: miter; stroke-linecap: square"/>
   </g>
   <g id="patch_7">
    <path d="M 327.857839 170.4 
L 327.857839 12.389951 
" style="fill: none; stroke: #000000; stroke-width: 0.8; stroke-linejoin: miter; stroke-linecap: square"/>
   </g>
   <g id="patch_8">
    <path d="M 14.3 170.4 
L 327.857839 170.4 
" style="fill: none; stroke: #000000; stroke-width: 0.8; stroke-linejoin: miter; stroke-linecap: square"/>
   </g>
   <g id="patch_9">
    <path d="M 14.3 12.389951 
L 327.857839 12.389951 
" style="fill: none; stroke: #000000; stroke-width: 0.8; stroke-linejoin: miter; stroke-linecap: square"/>
   </g>
   <g id="text_2">
    <!-- az_100: 14.0% -->
    <g transform="translate(17.435578 64.3323)scale(0.1 -0.1)">
     <defs>
      <path id="DejaVuSans-61" d="M 2194 1759 
Q 1497 1759 1228 1600 
Q 959 1441 959 1056 
Q 959 750 1161 570 
Q 1363 391 1709 391 
Q 2188 391 2477 730 
Q 2766 1069 2766 1631 
L 2766 1759 
L 2194 1759 
z
M 3341 1997 
L 3341 0 
L 2766 0 
L 2766 531 
Q 2569 213 2275 61 
Q 1981 -91 1556 -91 
Q 1019 -91 701 211 
Q 384 513 384 1019 
Q 384 1609 779 1909 
Q 1175 2209 1959 2209 
L 2766 2209 
L 2766 2266 
Q 2766 2663 2505 2880 
Q 2244 3097 1772 3097 
Q 1472 3097 1187 3025 
Q 903 2953 641 2809 
L 641 3341 
Q 956 3463 1253 3523 
Q 1550 3584 1831 3584 
Q 2591 3584 2966 3190 
Q 3341 2797 3341 1997 
z
" transform="scale(0.015625)"/>
      <path id="DejaVuSans-7a" d="M 353 3500 
L 3084 3500 
L 3084 2975 
L 922 459 
L 3084 459 
L 3084 0 
L 275 0 
L 275 525 
L 2438 3041 
L 353 3041 
L 353 3500 
z
" transform="scale(0.015625)"/>
      <path id="DejaVuSans-5f" d="M 3263 -1063 
L 3263 -1509 
L -63 -1509 
L -63 -1063 
L 3263 -1063 
z
" transform="scale(0.015625)"/>
      <path id="DejaVuSans-31" d="M 794 531 
L 1825 531 
L 1825 4091 
L 703 3866 
L 703 4441 
L 1819 4666 
L 2450 4666 
L 2450 531 
L 3481 531 
L 3481 0 
L 794 0 
L 794 531 
z
" transform="scale(0.015625)"/>
      <path id="DejaVuSans-30" d="M 2034 4250 
Q 1547 4250 1301 3770 
Q 1056 3291 1056 2328 
Q 1056 1369 1301 889 
Q 1547 409 2034 409 
Q 2525 409 2770 889 
Q 3016 1369 3016 2328 
Q 3016 3291 2770 3770 
Q 2525 4250 2034 4250 
z
M 2034 4750 
Q 2819 4750 3233 4129 
Q 3647 3509 3647 2328 
Q 3647 1150 3233 529 
Q 2819 -91 2034 -91 
Q 1250 -91 836 529 
Q 422 1150 422 2328 
Q 422 3509 836 4129 
Q 1250 4750 2034 4750 
z
" transform="scale(0.015625)"/>
      <path id="DejaVuSans-3a" d="M 750 794 
L 1409 794 
L 1409 0 
L 750 0 
L 750 794 
z
M 750 3309 
L 1409 3309 
L 1409 2516 
L 750 2516 
L 750 3309 
z
" transform="scale(0.015625)"/>
      <path id="DejaVuSans-20" transform="scale(0.015625)"/>
      <path id="DejaVuSans-34" d="M 2419 4116 
L 825 1625 
L 2419 1625 
L 2419 4116 
z
M 2253 4666 
L 3047 4666 
L 3047 1625 
L 3713 1625 
L 3713 1100 
L 3047 1100 
L 3047 0 
L 2419 0 
L 2419 1100 
L 313 1100 
L 313 1709 
L 2253 4666 
z
" transform="scale(0.015625)"/>
      <path id="DejaVuSans-2e" d="M 684 794 
L 1344 794 
L 1344 0 
L 684 0 
L 684 794 
z
" transform="scale(0.015625)"/>
      <path id="DejaVuSans-25" d="M 4653 2053 
Q 4381 2053 4226 1822 
Q 4072 1591 4072 1178 
Q 4072 772 4226 539 
Q 4381 306 4653 306 
Q 4919 306 5073 539 
Q 5228 772 5228 1178 
Q 5228 1588 5073 1820 
Q 4919 2053 4653 2053 
z
M 4653 2450 
Q 5147 2450 5437 2106 
Q 5728 1763 5728 1178 
Q 5728 594 5436 251 
Q 5144 -91 4653 -91 
Q 4153 -91 3862 251 
Q 3572 594 3572 1178 
Q 3572 1766 3864 2108 
Q 4156 2450 4653 2450 
z
M 1428 4353 
Q 1159 4353 1004 4120 
Q 850 3888 850 3481 
Q 850 3069 1003 2837 
Q 1156 2606 1428 2606 
Q 1700 2606 1854 2837 
Q 2009 3069 2009 3481 
Q 2009 3884 1853 4118 
Q 1697 4353 1428 4353 
z
M 4250 4750 
L 4750 4750 
L 1831 -91 
L 1331 -91 
L 4250 4750 
z
M 1428 4750 
Q 1922 4750 2215 4408 
Q 2509 4066 2509 3481 
Q 2509 2891 2217 2550 
Q 1925 2209 1428 2209 
Q 931 2209 642 2551 
Q 353 2894 353 3481 
Q 353 4063 643 4406 
Q 934 4750 1428 4750 
z
" transform="scale(0.015625)"/>
     </defs>
     <use xlink:href="#DejaVuSans-61"/>
     <use xlink:href="#DejaVuSans-7a" x="61.279297"/>
     <use xlink:href="#DejaVuSans-5f" x="113.769531"/>
     <use xlink:href="#DejaVuSans-31" x="163.769531"/>
     <use xlink:href="#DejaVuSans-30" x="227.392578"/>
     <use xlink:href="#DejaVuSans-30" x="291.015625"/>
     <use xlink:href="#DejaVuSans-3a" x="354.638672"/>
     <use xlink:href="#DejaVuSans-20" x="388.330078"/>
     <use xlink:href="#DejaVuSans-31" x="420.117188"/>
     <use xlink:href="#DejaVuSans-34" x="483.740234"/>
     <use xlink:href="#DejaVuSans-2e" x="547.363281"/>
     <use xlink:href="#DejaVuSans-30" x="579.150391"/>
     <use xlink:href="#DejaVuSans-25" x="642.773438"/>
    </g>
   </g>
   <g id="text_3">
    <!-- draw: 3.0% -->
    <g transform="translate(17.435578 90.894652)scale(0.1 -0.1)">
     <defs>
      <path id="DejaVuSans-64" d="M 2906 2969 
L 2906 4863 
L 3481 4863 
L 3481 0 
L 2906 0 
L 2906 525 
Q 2725 213 2448 61 
Q 2172 -91 1784 -91 
Q 1150 -91 751 415 
Q 353 922 353 1747 
Q 353 2572 751 3078 
Q 1150 3584 1784 3584 
Q 2172 3584 2448 3432 
Q 2725 3281 2906 2969 
z
M 947 1747 
Q 947 1113 1208 752 
Q 1469 391 1925 391 
Q 2381 391 2643 752 
Q 2906 1113 2906 1747 
Q 2906 2381 2643 2742 
Q 2381 3103 1925 3103 
Q 1469 3103 1208 2742 
Q 947 2381 947 1747 
z
" transform="scale(0.015625)"/>
      <path id="DejaVuSans-33" d="M 2597 2516 
Q 3050 2419 3304 2112 
Q 3559 1806 3559 1356 
Q 3559 666 3084 287 
Q 2609 -91 1734 -91 
Q 1441 -91 1130 -33 
Q 819 25 488 141 
L 488 750 
Q 750 597 1062 519 
Q 1375 441 1716 441 
Q 2309 441 2620 675 
Q 2931 909 2931 1356 
Q 2931 1769 2642 2001 
Q 2353 2234 1838 2234 
L 1294 2234 
L 1294 2753 
L 1863 2753 
Q 2328 2753 2575 2939 
Q 2822 3125 2822 3475 
Q 2822 3834 2567 4026 
Q 2313 4219 1838 4219 
Q 1578 4219 1281 4162 
Q 984 4106 628 3988 
L 628 4550 
Q 988 4650 1302 4700 
Q 1616 4750 1894 4750 
Q 2613 4750 3031 4423 
Q 3450 4097 3450 3541 
Q 3450 3153 3228 2886 
Q 3006 2619 2597 2516 
z
" transform="scale(0.015625)"/>
     </defs>
     <use xlink:href="#DejaVuSans-64"/>
     <use xlink:href="#DejaVuSans-72" x="63.476562"/>
     <use xlink:href="#DejaVuSans-61" x="104.589844"/>
     <use xlink:href="#DejaVuSans-77" x="165.869141"/>
     <use xlink:href="#DejaVuSans-3a" x="242.15625"/>
     <use xlink:href="#DejaVuSans-20" x="275.847656"/>
     <use xlink:href="#DejaVuSans-33" x="307.634766"/>
     <use xlink:href="#DejaVuSans-2e" x="371.257812"/>
     <use xlink:href="#DejaVuSans-30" x="403.044922"/>
     <use xlink:href="#DejaVuSans-25" x="466.667969"/>
    </g>
   </g>
   <g id="text_4">
    <!-- az_200: 83.0% -->
    <g transform="translate(17.435578 117.002316)scale(0.1 -0.1)">
     <defs>
      <path id="DejaVuSans-32" d="M 1228 531 
L 3431 531 
L 3431 0 
L 469 0 
L 469 531 
Q 828 903 1448 1529 
Q 2069 2156 2228 2338 
Q 2531 2678 2651 2914 
Q 2772 3150 2772 3378 
Q 2772 3750 2511 3984 
Q 2250 4219 1831 4219 
Q 1534 4219 1204 4116 
Q 875 4013 500 3803 
L 500 4441 
Q 881 4594 1212 4672 
Q 1544 4750 1819 4750 
Q 2544 4750 2975 4387 
Q 3406 4025 3406 3419 
Q 3406 3131 3298 2873 
Q 3191 2616 2906 2266 
Q 2828 2175 2409 1742 
Q 1991 1309 1228 531 
z
" transform="scale(0.015625)"/>
      <path id="DejaVuSans-38" d="M 2034 2216 
Q 1584 2216 1326 1975 
Q 1069 1734 1069 1313 
Q 1069 891 1326 650 
Q 1584 409 2034 409 
Q 2484 409 2743 651 
Q 3003 894 3003 1313 
Q 3003 1734 2745 1975 
Q 2488 2216 2034 2216 
z
M 1403 2484 
Q 997 2584 770 2862 
Q 544 3141 544 3541 
Q 544 4100 942 4425 
Q 1341 4750 2034 4750 
Q 2731 4750 3128 4425 
Q 3525 4100 3525 3541 
Q 3525 3141 3298 2862 
Q 3072 2584 2669 2484 
Q 3125 2378 3379 2068 
Q 3634 1759 3634 1313 
Q 3634 634 3220 271 
Q 2806 -91 2034 -91 
Q 1263 -91 848 271 
Q 434 634 434 1313 
Q 434 1759 690 2068 
Q 947 2378 1403 2484 
z
M 1172 3481 
Q 1172 3119 1398 2916 
Q 1625 2713 2034 2713 
Q 2441 2713 2670 2916 
Q 2900 3119 2900 3481 
Q 2900 3844 2670 4047 
Q 2441 4250 2034 4250 
Q 1625 4250 1398 4047 
Q 1172 3844 1172 3481 
z
" transform="scale(0.015625)"/>
     </defs>
     <use xlink:href="#DejaVuSans-61"/>
     <use xlink:href="#DejaVuSans-7a" x="61.279297"/>
     <use xlink:href="#DejaVuSans-5f" x="113.769531"/>
     <use xlink:href="#DejaVuSans-32" x="163.769531"/>
     <use xlink:href="#DejaVuSans-30" x="227.392578"/>
     <use xlink:href="#DejaVuSans-30" x="291.015625"/>
     <use xlink:href="#DejaVuSans-3a" x="354.638672"/>
     <use xlink:href="#DejaVuSans-20" x="388.330078"/>
     <use xlink:href="#DejaVuSans-38" x="420.117188"/>
     <use xlink:href="#DejaVuSans-33" x="483.740234"/>
     <use xlink:href="#DejaVuSans-2e" x="547.363281"/>
     <use xlink:href="#DejaVuSans-30" x="579.150391"/>
     <use xlink:href="#DejaVuSans-25" x="642.773438"/>
    </g>
   </g>
   <g id="legend_1">
    <g id="patch_10">
     <path d="M 316.857839 25.389951 
L 320.857839 25.389951 
Q 322.857839 25.389951 322.857839 23.389951 
L 322.857839 19.389951 
Q 322.857839 17.389951 320.857839 17.389951 
L 316.857839 17.389951 
Q 314.857839 17.389951 314.857839 19.389951 
L 314.857839 23.389951 
Q 314.857839 25.389951 316.857839 25.389951 
z
" style="fill: #ffffff; opacity: 0.8; stroke: #cccccc; stroke-linejoin: miter"/>
    </g>
   </g>
  </g>
  <g id="axes_2">
   <g id="patch_11">
    <path d="M 384.971081 170.4 
L 698.528919 170.4 
L 698.528919 12.389951 
L 384.971081 12.389951 
z
" style="fill: #ffffff"/>
   </g>
   <g id="PolyCollection_1">
    <defs>
     <path id="m1d8a9a08d2" d="M 636.421047 -163.937177 
L 636.421047 -164.277897 
L 636.638815 -164.362974 
L 636.854856 -164.479466 
L 637.069197 -164.633847 
L 637.281865 -164.832028 
L 637.492884 -165.078752 
L 637.702281 -165.377119 
L 637.910081 -165.728399 
L 638.116306 -166.132255 
L 638.320983 -166.587439 
L 638.524132 -167.092893 
L 638.725777 -167.649091 
L 638.925941 -168.259356 
L 639.124644 -168.930856 
L 639.321907 -169.675021 
L 639.517753 -170.507235 
L 639.7122 -171.445789 
L 639.905268 -172.510204 
L 640.096978 -173.719127 
L 640.287348 -175.087968 
L 640.476396 -176.626396 
L 640.664141 -178.335751 
L 640.8506 -180.206397 
L 641.035792 -182.215162 
L 641.219733 -184.323163 
L 641.40244 -186.474571 
L 641.58393 -188.596975 
L 641.764218 -190.603953 
L 641.94332 -192.400171 
L 642.121253 -193.888822 
L 642.29803 -194.980641 
L 642.473667 -195.603274 
L 642.64818 -195.709547 
L 642.82158 -195.283258 
L 642.993884 -194.341578 
L 643.165105 -192.933665 
L 643.335256 -191.135783 
L 643.504351 -189.043709 
L 643.672402 -186.763532 
L 643.839423 -184.402064 
L 644.005425 -182.057989 
L 644.170422 -179.814651 
L 644.334425 -177.735124 
L 644.497447 -175.859896 
L 644.659499 -174.207202 
L 644.820592 -172.775736 
L 644.980738 -171.549213 
L 645.139948 -170.502019 
L 645.298232 -169.605043 
L 645.455602 -168.830804 
L 645.612068 -168.157127 
L 645.76764 -167.568945 
L 645.922328 -167.058179 
L 646.076143 -166.622015 
L 646.229094 -166.260231 
L 646.381191 -165.972294 
L 646.532443 -165.754967 
L 646.68286 -165.600912 
L 646.832451 -165.498536 
L 646.981224 -165.432996 
L 647.129189 -165.388038 
L 647.276355 -165.348203 
L 647.42273 -165.300894 
L 647.568322 -165.237884 
L 647.71314 -165.15602 
L 647.857192 -165.057065 
L 648.000487 -164.946825 
L 648.143031 -164.833835 
L 648.284833 -164.727905 
L 648.425901 -164.638804 
L 648.566241 -164.575244 
L 648.705862 -164.54421 
L 648.844772 -164.550561 
L 648.982976 -164.596795 
L 649.120482 -164.682872 
L 649.257298 -164.806042 
L 649.39343 -164.960731 
L 649.528885 -165.138568 
L 649.663669 -165.328691 
L 649.79779 -165.518403 
L 649.931253 -165.694199 
L 650.064066 -165.843037 
L 650.196234 -165.953696 
L 650.327764 -166.017965 
L 650.458661 -166.031477 
L 650.588933 -165.994036 
L 650.718584 -165.909414 
L 650.847622 -165.784679 
L 650.97605 -165.629219 
L 651.103876 -165.453611 
L 651.231105 -165.26853 
L 651.357742 -165.083806 
L 651.483793 -164.907729 
L 651.609263 -164.746616 
L 651.734158 -164.604654 
L 651.858483 -164.48396 
L 651.982243 -164.38484 
L 652.105443 -164.30616 
L 652.228088 -164.245776 
L 652.350184 -164.200969 
L 652.350184 -164.014105 
L 652.350184 -164.014105 
L 652.228088 -163.969298 
L 652.105443 -163.908914 
L 651.982243 -163.830234 
L 651.858483 -163.731114 
L 651.734158 -163.61042 
L 651.609263 -163.468458 
L 651.483793 -163.307345 
L 651.357742 -163.131268 
L 651.231105 -162.946544 
L 651.103876 -162.761463 
L 650.97605 -162.585855 
L 650.847622 -162.430395 
L 650.718584 -162.30566 
L 650.588933 -162.221038 
L 650.458661 -162.183597 
L 650.327764 -162.197109 
L 650.196234 -162.261378 
L 650.064066 -162.372037 
L 649.931253 -162.520875 
L 649.79779 -162.69667 
L 649.663669 -162.886383 
L 649.528885 -163.076506 
L 649.39343 -163.254343 
L 649.257298 -163.409031 
L 649.120482 -163.532202 
L 648.982976 -163.618278 
L 648.844772 -163.664513 
L 648.705862 -163.670864 
L 648.566241 -163.63983 
L 648.425901 -163.57627 
L 648.284833 -163.487169 
L 648.143031 -163.381239 
L 648.000487 -163.268249 
L 647.857192 -163.158009 
L 647.71314 -163.059054 
L 647.568322 -162.97719 
L 647.42273 -162.91418 
L 647.276355 -162.866871 
L 647.129189 -162.827036 
L 646.981224 -162.782078 
L 646.832451 -162.716538 
L 646.68286 -162.614162 
L 646.532443 -162.460107 
L 646.381191 -162.24278 
L 646.229094 -161.954843 
L 646.076143 -161.593058 
L 645.922328 -161.156895 
L 645.76764 -160.646128 
L 645.612068 -160.057947 
L 645.455602 -159.38427 
L 645.298232 -158.61003 
L 645.139948 -157.713055 
L 644.980738 -156.665861 
L 644.820592 -155.439338 
L 644.659499 -154.007871 
L 644.497447 -152.355178 
L 644.334425 -150.47995 
L 644.170422 -148.400423 
L 644.005425 -146.157085 
L 643.839423 -143.81301 
L 643.672402 -141.451542 
L 643.504351 -139.171365 
L 643.335256 -137.079291 
L 643.165105 -135.281409 
L 642.993884 -133.873496 
L 642.82158 -132.931816 
L 642.64818 -132.505527 
L 642.473667 -132.611799 
L 642.29803 -133.234433 
L 642.121253 -134.326252 
L 641.94332 -135.814903 
L 641.764218 -137.611121 
L 641.58393 -139.618099 
L 641.40244 -141.740503 
L 641.219733 -143.891911 
L 641.035792 -145.999912 
L 640.8506 -148.008677 
L 640.664141 -149.879323 
L 640.476396 -151.588678 
L 640.287348 -153.127105 
L 640.096978 -154.495946 
L 639.905268 -155.70487 
L 639.7122 -156.769285 
L 639.517753 -157.707838 
L 639.321907 -158.540053 
L 639.124644 -159.284218 
L 638.925941 -159.955718 
L 638.725777 -160.565983 
L 638.524132 -161.122181 
L 638.320983 -161.627635 
L 638.116306 -162.082818 
L 637.910081 -162.486675 
L 637.702281 -162.837955 
L 637.492884 -163.136322 
L 637.281865 -163.383046 
L 637.069197 -163.581227 
L 636.854856 -163.735607 
L 636.638815 -163.8521 
L 636.421047 -163.937177 
z
" style="stroke: #797979; stroke-width: 1.5"/>
    </defs>
    <g clip-path="url(#p4cdaaec30f)">
     <use xlink:href="#m1d8a9a08d2" x="0" y="216" style="fill: #aac7fd; stroke: #797979; stroke-width: 1.5"/>
    </g>
   </g>
   <g id="PolyCollection_2">
    <defs>
     <path id="mab1d0a74c8" d="M 654.601739 -84.973648 
L 654.601739 -85.231376 
L 654.789391 -85.287203 
L 654.975758 -85.360515 
L 655.160859 -85.454065 
L 655.344711 -85.570194 
L 655.527329 -85.710671 
L 655.708732 -85.876678 
L 655.888934 -86.069007 
L 656.067951 -86.288512 
L 656.2458 -86.536817 
L 656.422495 -86.817184 
L 656.598051 -87.135425 
L 656.772482 -87.500625 
L 656.945803 -87.925463 
L 657.118029 -88.425889 
L 657.289172 -89.020008 
L 657.459246 -89.726091 
L 657.628265 -90.559826 
L 657.796242 -91.531044 
L 657.963189 -92.640319 
L 658.129118 -93.875984 
L 658.294043 -95.212108 
L 658.457975 -96.607981 
L 658.620927 -98.00948 
L 658.782909 -99.352447 
L 658.943934 -100.567894 
L 659.104012 -101.588499 
L 659.263154 -102.355582 
L 659.421372 -102.825541 
L 659.578677 -102.97477 
L 659.735078 -102.802236 
L 659.890586 -102.329279 
L 660.045211 -101.596667 
L 660.198963 -100.659401 
L 660.351852 -99.58014 
L 660.503888 -98.422313 
L 660.655079 -97.243956 
L 660.805436 -96.093092 
L 660.954968 -95.005122 
L 661.103683 -94.002278 
L 661.25159 -93.094857 
L 661.398698 -92.283688 
L 661.545016 -91.563197 
L 661.690553 -90.924447 
L 661.835315 -90.357696 
L 661.979313 -89.854182 
L 662.122552 -89.407053 
L 662.265043 -89.011528 
L 662.406792 -88.664482 
L 662.547807 -88.363721 
L 662.688095 -88.10718 
L 662.827665 -87.892247 
L 662.966523 -87.715343 
L 663.104677 -87.571788 
L 663.242133 -87.45592 
L 663.378899 -87.361395 
L 663.514982 -87.281569 
L 663.650388 -87.209891 
L 663.785125 -87.140244 
L 663.919198 -87.067242 
L 664.052614 -86.986467 
L 664.18538 -86.894688 
L 664.317502 -86.790035 
L 664.448986 -86.672145 
L 664.579838 -86.542224 
L 664.710065 -86.402996 
L 664.839672 -86.258523 
L 664.968665 -86.11389 
L 665.09705 -85.97478 
L 665.224833 -85.846993 
L 665.352019 -85.735982 
L 665.478613 -85.646429 
L 665.604622 -85.581928 
L 665.730051 -85.544758 
L 665.854905 -85.535747 
L 665.979189 -85.554216 
L 666.102908 -85.597962 
L 666.226068 -85.663315 
L 666.348673 -85.745243 
L 666.470729 -85.837558 
L 666.592241 -85.933229 
L 666.713212 -86.024819 
L 666.833649 -86.105024 
L 666.953556 -86.16727 
L 667.072937 -86.206303 
L 667.191797 -86.21868 
L 667.31014 -86.203096 
L 667.427972 -86.160468 
L 667.545295 -86.093782 
L 667.662116 -86.007694 
L 667.778438 -85.907973 
L 667.894265 -85.800845 
L 668.009601 -85.69235 
L 668.124451 -85.587797 
L 668.238819 -85.491371 
L 668.352709 -85.405941 
L 668.466124 -85.333042 
L 668.579069 -85.273019 
L 668.691547 -85.225267 
L 668.803563 -85.188524 
L 668.803563 -85.016501 
L 668.803563 -85.016501 
L 668.691547 -84.979757 
L 668.579069 -84.932005 
L 668.466124 -84.871982 
L 668.352709 -84.799084 
L 668.238819 -84.713654 
L 668.124451 -84.617228 
L 668.009601 -84.512674 
L 667.894265 -84.404179 
L 667.778438 -84.297051 
L 667.662116 -84.197331 
L 667.545295 -84.111243 
L 667.427972 -84.044556 
L 667.31014 -84.001929 
L 667.191797 -83.986344 
L 667.072937 -83.998722 
L 666.953556 -84.037755 
L 666.833649 -84.100001 
L 666.713212 -84.180205 
L 666.592241 -84.271796 
L 666.470729 -84.367467 
L 666.348673 -84.459781 
L 666.226068 -84.541709 
L 666.102908 -84.607062 
L 665.979189 -84.650809 
L 665.854905 -84.669277 
L 665.730051 -84.660267 
L 665.604622 -84.623097 
L 665.478613 -84.558596 
L 665.352019 -84.469043 
L 665.224833 -84.358031 
L 665.09705 -84.230245 
L 664.968665 -84.091134 
L 664.839672 -83.946502 
L 664.710065 -83.802029 
L 664.579838 -83.662801 
L 664.448986 -83.532879 
L 664.317502 -83.41499 
L 664.18538 -83.310337 
L 664.052614 -83.218557 
L 663.919198 -83.137783 
L 663.785125 -83.06478 
L 663.650388 -82.995134 
L 663.514982 -82.923455 
L 663.378899 -82.84363 
L 663.242133 -82.749105 
L 663.104677 -82.633237 
L 662.966523 -82.489682 
L 662.827665 -82.312778 
L 662.688095 -82.097845 
L 662.547807 -81.841303 
L 662.406792 -81.540543 
L 662.265043 -81.193497 
L 662.122552 -80.797971 
L 661.979313 -80.350842 
L 661.835315 -79.847328 
L 661.690553 -79.280577 
L 661.545016 -78.641827 
L 661.398698 -77.921336 
L 661.25159 -77.110168 
L 661.103683 -76.202747 
L 660.954968 -75.199903 
L 660.805436 -74.111933 
L 660.655079 -72.961069 
L 660.503888 -71.782712 
L 660.351852 -70.624885 
L 660.198963 -69.545623 
L 660.045211 -68.608358 
L 659.890586 -67.875746 
L 659.735078 -67.402789 
L 659.578677 -67.230255 
L 659.421372 -67.379484 
L 659.263154 -67.849443 
L 659.104012 -68.616525 
L 658.943934 -69.637131 
L 658.782909 -70.852577 
L 658.620927 -72.195544 
L 658.457975 -73.597044 
L 658.294043 -74.992917 
L 658.129118 -76.32904 
L 657.963189 -77.564705 
L 657.796242 -78.673981 
L 657.628265 -79.645199 
L 657.459246 -80.478934 
L 657.289172 -81.185017 
L 657.118029 -81.779135 
L 656.945803 -82.279562 
L 656.772482 -82.7044 
L 656.598051 -83.0696 
L 656.422495 -83.38784 
L 656.2458 -83.668208 
L 656.067951 -83.916512 
L 655.888934 -84.136018 
L 655.708732 -84.328346 
L 655.527329 -84.494353 
L 655.344711 -84.634831 
L 655.160859 -84.75096 
L 654.975758 -84.84451 
L 654.789391 -84.917822 
L 654.601739 -84.973648 
z
" style="stroke: #797979; stroke-width: 1.5"/>
    </defs>
    <g clip-path="url(#p4cdaaec30f)">
     <use xlink:href="#mab1d0a74c8" x="0" y="216" style="fill: #f7b89c; stroke: #797979; stroke-width: 1.5"/>
    </g>
   </g>
   <g id="matplotlib.axis_3">
    <g id="xtick_2">
     <g id="line2d_2">
      <g>
       <use xlink:href="#mc9a18e162a" x="384.971081" y="170.4" style="stroke: #000000; stroke-width: 0.8"/>
      </g>
     </g>
     <g id="text_5">
      <!-- $\mathdefault{10^{-4}}$ -->
      <g transform="translate(373.221081 184.998437)scale(0.1 -0.1)">
       <defs>
        <path id="DejaVuSans-2212" d="M 678 2272 
L 4684 2272 
L 4684 1741 
L 678 1741 
L 678 2272 
z
" transform="scale(0.015625)"/>
       </defs>
       <use xlink:href="#DejaVuSans-31" transform="translate(0 0.684375)"/>
       <use xlink:href="#DejaVuSans-30" transform="translate(63.623047 0.684375)"/>
       <use xlink:href="#DejaVuSans-2212" transform="translate(128.203125 38.965625)scale(0.7)"/>
       <use xlink:href="#DejaVuSans-34" transform="translate(186.855469 38.965625)scale(0.7)"/>
      </g>
     </g>
    </g>
    <g id="xtick_3">
     <g id="line2d_3">
      <g>
       <use xlink:href="#mc9a18e162a" x="447.682648" y="170.4" style="stroke: #000000; stroke-width: 0.8"/>
      </g>
     </g>
     <g id="text_6">
      <!-- $\mathdefault{10^{-3}}$ -->
      <g transform="translate(435.932648 184.998437)scale(0.1 -0.1)">
       <use xlink:href="#DejaVuSans-31" transform="translate(0 0.765625)"/>
       <use xlink:href="#DejaVuSans-30" transform="translate(63.623047 0.765625)"/>
       <use xlink:href="#DejaVuSans-2212" transform="translate(128.203125 39.046875)scale(0.7)"/>
       <use xlink:href="#DejaVuSans-33" transform="translate(186.855469 39.046875)scale(0.7)"/>
      </g>
     </g>
    </g>
    <g id="xtick_4">
     <g id="line2d_4">
      <g>
       <use xlink:href="#mc9a18e162a" x="510.394216" y="170.4" style="stroke: #000000; stroke-width: 0.8"/>
      </g>
     </g>
     <g id="text_7">
      <!-- $\mathdefault{10^{-2}}$ -->
      <g transform="translate(498.644216 184.998437)scale(0.1 -0.1)">
       <use xlink:href="#DejaVuSans-31" transform="translate(0 0.765625)"/>
       <use xlink:href="#DejaVuSans-30" transform="translate(63.623047 0.765625)"/>
       <use xlink:href="#DejaVuSans-2212" transform="translate(128.203125 39.046875)scale(0.7)"/>
       <use xlink:href="#DejaVuSans-32" transform="translate(186.855469 39.046875)scale(0.7)"/>
      </g>
     </g>
    </g>
    <g id="xtick_5">
     <g id="line2d_5">
      <g>
       <use xlink:href="#mc9a18e162a" x="573.105784" y="170.4" style="stroke: #000000; stroke-width: 0.8"/>
      </g>
     </g>
     <g id="text_8">
      <!-- $\mathdefault{10^{-1}}$ -->
      <g transform="translate(561.355784 184.998437)scale(0.1 -0.1)">
       <use xlink:href="#DejaVuSans-31" transform="translate(0 0.684375)"/>
       <use xlink:href="#DejaVuSans-30" transform="translate(63.623047 0.684375)"/>
       <use xlink:href="#DejaVuSans-2212" transform="translate(128.203125 38.965625)scale(0.7)"/>
       <use xlink:href="#DejaVuSans-31" transform="translate(186.855469 38.965625)scale(0.7)"/>
      </g>
     </g>
    </g>
    <g id="xtick_6">
     <g id="line2d_6">
      <g>
       <use xlink:href="#mc9a18e162a" x="635.817352" y="170.4" style="stroke: #000000; stroke-width: 0.8"/>
      </g>
     </g>
     <g id="text_9">
      <!-- $\mathdefault{10^{0}}$ -->
      <g transform="translate(627.017352 184.998437)scale(0.1 -0.1)">
       <use xlink:href="#DejaVuSans-31" transform="translate(0 0.765625)"/>
       <use xlink:href="#DejaVuSans-30" transform="translate(63.623047 0.765625)"/>
       <use xlink:href="#DejaVuSans-30" transform="translate(128.203125 39.046875)scale(0.7)"/>
      </g>
     </g>
    </g>
    <g id="xtick_7">
     <g id="line2d_7">
      <g>
       <use xlink:href="#mc9a18e162a" x="698.528919" y="170.4" style="stroke: #000000; stroke-width: 0.8"/>
      </g>
     </g>
     <g id="text_10">
      <!-- $\mathdefault{10^{1}}$ -->
      <g transform="translate(689.728919 184.998437)scale(0.1 -0.1)">
       <use xlink:href="#DejaVuSans-31" transform="translate(0 0.684375)"/>
       <use xlink:href="#DejaVuSans-30" transform="translate(63.623047 0.684375)"/>
       <use xlink:href="#DejaVuSans-31" transform="translate(128.203125 38.965625)scale(0.7)"/>
      </g>
     </g>
    </g>
    <g id="xtick_8">
     <g id="line2d_8">
      <defs>
       <path id="m2ec51b663b" d="M 0 0 
L 0 2 
" style="stroke: #000000; stroke-width: 0.6"/>
      </defs>
      <g>
       <use xlink:href="#m2ec51b663b" x="403.849144" y="170.4" style="stroke: #000000; stroke-width: 0.6"/>
      </g>
     </g>
    </g>
    <g id="xtick_9">
     <g id="line2d_9">
      <g>
       <use xlink:href="#m2ec51b663b" x="414.892103" y="170.4" style="stroke: #000000; stroke-width: 0.6"/>
      </g>
     </g>
    </g>
    <g id="xtick_10">
     <g id="line2d_10">
      <g>
       <use xlink:href="#m2ec51b663b" x="422.727207" y="170.4" style="stroke: #000000; stroke-width: 0.6"/>
      </g>
     </g>
    </g>
    <g id="xtick_11">
     <g id="line2d_11">
      <g>
       <use xlink:href="#m2ec51b663b" x="428.804585" y="170.4" style="stroke: #000000; stroke-width: 0.6"/>
      </g>
     </g>
    </g>
    <g id="xtick_12">
     <g id="line2d_12">
      <g>
       <use xlink:href="#m2ec51b663b" x="433.770166" y="170.4" style="stroke: #000000; stroke-width: 0.6"/>
      </g>
     </g>
    </g>
    <g id="xtick_13">
     <g id="line2d_13">
      <g>
       <use xlink:href="#m2ec51b663b" x="437.968504" y="170.4" style="stroke: #000000; stroke-width: 0.6"/>
      </g>
     </g>
    </g>
    <g id="xtick_14">
     <g id="line2d_14">
      <g>
       <use xlink:href="#m2ec51b663b" x="441.60527" y="170.4" style="stroke: #000000; stroke-width: 0.6"/>
      </g>
     </g>
    </g>
    <g id="xtick_15">
     <g id="line2d_15">
      <g>
       <use xlink:href="#m2ec51b663b" x="444.813124" y="170.4" style="stroke: #000000; stroke-width: 0.6"/>
      </g>
     </g>
    </g>
    <g id="xtick_16">
     <g id="line2d_16">
      <g>
       <use xlink:href="#m2ec51b663b" x="466.560711" y="170.4" style="stroke: #000000; stroke-width: 0.6"/>
      </g>
     </g>
    </g>
    <g id="xtick_17">
     <g id="line2d_17">
      <g>
       <use xlink:href="#m2ec51b663b" x="477.60367" y="170.4" style="stroke: #000000; stroke-width: 0.6"/>
      </g>
     </g>
    </g>
    <g id="xtick_18">
     <g id="line2d_18">
      <g>
       <use xlink:href="#m2ec51b663b" x="485.438774" y="170.4" style="stroke: #000000; stroke-width: 0.6"/>
      </g>
     </g>
    </g>
    <g id="xtick_19">
     <g id="line2d_19">
      <g>
       <use xlink:href="#m2ec51b663b" x="491.516153" y="170.4" style="stroke: #000000; stroke-width: 0.6"/>
      </g>
     </g>
    </g>
    <g id="xtick_20">
     <g id="line2d_20">
      <g>
       <use xlink:href="#m2ec51b663b" x="496.481733" y="170.4" style="stroke: #000000; stroke-width: 0.6"/>
      </g>
     </g>
    </g>
    <g id="xtick_21">
     <g id="line2d_21">
      <g>
       <use xlink:href="#m2ec51b663b" x="500.680071" y="170.4" style="stroke: #000000; stroke-width: 0.6"/>
      </g>
     </g>
    </g>
    <g id="xtick_22">
     <g id="line2d_22">
      <g>
       <use xlink:href="#m2ec51b663b" x="504.316837" y="170.4" style="stroke: #000000; stroke-width: 0.6"/>
      </g>
     </g>
    </g>
    <g id="xtick_23">
     <g id="line2d_23">
      <g>
       <use xlink:href="#m2ec51b663b" x="507.524692" y="170.4" style="stroke: #000000; stroke-width: 0.6"/>
      </g>
     </g>
    </g>
    <g id="xtick_24">
     <g id="line2d_24">
      <g>
       <use xlink:href="#m2ec51b663b" x="529.272279" y="170.4" style="stroke: #000000; stroke-width: 0.6"/>
      </g>
     </g>
    </g>
    <g id="xtick_25">
     <g id="line2d_25">
      <g>
       <use xlink:href="#m2ec51b663b" x="540.315238" y="170.4" style="stroke: #000000; stroke-width: 0.6"/>
      </g>
     </g>
    </g>
    <g id="xtick_26">
     <g id="line2d_26">
      <g>
       <use xlink:href="#m2ec51b663b" x="548.150342" y="170.4" style="stroke: #000000; stroke-width: 0.6"/>
      </g>
     </g>
    </g>
    <g id="xtick_27">
     <g id="line2d_27">
      <g>
       <use xlink:href="#m2ec51b663b" x="554.227721" y="170.4" style="stroke: #000000; stroke-width: 0.6"/>
      </g>
     </g>
    </g>
    <g id="xtick_28">
     <g id="line2d_28">
      <g>
       <use xlink:href="#m2ec51b663b" x="559.193301" y="170.4" style="stroke: #000000; stroke-width: 0.6"/>
      </g>
     </g>
    </g>
    <g id="xtick_29">
     <g id="line2d_29">
      <g>
       <use xlink:href="#m2ec51b663b" x="563.391639" y="170.4" style="stroke: #000000; stroke-width: 0.6"/>
      </g>
     </g>
    </g>
    <g id="xtick_30">
     <g id="line2d_30">
      <g>
       <use xlink:href="#m2ec51b663b" x="567.028405" y="170.4" style="stroke: #000000; stroke-width: 0.6"/>
      </g>
     </g>
    </g>
    <g id="xtick_31">
     <g id="line2d_31">
      <g>
       <use xlink:href="#m2ec51b663b" x="570.23626" y="170.4" style="stroke: #000000; stroke-width: 0.6"/>
      </g>
     </g>
    </g>
    <g id="xtick_32">
     <g id="line2d_32">
      <g>
       <use xlink:href="#m2ec51b663b" x="591.983847" y="170.4" style="stroke: #000000; stroke-width: 0.6"/>
      </g>
     </g>
    </g>
    <g id="xtick_33">
     <g id="line2d_33">
      <g>
       <use xlink:href="#m2ec51b663b" x="603.026806" y="170.4" style="stroke: #000000; stroke-width: 0.6"/>
      </g>
     </g>
    </g>
    <g id="xtick_34">
     <g id="line2d_34">
      <g>
       <use xlink:href="#m2ec51b663b" x="610.86191" y="170.4" style="stroke: #000000; stroke-width: 0.6"/>
      </g>
     </g>
    </g>
    <g id="xtick_35">
     <g id="line2d_35">
      <g>
       <use xlink:href="#m2ec51b663b" x="616.939289" y="170.4" style="stroke: #000000; stroke-width: 0.6"/>
      </g>
     </g>
    </g>
    <g id="xtick_36">
     <g id="line2d_36">
      <g>
       <use xlink:href="#m2ec51b663b" x="621.904869" y="170.4" style="stroke: #000000; stroke-width: 0.6"/>
      </g>
     </g>
    </g>
    <g id="xtick_37">
     <g id="line2d_37">
      <g>
       <use xlink:href="#m2ec51b663b" x="626.103207" y="170.4" style="stroke: #000000; stroke-width: 0.6"/>
      </g>
     </g>
    </g>
    <g id="xtick_38">
     <g id="line2d_38">
      <g>
       <use xlink:href="#m2ec51b663b" x="629.739973" y="170.4" style="stroke: #000000; stroke-width: 0.6"/>
      </g>
     </g>
    </g>
    <g id="xtick_39">
     <g id="line2d_39">
      <g>
       <use xlink:href="#m2ec51b663b" x="632.947828" y="170.4" style="stroke: #000000; stroke-width: 0.6"/>
      </g>
     </g>
    </g>
    <g id="xtick_40">
     <g id="line2d_40">
      <g>
       <use xlink:href="#m2ec51b663b" x="654.695415" y="170.4" style="stroke: #000000; stroke-width: 0.6"/>
      </g>
     </g>
    </g>
    <g id="xtick_41">
     <g id="line2d_41">
      <g>
       <use xlink:href="#m2ec51b663b" x="665.738373" y="170.4" style="stroke: #000000; stroke-width: 0.6"/>
      </g>
     </g>
    </g>
    <g id="xtick_42">
     <g id="line2d_42">
      <g>
       <use xlink:href="#m2ec51b663b" x="673.573477" y="170.4" style="stroke: #000000; stroke-width: 0.6"/>
      </g>
     </g>
    </g>
    <g id="xtick_43">
     <g id="line2d_43">
      <g>
       <use xlink:href="#m2ec51b663b" x="679.650856" y="170.4" style="stroke: #000000; stroke-width: 0.6"/>
      </g>
     </g>
    </g>
    <g id="xtick_44">
     <g id="line2d_44">
      <g>
       <use xlink:href="#m2ec51b663b" x="684.616436" y="170.4" style="stroke: #000000; stroke-width: 0.6"/>
      </g>
     </g>
    </g>
    <g id="xtick_45">
     <g id="line2d_45">
      <g>
       <use xlink:href="#m2ec51b663b" x="688.814775" y="170.4" style="stroke: #000000; stroke-width: 0.6"/>
      </g>
     </g>
    </g>
    <g id="xtick_46">
     <g id="line2d_46">
      <g>
       <use xlink:href="#m2ec51b663b" x="692.45154" y="170.4" style="stroke: #000000; stroke-width: 0.6"/>
      </g>
     </g>
    </g>
    <g id="xtick_47">
     <g id="line2d_47">
      <g>
       <use xlink:href="#m2ec51b663b" x="695.659395" y="170.4" style="stroke: #000000; stroke-width: 0.6"/>
      </g>
     </g>
    </g>
    <g id="text_11">
     <!-- distribution of time to move (s) -->
     <g transform="translate(463.704687 198.676562)scale(0.1 -0.1)">
      <defs>
       <path id="DejaVuSans-73" d="M 2834 3397 
L 2834 2853 
Q 2591 2978 2328 3040 
Q 2066 3103 1784 3103 
Q 1356 3103 1142 2972 
Q 928 2841 928 2578 
Q 928 2378 1081 2264 
Q 1234 2150 1697 2047 
L 1894 2003 
Q 2506 1872 2764 1633 
Q 3022 1394 3022 966 
Q 3022 478 2636 193 
Q 2250 -91 1575 -91 
Q 1294 -91 989 -36 
Q 684 19 347 128 
L 347 722 
Q 666 556 975 473 
Q 1284 391 1588 391 
Q 1994 391 2212 530 
Q 2431 669 2431 922 
Q 2431 1156 2273 1281 
Q 2116 1406 1581 1522 
L 1381 1569 
Q 847 1681 609 1914 
Q 372 2147 372 2553 
Q 372 3047 722 3315 
Q 1072 3584 1716 3584 
Q 2034 3584 2315 3537 
Q 2597 3491 2834 3397 
z
" transform="scale(0.015625)"/>
       <path id="DejaVuSans-74" d="M 1172 4494 
L 1172 3500 
L 2356 3500 
L 2356 3053 
L 1172 3053 
L 1172 1153 
Q 1172 725 1289 603 
Q 1406 481 1766 481 
L 2356 481 
L 2356 0 
L 1766 0 
Q 1100 0 847 248 
Q 594 497 594 1153 
L 594 3053 
L 172 3053 
L 172 3500 
L 594 3500 
L 594 4494 
L 1172 4494 
z
" transform="scale(0.015625)"/>
       <path id="DejaVuSans-62" d="M 3116 1747 
Q 3116 2381 2855 2742 
Q 2594 3103 2138 3103 
Q 1681 3103 1420 2742 
Q 1159 2381 1159 1747 
Q 1159 1113 1420 752 
Q 1681 391 2138 391 
Q 2594 391 2855 752 
Q 3116 1113 3116 1747 
z
M 1159 2969 
Q 1341 3281 1617 3432 
Q 1894 3584 2278 3584 
Q 2916 3584 3314 3078 
Q 3713 2572 3713 1747 
Q 3713 922 3314 415 
Q 2916 -91 2278 -91 
Q 1894 -91 1617 61 
Q 1341 213 1159 525 
L 1159 0 
L 581 0 
L 581 4863 
L 1159 4863 
L 1159 2969 
z
" transform="scale(0.015625)"/>
       <path id="DejaVuSans-75" d="M 544 1381 
L 544 3500 
L 1119 3500 
L 1119 1403 
Q 1119 906 1312 657 
Q 1506 409 1894 409 
Q 2359 409 2629 706 
Q 2900 1003 2900 1516 
L 2900 3500 
L 3475 3500 
L 3475 0 
L 2900 0 
L 2900 538 
Q 2691 219 2414 64 
Q 2138 -91 1772 -91 
Q 1169 -91 856 284 
Q 544 659 544 1381 
z
M 1991 3584 
L 1991 3584 
z
" transform="scale(0.015625)"/>
       <path id="DejaVuSans-6f" d="M 1959 3097 
Q 1497 3097 1228 2736 
Q 959 2375 959 1747 
Q 959 1119 1226 758 
Q 1494 397 1959 397 
Q 2419 397 2687 759 
Q 2956 1122 2956 1747 
Q 2956 2369 2687 2733 
Q 2419 3097 1959 3097 
z
M 1959 3584 
Q 2709 3584 3137 3096 
Q 3566 2609 3566 1747 
Q 3566 888 3137 398 
Q 2709 -91 1959 -91 
Q 1206 -91 779 398 
Q 353 888 353 1747 
Q 353 2609 779 3096 
Q 1206 3584 1959 3584 
z
" transform="scale(0.015625)"/>
       <path id="DejaVuSans-66" d="M 2375 4863 
L 2375 4384 
L 1825 4384 
Q 1516 4384 1395 4259 
Q 1275 4134 1275 3809 
L 1275 3500 
L 2222 3500 
L 2222 3053 
L 1275 3053 
L 1275 0 
L 697 0 
L 697 3053 
L 147 3053 
L 147 3500 
L 697 3500 
L 697 3744 
Q 697 4328 969 4595 
Q 1241 4863 1831 4863 
L 2375 4863 
z
" transform="scale(0.015625)"/>
       <path id="DejaVuSans-6d" d="M 3328 2828 
Q 3544 3216 3844 3400 
Q 4144 3584 4550 3584 
Q 5097 3584 5394 3201 
Q 5691 2819 5691 2113 
L 5691 0 
L 5113 0 
L 5113 2094 
Q 5113 2597 4934 2840 
Q 4756 3084 4391 3084 
Q 3944 3084 3684 2787 
Q 3425 2491 3425 1978 
L 3425 0 
L 2847 0 
L 2847 2094 
Q 2847 2600 2669 2842 
Q 2491 3084 2119 3084 
Q 1678 3084 1418 2786 
Q 1159 2488 1159 1978 
L 1159 0 
L 581 0 
L 581 3500 
L 1159 3500 
L 1159 2956 
Q 1356 3278 1631 3431 
Q 1906 3584 2284 3584 
Q 2666 3584 2933 3390 
Q 3200 3197 3328 2828 
z
" transform="scale(0.015625)"/>
       <path id="DejaVuSans-76" d="M 191 3500 
L 800 3500 
L 1894 563 
L 2988 3500 
L 3597 3500 
L 2284 0 
L 1503 0 
L 191 3500 
z
" transform="scale(0.015625)"/>
       <path id="DejaVuSans-28" d="M 1984 4856 
Q 1566 4138 1362 3434 
Q 1159 2731 1159 2009 
Q 1159 1288 1364 580 
Q 1569 -128 1984 -844 
L 1484 -844 
Q 1016 -109 783 600 
Q 550 1309 550 2009 
Q 550 2706 781 3412 
Q 1013 4119 1484 4856 
L 1984 4856 
z
" transform="scale(0.015625)"/>
       <path id="DejaVuSans-29" d="M 513 4856 
L 1013 4856 
Q 1481 4119 1714 3412 
Q 1947 2706 1947 2009 
Q 1947 1309 1714 600 
Q 1481 -109 1013 -844 
L 513 -844 
Q 928 -128 1133 580 
Q 1338 1288 1338 2009 
Q 1338 2731 1133 3434 
Q 928 4138 513 4856 
z
" transform="scale(0.015625)"/>
      </defs>
      <use xlink:href="#DejaVuSans-64"/>
      <use xlink:href="#DejaVuSans-69" x="63.476562"/>
      <use xlink:href="#DejaVuSans-73" x="91.259766"/>
      <use xlink:href="#DejaVuSans-74" x="143.359375"/>
      <use xlink:href="#DejaVuSans-72" x="182.568359"/>
      <use xlink:href="#DejaVuSans-69" x="223.681641"/>
      <use xlink:href="#DejaVuSans-62" x="251.464844"/>
      <use xlink:href="#DejaVuSans-75" x="314.941406"/>
      <use xlink:href="#DejaVuSans-74" x="378.320312"/>
      <use xlink:href="#DejaVuSans-69" x="417.529297"/>
      <use xlink:href="#DejaVuSans-6f" x="445.3125"/>
      <use xlink:href="#DejaVuSans-6e" x="506.494141"/>
      <use xlink:href="#DejaVuSans-20" x="569.873047"/>
      <use xlink:href="#DejaVuSans-6f" x="601.660156"/>
      <use xlink:href="#DejaVuSans-66" x="662.841797"/>
      <use xlink:href="#DejaVuSans-20" x="698.046875"/>
      <use xlink:href="#DejaVuSans-74" x="729.833984"/>
      <use xlink:href="#DejaVuSans-69" x="769.042969"/>
      <use xlink:href="#DejaVuSans-6d" x="796.826172"/>
      <use xlink:href="#DejaVuSans-65" x="894.238281"/>
      <use xlink:href="#DejaVuSans-20" x="955.761719"/>
      <use xlink:href="#DejaVuSans-74" x="987.548828"/>
      <use xlink:href="#DejaVuSans-6f" x="1026.757812"/>
      <use xlink:href="#DejaVuSans-20" x="1087.939453"/>
      <use xlink:href="#DejaVuSans-6d" x="1119.726562"/>
      <use xlink:href="#DejaVuSans-6f" x="1217.138672"/>
      <use xlink:href="#DejaVuSans-76" x="1278.320312"/>
      <use xlink:href="#DejaVuSans-65" x="1337.5"/>
      <use xlink:href="#DejaVuSans-20" x="1399.023438"/>
      <use xlink:href="#DejaVuSans-28" x="1430.810547"/>
      <use xlink:href="#DejaVuSans-73" x="1469.824219"/>
      <use xlink:href="#DejaVuSans-29" x="1521.923828"/>
     </g>
    </g>
   </g>
   <g id="matplotlib.axis_4">
    <g id="ytick_1">
     <g id="line2d_48">
      <defs>
       <path id="m06652c477f" d="M 0 0 
L -3.5 0 
" style="stroke: #000000; stroke-width: 0.8"/>
      </defs>
      <g>
       <use xlink:href="#m06652c477f" x="384.971081" y="51.892463" style="stroke: #000000; stroke-width: 0.8"/>
      </g>
     </g>
     <g id="text_12">
      <!-- az_100 -->
      <g transform="translate(375.613268 83.645588)rotate(-90)scale(0.1 -0.1)">
       <use xlink:href="#DejaVuSans-61"/>
       <use xlink:href="#DejaVuSans-7a" x="61.279297"/>
       <use xlink:href="#DejaVuSans-5f" x="113.769531"/>
       <use xlink:href="#DejaVuSans-31" x="163.769531"/>
       <use xlink:href="#DejaVuSans-30" x="227.392578"/>
       <use xlink:href="#DejaVuSans-30" x="291.015625"/>
      </g>
     </g>
    </g>
    <g id="ytick_2">
     <g id="line2d_49">
      <g>
       <use xlink:href="#m06652c477f" x="384.971081" y="130.897488" style="stroke: #000000; stroke-width: 0.8"/>
      </g>
     </g>
     <g id="text_13">
      <!-- az_200 -->
      <g transform="translate(375.613268 162.650613)rotate(-90)scale(0.1 -0.1)">
       <use xlink:href="#DejaVuSans-61"/>
       <use xlink:href="#DejaVuSans-7a" x="61.279297"/>
       <use xlink:href="#DejaVuSans-5f" x="113.769531"/>
       <use xlink:href="#DejaVuSans-32" x="163.769531"/>
       <use xlink:href="#DejaVuSans-30" x="227.392578"/>
       <use xlink:href="#DejaVuSans-30" x="291.015625"/>
      </g>
     </g>
    </g>
    <g id="text_14">
     <!-- player -->
     <g transform="translate(362.111706 107.113725)rotate(-90)scale(0.1 -0.1)">
      <defs>
       <path id="DejaVuSans-70" d="M 1159 525 
L 1159 -1331 
L 581 -1331 
L 581 3500 
L 1159 3500 
L 1159 2969 
Q 1341 3281 1617 3432 
Q 1894 3584 2278 3584 
Q 2916 3584 3314 3078 
Q 3713 2572 3713 1747 
Q 3713 922 3314 415 
Q 2916 -91 2278 -91 
Q 1894 -91 1617 61 
Q 1341 213 1159 525 
z
M 3116 1747 
Q 3116 2381 2855 2742 
Q 2594 3103 2138 3103 
Q 1681 3103 1420 2742 
Q 1159 2381 1159 1747 
Q 1159 1113 1420 752 
Q 1681 391 2138 391 
Q 2594 391 2855 752 
Q 3116 1113 3116 1747 
z
" transform="scale(0.015625)"/>
       <path id="DejaVuSans-6c" d="M 603 4863 
L 1178 4863 
L 1178 0 
L 603 0 
L 603 4863 
z
" transform="scale(0.015625)"/>
       <path id="DejaVuSans-79" d="M 2059 -325 
Q 1816 -950 1584 -1140 
Q 1353 -1331 966 -1331 
L 506 -1331 
L 506 -850 
L 844 -850 
Q 1081 -850 1212 -737 
Q 1344 -625 1503 -206 
L 1606 56 
L 191 3500 
L 800 3500 
L 1894 763 
L 2988 3500 
L 3597 3500 
L 2059 -325 
z
" transform="scale(0.015625)"/>
      </defs>
      <use xlink:href="#DejaVuSans-70"/>
      <use xlink:href="#DejaVuSans-6c" x="63.476562"/>
      <use xlink:href="#DejaVuSans-61" x="91.259766"/>
      <use xlink:href="#DejaVuSans-79" x="152.539062"/>
      <use xlink:href="#DejaVuSans-65" x="211.71875"/>
      <use xlink:href="#DejaVuSans-72" x="273.242188"/>
     </g>
    </g>
   </g>
   <g id="line2d_50">
    <path d="M 639.800853 51.892463 
L 645.173184 51.892463 
" clip-path="url(#p4cdaaec30f)" style="fill: none; stroke: #797979; stroke-width: 1.5; stroke-linecap: square"/>
   </g>
   <g id="line2d_51">
    <path d="M 641.862028 51.892463 
L 643.329168 51.892463 
" clip-path="url(#p4cdaaec30f)" style="fill: none; stroke: #797979; stroke-width: 4.5; stroke-linecap: square"/>
   </g>
   <g id="line2d_52">
    <path d="M 656.867019 130.897488 
L 662.21963 130.897488 
" clip-path="url(#p4cdaaec30f)" style="fill: none; stroke: #797979; stroke-width: 1.5; stroke-linecap: square"/>
   </g>
   <g id="line2d_53">
    <path d="M 659.347983 130.897488 
L 660.892095 130.897488 
" clip-path="url(#p4cdaaec30f)" style="fill: none; stroke: #797979; stroke-width: 4.5; stroke-linecap: square"/>
   </g>
   <g id="patch_12">
    <path d="M 384.971081 170.4 
L 384.971081 12.389951 
" style="fill: none; stroke: #000000; stroke-width: 0.8; stroke-linejoin: miter; stroke-linecap: square"/>
   </g>
   <g id="patch_13">
    <path d="M 698.528919 170.4 
L 698.528919 12.389951 
" style="fill: none; stroke: #000000; stroke-width: 0.8; stroke-linejoin: miter; stroke-linecap: square"/>
   </g>
   <g id="patch_14">
    <path d="M 384.971081 170.4 
L 698.528919 170.4 
" style="fill: none; stroke: #000000; stroke-width: 0.8; stroke-linejoin: miter; stroke-linecap: square"/>
   </g>
   <g id="patch_15">
    <path d="M 384.971081 12.389951 
L 698.528919 12.389951 
" style="fill: none; stroke: #000000; stroke-width: 0.8; stroke-linejoin: miter; stroke-linecap: square"/>
   </g>
   <g id="PathCollection_1">
    <defs>
     <path id="m998a35abaf" d="M 0 1.5 
C 0.397805 1.5 0.77937 1.341951 1.06066 1.06066 
C 1.341951 0.77937 1.5 0.397805 1.5 0 
C 1.5 -0.397805 1.341951 -0.77937 1.06066 -1.06066 
C 0.77937 -1.341951 0.397805 -1.5 0 -1.5 
C -0.397805 -1.5 -0.77937 -1.341951 -1.06066 -1.06066 
C -1.341951 -0.77937 -1.5 -0.397805 -1.5 0 
C -1.5 0.397805 -1.341951 0.77937 -1.06066 1.06066 
C -0.77937 1.341951 -0.397805 1.5 0 1.5 
z
" style="stroke: #797979"/>
    </defs>
    <g clip-path="url(#p4cdaaec30f)">
     <use xlink:href="#m998a35abaf" x="642.613966" y="51.892463" style="fill: #ffffff; stroke: #797979"/>
    </g>
   </g>
   <g id="PathCollection_2">
    <g clip-path="url(#p4cdaaec30f)">
     <use xlink:href="#m998a35abaf" x="659.660427" y="130.897488" style="fill: #ffffff; stroke: #797979"/>
    </g>
   </g>
  </g>
  <g id="axes_3">
   <g id="patch_16">
    <path d="M 755.642161 170.4 
L 1069.2 170.4 
L 1069.2 12.389951 
L 755.642161 12.389951 
z
" style="fill: #ffffff"/>
   </g>
   <g id="patch_17">
    <path d="M 964.68072 170.4 
L 967.111401 170.4 
L 967.111401 160.021672 
L 964.68072 160.021672 
z
" clip-path="url(#pa1a0431f6a)" style="fill: #1f77b4; fill-opacity: 0.75; stroke: #000000; stroke-width: 0.520458; stroke-linejoin: miter"/>
   </g>
   <g id="patch_18">
    <path d="M 967.111401 170.4 
L 969.542082 170.4 
L 969.542082 170.4 
L 967.111401 170.4 
z
" clip-path="url(#pa1a0431f6a)" style="fill: #1f77b4; fill-opacity: 0.75; stroke: #000000; stroke-width: 0.520458; stroke-linejoin: miter"/>
   </g>
   <g id="patch_19">
    <path d="M 969.542082 170.4 
L 971.972763 170.4 
L 971.972763 170.4 
L 969.542082 170.4 
z
" clip-path="url(#pa1a0431f6a)" style="fill: #1f77b4; fill-opacity: 0.75; stroke: #000000; stroke-width: 0.520458; stroke-linejoin: miter"/>
   </g>
   <g id="patch_20">
    <path d="M 971.972763 170.4 
L 974.403444 170.4 
L 974.403444 170.4 
L 971.972763 170.4 
z
" clip-path="url(#pa1a0431f6a)" style="fill: #1f77b4; fill-opacity: 0.75; stroke: #000000; stroke-width: 0.520458; stroke-linejoin: miter"/>
   </g>
   <g id="patch_21">
    <path d="M 974.403444 170.4 
L 976.834125 170.4 
L 976.834125 170.4 
L 974.403444 170.4 
z
" clip-path="url(#pa1a0431f6a)" style="fill: #1f77b4; fill-opacity: 0.75; stroke: #000000; stroke-width: 0.520458; stroke-linejoin: miter"/>
   </g>
   <g id="patch_22">
    <path d="M 976.834125 170.4 
L 979.264806 170.4 
L 979.264806 170.4 
L 976.834125 170.4 
z
" clip-path="url(#pa1a0431f6a)" style="fill: #1f77b4; fill-opacity: 0.75; stroke: #000000; stroke-width: 0.520458; stroke-linejoin: miter"/>
   </g>
   <g id="patch_23">
    <path d="M 979.264806 170.4 
L 981.695487 170.4 
L 981.695487 170.4 
L 979.264806 170.4 
z
" clip-path="url(#pa1a0431f6a)" style="fill: #1f77b4; fill-opacity: 0.75; stroke: #000000; stroke-width: 0.520458; stroke-linejoin: miter"/>
   </g>
   <g id="patch_24">
    <path d="M 981.695487 170.4 
L 984.126168 170.4 
L 984.126168 170.4 
L 981.695487 170.4 
z
" clip-path="url(#pa1a0431f6a)" style="fill: #1f77b4; fill-opacity: 0.75; stroke: #000000; stroke-width: 0.520458; stroke-linejoin: miter"/>
   </g>
   <g id="patch_25">
    <path d="M 984.126168 170.4 
L 986.556849 170.4 
L 986.556849 170.4 
L 984.126168 170.4 
z
" clip-path="url(#pa1a0431f6a)" style="fill: #1f77b4; fill-opacity: 0.75; stroke: #000000; stroke-width: 0.520458; stroke-linejoin: miter"/>
   </g>
   <g id="patch_26">
    <path d="M 986.556849 170.4 
L 988.98753 170.4 
L 988.98753 170.4 
L 986.556849 170.4 
z
" clip-path="url(#pa1a0431f6a)" style="fill: #1f77b4; fill-opacity: 0.75; stroke: #000000; stroke-width: 0.520458; stroke-linejoin: miter"/>
   </g>
   <g id="patch_27">
    <path d="M 988.98753 170.4 
L 991.418211 170.4 
L 991.418211 170.4 
L 988.98753 170.4 
z
" clip-path="url(#pa1a0431f6a)" style="fill: #1f77b4; fill-opacity: 0.75; stroke: #000000; stroke-width: 0.520458; stroke-linejoin: miter"/>
   </g>
   <g id="patch_28">
    <path d="M 991.418211 170.4 
L 993.848892 170.4 
L 993.848892 170.4 
L 991.418211 170.4 
z
" clip-path="url(#pa1a0431f6a)" style="fill: #1f77b4; fill-opacity: 0.75; stroke: #000000; stroke-width: 0.520458; stroke-linejoin: miter"/>
   </g>
   <g id="patch_29">
    <path d="M 993.848892 170.4 
L 996.279572 170.4 
L 996.279572 170.4 
L 993.848892 170.4 
z
" clip-path="url(#pa1a0431f6a)" style="fill: #1f77b4; fill-opacity: 0.75; stroke: #000000; stroke-width: 0.520458; stroke-linejoin: miter"/>
   </g>
   <g id="patch_30">
    <path d="M 996.279572 170.4 
L 998.710253 170.4 
L 998.710253 170.4 
L 996.279572 170.4 
z
" clip-path="url(#pa1a0431f6a)" style="fill: #1f77b4; fill-opacity: 0.75; stroke: #000000; stroke-width: 0.520458; stroke-linejoin: miter"/>
   </g>
   <g id="patch_31">
    <path d="M 998.710253 170.4 
L 1001.140934 170.4 
L 1001.140934 170.4 
L 998.710253 170.4 
z
" clip-path="url(#pa1a0431f6a)" style="fill: #1f77b4; fill-opacity: 0.75; stroke: #000000; stroke-width: 0.520458; stroke-linejoin: miter"/>
   </g>
   <g id="patch_32">
    <path d="M 1001.140934 170.4 
L 1003.571615 170.4 
L 1003.571615 167.805418 
L 1001.140934 167.805418 
z
" clip-path="url(#pa1a0431f6a)" style="fill: #1f77b4; fill-opacity: 0.75; stroke: #000000; stroke-width: 0.520458; stroke-linejoin: miter"/>
   </g>
   <g id="patch_33">
    <path d="M 1003.571615 170.4 
L 1006.002296 170.4 
L 1006.002296 170.4 
L 1003.571615 170.4 
z
" clip-path="url(#pa1a0431f6a)" style="fill: #1f77b4; fill-opacity: 0.75; stroke: #000000; stroke-width: 0.520458; stroke-linejoin: miter"/>
   </g>
   <g id="patch_34">
    <path d="M 1006.002296 170.4 
L 1008.432977 170.4 
L 1008.432977 170.4 
L 1006.002296 170.4 
z
" clip-path="url(#pa1a0431f6a)" style="fill: #1f77b4; fill-opacity: 0.75; stroke: #000000; stroke-width: 0.520458; stroke-linejoin: miter"/>
   </g>
   <g id="patch_35">
    <path d="M 1008.432977 170.4 
L 1010.863658 170.4 
L 1010.863658 165.210836 
L 1008.432977 165.210836 
z
" clip-path="url(#pa1a0431f6a)" style="fill: #1f77b4; fill-opacity: 0.75; stroke: #000000; stroke-width: 0.520458; stroke-linejoin: miter"/>
   </g>
   <g id="patch_36">
    <path d="M 1010.863658 170.4 
L 1013.294339 170.4 
L 1013.294339 170.4 
L 1010.863658 170.4 
z
" clip-path="url(#pa1a0431f6a)" style="fill: #1f77b4; fill-opacity: 0.75; stroke: #000000; stroke-width: 0.520458; stroke-linejoin: miter"/>
   </g>
   <g id="patch_37">
    <path d="M 1013.294339 170.4 
L 1015.72502 170.4 
L 1015.72502 170.4 
L 1013.294339 170.4 
z
" clip-path="url(#pa1a0431f6a)" style="fill: #1f77b4; fill-opacity: 0.75; stroke: #000000; stroke-width: 0.520458; stroke-linejoin: miter"/>
   </g>
   <g id="patch_38">
    <path d="M 1015.72502 170.4 
L 1018.155701 170.4 
L 1018.155701 170.4 
L 1015.72502 170.4 
z
" clip-path="url(#pa1a0431f6a)" style="fill: #1f77b4; fill-opacity: 0.75; stroke: #000000; stroke-width: 0.520458; stroke-linejoin: miter"/>
   </g>
   <g id="patch_39">
    <path d="M 1018.155701 170.4 
L 1020.586382 170.4 
L 1020.586382 170.4 
L 1018.155701 170.4 
z
" clip-path="url(#pa1a0431f6a)" style="fill: #1f77b4; fill-opacity: 0.75; stroke: #000000; stroke-width: 0.520458; stroke-linejoin: miter"/>
   </g>
   <g id="patch_40">
    <path d="M 1020.586382 170.4 
L 1023.017063 170.4 
L 1023.017063 170.4 
L 1020.586382 170.4 
z
" clip-path="url(#pa1a0431f6a)" style="fill: #1f77b4; fill-opacity: 0.75; stroke: #000000; stroke-width: 0.520458; stroke-linejoin: miter"/>
   </g>
   <g id="patch_41">
    <path d="M 1023.017063 170.4 
L 1025.447743 170.4 
L 1025.447743 170.4 
L 1023.017063 170.4 
z
" clip-path="url(#pa1a0431f6a)" style="fill: #1f77b4; fill-opacity: 0.75; stroke: #000000; stroke-width: 0.520458; stroke-linejoin: miter"/>
   </g>
   <g id="patch_42">
    <path d="M 1025.447743 170.4 
L 1027.878424 170.4 
L 1027.878424 170.4 
L 1025.447743 170.4 
z
" clip-path="url(#pa1a0431f6a)" style="fill: #1f77b4; fill-opacity: 0.75; stroke: #000000; stroke-width: 0.520458; stroke-linejoin: miter"/>
   </g>
   <g id="patch_43">
    <path d="M 1027.878424 170.4 
L 1030.309105 170.4 
L 1030.309105 170.4 
L 1027.878424 170.4 
z
" clip-path="url(#pa1a0431f6a)" style="fill: #1f77b4; fill-opacity: 0.75; stroke: #000000; stroke-width: 0.520458; stroke-linejoin: miter"/>
   </g>
   <g id="patch_44">
    <path d="M 1030.309105 170.4 
L 1032.739786 170.4 
L 1032.739786 170.4 
L 1030.309105 170.4 
z
" clip-path="url(#pa1a0431f6a)" style="fill: #1f77b4; fill-opacity: 0.75; stroke: #000000; stroke-width: 0.520458; stroke-linejoin: miter"/>
   </g>
   <g id="patch_45">
    <path d="M 1032.739786 170.4 
L 1035.170467 170.4 
L 1035.170467 170.4 
L 1032.739786 170.4 
z
" clip-path="url(#pa1a0431f6a)" style="fill: #1f77b4; fill-opacity: 0.75; stroke: #000000; stroke-width: 0.520458; stroke-linejoin: miter"/>
   </g>
   <g id="patch_46">
    <path d="M 1035.170467 170.4 
L 1037.601148 170.4 
L 1037.601148 170.4 
L 1035.170467 170.4 
z
" clip-path="url(#pa1a0431f6a)" style="fill: #1f77b4; fill-opacity: 0.75; stroke: #000000; stroke-width: 0.520458; stroke-linejoin: miter"/>
   </g>
   <g id="patch_47">
    <path d="M 1037.601148 170.4 
L 1040.031829 170.4 
L 1040.031829 19.914239 
L 1037.601148 19.914239 
z
" clip-path="url(#pa1a0431f6a)" style="fill: #1f77b4; fill-opacity: 0.75; stroke: #000000; stroke-width: 0.520458; stroke-linejoin: miter"/>
   </g>
   <g id="patch_48">
    <path d="M 1040.031829 170.4 
L 1042.46251 170.4 
L 1042.46251 170.4 
L 1040.031829 170.4 
z
" clip-path="url(#pa1a0431f6a)" style="fill: #1f77b4; fill-opacity: 0.75; stroke: #000000; stroke-width: 0.520458; stroke-linejoin: miter"/>
   </g>
   <g id="patch_49">
    <path d="M 1042.46251 170.4 
L 1044.893191 170.4 
L 1044.893191 170.4 
L 1042.46251 170.4 
z
" clip-path="url(#pa1a0431f6a)" style="fill: #1f77b4; fill-opacity: 0.75; stroke: #000000; stroke-width: 0.520458; stroke-linejoin: miter"/>
   </g>
   <g id="patch_50">
    <path d="M 1044.893191 170.4 
L 1047.323872 170.4 
L 1047.323872 87.373373 
L 1044.893191 87.373373 
z
" clip-path="url(#pa1a0431f6a)" style="fill: #1f77b4; fill-opacity: 0.75; stroke: #000000; stroke-width: 0.520458; stroke-linejoin: miter"/>
   </g>
   <g id="patch_51">
    <path d="M 1047.323872 170.4 
L 1049.754553 170.4 
L 1049.754553 170.4 
L 1047.323872 170.4 
z
" clip-path="url(#pa1a0431f6a)" style="fill: #1f77b4; fill-opacity: 0.75; stroke: #000000; stroke-width: 0.520458; stroke-linejoin: miter"/>
   </g>
   <g id="patch_52">
    <path d="M 1049.754553 170.4 
L 1052.185234 170.4 
L 1052.185234 170.4 
L 1049.754553 170.4 
z
" clip-path="url(#pa1a0431f6a)" style="fill: #1f77b4; fill-opacity: 0.75; stroke: #000000; stroke-width: 0.520458; stroke-linejoin: miter"/>
   </g>
   <g id="patch_53">
    <path d="M 1052.185234 170.4 
L 1054.615914 170.4 
L 1054.615914 170.4 
L 1052.185234 170.4 
z
" clip-path="url(#pa1a0431f6a)" style="fill: #1f77b4; fill-opacity: 0.75; stroke: #000000; stroke-width: 0.520458; stroke-linejoin: miter"/>
   </g>
   <g id="patch_54">
    <path d="M 1054.615914 170.4 
L 1057.046595 170.4 
L 1057.046595 170.4 
L 1054.615914 170.4 
z
" clip-path="url(#pa1a0431f6a)" style="fill: #1f77b4; fill-opacity: 0.75; stroke: #000000; stroke-width: 0.520458; stroke-linejoin: miter"/>
   </g>
   <g id="patch_55">
    <path d="M 1057.046595 170.4 
L 1059.477276 170.4 
L 1059.477276 170.4 
L 1057.046595 170.4 
z
" clip-path="url(#pa1a0431f6a)" style="fill: #1f77b4; fill-opacity: 0.75; stroke: #000000; stroke-width: 0.520458; stroke-linejoin: miter"/>
   </g>
   <g id="patch_56">
    <path d="M 1059.477276 170.4 
L 1061.907957 170.4 
L 1061.907957 170.4 
L 1059.477276 170.4 
z
" clip-path="url(#pa1a0431f6a)" style="fill: #1f77b4; fill-opacity: 0.75; stroke: #000000; stroke-width: 0.520458; stroke-linejoin: miter"/>
   </g>
   <g id="patch_57">
    <path d="M 1061.907957 170.4 
L 1064.338638 170.4 
L 1064.338638 170.4 
L 1061.907957 170.4 
z
" clip-path="url(#pa1a0431f6a)" style="fill: #1f77b4; fill-opacity: 0.75; stroke: #000000; stroke-width: 0.520458; stroke-linejoin: miter"/>
   </g>
   <g id="patch_58">
    <path d="M 1064.338638 170.4 
L 1066.769319 170.4 
L 1066.769319 170.4 
L 1064.338638 170.4 
z
" clip-path="url(#pa1a0431f6a)" style="fill: #1f77b4; fill-opacity: 0.75; stroke: #000000; stroke-width: 0.520458; stroke-linejoin: miter"/>
   </g>
   <g id="patch_59">
    <path d="M 1066.769319 170.4 
L 1069.2 170.4 
L 1069.2 162.616254 
L 1066.769319 162.616254 
z
" clip-path="url(#pa1a0431f6a)" style="fill: #1f77b4; fill-opacity: 0.75; stroke: #000000; stroke-width: 0.520458; stroke-linejoin: miter"/>
   </g>
   <g id="matplotlib.axis_5">
    <g id="xtick_48">
     <g id="line2d_54">
      <g>
       <use xlink:href="#mc9a18e162a" x="755.642161" y="170.4" style="stroke: #000000; stroke-width: 0.8"/>
      </g>
     </g>
     <g id="text_15">
      <!-- 0 -->
      <g transform="translate(752.460911 184.998437)scale(0.1 -0.1)">
       <use xlink:href="#DejaVuSans-30"/>
      </g>
     </g>
    </g>
    <g id="xtick_49">
     <g id="line2d_55">
      <g>
       <use xlink:href="#mc9a18e162a" x="792.970476" y="170.4" style="stroke: #000000; stroke-width: 0.8"/>
      </g>
     </g>
     <g id="text_16">
      <!-- 5 -->
      <g transform="translate(789.789226 184.998437)scale(0.1 -0.1)">
       <defs>
        <path id="DejaVuSans-35" d="M 691 4666 
L 3169 4666 
L 3169 4134 
L 1269 4134 
L 1269 2991 
Q 1406 3038 1543 3061 
Q 1681 3084 1819 3084 
Q 2600 3084 3056 2656 
Q 3513 2228 3513 1497 
Q 3513 744 3044 326 
Q 2575 -91 1722 -91 
Q 1428 -91 1123 -41 
Q 819 9 494 109 
L 494 744 
Q 775 591 1075 516 
Q 1375 441 1709 441 
Q 2250 441 2565 725 
Q 2881 1009 2881 1497 
Q 2881 1984 2565 2268 
Q 2250 2553 1709 2553 
Q 1456 2553 1204 2497 
Q 953 2441 691 2322 
L 691 4666 
z
" transform="scale(0.015625)"/>
       </defs>
       <use xlink:href="#DejaVuSans-35"/>
      </g>
     </g>
    </g>
    <g id="xtick_50">
     <g id="line2d_56">
      <g>
       <use xlink:href="#mc9a18e162a" x="830.29879" y="170.4" style="stroke: #000000; stroke-width: 0.8"/>
      </g>
     </g>
     <g id="text_17">
      <!-- 10 -->
      <g transform="translate(823.93629 184.998437)scale(0.1 -0.1)">
       <use xlink:href="#DejaVuSans-31"/>
       <use xlink:href="#DejaVuSans-30" x="63.623047"/>
      </g>
     </g>
    </g>
    <g id="xtick_51">
     <g id="line2d_57">
      <g>
       <use xlink:href="#mc9a18e162a" x="867.627104" y="170.4" style="stroke: #000000; stroke-width: 0.8"/>
      </g>
     </g>
     <g id="text_18">
      <!-- 15 -->
      <g transform="translate(861.264604 184.998437)scale(0.1 -0.1)">
       <use xlink:href="#DejaVuSans-31"/>
       <use xlink:href="#DejaVuSans-35" x="63.623047"/>
      </g>
     </g>
    </g>
    <g id="xtick_52">
     <g id="line2d_58">
      <g>
       <use xlink:href="#mc9a18e162a" x="904.955418" y="170.4" style="stroke: #000000; stroke-width: 0.8"/>
      </g>
     </g>
     <g id="text_19">
      <!-- 20 -->
      <g transform="translate(898.592918 184.998437)scale(0.1 -0.1)">
       <use xlink:href="#DejaVuSans-32"/>
       <use xlink:href="#DejaVuSans-30" x="63.623047"/>
      </g>
     </g>
    </g>
    <g id="xtick_53">
     <g id="line2d_59">
      <g>
       <use xlink:href="#mc9a18e162a" x="942.283732" y="170.4" style="stroke: #000000; stroke-width: 0.8"/>
      </g>
     </g>
     <g id="text_20">
      <!-- 25 -->
      <g transform="translate(935.921232 184.998437)scale(0.1 -0.1)">
       <use xlink:href="#DejaVuSans-32"/>
       <use xlink:href="#DejaVuSans-35" x="63.623047"/>
      </g>
     </g>
    </g>
    <g id="xtick_54">
     <g id="line2d_60">
      <g>
       <use xlink:href="#mc9a18e162a" x="979.612046" y="170.4" style="stroke: #000000; stroke-width: 0.8"/>
      </g>
     </g>
     <g id="text_21">
      <!-- 30 -->
      <g transform="translate(973.249546 184.998437)scale(0.1 -0.1)">
       <use xlink:href="#DejaVuSans-33"/>
       <use xlink:href="#DejaVuSans-30" x="63.623047"/>
      </g>
     </g>
    </g>
    <g id="xtick_55">
     <g id="line2d_61">
      <g>
       <use xlink:href="#mc9a18e162a" x="1016.94036" y="170.4" style="stroke: #000000; stroke-width: 0.8"/>
      </g>
     </g>
     <g id="text_22">
      <!-- 35 -->
      <g transform="translate(1010.57786 184.998437)scale(0.1 -0.1)">
       <use xlink:href="#DejaVuSans-33"/>
       <use xlink:href="#DejaVuSans-35" x="63.623047"/>
      </g>
     </g>
    </g>
    <g id="xtick_56">
     <g id="line2d_62">
      <g>
       <use xlink:href="#mc9a18e162a" x="1054.268674" y="170.4" style="stroke: #000000; stroke-width: 0.8"/>
      </g>
     </g>
     <g id="text_23">
      <!-- 40 -->
      <g transform="translate(1047.906174 184.998437)scale(0.1 -0.1)">
       <use xlink:href="#DejaVuSans-34"/>
       <use xlink:href="#DejaVuSans-30" x="63.623047"/>
      </g>
     </g>
    </g>
    <g id="text_24">
     <!-- game_length -->
     <g transform="translate(879.798424 198.676562)scale(0.1 -0.1)">
      <defs>
       <path id="DejaVuSans-67" d="M 2906 1791 
Q 2906 2416 2648 2759 
Q 2391 3103 1925 3103 
Q 1463 3103 1205 2759 
Q 947 2416 947 1791 
Q 947 1169 1205 825 
Q 1463 481 1925 481 
Q 2391 481 2648 825 
Q 2906 1169 2906 1791 
z
M 3481 434 
Q 3481 -459 3084 -895 
Q 2688 -1331 1869 -1331 
Q 1566 -1331 1297 -1286 
Q 1028 -1241 775 -1147 
L 775 -588 
Q 1028 -725 1275 -790 
Q 1522 -856 1778 -856 
Q 2344 -856 2625 -561 
Q 2906 -266 2906 331 
L 2906 616 
Q 2728 306 2450 153 
Q 2172 0 1784 0 
Q 1141 0 747 490 
Q 353 981 353 1791 
Q 353 2603 747 3093 
Q 1141 3584 1784 3584 
Q 2172 3584 2450 3431 
Q 2728 3278 2906 2969 
L 2906 3500 
L 3481 3500 
L 3481 434 
z
" transform="scale(0.015625)"/>
       <path id="DejaVuSans-68" d="M 3513 2113 
L 3513 0 
L 2938 0 
L 2938 2094 
Q 2938 2591 2744 2837 
Q 2550 3084 2163 3084 
Q 1697 3084 1428 2787 
Q 1159 2491 1159 1978 
L 1159 0 
L 581 0 
L 581 4863 
L 1159 4863 
L 1159 2956 
Q 1366 3272 1645 3428 
Q 1925 3584 2291 3584 
Q 2894 3584 3203 3211 
Q 3513 2838 3513 2113 
z
" transform="scale(0.015625)"/>
      </defs>
      <use xlink:href="#DejaVuSans-67"/>
      <use xlink:href="#DejaVuSans-61" x="63.476562"/>
      <use xlink:href="#DejaVuSans-6d" x="124.755859"/>
      <use xlink:href="#DejaVuSans-65" x="222.167969"/>
      <use xlink:href="#DejaVuSans-5f" x="283.691406"/>
      <use xlink:href="#DejaVuSans-6c" x="333.691406"/>
      <use xlink:href="#DejaVuSans-65" x="361.474609"/>
      <use xlink:href="#DejaVuSans-6e" x="422.998047"/>
      <use xlink:href="#DejaVuSans-67" x="486.376953"/>
      <use xlink:href="#DejaVuSans-74" x="549.853516"/>
      <use xlink:href="#DejaVuSans-68" x="589.0625"/>
     </g>
    </g>
   </g>
   <g id="matplotlib.axis_6">
    <g id="ytick_3">
     <g id="line2d_63">
      <g>
       <use xlink:href="#m06652c477f" x="755.642161" y="170.4" style="stroke: #000000; stroke-width: 0.8"/>
      </g>
     </g>
     <g id="text_25">
      <!-- 0.0 -->
      <g transform="translate(732.739036 174.199219)scale(0.1 -0.1)">
       <use xlink:href="#DejaVuSans-30"/>
       <use xlink:href="#DejaVuSans-2e" x="63.623047"/>
       <use xlink:href="#DejaVuSans-30" x="95.410156"/>
      </g>
     </g>
    </g>
    <g id="ytick_4">
     <g id="line2d_64">
      <g>
       <use xlink:href="#m06652c477f" x="755.642161" y="144.454179" style="stroke: #000000; stroke-width: 0.8"/>
      </g>
     </g>
     <g id="text_26">
      <!-- 0.1 -->
      <g transform="translate(732.739036 148.253398)scale(0.1 -0.1)">
       <use xlink:href="#DejaVuSans-30"/>
       <use xlink:href="#DejaVuSans-2e" x="63.623047"/>
       <use xlink:href="#DejaVuSans-31" x="95.410156"/>
      </g>
     </g>
    </g>
    <g id="ytick_5">
     <g id="line2d_65">
      <g>
       <use xlink:href="#m06652c477f" x="755.642161" y="118.508358" style="stroke: #000000; stroke-width: 0.8"/>
      </g>
     </g>
     <g id="text_27">
      <!-- 0.2 -->
      <g transform="translate(732.739036 122.307577)scale(0.1 -0.1)">
       <use xlink:href="#DejaVuSans-30"/>
       <use xlink:href="#DejaVuSans-2e" x="63.623047"/>
       <use xlink:href="#DejaVuSans-32" x="95.410156"/>
      </g>
     </g>
    </g>
    <g id="ytick_6">
     <g id="line2d_66">
      <g>
       <use xlink:href="#m06652c477f" x="755.642161" y="92.562537" style="stroke: #000000; stroke-width: 0.8"/>
      </g>
     </g>
     <g id="text_28">
      <!-- 0.3 -->
      <g transform="translate(732.739036 96.361756)scale(0.1 -0.1)">
       <use xlink:href="#DejaVuSans-30"/>
       <use xlink:href="#DejaVuSans-2e" x="63.623047"/>
       <use xlink:href="#DejaVuSans-33" x="95.410156"/>
      </g>
     </g>
    </g>
    <g id="ytick_7">
     <g id="line2d_67">
      <g>
       <use xlink:href="#m06652c477f" x="755.642161" y="66.616716" style="stroke: #000000; stroke-width: 0.8"/>
      </g>
     </g>
     <g id="text_29">
      <!-- 0.4 -->
      <g transform="translate(732.739036 70.415935)scale(0.1 -0.1)">
       <use xlink:href="#DejaVuSans-30"/>
       <use xlink:href="#DejaVuSans-2e" x="63.623047"/>
       <use xlink:href="#DejaVuSans-34" x="95.410156"/>
      </g>
     </g>
    </g>
    <g id="ytick_8">
     <g id="line2d_68">
      <g>
       <use xlink:href="#m06652c477f" x="755.642161" y="40.670896" style="stroke: #000000; stroke-width: 0.8"/>
      </g>
     </g>
     <g id="text_30">
      <!-- 0.5 -->
      <g transform="translate(732.739036 44.470114)scale(0.1 -0.1)">
       <use xlink:href="#DejaVuSans-30"/>
       <use xlink:href="#DejaVuSans-2e" x="63.623047"/>
       <use xlink:href="#DejaVuSans-35" x="95.410156"/>
      </g>
     </g>
    </g>
    <g id="ytick_9">
     <g id="line2d_69">
      <g>
       <use xlink:href="#m06652c477f" x="755.642161" y="14.725075" style="stroke: #000000; stroke-width: 0.8"/>
      </g>
     </g>
     <g id="text_31">
      <!-- 0.6 -->
      <g transform="translate(732.739036 18.524293)scale(0.1 -0.1)">
       <defs>
        <path id="DejaVuSans-36" d="M 2113 2584 
Q 1688 2584 1439 2293 
Q 1191 2003 1191 1497 
Q 1191 994 1439 701 
Q 1688 409 2113 409 
Q 2538 409 2786 701 
Q 3034 994 3034 1497 
Q 3034 2003 2786 2293 
Q 2538 2584 2113 2584 
z
M 3366 4563 
L 3366 3988 
Q 3128 4100 2886 4159 
Q 2644 4219 2406 4219 
Q 1781 4219 1451 3797 
Q 1122 3375 1075 2522 
Q 1259 2794 1537 2939 
Q 1816 3084 2150 3084 
Q 2853 3084 3261 2657 
Q 3669 2231 3669 1497 
Q 3669 778 3244 343 
Q 2819 -91 2113 -91 
Q 1303 -91 875 529 
Q 447 1150 447 2328 
Q 447 3434 972 4092 
Q 1497 4750 2381 4750 
Q 2619 4750 2861 4703 
Q 3103 4656 3366 4563 
z
" transform="scale(0.015625)"/>
       </defs>
       <use xlink:href="#DejaVuSans-30"/>
       <use xlink:href="#DejaVuSans-2e" x="63.623047"/>
       <use xlink:href="#DejaVuSans-36" x="95.410156"/>
      </g>
     </g>
    </g>
    <g id="text_32">
     <!-- Probability -->
     <g transform="translate(726.659349 117.823882)rotate(-90)scale(0.1 -0.1)">
      <defs>
       <path id="DejaVuSans-50" d="M 1259 4147 
L 1259 2394 
L 2053 2394 
Q 2494 2394 2734 2622 
Q 2975 2850 2975 3272 
Q 2975 3691 2734 3919 
Q 2494 4147 2053 4147 
L 1259 4147 
z
M 628 4666 
L 2053 4666 
Q 2838 4666 3239 4311 
Q 3641 3956 3641 3272 
Q 3641 2581 3239 2228 
Q 2838 1875 2053 1875 
L 1259 1875 
L 1259 0 
L 628 0 
L 628 4666 
z
" transform="scale(0.015625)"/>
      </defs>
      <use xlink:href="#DejaVuSans-50"/>
      <use xlink:href="#DejaVuSans-72" x="58.552734"/>
      <use xlink:href="#DejaVuSans-6f" x="97.416016"/>
      <use xlink:href="#DejaVuSans-62" x="158.597656"/>
      <use xlink:href="#DejaVuSans-61" x="222.074219"/>
      <use xlink:href="#DejaVuSans-62" x="283.353516"/>
      <use xlink:href="#DejaVuSans-69" x="346.830078"/>
      <use xlink:href="#DejaVuSans-6c" x="374.613281"/>
      <use xlink:href="#DejaVuSans-69" x="402.396484"/>
      <use xlink:href="#DejaVuSans-74" x="430.179688"/>
      <use xlink:href="#DejaVuSans-79" x="469.388672"/>
     </g>
    </g>
   </g>
   <g id="patch_60">
    <path d="M 755.642161 170.4 
L 755.642161 12.389951 
" style="fill: none; stroke: #000000; stroke-width: 0.8; stroke-linejoin: miter; stroke-linecap: square"/>
   </g>
   <g id="patch_61">
    <path d="M 1069.2 170.4 
L 1069.2 12.389951 
" style="fill: none; stroke: #000000; stroke-width: 0.8; stroke-linejoin: miter; stroke-linecap: square"/>
   </g>
   <g id="patch_62">
    <path d="M 755.642161 170.4 
L 1069.2 170.4 
" style="fill: none; stroke: #000000; stroke-width: 0.8; stroke-linejoin: miter; stroke-linecap: square"/>
   </g>
   <g id="patch_63">
    <path d="M 755.642161 12.389951 
L 1069.2 12.389951 
" style="fill: none; stroke: #000000; stroke-width: 0.8; stroke-linejoin: miter; stroke-linecap: square"/>
   </g>
  </g>
 </g>
 <defs>
  <clipPath id="pe5e68fd62f">
   <rect x="14.3" y="12.389951" width="313.557839" height="158.010049"/>
  </clipPath>
  <clipPath id="p4cdaaec30f">
   <rect x="384.971081" y="12.389951" width="313.557839" height="158.010049"/>
  </clipPath>
  <clipPath id="pa1a0431f6a">
   <rect x="755.642161" y="12.389951" width="313.557839" height="158.010049"/>
  </clipPath>
 </defs>
</svg>
