<?xml version="1.0" encoding="utf-8" standalone="no"?>
<!DOCTYPE svg PUBLIC "-//W3C//DTD SVG 1.1//EN"
  "http://www.w3.org/Graphics/SVG/1.1/DTD/svg11.dtd">
<svg xmlns:xlink="http://www.w3.org/1999/xlink" width="1080pt" height="216pt" viewBox="0 0 1080 216" xmlns="http://www.w3.org/2000/svg" version="1.1">
 <metadata>
  <rdf:RDF xmlns:dc="http://purl.org/dc/elements/1.1/" xmlns:cc="http://creativecommons.org/ns#" xmlns:rdf="http://www.w3.org/1999/02/22-rdf-syntax-ns#">
   <cc:Work>
    <dc:type rdf:resource="http://purl.org/dc/dcmitype/StillImage"/>
    <dc:date>2022-04-09T22:45:59.530853</dc:date>
    <dc:format>image/svg+xml</dc:format>
    <dc:creator>
     <cc:Agent>
      <dc:title>Matplotlib v3.5.1, https://matplotlib.org/</dc:title>
     </cc:Agent>
    </dc:creator>
   </cc:Work>
  </rdf:RDF>
 </metadata>
 <defs>
  <style type="text/css">*{stroke-linejoin: round; stroke-linecap: butt}</style>
 </defs>
 <g id="figure_1">
  <g id="patch_1">
   <path d="M 0 216 
L 1080 216 
L 1080 0 
L 0 0 
z
" style="fill: #ffffff"/>
  </g>
  <g id="axes_1">
   <g id="patch_2">
    <path d="M 14.3 170.4 
L 319.357839 170.4 
L 319.357839 10.8 
L 14.3 10.8 
z
" style="fill: #ffffff"/>
   </g>
   <g id="patch_3">
    <path d="M 14.3 50.7 
L 72.260989 50.7 
L 72.260989 77.3 
L 14.3 77.3 
z
" clip-path="url(#p456f5a4a25)" style="fill: #3b4cc0"/>
   </g>
   <g id="patch_4">
    <path d="M 14.3 77.3 
L 66.159833 77.3 
L 66.159833 103.9 
L 14.3 103.9 
z
" clip-path="url(#p456f5a4a25)" style="fill: #dddcdc"/>
   </g>
   <g id="patch_5">
    <path d="M 14.3 103.9 
L 209.537017 103.9 
L 209.537017 130.5 
L 14.3 130.5 
z
" clip-path="url(#p456f5a4a25)" style="fill: #b40426"/>
   </g>
   <g id="matplotlib.axis_1">
    <g id="xtick_1">
     <g id="line2d_1">
      <defs>
       <path id="m02ce94a8cb" d="M 0 0 
L 0 3.5 
" style="stroke: #000000; stroke-width: 0.8"/>
      </defs>
      <g>
       <use xlink:href="#m02ce94a8cb" x="14.3" y="170.4" style="stroke: #000000; stroke-width: 0.8"/>
      </g>
     </g>
    </g>
    <g id="text_1">
     <!-- winner -->
     <g transform="translate(149.881263 188.998437)scale(0.1 -0.1)">
      <defs>
       <path id="DejaVuSans-77" d="M 269 3500 
L 844 3500 
L 1563 769 
L 2278 3500 
L 2956 3500 
L 3675 769 
L 4391 3500 
L 4966 3500 
L 4050 0 
L 3372 0 
L 2619 2869 
L 1863 0 
L 1184 0 
L 269 3500 
z
" transform="scale(0.015625)"/>
       <path id="DejaVuSans-69" d="M 603 3500 
L 1178 3500 
L 1178 0 
L 603 0 
L 603 3500 
z
M 603 4863 
L 1178 4863 
L 1178 4134 
L 603 4134 
L 603 4863 
z
" transform="scale(0.015625)"/>
       <path id="DejaVuSans-6e" d="M 3513 2113 
L 3513 0 
L 2938 0 
L 2938 2094 
Q 2938 2591 2744 2837 
Q 2550 3084 2163 3084 
Q 1697 3084 1428 2787 
Q 1159 2491 1159 1978 
L 1159 0 
L 581 0 
L 581 3500 
L 1159 3500 
L 1159 2956 
Q 1366 3272 1645 3428 
Q 1925 3584 2291 3584 
Q 2894 3584 3203 3211 
Q 3513 2838 3513 2113 
z
" transform="scale(0.015625)"/>
       <path id="DejaVuSans-65" d="M 3597 1894 
L 3597 1613 
L 953 1613 
Q 991 1019 1311 708 
Q 1631 397 2203 397 
Q 2534 397 2845 478 
Q 3156 559 3463 722 
L 3463 178 
Q 3153 47 2828 -22 
Q 2503 -91 2169 -91 
Q 1331 -91 842 396 
Q 353 884 353 1716 
Q 353 2575 817 3079 
Q 1281 3584 2069 3584 
Q 2775 3584 3186 3129 
Q 3597 2675 3597 1894 
z
M 3022 2063 
Q 3016 2534 2758 2815 
Q 2500 3097 2075 3097 
Q 1594 3097 1305 2825 
Q 1016 2553 972 2059 
L 3022 2063 
z
" transform="scale(0.015625)"/>
       <path id="DejaVuSans-72" d="M 2631 2963 
Q 2534 3019 2420 3045 
Q 2306 3072 2169 3072 
Q 1681 3072 1420 2755 
Q 1159 2438 1159 1844 
L 1159 0 
L 581 0 
L 581 3500 
L 1159 3500 
L 1159 2956 
Q 1341 3275 1631 3429 
Q 1922 3584 2338 3584 
Q 2397 3584 2469 3576 
Q 2541 3569 2628 3553 
L 2631 2963 
z
" transform="scale(0.015625)"/>
      </defs>
      <use xlink:href="#DejaVuSans-77"/>
      <use xlink:href="#DejaVuSans-69" x="81.787109"/>
      <use xlink:href="#DejaVuSans-6e" x="109.570312"/>
      <use xlink:href="#DejaVuSans-6e" x="172.949219"/>
      <use xlink:href="#DejaVuSans-65" x="236.328125"/>
      <use xlink:href="#DejaVuSans-72" x="297.851562"/>
     </g>
    </g>
   </g>
   <g id="matplotlib.axis_2"/>
   <g id="patch_6">
    <path d="M 14.3 170.4 
L 14.3 10.8 
" style="fill: none; stroke: #000000; stroke-width: 0.8; stroke-linejoin: miter; stroke-linecap: square"/>
   </g>
   <g id="patch_7">
    <path d="M 319.357839 170.4 
L 319.357839 10.8 
" style="fill: none; stroke: #000000; stroke-width: 0.8; stroke-linejoin: miter; stroke-linecap: square"/>
   </g>
   <g id="patch_8">
    <path d="M 14.3 170.4 
L 319.357839 170.4 
" style="fill: none; stroke: #000000; stroke-width: 0.8; stroke-linejoin: miter; stroke-linecap: square"/>
   </g>
   <g id="patch_9">
    <path d="M 14.3 10.8 
L 319.357839 10.8 
" style="fill: none; stroke: #000000; stroke-width: 0.8; stroke-linejoin: miter; stroke-linecap: square"/>
   </g>
   <g id="text_2">
    <!-- az_100_1-0-1: 19.0% -->
    <g transform="translate(17.350578 63.320031)scale(0.1 -0.1)">
     <defs>
      <path id="DejaVuSans-61" d="M 2194 1759 
Q 1497 1759 1228 1600 
Q 959 1441 959 1056 
Q 959 750 1161 570 
Q 1363 391 1709 391 
Q 2188 391 2477 730 
Q 2766 1069 2766 1631 
L 2766 1759 
L 2194 1759 
z
M 3341 1997 
L 3341 0 
L 2766 0 
L 2766 531 
Q 2569 213 2275 61 
Q 1981 -91 1556 -91 
Q 1019 -91 701 211 
Q 384 513 384 1019 
Q 384 1609 779 1909 
Q 1175 2209 1959 2209 
L 2766 2209 
L 2766 2266 
Q 2766 2663 2505 2880 
Q 2244 3097 1772 3097 
Q 1472 3097 1187 3025 
Q 903 2953 641 2809 
L 641 3341 
Q 956 3463 1253 3523 
Q 1550 3584 1831 3584 
Q 2591 3584 2966 3190 
Q 3341 2797 3341 1997 
z
" transform="scale(0.015625)"/>
      <path id="DejaVuSans-7a" d="M 353 3500 
L 3084 3500 
L 3084 2975 
L 922 459 
L 3084 459 
L 3084 0 
L 275 0 
L 275 525 
L 2438 3041 
L 353 3041 
L 353 3500 
z
" transform="scale(0.015625)"/>
      <path id="DejaVuSans-5f" d="M 3263 -1063 
L 3263 -1509 
L -63 -1509 
L -63 -1063 
L 3263 -1063 
z
" transform="scale(0.015625)"/>
      <path id="DejaVuSans-31" d="M 794 531 
L 1825 531 
L 1825 4091 
L 703 3866 
L 703 4441 
L 1819 4666 
L 2450 4666 
L 2450 531 
L 3481 531 
L 3481 0 
L 794 0 
L 794 531 
z
" transform="scale(0.015625)"/>
      <path id="DejaVuSans-30" d="M 2034 4250 
Q 1547 4250 1301 3770 
Q 1056 3291 1056 2328 
Q 1056 1369 1301 889 
Q 1547 409 2034 409 
Q 2525 409 2770 889 
Q 3016 1369 3016 2328 
Q 3016 3291 2770 3770 
Q 2525 4250 2034 4250 
z
M 2034 4750 
Q 2819 4750 3233 4129 
Q 3647 3509 3647 2328 
Q 3647 1150 3233 529 
Q 2819 -91 2034 -91 
Q 1250 -91 836 529 
Q 422 1150 422 2328 
Q 422 3509 836 4129 
Q 1250 4750 2034 4750 
z
" transform="scale(0.015625)"/>
      <path id="DejaVuSans-2d" d="M 313 2009 
L 1997 2009 
L 1997 1497 
L 313 1497 
L 313 2009 
z
" transform="scale(0.015625)"/>
      <path id="DejaVuSans-3a" d="M 750 794 
L 1409 794 
L 1409 0 
L 750 0 
L 750 794 
z
M 750 3309 
L 1409 3309 
L 1409 2516 
L 750 2516 
L 750 3309 
z
" transform="scale(0.015625)"/>
      <path id="DejaVuSans-20" transform="scale(0.015625)"/>
      <path id="DejaVuSans-39" d="M 703 97 
L 703 672 
Q 941 559 1184 500 
Q 1428 441 1663 441 
Q 2288 441 2617 861 
Q 2947 1281 2994 2138 
Q 2813 1869 2534 1725 
Q 2256 1581 1919 1581 
Q 1219 1581 811 2004 
Q 403 2428 403 3163 
Q 403 3881 828 4315 
Q 1253 4750 1959 4750 
Q 2769 4750 3195 4129 
Q 3622 3509 3622 2328 
Q 3622 1225 3098 567 
Q 2575 -91 1691 -91 
Q 1453 -91 1209 -44 
Q 966 3 703 97 
z
M 1959 2075 
Q 2384 2075 2632 2365 
Q 2881 2656 2881 3163 
Q 2881 3666 2632 3958 
Q 2384 4250 1959 4250 
Q 1534 4250 1286 3958 
Q 1038 3666 1038 3163 
Q 1038 2656 1286 2365 
Q 1534 2075 1959 2075 
z
" transform="scale(0.015625)"/>
      <path id="DejaVuSans-2e" d="M 684 794 
L 1344 794 
L 1344 0 
L 684 0 
L 684 794 
z
" transform="scale(0.015625)"/>
      <path id="DejaVuSans-25" d="M 4653 2053 
Q 4381 2053 4226 1822 
Q 4072 1591 4072 1178 
Q 4072 772 4226 539 
Q 4381 306 4653 306 
Q 4919 306 5073 539 
Q 5228 772 5228 1178 
Q 5228 1588 5073 1820 
Q 4919 2053 4653 2053 
z
M 4653 2450 
Q 5147 2450 5437 2106 
Q 5728 1763 5728 1178 
Q 5728 594 5436 251 
Q 5144 -91 4653 -91 
Q 4153 -91 3862 251 
Q 3572 594 3572 1178 
Q 3572 1766 3864 2108 
Q 4156 2450 4653 2450 
z
M 1428 4353 
Q 1159 4353 1004 4120 
Q 850 3888 850 3481 
Q 850 3069 1003 2837 
Q 1156 2606 1428 2606 
Q 1700 2606 1854 2837 
Q 2009 3069 2009 3481 
Q 2009 3884 1853 4118 
Q 1697 4353 1428 4353 
z
M 4250 4750 
L 4750 4750 
L 1831 -91 
L 1331 -91 
L 4250 4750 
z
M 1428 4750 
Q 1922 4750 2215 4408 
Q 2509 4066 2509 3481 
Q 2509 2891 2217 2550 
Q 1925 2209 1428 2209 
Q 931 2209 642 2551 
Q 353 2894 353 3481 
Q 353 4063 643 4406 
Q 934 4750 1428 4750 
z
" transform="scale(0.015625)"/>
     </defs>
     <use xlink:href="#DejaVuSans-61"/>
     <use xlink:href="#DejaVuSans-7a" x="61.279297"/>
     <use xlink:href="#DejaVuSans-5f" x="113.769531"/>
     <use xlink:href="#DejaVuSans-31" x="163.769531"/>
     <use xlink:href="#DejaVuSans-30" x="227.392578"/>
     <use xlink:href="#DejaVuSans-30" x="291.015625"/>
     <use xlink:href="#DejaVuSans-5f" x="354.638672"/>
     <use xlink:href="#DejaVuSans-31" x="404.638672"/>
     <use xlink:href="#DejaVuSans-2d" x="468.261719"/>
     <use xlink:href="#DejaVuSans-30" x="504.345703"/>
     <use xlink:href="#DejaVuSans-2d" x="567.96875"/>
     <use xlink:href="#DejaVuSans-31" x="604.052734"/>
     <use xlink:href="#DejaVuSans-3a" x="667.675781"/>
     <use xlink:href="#DejaVuSans-20" x="701.367188"/>
     <use xlink:href="#DejaVuSans-31" x="733.154297"/>
     <use xlink:href="#DejaVuSans-39" x="796.777344"/>
     <use xlink:href="#DejaVuSans-2e" x="860.400391"/>
     <use xlink:href="#DejaVuSans-30" x="892.1875"/>
     <use xlink:href="#DejaVuSans-25" x="955.810547"/>
    </g>
   </g>
   <g id="text_3">
    <!-- draw: 17.0% -->
    <g transform="translate(17.350578 90.147375)scale(0.1 -0.1)">
     <defs>
      <path id="DejaVuSans-64" d="M 2906 2969 
L 2906 4863 
L 3481 4863 
L 3481 0 
L 2906 0 
L 2906 525 
Q 2725 213 2448 61 
Q 2172 -91 1784 -91 
Q 1150 -91 751 415 
Q 353 922 353 1747 
Q 353 2572 751 3078 
Q 1150 3584 1784 3584 
Q 2172 3584 2448 3432 
Q 2725 3281 2906 2969 
z
M 947 1747 
Q 947 1113 1208 752 
Q 1469 391 1925 391 
Q 2381 391 2643 752 
Q 2906 1113 2906 1747 
Q 2906 2381 2643 2742 
Q 2381 3103 1925 3103 
Q 1469 3103 1208 2742 
Q 947 2381 947 1747 
z
" transform="scale(0.015625)"/>
      <path id="DejaVuSans-37" d="M 525 4666 
L 3525 4666 
L 3525 4397 
L 1831 0 
L 1172 0 
L 2766 4134 
L 525 4134 
L 525 4666 
z
" transform="scale(0.015625)"/>
     </defs>
     <use xlink:href="#DejaVuSans-64"/>
     <use xlink:href="#DejaVuSans-72" x="63.476562"/>
     <use xlink:href="#DejaVuSans-61" x="104.589844"/>
     <use xlink:href="#DejaVuSans-77" x="165.869141"/>
     <use xlink:href="#DejaVuSans-3a" x="242.15625"/>
     <use xlink:href="#DejaVuSans-20" x="275.847656"/>
     <use xlink:href="#DejaVuSans-31" x="307.634766"/>
     <use xlink:href="#DejaVuSans-37" x="371.257812"/>
     <use xlink:href="#DejaVuSans-2e" x="434.880859"/>
     <use xlink:href="#DejaVuSans-30" x="466.667969"/>
     <use xlink:href="#DejaVuSans-25" x="530.291016"/>
    </g>
   </g>
   <g id="text_4">
    <!-- az_100_1-10-01: 64.0% -->
    <g transform="translate(17.350578 116.520031)scale(0.1 -0.1)">
     <defs>
      <path id="DejaVuSans-36" d="M 2113 2584 
Q 1688 2584 1439 2293 
Q 1191 2003 1191 1497 
Q 1191 994 1439 701 
Q 1688 409 2113 409 
Q 2538 409 2786 701 
Q 3034 994 3034 1497 
Q 3034 2003 2786 2293 
Q 2538 2584 2113 2584 
z
M 3366 4563 
L 3366 3988 
Q 3128 4100 2886 4159 
Q 2644 4219 2406 4219 
Q 1781 4219 1451 3797 
Q 1122 3375 1075 2522 
Q 1259 2794 1537 2939 
Q 1816 3084 2150 3084 
Q 2853 3084 3261 2657 
Q 3669 2231 3669 1497 
Q 3669 778 3244 343 
Q 2819 -91 2113 -91 
Q 1303 -91 875 529 
Q 447 1150 447 2328 
Q 447 3434 972 4092 
Q 1497 4750 2381 4750 
Q 2619 4750 2861 4703 
Q 3103 4656 3366 4563 
z
" transform="scale(0.015625)"/>
      <path id="DejaVuSans-34" d="M 2419 4116 
L 825 1625 
L 2419 1625 
L 2419 4116 
z
M 2253 4666 
L 3047 4666 
L 3047 1625 
L 3713 1625 
L 3713 1100 
L 3047 1100 
L 3047 0 
L 2419 0 
L 2419 1100 
L 313 1100 
L 313 1709 
L 2253 4666 
z
" transform="scale(0.015625)"/>
     </defs>
     <use xlink:href="#DejaVuSans-61"/>
     <use xlink:href="#DejaVuSans-7a" x="61.279297"/>
     <use xlink:href="#DejaVuSans-5f" x="113.769531"/>
     <use xlink:href="#DejaVuSans-31" x="163.769531"/>
     <use xlink:href="#DejaVuSans-30" x="227.392578"/>
     <use xlink:href="#DejaVuSans-30" x="291.015625"/>
     <use xlink:href="#DejaVuSans-5f" x="354.638672"/>
     <use xlink:href="#DejaVuSans-31" x="404.638672"/>
     <use xlink:href="#DejaVuSans-2d" x="468.261719"/>
     <use xlink:href="#DejaVuSans-31" x="504.345703"/>
     <use xlink:href="#DejaVuSans-30" x="567.96875"/>
     <use xlink:href="#DejaVuSans-2d" x="631.591797"/>
     <use xlink:href="#DejaVuSans-30" x="667.675781"/>
     <use xlink:href="#DejaVuSans-31" x="731.298828"/>
     <use xlink:href="#DejaVuSans-3a" x="794.921875"/>
     <use xlink:href="#DejaVuSans-20" x="828.613281"/>
     <use xlink:href="#DejaVuSans-36" x="860.400391"/>
     <use xlink:href="#DejaVuSans-34" x="924.023438"/>
     <use xlink:href="#DejaVuSans-2e" x="987.646484"/>
     <use xlink:href="#DejaVuSans-30" x="1019.433594"/>
     <use xlink:href="#DejaVuSans-25" x="1083.056641"/>
    </g>
   </g>
   <g id="legend_1">
    <g id="patch_10">
     <path d="M 308.357839 23.8 
L 312.357839 23.8 
Q 314.357839 23.8 314.357839 21.8 
L 314.357839 17.8 
Q 314.357839 15.8 312.357839 15.8 
L 308.357839 15.8 
Q 306.357839 15.8 306.357839 17.8 
L 306.357839 21.8 
Q 306.357839 23.8 308.357839 23.8 
z
" style="fill: #ffffff; opacity: 0.8; stroke: #cccccc; stroke-linejoin: miter"/>
    </g>
   </g>
  </g>
  <g id="axes_2">
   <g id="patch_11">
    <path d="M 389.221081 170.4 
L 694.278919 170.4 
L 694.278919 10.8 
L 389.221081 10.8 
z
" style="fill: #ffffff"/>
   </g>
   <g id="PolyCollection_1">
    <defs>
     <path id="mc555751d36" d="M 572.167766 -165.206522 
L 572.167766 -165.393478 
L 573.399263 -165.430145 
L 574.597348 -165.476626 
L 575.763786 -165.533818 
L 576.900206 -165.602184 
L 578.008115 -165.681687 
L 579.088907 -165.771821 
L 580.14388 -165.871767 
L 581.174237 -165.980674 
L 582.181102 -166.098058 
L 583.165521 -166.224269 
L 584.128474 -166.360969 
L 585.070877 -166.511573 
L 585.993589 -166.681586 
L 586.897416 -166.878815 
L 587.783115 -167.113432 
L 588.651399 -167.397904 
L 589.50294 -167.746781 
L 590.338371 -168.176332 
L 591.158292 -168.704 
L 591.963266 -169.347616 
L 592.753829 -170.124309 
L 593.530489 -171.049081 
L 594.293726 -172.133067 
L 595.043995 -173.381587 
L 595.781731 -174.7922 
L 596.507345 -176.353042 
L 597.221229 -178.041781 
L 597.923756 -179.825499 
L 598.615282 -181.6617 
L 599.296146 -183.50052 
L 599.966672 -185.287982 
L 600.627169 -186.969981 
L 601.277933 -188.496533 
L 601.919246 -189.825735 
L 602.55138 -190.926939 
L 603.174593 -191.782732 
L 603.789133 -192.389497 
L 604.395238 -192.756526 
L 604.993138 -192.903857 
L 605.58305 -192.859138 
L 606.165186 -192.653946 
L 606.739749 -192.320011 
L 607.306931 -191.88581 
L 607.866922 -191.373945 
L 608.419901 -190.799613 
L 608.96604 -190.170373 
L 609.505509 -189.487205 
L 610.038466 -188.746702 
L 610.565069 -187.944014 
L 611.085465 -187.076034 
L 611.599801 -186.144232 
L 612.108216 -185.156616 
L 612.610844 -184.128399 
L 613.107815 -183.081245 
L 613.599256 -182.04118 
L 614.085289 -181.035574 
L 614.56603 -180.089722 
L 615.041594 -179.223663 
L 615.512092 -178.449791 
L 615.97763 -177.771669 
L 616.438311 -177.184191 
L 616.894236 -176.675017 
L 617.345503 -176.226952 
L 617.792204 -175.820805 
L 618.234433 -175.438213 
L 618.672276 -175.063947 
L 619.105822 -174.687375 
L 619.535152 -174.302917 
L 619.960349 -173.90958 
L 620.381491 -173.509771 
L 620.798655 -173.107763 
L 621.211915 -172.708179 
L 621.621343 -172.314804 
L 622.027011 -171.929931 
L 622.428986 -171.554266 
L 622.827334 -171.187293 
L 623.222122 -170.827876 
L 623.613412 -170.474898 
L 624.001265 -170.1277 
L 624.385742 -169.78626 
L 624.7669 -169.451089 
L 625.144797 -169.122962 
L 625.519487 -168.802605 
L 625.891025 -168.49049 
L 626.259463 -168.18681 
L 626.624853 -167.891637 
L 626.987244 -167.605214 
L 627.346686 -167.328248 
L 627.703225 -167.062123 
L 628.05691 -166.808928 
L 628.407784 -166.571293 
L 628.755892 -166.352059 
L 629.101278 -166.153863 
L 629.443983 -165.978736 
L 629.78405 -165.827798 
L 630.121517 -165.701099 
L 630.456426 -165.597636 
L 630.788814 -165.515508 
L 631.118718 -165.452171 
L 631.118718 -165.147829 
L 631.118718 -165.147829 
L 630.788814 -165.084492 
L 630.456426 -165.002364 
L 630.121517 -164.898901 
L 629.78405 -164.772202 
L 629.443983 -164.621264 
L 629.101278 -164.446137 
L 628.755892 -164.247941 
L 628.407784 -164.028707 
L 628.05691 -163.791072 
L 627.703225 -163.537877 
L 627.346686 -163.271752 
L 626.987244 -162.994786 
L 626.624853 -162.708363 
L 626.259463 -162.41319 
L 625.891025 -162.10951 
L 625.519487 -161.797395 
L 625.144797 -161.477038 
L 624.7669 -161.148911 
L 624.385742 -160.81374 
L 624.001265 -160.4723 
L 623.613412 -160.125102 
L 623.222122 -159.772124 
L 622.827334 -159.412707 
L 622.428986 -159.045734 
L 622.027011 -158.670069 
L 621.621343 -158.285196 
L 621.211915 -157.891821 
L 620.798655 -157.492237 
L 620.381491 -157.090229 
L 619.960349 -156.69042 
L 619.535152 -156.297083 
L 619.105822 -155.912625 
L 618.672276 -155.536053 
L 618.234433 -155.161787 
L 617.792204 -154.779195 
L 617.345503 -154.373048 
L 616.894236 -153.924983 
L 616.438311 -153.415809 
L 615.97763 -152.828331 
L 615.512092 -152.150209 
L 615.041594 -151.376337 
L 614.56603 -150.510278 
L 614.085289 -149.564426 
L 613.599256 -148.55882 
L 613.107815 -147.518755 
L 612.610844 -146.471601 
L 612.108216 -145.443384 
L 611.599801 -144.455768 
L 611.085465 -143.523966 
L 610.565069 -142.655986 
L 610.038466 -141.853298 
L 609.505509 -141.112795 
L 608.96604 -140.429627 
L 608.419901 -139.800387 
L 607.866922 -139.226055 
L 607.306931 -138.71419 
L 606.739749 -138.279989 
L 606.165186 -137.946054 
L 605.58305 -137.740862 
L 604.993138 -137.696143 
L 604.395238 -137.843474 
L 603.789133 -138.210503 
L 603.174593 -138.817268 
L 602.55138 -139.673061 
L 601.919246 -140.774265 
L 601.277933 -142.103467 
L 600.627169 -143.630019 
L 599.966672 -145.312018 
L 599.296146 -147.09948 
L 598.615282 -148.9383 
L 597.923756 -150.774501 
L 597.221229 -152.558219 
L 596.507345 -154.246958 
L 595.781731 -155.8078 
L 595.043995 -157.218413 
L 594.293726 -158.466933 
L 593.530489 -159.550919 
L 592.753829 -160.475691 
L 591.963266 -161.252384 
L 591.158292 -161.896 
L 590.338371 -162.423668 
L 589.50294 -162.853219 
L 588.651399 -163.202096 
L 587.783115 -163.486568 
L 586.897416 -163.721185 
L 585.993589 -163.918414 
L 585.070877 -164.088427 
L 584.128474 -164.239031 
L 583.165521 -164.375731 
L 582.181102 -164.501942 
L 581.174237 -164.619326 
L 580.14388 -164.728233 
L 579.088907 -164.828179 
L 578.008115 -164.918313 
L 576.900206 -164.997816 
L 575.763786 -165.066182 
L 574.597348 -165.123374 
L 573.399263 -165.169855 
L 572.167766 -165.206522 
z
" style="stroke: #797979; stroke-width: 1.5"/>
    </defs>
    <g clip-path="url(#pb780f801ee)">
     <use xlink:href="#mc555751d36" x="0" y="216" style="fill: #aac7fd; stroke: #797979; stroke-width: 1.5"/>
    </g>
   </g>
   <g id="PolyCollection_2">
    <defs>
     <path id="md79b8fb342" d="M 579.67926 -85.384347 
L 579.67926 -85.615653 
L 580.53286 -85.660681 
L 581.370273 -85.718582 
L 582.192102 -85.79142 
L 582.998916 -85.881212 
L 583.791254 -85.989905 
L 584.569626 -86.119418 
L 585.334516 -86.271746 
L 586.086383 -86.449122 
L 586.825663 -86.654228 
L 587.552772 -86.890403 
L 588.268102 -87.161824 
L 588.97203 -87.473614 
L 589.664913 -87.831867 
L 590.347092 -88.243574 
L 591.018894 -88.716479 
L 591.680629 -89.258891 
L 592.332595 -89.879486 
L 592.975076 -90.587104 
L 593.608343 -91.390538 
L 594.232658 -92.298261 
L 594.848269 -93.318033 
L 595.455417 -94.45632 
L 596.054331 -95.717476 
L 596.64523 -97.102701 
L 597.228328 -98.608836 
L 597.803827 -100.227133 
L 598.371922 -101.942202 
L 598.932803 -103.731327 
L 599.486649 -105.564365 
L 600.033635 -107.404351 
L 600.573928 -109.208874 
L 601.107692 -110.932152 
L 601.635081 -112.527654 
L 602.156246 -113.951022 
L 602.671332 -115.162995 
L 603.18048 -116.132042 
L 603.683824 -116.83642 
L 604.181496 -117.265466 
L 604.673622 -117.42 
L 605.160325 -117.311838 
L 605.641721 -116.962501 
L 606.117927 -116.401292 
L 606.589053 -115.662982 
L 607.055205 -114.785366 
L 607.516488 -113.806924 
L 607.973003 -112.764794 
L 608.424847 -111.693189 
L 608.872114 -110.622274 
L 609.314897 -109.577499 
L 609.753285 -108.579282 
L 610.187363 -107.642933 
L 610.617216 -106.778753 
L 611.042926 -105.992232 
L 611.464571 -105.284356 
L 611.882228 -104.652055 
L 612.295972 -104.088808 
L 612.705876 -103.585434 
L 613.11201 -103.131006 
L 613.514443 -102.713811 
L 613.913242 -102.322202 
L 614.308472 -101.945225 
L 614.700196 -101.572918 
L 615.088476 -101.196278 
L 615.473371 -100.80697 
L 615.854941 -100.396957 
L 616.233243 -99.958233 
L 616.608331 -99.482879 
L 616.98026 -98.963523 
L 617.349083 -98.394217 
L 617.714852 -97.771591 
L 618.077615 -97.096037 
L 618.437423 -96.372626 
L 618.794323 -95.611493 
L 619.148362 -94.827478 
L 619.499585 -94.038994 
L 619.848037 -93.26622 
L 620.193761 -92.528887 
L 620.5368 -91.843995 
L 620.877194 -91.223868 
L 621.214985 -90.674844 
L 621.550211 -90.196852 
L 621.882912 -89.783901 
L 622.213125 -89.425388 
L 622.540888 -89.107981 
L 622.866235 -88.817727 
L 623.189204 -88.542038 
L 623.509827 -88.271245 
L 623.82814 -87.99952 
L 624.144174 -87.725083 
L 624.457963 -87.449767 
L 624.769538 -87.178096 
L 625.07893 -86.916102 
L 625.38617 -86.670118 
L 625.691287 -86.445742 
L 625.99431 -86.247107 
L 626.295268 -86.076505 
L 626.594189 -85.934351 
L 626.891101 -85.819411 
L 627.186029 -85.729205 
L 627.186029 -85.270795 
L 627.186029 -85.270795 
L 626.891101 -85.180589 
L 626.594189 -85.065649 
L 626.295268 -84.923495 
L 625.99431 -84.752893 
L 625.691287 -84.554258 
L 625.38617 -84.329882 
L 625.07893 -84.083898 
L 624.769538 -83.821904 
L 624.457963 -83.550233 
L 624.144174 -83.274917 
L 623.82814 -83.00048 
L 623.509827 -82.728755 
L 623.189204 -82.457962 
L 622.866235 -82.182273 
L 622.540888 -81.892019 
L 622.213125 -81.574612 
L 621.882912 -81.216099 
L 621.550211 -80.803148 
L 621.214985 -80.325156 
L 620.877194 -79.776132 
L 620.5368 -79.156005 
L 620.193761 -78.471113 
L 619.848037 -77.73378 
L 619.499585 -76.961006 
L 619.148362 -76.172522 
L 618.794323 -75.388507 
L 618.437423 -74.627374 
L 618.077615 -73.903963 
L 617.714852 -73.228409 
L 617.349083 -72.605783 
L 616.98026 -72.036477 
L 616.608331 -71.517121 
L 616.233243 -71.041767 
L 615.854941 -70.603043 
L 615.473371 -70.19303 
L 615.088476 -69.803722 
L 614.700196 -69.427082 
L 614.308472 -69.054775 
L 613.913242 -68.677798 
L 613.514443 -68.286189 
L 613.11201 -67.868994 
L 612.705876 -67.414566 
L 612.295972 -66.911192 
L 611.882228 -66.347945 
L 611.464571 -65.715644 
L 611.042926 -65.007768 
L 610.617216 -64.221247 
L 610.187363 -63.357067 
L 609.753285 -62.420718 
L 609.314897 -61.422501 
L 608.872114 -60.377726 
L 608.424847 -59.306811 
L 607.973003 -58.235206 
L 607.516488 -57.193076 
L 607.055205 -56.214634 
L 606.589053 -55.337018 
L 606.117927 -54.598708 
L 605.641721 -54.037499 
L 605.160325 -53.688162 
L 604.673622 -53.58 
L 604.181496 -53.734534 
L 603.683824 -54.16358 
L 603.18048 -54.867958 
L 602.671332 -55.837005 
L 602.156246 -57.048978 
L 601.635081 -58.472346 
L 601.107692 -60.067848 
L 600.573928 -61.791126 
L 600.033635 -63.595649 
L 599.486649 -65.435635 
L 598.932803 -67.268673 
L 598.371922 -69.057798 
L 597.803827 -70.772867 
L 597.228328 -72.391164 
L 596.64523 -73.897299 
L 596.054331 -75.282524 
L 595.455417 -76.54368 
L 594.848269 -77.681967 
L 594.232658 -78.701739 
L 593.608343 -79.609462 
L 592.975076 -80.412896 
L 592.332595 -81.120514 
L 591.680629 -81.741109 
L 591.018894 -82.283521 
L 590.347092 -82.756426 
L 589.664913 -83.168133 
L 588.97203 -83.526386 
L 588.268102 -83.838176 
L 587.552772 -84.109597 
L 586.825663 -84.345772 
L 586.086383 -84.550878 
L 585.334516 -84.728254 
L 584.569626 -84.880582 
L 583.791254 -85.010095 
L 582.998916 -85.118788 
L 582.192102 -85.20858 
L 581.370273 -85.281418 
L 580.53286 -85.339319 
L 579.67926 -85.384347 
z
" style="stroke: #797979; stroke-width: 1.5"/>
    </defs>
    <g clip-path="url(#pb780f801ee)">
     <use xlink:href="#md79b8fb342" x="0" y="216" style="fill: #f7b89c; stroke: #797979; stroke-width: 1.5"/>
    </g>
   </g>
   <g id="matplotlib.axis_3">
    <g id="xtick_2">
     <g id="line2d_2">
      <g>
       <use xlink:href="#m02ce94a8cb" x="389.221081" y="170.4" style="stroke: #000000; stroke-width: 0.8"/>
      </g>
     </g>
     <g id="text_5">
      <!-- $\mathdefault{10^{-2}}$ -->
      <g transform="translate(377.471081 184.998437)scale(0.1 -0.1)">
       <defs>
        <path id="DejaVuSans-2212" d="M 678 2272 
L 4684 2272 
L 4684 1741 
L 678 1741 
L 678 2272 
z
" transform="scale(0.015625)"/>
        <path id="DejaVuSans-32" d="M 1228 531 
L 3431 531 
L 3431 0 
L 469 0 
L 469 531 
Q 828 903 1448 1529 
Q 2069 2156 2228 2338 
Q 2531 2678 2651 2914 
Q 2772 3150 2772 3378 
Q 2772 3750 2511 3984 
Q 2250 4219 1831 4219 
Q 1534 4219 1204 4116 
Q 875 4013 500 3803 
L 500 4441 
Q 881 4594 1212 4672 
Q 1544 4750 1819 4750 
Q 2544 4750 2975 4387 
Q 3406 4025 3406 3419 
Q 3406 3131 3298 2873 
Q 3191 2616 2906 2266 
Q 2828 2175 2409 1742 
Q 1991 1309 1228 531 
z
" transform="scale(0.015625)"/>
       </defs>
       <use xlink:href="#DejaVuSans-31" transform="translate(0 0.765625)"/>
       <use xlink:href="#DejaVuSans-30" transform="translate(63.623047 0.765625)"/>
       <use xlink:href="#DejaVuSans-2212" transform="translate(128.203125 39.046875)scale(0.7)"/>
       <use xlink:href="#DejaVuSans-32" transform="translate(186.855469 39.046875)scale(0.7)"/>
      </g>
     </g>
    </g>
    <g id="xtick_3">
     <g id="line2d_3">
      <g>
       <use xlink:href="#m02ce94a8cb" x="490.907027" y="170.4" style="stroke: #000000; stroke-width: 0.8"/>
      </g>
     </g>
     <g id="text_6">
      <!-- $\mathdefault{10^{-1}}$ -->
      <g transform="translate(479.157027 184.998437)scale(0.1 -0.1)">
       <use xlink:href="#DejaVuSans-31" transform="translate(0 0.684375)"/>
       <use xlink:href="#DejaVuSans-30" transform="translate(63.623047 0.684375)"/>
       <use xlink:href="#DejaVuSans-2212" transform="translate(128.203125 38.965625)scale(0.7)"/>
       <use xlink:href="#DejaVuSans-31" transform="translate(186.855469 38.965625)scale(0.7)"/>
      </g>
     </g>
    </g>
    <g id="xtick_4">
     <g id="line2d_4">
      <g>
       <use xlink:href="#m02ce94a8cb" x="592.592973" y="170.4" style="stroke: #000000; stroke-width: 0.8"/>
      </g>
     </g>
     <g id="text_7">
      <!-- $\mathdefault{10^{0}}$ -->
      <g transform="translate(583.792973 184.998437)scale(0.1 -0.1)">
       <use xlink:href="#DejaVuSans-31" transform="translate(0 0.765625)"/>
       <use xlink:href="#DejaVuSans-30" transform="translate(63.623047 0.765625)"/>
       <use xlink:href="#DejaVuSans-30" transform="translate(128.203125 39.046875)scale(0.7)"/>
      </g>
     </g>
    </g>
    <g id="xtick_5">
     <g id="line2d_5">
      <g>
       <use xlink:href="#m02ce94a8cb" x="694.278919" y="170.4" style="stroke: #000000; stroke-width: 0.8"/>
      </g>
     </g>
     <g id="text_8">
      <!-- $\mathdefault{10^{1}}$ -->
      <g transform="translate(685.478919 184.998437)scale(0.1 -0.1)">
       <use xlink:href="#DejaVuSans-31" transform="translate(0 0.684375)"/>
       <use xlink:href="#DejaVuSans-30" transform="translate(63.623047 0.684375)"/>
       <use xlink:href="#DejaVuSans-31" transform="translate(128.203125 38.965625)scale(0.7)"/>
      </g>
     </g>
    </g>
    <g id="xtick_6">
     <g id="line2d_6">
      <defs>
       <path id="m792c9fe2ce" d="M 0 0 
L 0 2 
" style="stroke: #000000; stroke-width: 0.6"/>
      </defs>
      <g>
       <use xlink:href="#m792c9fe2ce" x="419.831601" y="170.4" style="stroke: #000000; stroke-width: 0.6"/>
      </g>
     </g>
    </g>
    <g id="xtick_7">
     <g id="line2d_7">
      <g>
       <use xlink:href="#m792c9fe2ce" x="437.737607" y="170.4" style="stroke: #000000; stroke-width: 0.6"/>
      </g>
     </g>
    </g>
    <g id="xtick_8">
     <g id="line2d_8">
      <g>
       <use xlink:href="#m792c9fe2ce" x="450.442121" y="170.4" style="stroke: #000000; stroke-width: 0.6"/>
      </g>
     </g>
    </g>
    <g id="xtick_9">
     <g id="line2d_9">
      <g>
       <use xlink:href="#m792c9fe2ce" x="460.296507" y="170.4" style="stroke: #000000; stroke-width: 0.6"/>
      </g>
     </g>
    </g>
    <g id="xtick_10">
     <g id="line2d_10">
      <g>
       <use xlink:href="#m792c9fe2ce" x="468.348127" y="170.4" style="stroke: #000000; stroke-width: 0.6"/>
      </g>
     </g>
    </g>
    <g id="xtick_11">
     <g id="line2d_11">
      <g>
       <use xlink:href="#m792c9fe2ce" x="475.155675" y="170.4" style="stroke: #000000; stroke-width: 0.6"/>
      </g>
     </g>
    </g>
    <g id="xtick_12">
     <g id="line2d_12">
      <g>
       <use xlink:href="#m792c9fe2ce" x="481.052641" y="170.4" style="stroke: #000000; stroke-width: 0.6"/>
      </g>
     </g>
    </g>
    <g id="xtick_13">
     <g id="line2d_13">
      <g>
       <use xlink:href="#m792c9fe2ce" x="486.254133" y="170.4" style="stroke: #000000; stroke-width: 0.6"/>
      </g>
     </g>
    </g>
    <g id="xtick_14">
     <g id="line2d_14">
      <g>
       <use xlink:href="#m792c9fe2ce" x="521.517547" y="170.4" style="stroke: #000000; stroke-width: 0.6"/>
      </g>
     </g>
    </g>
    <g id="xtick_15">
     <g id="line2d_15">
      <g>
       <use xlink:href="#m792c9fe2ce" x="539.423553" y="170.4" style="stroke: #000000; stroke-width: 0.6"/>
      </g>
     </g>
    </g>
    <g id="xtick_16">
     <g id="line2d_16">
      <g>
       <use xlink:href="#m792c9fe2ce" x="552.128067" y="170.4" style="stroke: #000000; stroke-width: 0.6"/>
      </g>
     </g>
    </g>
    <g id="xtick_17">
     <g id="line2d_17">
      <g>
       <use xlink:href="#m792c9fe2ce" x="561.982453" y="170.4" style="stroke: #000000; stroke-width: 0.6"/>
      </g>
     </g>
    </g>
    <g id="xtick_18">
     <g id="line2d_18">
      <g>
       <use xlink:href="#m792c9fe2ce" x="570.034073" y="170.4" style="stroke: #000000; stroke-width: 0.6"/>
      </g>
     </g>
    </g>
    <g id="xtick_19">
     <g id="line2d_19">
      <g>
       <use xlink:href="#m792c9fe2ce" x="576.841621" y="170.4" style="stroke: #000000; stroke-width: 0.6"/>
      </g>
     </g>
    </g>
    <g id="xtick_20">
     <g id="line2d_20">
      <g>
       <use xlink:href="#m792c9fe2ce" x="582.738587" y="170.4" style="stroke: #000000; stroke-width: 0.6"/>
      </g>
     </g>
    </g>
    <g id="xtick_21">
     <g id="line2d_21">
      <g>
       <use xlink:href="#m792c9fe2ce" x="587.940079" y="170.4" style="stroke: #000000; stroke-width: 0.6"/>
      </g>
     </g>
    </g>
    <g id="xtick_22">
     <g id="line2d_22">
      <g>
       <use xlink:href="#m792c9fe2ce" x="623.203493" y="170.4" style="stroke: #000000; stroke-width: 0.6"/>
      </g>
     </g>
    </g>
    <g id="xtick_23">
     <g id="line2d_23">
      <g>
       <use xlink:href="#m792c9fe2ce" x="641.109499" y="170.4" style="stroke: #000000; stroke-width: 0.6"/>
      </g>
     </g>
    </g>
    <g id="xtick_24">
     <g id="line2d_24">
      <g>
       <use xlink:href="#m792c9fe2ce" x="653.814013" y="170.4" style="stroke: #000000; stroke-width: 0.6"/>
      </g>
     </g>
    </g>
    <g id="xtick_25">
     <g id="line2d_25">
      <g>
       <use xlink:href="#m792c9fe2ce" x="663.668399" y="170.4" style="stroke: #000000; stroke-width: 0.6"/>
      </g>
     </g>
    </g>
    <g id="xtick_26">
     <g id="line2d_26">
      <g>
       <use xlink:href="#m792c9fe2ce" x="671.720019" y="170.4" style="stroke: #000000; stroke-width: 0.6"/>
      </g>
     </g>
    </g>
    <g id="xtick_27">
     <g id="line2d_27">
      <g>
       <use xlink:href="#m792c9fe2ce" x="678.527567" y="170.4" style="stroke: #000000; stroke-width: 0.6"/>
      </g>
     </g>
    </g>
    <g id="xtick_28">
     <g id="line2d_28">
      <g>
       <use xlink:href="#m792c9fe2ce" x="684.424533" y="170.4" style="stroke: #000000; stroke-width: 0.6"/>
      </g>
     </g>
    </g>
    <g id="xtick_29">
     <g id="line2d_29">
      <g>
       <use xlink:href="#m792c9fe2ce" x="689.626026" y="170.4" style="stroke: #000000; stroke-width: 0.6"/>
      </g>
     </g>
    </g>
    <g id="text_9">
     <!-- distribution of time to move (s) -->
     <g transform="translate(463.704687 198.676562)scale(0.1 -0.1)">
      <defs>
       <path id="DejaVuSans-73" d="M 2834 3397 
L 2834 2853 
Q 2591 2978 2328 3040 
Q 2066 3103 1784 3103 
Q 1356 3103 1142 2972 
Q 928 2841 928 2578 
Q 928 2378 1081 2264 
Q 1234 2150 1697 2047 
L 1894 2003 
Q 2506 1872 2764 1633 
Q 3022 1394 3022 966 
Q 3022 478 2636 193 
Q 2250 -91 1575 -91 
Q 1294 -91 989 -36 
Q 684 19 347 128 
L 347 722 
Q 666 556 975 473 
Q 1284 391 1588 391 
Q 1994 391 2212 530 
Q 2431 669 2431 922 
Q 2431 1156 2273 1281 
Q 2116 1406 1581 1522 
L 1381 1569 
Q 847 1681 609 1914 
Q 372 2147 372 2553 
Q 372 3047 722 3315 
Q 1072 3584 1716 3584 
Q 2034 3584 2315 3537 
Q 2597 3491 2834 3397 
z
" transform="scale(0.015625)"/>
       <path id="DejaVuSans-74" d="M 1172 4494 
L 1172 3500 
L 2356 3500 
L 2356 3053 
L 1172 3053 
L 1172 1153 
Q 1172 725 1289 603 
Q 1406 481 1766 481 
L 2356 481 
L 2356 0 
L 1766 0 
Q 1100 0 847 248 
Q 594 497 594 1153 
L 594 3053 
L 172 3053 
L 172 3500 
L 594 3500 
L 594 4494 
L 1172 4494 
z
" transform="scale(0.015625)"/>
       <path id="DejaVuSans-62" d="M 3116 1747 
Q 3116 2381 2855 2742 
Q 2594 3103 2138 3103 
Q 1681 3103 1420 2742 
Q 1159 2381 1159 1747 
Q 1159 1113 1420 752 
Q 1681 391 2138 391 
Q 2594 391 2855 752 
Q 3116 1113 3116 1747 
z
M 1159 2969 
Q 1341 3281 1617 3432 
Q 1894 3584 2278 3584 
Q 2916 3584 3314 3078 
Q 3713 2572 3713 1747 
Q 3713 922 3314 415 
Q 2916 -91 2278 -91 
Q 1894 -91 1617 61 
Q 1341 213 1159 525 
L 1159 0 
L 581 0 
L 581 4863 
L 1159 4863 
L 1159 2969 
z
" transform="scale(0.015625)"/>
       <path id="DejaVuSans-75" d="M 544 1381 
L 544 3500 
L 1119 3500 
L 1119 1403 
Q 1119 906 1312 657 
Q 1506 409 1894 409 
Q 2359 409 2629 706 
Q 2900 1003 2900 1516 
L 2900 3500 
L 3475 3500 
L 3475 0 
L 2900 0 
L 2900 538 
Q 2691 219 2414 64 
Q 2138 -91 1772 -91 
Q 1169 -91 856 284 
Q 544 659 544 1381 
z
M 1991 3584 
L 1991 3584 
z
" transform="scale(0.015625)"/>
       <path id="DejaVuSans-6f" d="M 1959 3097 
Q 1497 3097 1228 2736 
Q 959 2375 959 1747 
Q 959 1119 1226 758 
Q 1494 397 1959 397 
Q 2419 397 2687 759 
Q 2956 1122 2956 1747 
Q 2956 2369 2687 2733 
Q 2419 3097 1959 3097 
z
M 1959 3584 
Q 2709 3584 3137 3096 
Q 3566 2609 3566 1747 
Q 3566 888 3137 398 
Q 2709 -91 1959 -91 
Q 1206 -91 779 398 
Q 353 888 353 1747 
Q 353 2609 779 3096 
Q 1206 3584 1959 3584 
z
" transform="scale(0.015625)"/>
       <path id="DejaVuSans-66" d="M 2375 4863 
L 2375 4384 
L 1825 4384 
Q 1516 4384 1395 4259 
Q 1275 4134 1275 3809 
L 1275 3500 
L 2222 3500 
L 2222 3053 
L 1275 3053 
L 1275 0 
L 697 0 
L 697 3053 
L 147 3053 
L 147 3500 
L 697 3500 
L 697 3744 
Q 697 4328 969 4595 
Q 1241 4863 1831 4863 
L 2375 4863 
z
" transform="scale(0.015625)"/>
       <path id="DejaVuSans-6d" d="M 3328 2828 
Q 3544 3216 3844 3400 
Q 4144 3584 4550 3584 
Q 5097 3584 5394 3201 
Q 5691 2819 5691 2113 
L 5691 0 
L 5113 0 
L 5113 2094 
Q 5113 2597 4934 2840 
Q 4756 3084 4391 3084 
Q 3944 3084 3684 2787 
Q 3425 2491 3425 1978 
L 3425 0 
L 2847 0 
L 2847 2094 
Q 2847 2600 2669 2842 
Q 2491 3084 2119 3084 
Q 1678 3084 1418 2786 
Q 1159 2488 1159 1978 
L 1159 0 
L 581 0 
L 581 3500 
L 1159 3500 
L 1159 2956 
Q 1356 3278 1631 3431 
Q 1906 3584 2284 3584 
Q 2666 3584 2933 3390 
Q 3200 3197 3328 2828 
z
" transform="scale(0.015625)"/>
       <path id="DejaVuSans-76" d="M 191 3500 
L 800 3500 
L 1894 563 
L 2988 3500 
L 3597 3500 
L 2284 0 
L 1503 0 
L 191 3500 
z
" transform="scale(0.015625)"/>
       <path id="DejaVuSans-28" d="M 1984 4856 
Q 1566 4138 1362 3434 
Q 1159 2731 1159 2009 
Q 1159 1288 1364 580 
Q 1569 -128 1984 -844 
L 1484 -844 
Q 1016 -109 783 600 
Q 550 1309 550 2009 
Q 550 2706 781 3412 
Q 1013 4119 1484 4856 
L 1984 4856 
z
" transform="scale(0.015625)"/>
       <path id="DejaVuSans-29" d="M 513 4856 
L 1013 4856 
Q 1481 4119 1714 3412 
Q 1947 2706 1947 2009 
Q 1947 1309 1714 600 
Q 1481 -109 1013 -844 
L 513 -844 
Q 928 -128 1133 580 
Q 1338 1288 1338 2009 
Q 1338 2731 1133 3434 
Q 928 4138 513 4856 
z
" transform="scale(0.015625)"/>
      </defs>
      <use xlink:href="#DejaVuSans-64"/>
      <use xlink:href="#DejaVuSans-69" x="63.476562"/>
      <use xlink:href="#DejaVuSans-73" x="91.259766"/>
      <use xlink:href="#DejaVuSans-74" x="143.359375"/>
      <use xlink:href="#DejaVuSans-72" x="182.568359"/>
      <use xlink:href="#DejaVuSans-69" x="223.681641"/>
      <use xlink:href="#DejaVuSans-62" x="251.464844"/>
      <use xlink:href="#DejaVuSans-75" x="314.941406"/>
      <use xlink:href="#DejaVuSans-74" x="378.320312"/>
      <use xlink:href="#DejaVuSans-69" x="417.529297"/>
      <use xlink:href="#DejaVuSans-6f" x="445.3125"/>
      <use xlink:href="#DejaVuSans-6e" x="506.494141"/>
      <use xlink:href="#DejaVuSans-20" x="569.873047"/>
      <use xlink:href="#DejaVuSans-6f" x="601.660156"/>
      <use xlink:href="#DejaVuSans-66" x="662.841797"/>
      <use xlink:href="#DejaVuSans-20" x="698.046875"/>
      <use xlink:href="#DejaVuSans-74" x="729.833984"/>
      <use xlink:href="#DejaVuSans-69" x="769.042969"/>
      <use xlink:href="#DejaVuSans-6d" x="796.826172"/>
      <use xlink:href="#DejaVuSans-65" x="894.238281"/>
      <use xlink:href="#DejaVuSans-20" x="955.761719"/>
      <use xlink:href="#DejaVuSans-74" x="987.548828"/>
      <use xlink:href="#DejaVuSans-6f" x="1026.757812"/>
      <use xlink:href="#DejaVuSans-20" x="1087.939453"/>
      <use xlink:href="#DejaVuSans-6d" x="1119.726562"/>
      <use xlink:href="#DejaVuSans-6f" x="1217.138672"/>
      <use xlink:href="#DejaVuSans-76" x="1278.320312"/>
      <use xlink:href="#DejaVuSans-65" x="1337.5"/>
      <use xlink:href="#DejaVuSans-20" x="1399.023438"/>
      <use xlink:href="#DejaVuSans-28" x="1430.810547"/>
      <use xlink:href="#DejaVuSans-73" x="1469.824219"/>
      <use xlink:href="#DejaVuSans-29" x="1521.923828"/>
     </g>
    </g>
   </g>
   <g id="matplotlib.axis_4">
    <g id="ytick_1">
     <g id="line2d_30">
      <defs>
       <path id="m3ca215ddec" d="M 0 0 
L -3.5 0 
" style="stroke: #000000; stroke-width: 0.8"/>
      </defs>
      <g>
       <use xlink:href="#m3ca215ddec" x="389.221081" y="50.7" style="stroke: #000000; stroke-width: 0.8"/>
      </g>
     </g>
     <g id="text_10">
      <!-- az_100_1-0-1 -->
      <g transform="translate(379.863268 113.75625)rotate(-90)scale(0.1 -0.1)">
       <use xlink:href="#DejaVuSans-61"/>
       <use xlink:href="#DejaVuSans-7a" x="61.279297"/>
       <use xlink:href="#DejaVuSans-5f" x="113.769531"/>
       <use xlink:href="#DejaVuSans-31" x="163.769531"/>
       <use xlink:href="#DejaVuSans-30" x="227.392578"/>
       <use xlink:href="#DejaVuSans-30" x="291.015625"/>
       <use xlink:href="#DejaVuSans-5f" x="354.638672"/>
       <use xlink:href="#DejaVuSans-31" x="404.638672"/>
       <use xlink:href="#DejaVuSans-2d" x="468.261719"/>
       <use xlink:href="#DejaVuSans-30" x="504.345703"/>
       <use xlink:href="#DejaVuSans-2d" x="567.96875"/>
       <use xlink:href="#DejaVuSans-31" x="604.052734"/>
      </g>
     </g>
    </g>
    <g id="ytick_2">
     <g id="line2d_31">
      <g>
       <use xlink:href="#m3ca215ddec" x="389.221081" y="130.5" style="stroke: #000000; stroke-width: 0.8"/>
      </g>
     </g>
     <g id="text_11">
      <!-- az_100_1-10-01 -->
      <g transform="translate(379.863268 206.28125)rotate(-90)scale(0.1 -0.1)">
       <use xlink:href="#DejaVuSans-61"/>
       <use xlink:href="#DejaVuSans-7a" x="61.279297"/>
       <use xlink:href="#DejaVuSans-5f" x="113.769531"/>
       <use xlink:href="#DejaVuSans-31" x="163.769531"/>
       <use xlink:href="#DejaVuSans-30" x="227.392578"/>
       <use xlink:href="#DejaVuSans-30" x="291.015625"/>
       <use xlink:href="#DejaVuSans-5f" x="354.638672"/>
       <use xlink:href="#DejaVuSans-31" x="404.638672"/>
       <use xlink:href="#DejaVuSans-2d" x="468.261719"/>
       <use xlink:href="#DejaVuSans-31" x="504.345703"/>
       <use xlink:href="#DejaVuSans-30" x="567.96875"/>
       <use xlink:href="#DejaVuSans-2d" x="631.591797"/>
       <use xlink:href="#DejaVuSans-30" x="667.675781"/>
       <use xlink:href="#DejaVuSans-31" x="731.298828"/>
      </g>
     </g>
    </g>
    <g id="text_12">
     <!-- player -->
     <g transform="translate(366.361706 106.31875)rotate(-90)scale(0.1 -0.1)">
      <defs>
       <path id="DejaVuSans-70" d="M 1159 525 
L 1159 -1331 
L 581 -1331 
L 581 3500 
L 1159 3500 
L 1159 2969 
Q 1341 3281 1617 3432 
Q 1894 3584 2278 3584 
Q 2916 3584 3314 3078 
Q 3713 2572 3713 1747 
Q 3713 922 3314 415 
Q 2916 -91 2278 -91 
Q 1894 -91 1617 61 
Q 1341 213 1159 525 
z
M 3116 1747 
Q 3116 2381 2855 2742 
Q 2594 3103 2138 3103 
Q 1681 3103 1420 2742 
Q 1159 2381 1159 1747 
Q 1159 1113 1420 752 
Q 1681 391 2138 391 
Q 2594 391 2855 752 
Q 3116 1113 3116 1747 
z
" transform="scale(0.015625)"/>
       <path id="DejaVuSans-6c" d="M 603 4863 
L 1178 4863 
L 1178 0 
L 603 0 
L 603 4863 
z
" transform="scale(0.015625)"/>
       <path id="DejaVuSans-79" d="M 2059 -325 
Q 1816 -950 1584 -1140 
Q 1353 -1331 966 -1331 
L 506 -1331 
L 506 -850 
L 844 -850 
Q 1081 -850 1212 -737 
Q 1344 -625 1503 -206 
L 1606 56 
L 191 3500 
L 800 3500 
L 1894 763 
L 2988 3500 
L 3597 3500 
L 2059 -325 
z
" transform="scale(0.015625)"/>
      </defs>
      <use xlink:href="#DejaVuSans-70"/>
      <use xlink:href="#DejaVuSans-6c" x="63.476562"/>
      <use xlink:href="#DejaVuSans-61" x="91.259766"/>
      <use xlink:href="#DejaVuSans-79" x="152.539062"/>
      <use xlink:href="#DejaVuSans-65" x="211.71875"/>
      <use xlink:href="#DejaVuSans-72" x="273.242188"/>
     </g>
    </g>
   </g>
   <g id="line2d_32">
    <path d="M 585.008751 50.7 
L 624.553855 50.7 
" clip-path="url(#pb780f801ee)" style="fill: none; stroke: #797979; stroke-width: 1.5; stroke-linecap: square"/>
   </g>
   <g id="line2d_33">
    <path d="M 602.822023 50.7 
L 613.011084 50.7 
" clip-path="url(#pb780f801ee)" style="fill: none; stroke: #797979; stroke-width: 4.5; stroke-linecap: square"/>
   </g>
   <g id="line2d_34">
    <path d="M 589.302575 130.5 
L 623.357789 130.5 
" clip-path="url(#pb780f801ee)" style="fill: none; stroke: #797979; stroke-width: 1.5; stroke-linecap: square"/>
   </g>
   <g id="line2d_35">
    <path d="M 603.049138 130.5 
L 613.437342 130.5 
" clip-path="url(#pb780f801ee)" style="fill: none; stroke: #797979; stroke-width: 4.5; stroke-linecap: square"/>
   </g>
   <g id="patch_12">
    <path d="M 389.221081 170.4 
L 389.221081 10.8 
" style="fill: none; stroke: #000000; stroke-width: 0.8; stroke-linejoin: miter; stroke-linecap: square"/>
   </g>
   <g id="patch_13">
    <path d="M 694.278919 170.4 
L 694.278919 10.8 
" style="fill: none; stroke: #000000; stroke-width: 0.8; stroke-linejoin: miter; stroke-linecap: square"/>
   </g>
   <g id="patch_14">
    <path d="M 389.221081 170.4 
L 694.278919 170.4 
" style="fill: none; stroke: #000000; stroke-width: 0.8; stroke-linejoin: miter; stroke-linecap: square"/>
   </g>
   <g id="patch_15">
    <path d="M 389.221081 10.8 
L 694.278919 10.8 
" style="fill: none; stroke: #000000; stroke-width: 0.8; stroke-linejoin: miter; stroke-linecap: square"/>
   </g>
   <g id="PathCollection_1">
    <defs>
     <path id="mdf811594be" d="M 0 1.5 
C 0.397805 1.5 0.77937 1.341951 1.06066 1.06066 
C 1.341951 0.77937 1.5 0.397805 1.5 0 
C 1.5 -0.397805 1.341951 -0.77937 1.06066 -1.06066 
C 0.77937 -1.341951 0.397805 -1.5 0 -1.5 
C -0.397805 -1.5 -0.77937 -1.341951 -1.06066 -1.06066 
C -1.341951 -0.77937 -1.5 -0.397805 -1.5 0 
C -1.5 0.397805 -1.341951 0.77937 -1.06066 1.06066 
C -0.77937 1.341951 -0.397805 1.5 0 1.5 
z
" style="stroke: #797979"/>
    </defs>
    <g clip-path="url(#pb780f801ee)">
     <use xlink:href="#mdf811594be" x="607.634718" y="50.7" style="fill: #ffffff; stroke: #797979"/>
    </g>
   </g>
   <g id="PathCollection_2">
    <g clip-path="url(#pb780f801ee)">
     <use xlink:href="#mdf811594be" x="606.7879" y="130.5" style="fill: #ffffff; stroke: #797979"/>
    </g>
   </g>
  </g>
  <g id="axes_3">
   <g id="patch_16">
    <path d="M 764.142161 170.4 
L 1069.2 170.4 
L 1069.2 10.8 
L 764.142161 10.8 
z
" style="fill: #ffffff"/>
   </g>
   <g id="patch_17">
    <path d="M 814.985135 170.4 
L 820.897108 170.4 
L 820.897108 161.955556 
L 814.985135 161.955556 
z
" clip-path="url(#p8ae33211c4)" style="fill: #1f77b4; fill-opacity: 0.75; stroke: #000000; stroke-width: 0.520458; stroke-linejoin: miter"/>
   </g>
   <g id="patch_18">
    <path d="M 820.897108 170.4 
L 826.809082 170.4 
L 826.809082 170.4 
L 820.897108 170.4 
z
" clip-path="url(#p8ae33211c4)" style="fill: #1f77b4; fill-opacity: 0.75; stroke: #000000; stroke-width: 0.520458; stroke-linejoin: miter"/>
   </g>
   <g id="patch_19">
    <path d="M 826.809082 170.4 
L 832.721055 170.4 
L 832.721055 170.4 
L 826.809082 170.4 
z
" clip-path="url(#p8ae33211c4)" style="fill: #1f77b4; fill-opacity: 0.75; stroke: #000000; stroke-width: 0.520458; stroke-linejoin: miter"/>
   </g>
   <g id="patch_20">
    <path d="M 832.721055 170.4 
L 838.633029 170.4 
L 838.633029 170.4 
L 832.721055 170.4 
z
" clip-path="url(#p8ae33211c4)" style="fill: #1f77b4; fill-opacity: 0.75; stroke: #000000; stroke-width: 0.520458; stroke-linejoin: miter"/>
   </g>
   <g id="patch_21">
    <path d="M 838.633029 170.4 
L 844.545003 170.4 
L 844.545003 170.4 
L 838.633029 170.4 
z
" clip-path="url(#p8ae33211c4)" style="fill: #1f77b4; fill-opacity: 0.75; stroke: #000000; stroke-width: 0.520458; stroke-linejoin: miter"/>
   </g>
   <g id="patch_22">
    <path d="M 844.545003 170.4 
L 850.456976 170.4 
L 850.456976 170.4 
L 844.545003 170.4 
z
" clip-path="url(#p8ae33211c4)" style="fill: #1f77b4; fill-opacity: 0.75; stroke: #000000; stroke-width: 0.520458; stroke-linejoin: miter"/>
   </g>
   <g id="patch_23">
    <path d="M 850.456976 170.4 
L 856.36895 170.4 
L 856.36895 161.955556 
L 850.456976 161.955556 
z
" clip-path="url(#p8ae33211c4)" style="fill: #1f77b4; fill-opacity: 0.75; stroke: #000000; stroke-width: 0.520458; stroke-linejoin: miter"/>
   </g>
   <g id="patch_24">
    <path d="M 856.36895 170.4 
L 862.280923 170.4 
L 862.280923 161.955556 
L 856.36895 161.955556 
z
" clip-path="url(#p8ae33211c4)" style="fill: #1f77b4; fill-opacity: 0.75; stroke: #000000; stroke-width: 0.520458; stroke-linejoin: miter"/>
   </g>
   <g id="patch_25">
    <path d="M 862.280923 170.4 
L 868.192897 170.4 
L 868.192897 161.955556 
L 862.280923 161.955556 
z
" clip-path="url(#p8ae33211c4)" style="fill: #1f77b4; fill-opacity: 0.75; stroke: #000000; stroke-width: 0.520458; stroke-linejoin: miter"/>
   </g>
   <g id="patch_26">
    <path d="M 868.192897 170.4 
L 874.104871 170.4 
L 874.104871 153.511111 
L 868.192897 153.511111 
z
" clip-path="url(#p8ae33211c4)" style="fill: #1f77b4; fill-opacity: 0.75; stroke: #000000; stroke-width: 0.520458; stroke-linejoin: miter"/>
   </g>
   <g id="patch_27">
    <path d="M 874.104871 170.4 
L 880.016844 170.4 
L 880.016844 170.4 
L 874.104871 170.4 
z
" clip-path="url(#p8ae33211c4)" style="fill: #1f77b4; fill-opacity: 0.75; stroke: #000000; stroke-width: 0.520458; stroke-linejoin: miter"/>
   </g>
   <g id="patch_28">
    <path d="M 880.016844 170.4 
L 885.928818 170.4 
L 885.928818 153.511111 
L 880.016844 153.511111 
z
" clip-path="url(#p8ae33211c4)" style="fill: #1f77b4; fill-opacity: 0.75; stroke: #000000; stroke-width: 0.520458; stroke-linejoin: miter"/>
   </g>
   <g id="patch_29">
    <path d="M 885.928818 170.4 
L 891.840792 170.4 
L 891.840792 161.955556 
L 885.928818 161.955556 
z
" clip-path="url(#p8ae33211c4)" style="fill: #1f77b4; fill-opacity: 0.75; stroke: #000000; stroke-width: 0.520458; stroke-linejoin: miter"/>
   </g>
   <g id="patch_30">
    <path d="M 891.840792 170.4 
L 897.752765 170.4 
L 897.752765 161.955556 
L 891.840792 161.955556 
z
" clip-path="url(#p8ae33211c4)" style="fill: #1f77b4; fill-opacity: 0.75; stroke: #000000; stroke-width: 0.520458; stroke-linejoin: miter"/>
   </g>
   <g id="patch_31">
    <path d="M 897.752765 170.4 
L 903.664739 170.4 
L 903.664739 145.066667 
L 897.752765 145.066667 
z
" clip-path="url(#p8ae33211c4)" style="fill: #1f77b4; fill-opacity: 0.75; stroke: #000000; stroke-width: 0.520458; stroke-linejoin: miter"/>
   </g>
   <g id="patch_32">
    <path d="M 903.664739 170.4 
L 909.576712 170.4 
L 909.576712 161.955556 
L 903.664739 161.955556 
z
" clip-path="url(#p8ae33211c4)" style="fill: #1f77b4; fill-opacity: 0.75; stroke: #000000; stroke-width: 0.520458; stroke-linejoin: miter"/>
   </g>
   <g id="patch_33">
    <path d="M 909.576712 170.4 
L 915.488686 170.4 
L 915.488686 170.4 
L 909.576712 170.4 
z
" clip-path="url(#p8ae33211c4)" style="fill: #1f77b4; fill-opacity: 0.75; stroke: #000000; stroke-width: 0.520458; stroke-linejoin: miter"/>
   </g>
   <g id="patch_34">
    <path d="M 915.488686 170.4 
L 921.40066 170.4 
L 921.40066 153.511111 
L 915.488686 153.511111 
z
" clip-path="url(#p8ae33211c4)" style="fill: #1f77b4; fill-opacity: 0.75; stroke: #000000; stroke-width: 0.520458; stroke-linejoin: miter"/>
   </g>
   <g id="patch_35">
    <path d="M 921.40066 170.4 
L 927.312633 170.4 
L 927.312633 161.955556 
L 921.40066 161.955556 
z
" clip-path="url(#p8ae33211c4)" style="fill: #1f77b4; fill-opacity: 0.75; stroke: #000000; stroke-width: 0.520458; stroke-linejoin: miter"/>
   </g>
   <g id="patch_36">
    <path d="M 927.312633 170.4 
L 933.224607 170.4 
L 933.224607 145.066667 
L 927.312633 145.066667 
z
" clip-path="url(#p8ae33211c4)" style="fill: #1f77b4; fill-opacity: 0.75; stroke: #000000; stroke-width: 0.520458; stroke-linejoin: miter"/>
   </g>
   <g id="patch_37">
    <path d="M 933.224607 170.4 
L 939.13658 170.4 
L 939.13658 170.4 
L 933.224607 170.4 
z
" clip-path="url(#p8ae33211c4)" style="fill: #1f77b4; fill-opacity: 0.75; stroke: #000000; stroke-width: 0.520458; stroke-linejoin: miter"/>
   </g>
   <g id="patch_38">
    <path d="M 939.13658 170.4 
L 945.048554 170.4 
L 945.048554 170.4 
L 939.13658 170.4 
z
" clip-path="url(#p8ae33211c4)" style="fill: #1f77b4; fill-opacity: 0.75; stroke: #000000; stroke-width: 0.520458; stroke-linejoin: miter"/>
   </g>
   <g id="patch_39">
    <path d="M 945.048554 170.4 
L 950.960528 170.4 
L 950.960528 161.955556 
L 945.048554 161.955556 
z
" clip-path="url(#p8ae33211c4)" style="fill: #1f77b4; fill-opacity: 0.75; stroke: #000000; stroke-width: 0.520458; stroke-linejoin: miter"/>
   </g>
   <g id="patch_40">
    <path d="M 950.960528 170.4 
L 956.872501 170.4 
L 956.872501 153.511111 
L 950.960528 153.511111 
z
" clip-path="url(#p8ae33211c4)" style="fill: #1f77b4; fill-opacity: 0.75; stroke: #000000; stroke-width: 0.520458; stroke-linejoin: miter"/>
   </g>
   <g id="patch_41">
    <path d="M 956.872501 170.4 
L 962.784475 170.4 
L 962.784475 170.4 
L 956.872501 170.4 
z
" clip-path="url(#p8ae33211c4)" style="fill: #1f77b4; fill-opacity: 0.75; stroke: #000000; stroke-width: 0.520458; stroke-linejoin: miter"/>
   </g>
   <g id="patch_42">
    <path d="M 962.784475 170.4 
L 968.696449 170.4 
L 968.696449 153.511111 
L 962.784475 153.511111 
z
" clip-path="url(#p8ae33211c4)" style="fill: #1f77b4; fill-opacity: 0.75; stroke: #000000; stroke-width: 0.520458; stroke-linejoin: miter"/>
   </g>
   <g id="patch_43">
    <path d="M 968.696449 170.4 
L 974.608422 170.4 
L 974.608422 170.4 
L 968.696449 170.4 
z
" clip-path="url(#p8ae33211c4)" style="fill: #1f77b4; fill-opacity: 0.75; stroke: #000000; stroke-width: 0.520458; stroke-linejoin: miter"/>
   </g>
   <g id="patch_44">
    <path d="M 974.608422 170.4 
L 980.520396 170.4 
L 980.520396 161.955556 
L 974.608422 161.955556 
z
" clip-path="url(#p8ae33211c4)" style="fill: #1f77b4; fill-opacity: 0.75; stroke: #000000; stroke-width: 0.520458; stroke-linejoin: miter"/>
   </g>
   <g id="patch_45">
    <path d="M 980.520396 170.4 
L 986.432369 170.4 
L 986.432369 153.511111 
L 980.520396 153.511111 
z
" clip-path="url(#p8ae33211c4)" style="fill: #1f77b4; fill-opacity: 0.75; stroke: #000000; stroke-width: 0.520458; stroke-linejoin: miter"/>
   </g>
   <g id="patch_46">
    <path d="M 986.432369 170.4 
L 992.344343 170.4 
L 992.344343 145.066667 
L 986.432369 145.066667 
z
" clip-path="url(#p8ae33211c4)" style="fill: #1f77b4; fill-opacity: 0.75; stroke: #000000; stroke-width: 0.520458; stroke-linejoin: miter"/>
   </g>
   <g id="patch_47">
    <path d="M 992.344343 170.4 
L 998.256317 170.4 
L 998.256317 145.066667 
L 992.344343 145.066667 
z
" clip-path="url(#p8ae33211c4)" style="fill: #1f77b4; fill-opacity: 0.75; stroke: #000000; stroke-width: 0.520458; stroke-linejoin: miter"/>
   </g>
   <g id="patch_48">
    <path d="M 998.256317 170.4 
L 1004.16829 170.4 
L 1004.16829 153.511111 
L 998.256317 153.511111 
z
" clip-path="url(#p8ae33211c4)" style="fill: #1f77b4; fill-opacity: 0.75; stroke: #000000; stroke-width: 0.520458; stroke-linejoin: miter"/>
   </g>
   <g id="patch_49">
    <path d="M 1004.16829 170.4 
L 1010.080264 170.4 
L 1010.080264 170.4 
L 1004.16829 170.4 
z
" clip-path="url(#p8ae33211c4)" style="fill: #1f77b4; fill-opacity: 0.75; stroke: #000000; stroke-width: 0.520458; stroke-linejoin: miter"/>
   </g>
   <g id="patch_50">
    <path d="M 1010.080264 170.4 
L 1015.992237 170.4 
L 1015.992237 128.177778 
L 1010.080264 128.177778 
z
" clip-path="url(#p8ae33211c4)" style="fill: #1f77b4; fill-opacity: 0.75; stroke: #000000; stroke-width: 0.520458; stroke-linejoin: miter"/>
   </g>
   <g id="patch_51">
    <path d="M 1015.992237 170.4 
L 1021.904211 170.4 
L 1021.904211 119.733333 
L 1015.992237 119.733333 
z
" clip-path="url(#p8ae33211c4)" style="fill: #1f77b4; fill-opacity: 0.75; stroke: #000000; stroke-width: 0.520458; stroke-linejoin: miter"/>
   </g>
   <g id="patch_52">
    <path d="M 1021.904211 170.4 
L 1027.816185 170.4 
L 1027.816185 153.511111 
L 1021.904211 153.511111 
z
" clip-path="url(#p8ae33211c4)" style="fill: #1f77b4; fill-opacity: 0.75; stroke: #000000; stroke-width: 0.520458; stroke-linejoin: miter"/>
   </g>
   <g id="patch_53">
    <path d="M 1027.816185 170.4 
L 1033.728158 170.4 
L 1033.728158 161.955556 
L 1027.816185 161.955556 
z
" clip-path="url(#p8ae33211c4)" style="fill: #1f77b4; fill-opacity: 0.75; stroke: #000000; stroke-width: 0.520458; stroke-linejoin: miter"/>
   </g>
   <g id="patch_54">
    <path d="M 1033.728158 170.4 
L 1039.640132 170.4 
L 1039.640132 170.4 
L 1033.728158 170.4 
z
" clip-path="url(#p8ae33211c4)" style="fill: #1f77b4; fill-opacity: 0.75; stroke: #000000; stroke-width: 0.520458; stroke-linejoin: miter"/>
   </g>
   <g id="patch_55">
    <path d="M 1039.640132 170.4 
L 1045.552106 170.4 
L 1045.552106 77.511111 
L 1039.640132 77.511111 
z
" clip-path="url(#p8ae33211c4)" style="fill: #1f77b4; fill-opacity: 0.75; stroke: #000000; stroke-width: 0.520458; stroke-linejoin: miter"/>
   </g>
   <g id="patch_56">
    <path d="M 1045.552106 170.4 
L 1051.464079 170.4 
L 1051.464079 60.622222 
L 1045.552106 60.622222 
z
" clip-path="url(#p8ae33211c4)" style="fill: #1f77b4; fill-opacity: 0.75; stroke: #000000; stroke-width: 0.520458; stroke-linejoin: miter"/>
   </g>
   <g id="patch_57">
    <path d="M 1051.464079 170.4 
L 1057.376053 170.4 
L 1057.376053 119.733333 
L 1051.464079 119.733333 
z
" clip-path="url(#p8ae33211c4)" style="fill: #1f77b4; fill-opacity: 0.75; stroke: #000000; stroke-width: 0.520458; stroke-linejoin: miter"/>
   </g>
   <g id="patch_58">
    <path d="M 1057.376053 170.4 
L 1063.288026 170.4 
L 1063.288026 153.511111 
L 1057.376053 153.511111 
z
" clip-path="url(#p8ae33211c4)" style="fill: #1f77b4; fill-opacity: 0.75; stroke: #000000; stroke-width: 0.520458; stroke-linejoin: miter"/>
   </g>
   <g id="patch_59">
    <path d="M 1063.288026 170.4 
L 1069.2 170.4 
L 1069.2 18.4 
L 1063.288026 18.4 
z
" clip-path="url(#p8ae33211c4)" style="fill: #1f77b4; fill-opacity: 0.75; stroke: #000000; stroke-width: 0.520458; stroke-linejoin: miter"/>
   </g>
   <g id="matplotlib.axis_5">
    <g id="xtick_30">
     <g id="line2d_36">
      <g>
       <use xlink:href="#m02ce94a8cb" x="764.142161" y="170.4" style="stroke: #000000; stroke-width: 0.8"/>
      </g>
     </g>
     <g id="text_13">
      <!-- 0 -->
      <g transform="translate(760.960911 184.998437)scale(0.1 -0.1)">
       <use xlink:href="#DejaVuSans-30"/>
      </g>
     </g>
    </g>
    <g id="xtick_31">
     <g id="line2d_37">
      <g>
       <use xlink:href="#m02ce94a8cb" x="800.458571" y="170.4" style="stroke: #000000; stroke-width: 0.8"/>
      </g>
     </g>
     <g id="text_14">
      <!-- 5 -->
      <g transform="translate(797.277321 184.998437)scale(0.1 -0.1)">
       <defs>
        <path id="DejaVuSans-35" d="M 691 4666 
L 3169 4666 
L 3169 4134 
L 1269 4134 
L 1269 2991 
Q 1406 3038 1543 3061 
Q 1681 3084 1819 3084 
Q 2600 3084 3056 2656 
Q 3513 2228 3513 1497 
Q 3513 744 3044 326 
Q 2575 -91 1722 -91 
Q 1428 -91 1123 -41 
Q 819 9 494 109 
L 494 744 
Q 775 591 1075 516 
Q 1375 441 1709 441 
Q 2250 441 2565 725 
Q 2881 1009 2881 1497 
Q 2881 1984 2565 2268 
Q 2250 2553 1709 2553 
Q 1456 2553 1204 2497 
Q 953 2441 691 2322 
L 691 4666 
z
" transform="scale(0.015625)"/>
       </defs>
       <use xlink:href="#DejaVuSans-35"/>
      </g>
     </g>
    </g>
    <g id="xtick_32">
     <g id="line2d_38">
      <g>
       <use xlink:href="#m02ce94a8cb" x="836.77498" y="170.4" style="stroke: #000000; stroke-width: 0.8"/>
      </g>
     </g>
     <g id="text_15">
      <!-- 10 -->
      <g transform="translate(830.41248 184.998437)scale(0.1 -0.1)">
       <use xlink:href="#DejaVuSans-31"/>
       <use xlink:href="#DejaVuSans-30" x="63.623047"/>
      </g>
     </g>
    </g>
    <g id="xtick_33">
     <g id="line2d_39">
      <g>
       <use xlink:href="#m02ce94a8cb" x="873.09139" y="170.4" style="stroke: #000000; stroke-width: 0.8"/>
      </g>
     </g>
     <g id="text_16">
      <!-- 15 -->
      <g transform="translate(866.72889 184.998437)scale(0.1 -0.1)">
       <use xlink:href="#DejaVuSans-31"/>
       <use xlink:href="#DejaVuSans-35" x="63.623047"/>
      </g>
     </g>
    </g>
    <g id="xtick_34">
     <g id="line2d_40">
      <g>
       <use xlink:href="#m02ce94a8cb" x="909.407799" y="170.4" style="stroke: #000000; stroke-width: 0.8"/>
      </g>
     </g>
     <g id="text_17">
      <!-- 20 -->
      <g transform="translate(903.045299 184.998437)scale(0.1 -0.1)">
       <use xlink:href="#DejaVuSans-32"/>
       <use xlink:href="#DejaVuSans-30" x="63.623047"/>
      </g>
     </g>
    </g>
    <g id="xtick_35">
     <g id="line2d_41">
      <g>
       <use xlink:href="#m02ce94a8cb" x="945.724208" y="170.4" style="stroke: #000000; stroke-width: 0.8"/>
      </g>
     </g>
     <g id="text_18">
      <!-- 25 -->
      <g transform="translate(939.361708 184.998437)scale(0.1 -0.1)">
       <use xlink:href="#DejaVuSans-32"/>
       <use xlink:href="#DejaVuSans-35" x="63.623047"/>
      </g>
     </g>
    </g>
    <g id="xtick_36">
     <g id="line2d_42">
      <g>
       <use xlink:href="#m02ce94a8cb" x="982.040618" y="170.4" style="stroke: #000000; stroke-width: 0.8"/>
      </g>
     </g>
     <g id="text_19">
      <!-- 30 -->
      <g transform="translate(975.678118 184.998437)scale(0.1 -0.1)">
       <defs>
        <path id="DejaVuSans-33" d="M 2597 2516 
Q 3050 2419 3304 2112 
Q 3559 1806 3559 1356 
Q 3559 666 3084 287 
Q 2609 -91 1734 -91 
Q 1441 -91 1130 -33 
Q 819 25 488 141 
L 488 750 
Q 750 597 1062 519 
Q 1375 441 1716 441 
Q 2309 441 2620 675 
Q 2931 909 2931 1356 
Q 2931 1769 2642 2001 
Q 2353 2234 1838 2234 
L 1294 2234 
L 1294 2753 
L 1863 2753 
Q 2328 2753 2575 2939 
Q 2822 3125 2822 3475 
Q 2822 3834 2567 4026 
Q 2313 4219 1838 4219 
Q 1578 4219 1281 4162 
Q 984 4106 628 3988 
L 628 4550 
Q 988 4650 1302 4700 
Q 1616 4750 1894 4750 
Q 2613 4750 3031 4423 
Q 3450 4097 3450 3541 
Q 3450 3153 3228 2886 
Q 3006 2619 2597 2516 
z
" transform="scale(0.015625)"/>
       </defs>
       <use xlink:href="#DejaVuSans-33"/>
       <use xlink:href="#DejaVuSans-30" x="63.623047"/>
      </g>
     </g>
    </g>
    <g id="xtick_37">
     <g id="line2d_43">
      <g>
       <use xlink:href="#m02ce94a8cb" x="1018.357027" y="170.4" style="stroke: #000000; stroke-width: 0.8"/>
      </g>
     </g>
     <g id="text_20">
      <!-- 35 -->
      <g transform="translate(1011.994527 184.998437)scale(0.1 -0.1)">
       <use xlink:href="#DejaVuSans-33"/>
       <use xlink:href="#DejaVuSans-35" x="63.623047"/>
      </g>
     </g>
    </g>
    <g id="xtick_38">
     <g id="line2d_44">
      <g>
       <use xlink:href="#m02ce94a8cb" x="1054.673436" y="170.4" style="stroke: #000000; stroke-width: 0.8"/>
      </g>
     </g>
     <g id="text_21">
      <!-- 40 -->
      <g transform="translate(1048.310936 184.998437)scale(0.1 -0.1)">
       <use xlink:href="#DejaVuSans-34"/>
       <use xlink:href="#DejaVuSans-30" x="63.623047"/>
      </g>
     </g>
    </g>
    <g id="text_22">
     <!-- game_length -->
     <g transform="translate(884.048424 198.676562)scale(0.1 -0.1)">
      <defs>
       <path id="DejaVuSans-67" d="M 2906 1791 
Q 2906 2416 2648 2759 
Q 2391 3103 1925 3103 
Q 1463 3103 1205 2759 
Q 947 2416 947 1791 
Q 947 1169 1205 825 
Q 1463 481 1925 481 
Q 2391 481 2648 825 
Q 2906 1169 2906 1791 
z
M 3481 434 
Q 3481 -459 3084 -895 
Q 2688 -1331 1869 -1331 
Q 1566 -1331 1297 -1286 
Q 1028 -1241 775 -1147 
L 775 -588 
Q 1028 -725 1275 -790 
Q 1522 -856 1778 -856 
Q 2344 -856 2625 -561 
Q 2906 -266 2906 331 
L 2906 616 
Q 2728 306 2450 153 
Q 2172 0 1784 0 
Q 1141 0 747 490 
Q 353 981 353 1791 
Q 353 2603 747 3093 
Q 1141 3584 1784 3584 
Q 2172 3584 2450 3431 
Q 2728 3278 2906 2969 
L 2906 3500 
L 3481 3500 
L 3481 434 
z
" transform="scale(0.015625)"/>
       <path id="DejaVuSans-68" d="M 3513 2113 
L 3513 0 
L 2938 0 
L 2938 2094 
Q 2938 2591 2744 2837 
Q 2550 3084 2163 3084 
Q 1697 3084 1428 2787 
Q 1159 2491 1159 1978 
L 1159 0 
L 581 0 
L 581 4863 
L 1159 4863 
L 1159 2956 
Q 1366 3272 1645 3428 
Q 1925 3584 2291 3584 
Q 2894 3584 3203 3211 
Q 3513 2838 3513 2113 
z
" transform="scale(0.015625)"/>
      </defs>
      <use xlink:href="#DejaVuSans-67"/>
      <use xlink:href="#DejaVuSans-61" x="63.476562"/>
      <use xlink:href="#DejaVuSans-6d" x="124.755859"/>
      <use xlink:href="#DejaVuSans-65" x="222.167969"/>
      <use xlink:href="#DejaVuSans-5f" x="283.691406"/>
      <use xlink:href="#DejaVuSans-6c" x="333.691406"/>
      <use xlink:href="#DejaVuSans-65" x="361.474609"/>
      <use xlink:href="#DejaVuSans-6e" x="422.998047"/>
      <use xlink:href="#DejaVuSans-67" x="486.376953"/>
      <use xlink:href="#DejaVuSans-74" x="549.853516"/>
      <use xlink:href="#DejaVuSans-68" x="589.0625"/>
     </g>
    </g>
   </g>
   <g id="matplotlib.axis_6">
    <g id="ytick_3">
     <g id="line2d_45">
      <g>
       <use xlink:href="#m3ca215ddec" x="764.142161" y="170.4" style="stroke: #000000; stroke-width: 0.8"/>
      </g>
     </g>
     <g id="text_23">
      <!-- 0.00 -->
      <g transform="translate(734.876536 174.199219)scale(0.1 -0.1)">
       <use xlink:href="#DejaVuSans-30"/>
       <use xlink:href="#DejaVuSans-2e" x="63.623047"/>
       <use xlink:href="#DejaVuSans-30" x="95.410156"/>
       <use xlink:href="#DejaVuSans-30" x="159.033203"/>
      </g>
     </g>
    </g>
    <g id="ytick_4">
     <g id="line2d_46">
      <g>
       <use xlink:href="#m3ca215ddec" x="764.142161" y="128.177778" style="stroke: #000000; stroke-width: 0.8"/>
      </g>
     </g>
     <g id="text_24">
      <!-- 0.05 -->
      <g transform="translate(734.876536 131.976997)scale(0.1 -0.1)">
       <use xlink:href="#DejaVuSans-30"/>
       <use xlink:href="#DejaVuSans-2e" x="63.623047"/>
       <use xlink:href="#DejaVuSans-30" x="95.410156"/>
       <use xlink:href="#DejaVuSans-35" x="159.033203"/>
      </g>
     </g>
    </g>
    <g id="ytick_5">
     <g id="line2d_47">
      <g>
       <use xlink:href="#m3ca215ddec" x="764.142161" y="85.955556" style="stroke: #000000; stroke-width: 0.8"/>
      </g>
     </g>
     <g id="text_25">
      <!-- 0.10 -->
      <g transform="translate(734.876536 89.754774)scale(0.1 -0.1)">
       <use xlink:href="#DejaVuSans-30"/>
       <use xlink:href="#DejaVuSans-2e" x="63.623047"/>
       <use xlink:href="#DejaVuSans-31" x="95.410156"/>
       <use xlink:href="#DejaVuSans-30" x="159.033203"/>
      </g>
     </g>
    </g>
    <g id="ytick_6">
     <g id="line2d_48">
      <g>
       <use xlink:href="#m3ca215ddec" x="764.142161" y="43.733333" style="stroke: #000000; stroke-width: 0.8"/>
      </g>
     </g>
     <g id="text_26">
      <!-- 0.15 -->
      <g transform="translate(734.876536 47.532552)scale(0.1 -0.1)">
       <use xlink:href="#DejaVuSans-30"/>
       <use xlink:href="#DejaVuSans-2e" x="63.623047"/>
       <use xlink:href="#DejaVuSans-31" x="95.410156"/>
       <use xlink:href="#DejaVuSans-35" x="159.033203"/>
      </g>
     </g>
    </g>
    <g id="text_27">
     <!-- Probability -->
     <g transform="translate(728.796849 117.028906)rotate(-90)scale(0.1 -0.1)">
      <defs>
       <path id="DejaVuSans-50" d="M 1259 4147 
L 1259 2394 
L 2053 2394 
Q 2494 2394 2734 2622 
Q 2975 2850 2975 3272 
Q 2975 3691 2734 3919 
Q 2494 4147 2053 4147 
L 1259 4147 
z
M 628 4666 
L 2053 4666 
Q 2838 4666 3239 4311 
Q 3641 3956 3641 3272 
Q 3641 2581 3239 2228 
Q 2838 1875 2053 1875 
L 1259 1875 
L 1259 0 
L 628 0 
L 628 4666 
z
" transform="scale(0.015625)"/>
      </defs>
      <use xlink:href="#DejaVuSans-50"/>
      <use xlink:href="#DejaVuSans-72" x="58.552734"/>
      <use xlink:href="#DejaVuSans-6f" x="97.416016"/>
      <use xlink:href="#DejaVuSans-62" x="158.597656"/>
      <use xlink:href="#DejaVuSans-61" x="222.074219"/>
      <use xlink:href="#DejaVuSans-62" x="283.353516"/>
      <use xlink:href="#DejaVuSans-69" x="346.830078"/>
      <use xlink:href="#DejaVuSans-6c" x="374.613281"/>
      <use xlink:href="#DejaVuSans-69" x="402.396484"/>
      <use xlink:href="#DejaVuSans-74" x="430.179688"/>
      <use xlink:href="#DejaVuSans-79" x="469.388672"/>
     </g>
    </g>
   </g>
   <g id="patch_60">
    <path d="M 764.142161 170.4 
L 764.142161 10.8 
" style="fill: none; stroke: #000000; stroke-width: 0.8; stroke-linejoin: miter; stroke-linecap: square"/>
   </g>
   <g id="patch_61">
    <path d="M 1069.2 170.4 
L 1069.2 10.8 
" style="fill: none; stroke: #000000; stroke-width: 0.8; stroke-linejoin: miter; stroke-linecap: square"/>
   </g>
   <g id="patch_62">
    <path d="M 764.142161 170.4 
L 1069.2 170.4 
" style="fill: none; stroke: #000000; stroke-width: 0.8; stroke-linejoin: miter; stroke-linecap: square"/>
   </g>
   <g id="patch_63">
    <path d="M 764.142161 10.8 
L 1069.2 10.8 
" style="fill: none; stroke: #000000; stroke-width: 0.8; stroke-linejoin: miter; stroke-linecap: square"/>
   </g>
  </g>
 </g>
 <defs>
  <clipPath id="p456f5a4a25">
   <rect x="14.3" y="10.8" width="305.057839" height="159.6"/>
  </clipPath>
  <clipPath id="pb780f801ee">
   <rect x="389.221081" y="10.8" width="305.057839" height="159.6"/>
  </clipPath>
  <clipPath id="p8ae33211c4">
   <rect x="764.142161" y="10.8" width="305.057839" height="159.6"/>
  </clipPath>
 </defs>
</svg>
