<?xml version="1.0" encoding="utf-8" standalone="no"?>
<!DOCTYPE svg PUBLIC "-//W3C//DTD SVG 1.1//EN"
  "http://www.w3.org/Graphics/SVG/1.1/DTD/svg11.dtd">
<svg xmlns:xlink="http://www.w3.org/1999/xlink" width="1080pt" height="216pt" viewBox="0 0 1080 216" xmlns="http://www.w3.org/2000/svg" version="1.1">
 <metadata>
  <rdf:RDF xmlns:dc="http://purl.org/dc/elements/1.1/" xmlns:cc="http://creativecommons.org/ns#" xmlns:rdf="http://www.w3.org/1999/02/22-rdf-syntax-ns#">
   <cc:Work>
    <dc:type rdf:resource="http://purl.org/dc/dcmitype/StillImage"/>
    <dc:date>2022-04-08T09:38:32.796747</dc:date>
    <dc:format>image/svg+xml</dc:format>
    <dc:creator>
     <cc:Agent>
      <dc:title>Matplotlib v3.5.1, https://matplotlib.org/</dc:title>
     </cc:Agent>
    </dc:creator>
   </cc:Work>
  </rdf:RDF>
 </metadata>
 <defs>
  <style type="text/css">*{stroke-linejoin: round; stroke-linecap: butt}</style>
 </defs>
 <g id="figure_1">
  <g id="patch_1">
   <path d="M 0 216 
L 1080 216 
L 1080 0 
L 0 0 
z
" style="fill: #ffffff"/>
  </g>
  <g id="axes_1">
   <g id="patch_2">
    <path d="M 14.3 170.4 
L 323.607839 170.4 
L 323.607839 11.602353 
L 14.3 11.602353 
z
" style="fill: #ffffff"/>
   </g>
   <g id="patch_3">
    <path d="M 14.3 51.301765 
L 54.510019 51.301765 
L 54.510019 77.768039 
L 14.3 77.768039 
z
" clip-path="url(#pb9b8951770)" style="fill: #3b4cc0"/>
   </g>
   <g id="patch_4">
    <path d="M 14.3 77.768039 
L 116.371587 77.768039 
L 116.371587 104.234314 
L 14.3 104.234314 
z
" clip-path="url(#pb9b8951770)" style="fill: #dddcdc"/>
   </g>
   <g id="patch_5">
    <path d="M 14.3 104.234314 
L 181.326233 104.234314 
L 181.326233 130.700588 
L 14.3 130.700588 
z
" clip-path="url(#pb9b8951770)" style="fill: #b40426"/>
   </g>
   <g id="matplotlib.axis_1">
    <g id="xtick_1">
     <g id="line2d_1">
      <defs>
       <path id="mb905bf4561" d="M 0 0 
L 0 3.5 
" style="stroke: #000000; stroke-width: 0.8"/>
      </defs>
      <g>
       <use xlink:href="#mb905bf4561" x="14.3" y="170.4" style="stroke: #000000; stroke-width: 0.8"/>
      </g>
     </g>
    </g>
    <g id="text_1">
     <!-- winner -->
     <g transform="translate(152.006263 188.998437)scale(0.1 -0.1)">
      <defs>
       <path id="DejaVuSans-77" d="M 269 3500 
L 844 3500 
L 1563 769 
L 2278 3500 
L 2956 3500 
L 3675 769 
L 4391 3500 
L 4966 3500 
L 4050 0 
L 3372 0 
L 2619 2869 
L 1863 0 
L 1184 0 
L 269 3500 
z
" transform="scale(0.015625)"/>
       <path id="DejaVuSans-69" d="M 603 3500 
L 1178 3500 
L 1178 0 
L 603 0 
L 603 3500 
z
M 603 4863 
L 1178 4863 
L 1178 4134 
L 603 4134 
L 603 4863 
z
" transform="scale(0.015625)"/>
       <path id="DejaVuSans-6e" d="M 3513 2113 
L 3513 0 
L 2938 0 
L 2938 2094 
Q 2938 2591 2744 2837 
Q 2550 3084 2163 3084 
Q 1697 3084 1428 2787 
Q 1159 2491 1159 1978 
L 1159 0 
L 581 0 
L 581 3500 
L 1159 3500 
L 1159 2956 
Q 1366 3272 1645 3428 
Q 1925 3584 2291 3584 
Q 2894 3584 3203 3211 
Q 3513 2838 3513 2113 
z
" transform="scale(0.015625)"/>
       <path id="DejaVuSans-65" d="M 3597 1894 
L 3597 1613 
L 953 1613 
Q 991 1019 1311 708 
Q 1631 397 2203 397 
Q 2534 397 2845 478 
Q 3156 559 3463 722 
L 3463 178 
Q 3153 47 2828 -22 
Q 2503 -91 2169 -91 
Q 1331 -91 842 396 
Q 353 884 353 1716 
Q 353 2575 817 3079 
Q 1281 3584 2069 3584 
Q 2775 3584 3186 3129 
Q 3597 2675 3597 1894 
z
M 3022 2063 
Q 3016 2534 2758 2815 
Q 2500 3097 2075 3097 
Q 1594 3097 1305 2825 
Q 1016 2553 972 2059 
L 3022 2063 
z
" transform="scale(0.015625)"/>
       <path id="DejaVuSans-72" d="M 2631 2963 
Q 2534 3019 2420 3045 
Q 2306 3072 2169 3072 
Q 1681 3072 1420 2755 
Q 1159 2438 1159 1844 
L 1159 0 
L 581 0 
L 581 3500 
L 1159 3500 
L 1159 2956 
Q 1341 3275 1631 3429 
Q 1922 3584 2338 3584 
Q 2397 3584 2469 3576 
Q 2541 3569 2628 3553 
L 2631 2963 
z
" transform="scale(0.015625)"/>
      </defs>
      <use xlink:href="#DejaVuSans-77"/>
      <use xlink:href="#DejaVuSans-69" x="81.787109"/>
      <use xlink:href="#DejaVuSans-6e" x="109.570312"/>
      <use xlink:href="#DejaVuSans-6e" x="172.949219"/>
      <use xlink:href="#DejaVuSans-65" x="236.328125"/>
      <use xlink:href="#DejaVuSans-72" x="297.851562"/>
     </g>
    </g>
   </g>
   <g id="matplotlib.axis_2"/>
   <g id="patch_6">
    <path d="M 14.3 170.4 
L 14.3 11.602353 
" style="fill: none; stroke: #000000; stroke-width: 0.8; stroke-linejoin: miter; stroke-linecap: square"/>
   </g>
   <g id="patch_7">
    <path d="M 323.607839 170.4 
L 323.607839 11.602353 
" style="fill: none; stroke: #000000; stroke-width: 0.8; stroke-linejoin: miter; stroke-linecap: square"/>
   </g>
   <g id="patch_8">
    <path d="M 14.3 170.4 
L 323.607839 170.4 
" style="fill: none; stroke: #000000; stroke-width: 0.8; stroke-linejoin: miter; stroke-linecap: square"/>
   </g>
   <g id="patch_9">
    <path d="M 14.3 11.602353 
L 323.607839 11.602353 
" style="fill: none; stroke: #000000; stroke-width: 0.8; stroke-linejoin: miter; stroke-linecap: square"/>
   </g>
   <g id="text_2">
    <!-- az_200: 13.0% -->
    <g transform="translate(17.393078 63.830863)scale(0.1 -0.1)">
     <defs>
      <path id="DejaVuSans-61" d="M 2194 1759 
Q 1497 1759 1228 1600 
Q 959 1441 959 1056 
Q 959 750 1161 570 
Q 1363 391 1709 391 
Q 2188 391 2477 730 
Q 2766 1069 2766 1631 
L 2766 1759 
L 2194 1759 
z
M 3341 1997 
L 3341 0 
L 2766 0 
L 2766 531 
Q 2569 213 2275 61 
Q 1981 -91 1556 -91 
Q 1019 -91 701 211 
Q 384 513 384 1019 
Q 384 1609 779 1909 
Q 1175 2209 1959 2209 
L 2766 2209 
L 2766 2266 
Q 2766 2663 2505 2880 
Q 2244 3097 1772 3097 
Q 1472 3097 1187 3025 
Q 903 2953 641 2809 
L 641 3341 
Q 956 3463 1253 3523 
Q 1550 3584 1831 3584 
Q 2591 3584 2966 3190 
Q 3341 2797 3341 1997 
z
" transform="scale(0.015625)"/>
      <path id="DejaVuSans-7a" d="M 353 3500 
L 3084 3500 
L 3084 2975 
L 922 459 
L 3084 459 
L 3084 0 
L 275 0 
L 275 525 
L 2438 3041 
L 353 3041 
L 353 3500 
z
" transform="scale(0.015625)"/>
      <path id="DejaVuSans-5f" d="M 3263 -1063 
L 3263 -1509 
L -63 -1509 
L -63 -1063 
L 3263 -1063 
z
" transform="scale(0.015625)"/>
      <path id="DejaVuSans-32" d="M 1228 531 
L 3431 531 
L 3431 0 
L 469 0 
L 469 531 
Q 828 903 1448 1529 
Q 2069 2156 2228 2338 
Q 2531 2678 2651 2914 
Q 2772 3150 2772 3378 
Q 2772 3750 2511 3984 
Q 2250 4219 1831 4219 
Q 1534 4219 1204 4116 
Q 875 4013 500 3803 
L 500 4441 
Q 881 4594 1212 4672 
Q 1544 4750 1819 4750 
Q 2544 4750 2975 4387 
Q 3406 4025 3406 3419 
Q 3406 3131 3298 2873 
Q 3191 2616 2906 2266 
Q 2828 2175 2409 1742 
Q 1991 1309 1228 531 
z
" transform="scale(0.015625)"/>
      <path id="DejaVuSans-30" d="M 2034 4250 
Q 1547 4250 1301 3770 
Q 1056 3291 1056 2328 
Q 1056 1369 1301 889 
Q 1547 409 2034 409 
Q 2525 409 2770 889 
Q 3016 1369 3016 2328 
Q 3016 3291 2770 3770 
Q 2525 4250 2034 4250 
z
M 2034 4750 
Q 2819 4750 3233 4129 
Q 3647 3509 3647 2328 
Q 3647 1150 3233 529 
Q 2819 -91 2034 -91 
Q 1250 -91 836 529 
Q 422 1150 422 2328 
Q 422 3509 836 4129 
Q 1250 4750 2034 4750 
z
" transform="scale(0.015625)"/>
      <path id="DejaVuSans-3a" d="M 750 794 
L 1409 794 
L 1409 0 
L 750 0 
L 750 794 
z
M 750 3309 
L 1409 3309 
L 1409 2516 
L 750 2516 
L 750 3309 
z
" transform="scale(0.015625)"/>
      <path id="DejaVuSans-20" transform="scale(0.015625)"/>
      <path id="DejaVuSans-31" d="M 794 531 
L 1825 531 
L 1825 4091 
L 703 3866 
L 703 4441 
L 1819 4666 
L 2450 4666 
L 2450 531 
L 3481 531 
L 3481 0 
L 794 0 
L 794 531 
z
" transform="scale(0.015625)"/>
      <path id="DejaVuSans-33" d="M 2597 2516 
Q 3050 2419 3304 2112 
Q 3559 1806 3559 1356 
Q 3559 666 3084 287 
Q 2609 -91 1734 -91 
Q 1441 -91 1130 -33 
Q 819 25 488 141 
L 488 750 
Q 750 597 1062 519 
Q 1375 441 1716 441 
Q 2309 441 2620 675 
Q 2931 909 2931 1356 
Q 2931 1769 2642 2001 
Q 2353 2234 1838 2234 
L 1294 2234 
L 1294 2753 
L 1863 2753 
Q 2328 2753 2575 2939 
Q 2822 3125 2822 3475 
Q 2822 3834 2567 4026 
Q 2313 4219 1838 4219 
Q 1578 4219 1281 4162 
Q 984 4106 628 3988 
L 628 4550 
Q 988 4650 1302 4700 
Q 1616 4750 1894 4750 
Q 2613 4750 3031 4423 
Q 3450 4097 3450 3541 
Q 3450 3153 3228 2886 
Q 3006 2619 2597 2516 
z
" transform="scale(0.015625)"/>
      <path id="DejaVuSans-2e" d="M 684 794 
L 1344 794 
L 1344 0 
L 684 0 
L 684 794 
z
" transform="scale(0.015625)"/>
      <path id="DejaVuSans-25" d="M 4653 2053 
Q 4381 2053 4226 1822 
Q 4072 1591 4072 1178 
Q 4072 772 4226 539 
Q 4381 306 4653 306 
Q 4919 306 5073 539 
Q 5228 772 5228 1178 
Q 5228 1588 5073 1820 
Q 4919 2053 4653 2053 
z
M 4653 2450 
Q 5147 2450 5437 2106 
Q 5728 1763 5728 1178 
Q 5728 594 5436 251 
Q 5144 -91 4653 -91 
Q 4153 -91 3862 251 
Q 3572 594 3572 1178 
Q 3572 1766 3864 2108 
Q 4156 2450 4653 2450 
z
M 1428 4353 
Q 1159 4353 1004 4120 
Q 850 3888 850 3481 
Q 850 3069 1003 2837 
Q 1156 2606 1428 2606 
Q 1700 2606 1854 2837 
Q 2009 3069 2009 3481 
Q 2009 3884 1853 4118 
Q 1697 4353 1428 4353 
z
M 4250 4750 
L 4750 4750 
L 1831 -91 
L 1331 -91 
L 4250 4750 
z
M 1428 4750 
Q 1922 4750 2215 4408 
Q 2509 4066 2509 3481 
Q 2509 2891 2217 2550 
Q 1925 2209 1428 2209 
Q 931 2209 642 2551 
Q 353 2894 353 3481 
Q 353 4063 643 4406 
Q 934 4750 1428 4750 
z
" transform="scale(0.015625)"/>
     </defs>
     <use xlink:href="#DejaVuSans-61"/>
     <use xlink:href="#DejaVuSans-7a" x="61.279297"/>
     <use xlink:href="#DejaVuSans-5f" x="113.769531"/>
     <use xlink:href="#DejaVuSans-32" x="163.769531"/>
     <use xlink:href="#DejaVuSans-30" x="227.392578"/>
     <use xlink:href="#DejaVuSans-30" x="291.015625"/>
     <use xlink:href="#DejaVuSans-3a" x="354.638672"/>
     <use xlink:href="#DejaVuSans-20" x="388.330078"/>
     <use xlink:href="#DejaVuSans-31" x="420.117188"/>
     <use xlink:href="#DejaVuSans-33" x="483.740234"/>
     <use xlink:href="#DejaVuSans-2e" x="547.363281"/>
     <use xlink:href="#DejaVuSans-30" x="579.150391"/>
     <use xlink:href="#DejaVuSans-25" x="642.773438"/>
    </g>
   </g>
   <g id="text_3">
    <!-- draw: 33.0% -->
    <g transform="translate(17.393078 90.524481)scale(0.1 -0.1)">
     <defs>
      <path id="DejaVuSans-64" d="M 2906 2969 
L 2906 4863 
L 3481 4863 
L 3481 0 
L 2906 0 
L 2906 525 
Q 2725 213 2448 61 
Q 2172 -91 1784 -91 
Q 1150 -91 751 415 
Q 353 922 353 1747 
Q 353 2572 751 3078 
Q 1150 3584 1784 3584 
Q 2172 3584 2448 3432 
Q 2725 3281 2906 2969 
z
M 947 1747 
Q 947 1113 1208 752 
Q 1469 391 1925 391 
Q 2381 391 2643 752 
Q 2906 1113 2906 1747 
Q 2906 2381 2643 2742 
Q 2381 3103 1925 3103 
Q 1469 3103 1208 2742 
Q 947 2381 947 1747 
z
" transform="scale(0.015625)"/>
     </defs>
     <use xlink:href="#DejaVuSans-64"/>
     <use xlink:href="#DejaVuSans-72" x="63.476562"/>
     <use xlink:href="#DejaVuSans-61" x="104.589844"/>
     <use xlink:href="#DejaVuSans-77" x="165.869141"/>
     <use xlink:href="#DejaVuSans-3a" x="242.15625"/>
     <use xlink:href="#DejaVuSans-20" x="275.847656"/>
     <use xlink:href="#DejaVuSans-33" x="307.634766"/>
     <use xlink:href="#DejaVuSans-33" x="371.257812"/>
     <use xlink:href="#DejaVuSans-2e" x="434.880859"/>
     <use xlink:href="#DejaVuSans-30" x="466.667969"/>
     <use xlink:href="#DejaVuSans-25" x="530.291016"/>
    </g>
   </g>
   <g id="text_4">
    <!-- az_400: 54.0% -->
    <g transform="translate(17.393078 116.763412)scale(0.1 -0.1)">
     <defs>
      <path id="DejaVuSans-34" d="M 2419 4116 
L 825 1625 
L 2419 1625 
L 2419 4116 
z
M 2253 4666 
L 3047 4666 
L 3047 1625 
L 3713 1625 
L 3713 1100 
L 3047 1100 
L 3047 0 
L 2419 0 
L 2419 1100 
L 313 1100 
L 313 1709 
L 2253 4666 
z
" transform="scale(0.015625)"/>
      <path id="DejaVuSans-35" d="M 691 4666 
L 3169 4666 
L 3169 4134 
L 1269 4134 
L 1269 2991 
Q 1406 3038 1543 3061 
Q 1681 3084 1819 3084 
Q 2600 3084 3056 2656 
Q 3513 2228 3513 1497 
Q 3513 744 3044 326 
Q 2575 -91 1722 -91 
Q 1428 -91 1123 -41 
Q 819 9 494 109 
L 494 744 
Q 775 591 1075 516 
Q 1375 441 1709 441 
Q 2250 441 2565 725 
Q 2881 1009 2881 1497 
Q 2881 1984 2565 2268 
Q 2250 2553 1709 2553 
Q 1456 2553 1204 2497 
Q 953 2441 691 2322 
L 691 4666 
z
" transform="scale(0.015625)"/>
     </defs>
     <use xlink:href="#DejaVuSans-61"/>
     <use xlink:href="#DejaVuSans-7a" x="61.279297"/>
     <use xlink:href="#DejaVuSans-5f" x="113.769531"/>
     <use xlink:href="#DejaVuSans-34" x="163.769531"/>
     <use xlink:href="#DejaVuSans-30" x="227.392578"/>
     <use xlink:href="#DejaVuSans-30" x="291.015625"/>
     <use xlink:href="#DejaVuSans-3a" x="354.638672"/>
     <use xlink:href="#DejaVuSans-20" x="388.330078"/>
     <use xlink:href="#DejaVuSans-35" x="420.117188"/>
     <use xlink:href="#DejaVuSans-34" x="483.740234"/>
     <use xlink:href="#DejaVuSans-2e" x="547.363281"/>
     <use xlink:href="#DejaVuSans-30" x="579.150391"/>
     <use xlink:href="#DejaVuSans-25" x="642.773438"/>
    </g>
   </g>
   <g id="legend_1">
    <g id="patch_10">
     <path d="M 312.607839 24.602353 
L 316.607839 24.602353 
Q 318.607839 24.602353 318.607839 22.602353 
L 318.607839 18.602353 
Q 318.607839 16.602353 316.607839 16.602353 
L 312.607839 16.602353 
Q 310.607839 16.602353 310.607839 18.602353 
L 310.607839 22.602353 
Q 310.607839 24.602353 312.607839 24.602353 
z
" style="fill: #ffffff; opacity: 0.8; stroke: #cccccc; stroke-linejoin: miter"/>
    </g>
   </g>
  </g>
  <g id="axes_2">
   <g id="patch_11">
    <path d="M 387.096081 170.4 
L 696.403919 170.4 
L 696.403919 11.602353 
L 387.096081 11.602353 
z
" style="fill: #ffffff"/>
   </g>
   <g id="PolyCollection_1">
    <defs>
     <path id="m1b3d3436f2" d="M 651.637686 -164.583929 
L 651.637686 -164.812541 
L 651.903957 -164.85141 
L 652.167615 -164.899874 
L 652.428711 -164.959224 
L 652.687294 -165.03076 
L 652.943412 -165.115849 
L 653.197112 -165.216067 
L 653.448437 -165.33342 
L 653.697434 -165.470646 
L 653.944144 -165.631593 
L 654.188609 -165.821631 
L 654.43087 -166.048063 
L 654.670966 -166.320464 
L 654.908935 -166.650882 
L 655.144815 -167.053851 
L 655.378641 -167.546138 
L 655.610451 -168.146195 
L 655.840277 -168.873298 
L 656.068153 -169.746355 
L 656.294114 -170.782441 
L 656.518189 -171.995087 
L 656.740411 -173.392419 
L 656.96081 -174.975276 
L 657.179416 -176.735454 
L 657.396257 -178.654277 
L 657.611363 -180.701726 
L 657.824759 -182.836346 
L 658.036474 -185.006145 
L 658.246534 -187.150614 
L 658.454964 -189.203887 
L 658.661789 -191.098917 
L 658.867034 -192.77236 
L 659.070723 -194.169713 
L 659.27288 -195.250141 
L 659.473526 -195.990379 
L 659.672686 -196.387162 
L 659.87038 -196.457765 
L 660.066629 -196.23849 
L 660.261456 -195.781172 
L 660.45488 -195.148077 
L 660.646921 -194.405782 
L 660.837599 -193.618758 
L 661.026933 -192.843442 
L 661.214943 -192.123484 
L 661.401646 -191.486701 
L 661.58706 -190.944027 
L 661.771204 -190.49047 
L 661.954094 -190.10785 
L 662.135747 -189.768857 
L 662.316181 -189.44183 
L 662.49541 -189.095624 
L 662.673452 -188.703934 
L 662.850322 -188.248582 
L 663.026035 -187.721449 
L 663.200606 -187.1249 
L 663.374051 -186.470828 
L 663.546382 -185.77855 
L 663.717616 -185.071965 
L 663.887764 -184.376435 
L 664.056843 -183.715827 
L 664.224863 -183.110091 
L 664.39184 -182.573608 
L 664.557785 -182.114411 
L 664.722711 -181.734219 
L 664.886631 -181.429123 
L 665.049557 -181.19069 
L 665.211501 -181.007236 
L 665.372474 -180.865042 
L 665.532489 -180.749384 
L 665.691556 -180.645279 
L 665.849687 -180.537981 
L 666.006893 -180.413277 
L 666.163184 -180.257685 
L 666.318572 -180.058649 
L 666.473066 -179.80479 
L 666.626676 -179.486263 
L 666.779413 -179.095191 
L 666.931287 -178.626148 
L 667.082307 -178.076618 
L 667.232483 -177.447361 
L 667.381824 -176.74262 
L 667.530339 -175.970121 
L 667.678038 -175.140851 
L 667.82493 -174.268595 
L 667.971022 -173.369274 
L 668.116325 -172.460124 
L 668.260846 -171.558769 
L 668.404593 -170.682279 
L 668.547576 -169.846265 
L 668.689802 -169.064107 
L 668.831278 -168.346364 
L 668.972014 -167.700407 
L 669.112016 -167.130302 
L 669.251293 -166.636935 
L 669.389851 -166.218338 
L 669.527698 -165.870176 
L 669.664842 -165.58634 
L 669.801289 -165.35956 
L 669.937046 -165.181999 
L 670.072121 -165.045777 
L 670.072121 -164.350694 
L 670.072121 -164.350694 
L 669.937046 -164.214472 
L 669.801289 -164.036911 
L 669.664842 -163.81013 
L 669.527698 -163.526294 
L 669.389851 -163.178133 
L 669.251293 -162.759535 
L 669.112016 -162.266168 
L 668.972014 -161.696064 
L 668.831278 -161.050107 
L 668.689802 -160.332363 
L 668.547576 -159.550205 
L 668.404593 -158.714191 
L 668.260846 -157.837701 
L 668.116325 -156.936347 
L 667.971022 -156.027196 
L 667.82493 -155.127875 
L 667.678038 -154.255619 
L 667.530339 -153.426349 
L 667.381824 -152.653851 
L 667.232483 -151.949109 
L 667.082307 -151.319852 
L 666.931287 -150.770323 
L 666.779413 -150.30128 
L 666.626676 -149.910207 
L 666.473066 -149.59168 
L 666.318572 -149.337822 
L 666.163184 -149.138785 
L 666.006893 -148.983194 
L 665.849687 -148.858489 
L 665.691556 -148.751191 
L 665.532489 -148.647086 
L 665.372474 -148.531428 
L 665.211501 -148.389235 
L 665.049557 -148.20578 
L 664.886631 -147.967348 
L 664.722711 -147.662251 
L 664.557785 -147.282059 
L 664.39184 -146.822862 
L 664.224863 -146.286379 
L 664.056843 -145.680643 
L 663.887764 -145.020036 
L 663.717616 -144.324505 
L 663.546382 -143.61792 
L 663.374051 -142.925642 
L 663.200606 -142.271571 
L 663.026035 -141.675022 
L 662.850322 -141.147888 
L 662.673452 -140.692537 
L 662.49541 -140.300847 
L 662.316181 -139.954641 
L 662.135747 -139.627614 
L 661.954094 -139.288621 
L 661.771204 -138.906001 
L 661.58706 -138.452444 
L 661.401646 -137.90977 
L 661.214943 -137.272987 
L 661.026933 -136.553029 
L 660.837599 -135.777713 
L 660.646921 -134.990688 
L 660.45488 -134.248393 
L 660.261456 -133.615299 
L 660.066629 -133.157981 
L 659.87038 -132.938706 
L 659.672686 -133.009309 
L 659.473526 -133.406091 
L 659.27288 -134.146329 
L 659.070723 -135.226757 
L 658.867034 -136.62411 
L 658.661789 -138.297553 
L 658.454964 -140.192584 
L 658.246534 -142.245857 
L 658.036474 -144.390326 
L 657.824759 -146.560124 
L 657.611363 -148.694744 
L 657.396257 -150.742193 
L 657.179416 -152.661016 
L 656.96081 -154.421194 
L 656.740411 -156.004052 
L 656.518189 -157.401384 
L 656.294114 -158.61403 
L 656.068153 -159.650116 
L 655.840277 -160.523173 
L 655.610451 -161.250275 
L 655.378641 -161.850333 
L 655.144815 -162.34262 
L 654.908935 -162.745589 
L 654.670966 -163.076007 
L 654.43087 -163.348407 
L 654.188609 -163.57484 
L 653.944144 -163.764878 
L 653.697434 -163.925824 
L 653.448437 -164.06305 
L 653.197112 -164.180403 
L 652.943412 -164.280622 
L 652.687294 -164.365711 
L 652.428711 -164.437246 
L 652.167615 -164.496597 
L 651.903957 -164.545061 
L 651.637686 -164.583929 
z
" style="stroke: #797979; stroke-width: 1.5"/>
    </defs>
    <g clip-path="url(#pd575804868)">
     <use xlink:href="#m1b3d3436f2" x="0" y="216" style="fill: #aac7fd; stroke: #797979; stroke-width: 1.5"/>
    </g>
   </g>
   <g id="PolyCollection_2">
    <defs>
     <path id="mdf2875370b" d="M 667.750248 -85.234912 
L 667.750248 -85.363912 
L 668.0292 -85.387717 
L 668.305284 -85.41711 
L 668.578561 -85.452136 
L 668.849085 -85.492342 
L 669.116913 -85.536687 
L 669.382098 -85.583514 
L 669.64469 -85.630603 
L 669.90474 -85.675329 
L 670.162298 -85.714904 
L 670.417409 -85.746696 
L 670.670121 -85.768573 
L 670.920478 -85.779249 
L 671.168524 -85.778576 
L 671.4143 -85.767761 
L 671.657849 -85.749508 
L 671.899209 -85.728092 
L 672.13842 -85.709408 
L 672.375521 -85.701021 
L 672.610547 -85.71227 
L 672.843535 -85.754414 
L 673.074519 -85.840797 
L 673.303535 -85.986967 
L 673.530615 -86.210647 
L 673.755792 -86.531419 
L 673.979097 -86.970017 
L 674.200561 -87.547131 
L 674.420215 -88.281694 
L 674.638087 -89.188724 
L 674.854207 -90.276877 
L 675.068602 -91.545988 
L 675.281299 -92.984948 
L 675.492326 -94.570297 
L 675.701709 -96.26591 
L 675.909472 -98.024033 
L 676.11564 -99.787796 
L 676.320239 -101.495056 
L 676.523291 -103.083258 
L 676.72482 -104.494707 
L 676.924849 -105.681558 
L 677.123399 -106.609781 
L 677.320493 -107.261476 
L 677.516152 -107.63518 
L 677.710395 -107.744145 
L 677.903245 -107.612956 
L 678.09472 -107.273157 
L 678.28484 -106.758745 
L 678.473624 -106.102357 
L 678.661091 -105.332777 
L 678.847258 -104.47405 
L 679.032145 -103.546091 
L 679.215768 -102.566333 
L 679.398144 -101.551763 
L 679.579291 -100.520674 
L 679.759224 -99.49361 
L 679.937961 -98.493255 
L 680.115516 -97.543317 
L 680.291905 -96.666693 
L 680.467144 -95.883358 
L 680.641247 -95.208397 
L 680.81423 -94.650548 
L 680.986105 -94.211427 
L 681.156888 -93.885492 
L 681.326593 -93.660661 
L 681.495232 -93.519474 
L 681.662819 -93.440662 
L 681.829367 -93.401 
L 681.994889 -93.377338 
L 682.159397 -93.348673 
L 682.322905 -93.298077 
L 682.485423 -93.214247 
L 682.646964 -93.092417 
L 682.807539 -92.934425 
L 682.967161 -92.747793 
L 683.125839 -92.543906 
L 683.283586 -92.335508 
L 683.440413 -92.133945 
L 683.596329 -91.94666 
L 683.751345 -91.775441 
L 683.905472 -91.615778 
L 684.05872 -91.457496 
L 684.211099 -91.286529 
L 684.362618 -91.087497 
L 684.513288 -90.846562 
L 684.663117 -90.554014 
L 684.812116 -90.206094 
L 684.960292 -89.805761 
L 685.107656 -89.362333 
L 685.254216 -88.890136 
L 685.399981 -88.406504 
L 685.544959 -87.929511 
L 685.689159 -87.47587 
L 685.832589 -87.05927 
L 685.975258 -86.689366 
L 686.117172 -86.371445 
L 686.258342 -86.10669 
L 686.398773 -85.892871 
L 686.538474 -85.725278 
L 686.677452 -85.597705 
L 686.815716 -85.503344 
L 686.815716 -85.09548 
L 686.815716 -85.09548 
L 686.677452 -85.001118 
L 686.538474 -84.873546 
L 686.398773 -84.705952 
L 686.258342 -84.492133 
L 686.117172 -84.227378 
L 685.975258 -83.909458 
L 685.832589 -83.539554 
L 685.689159 -83.122953 
L 685.544959 -82.669312 
L 685.399981 -82.19232 
L 685.254216 -81.708687 
L 685.107656 -81.236491 
L 684.960292 -80.793063 
L 684.812116 -80.39273 
L 684.663117 -80.044809 
L 684.513288 -79.752261 
L 684.362618 -79.511327 
L 684.211099 -79.312295 
L 684.05872 -79.141328 
L 683.905472 -78.983046 
L 683.751345 -78.823383 
L 683.596329 -78.652163 
L 683.440413 -78.464879 
L 683.283586 -78.263315 
L 683.125839 -78.054917 
L 682.967161 -77.851031 
L 682.807539 -77.664399 
L 682.646964 -77.506406 
L 682.485423 -77.384577 
L 682.322905 -77.300746 
L 682.159397 -77.250151 
L 681.994889 -77.221486 
L 681.829367 -77.197823 
L 681.662819 -77.158161 
L 681.495232 -77.079349 
L 681.326593 -76.938163 
L 681.156888 -76.713331 
L 680.986105 -76.387396 
L 680.81423 -75.948275 
L 680.641247 -75.390426 
L 680.467144 -74.715465 
L 680.291905 -73.93213 
L 680.115516 -73.055507 
L 679.937961 -72.105569 
L 679.759224 -71.105214 
L 679.579291 -70.07815 
L 679.398144 -69.047061 
L 679.215768 -68.032491 
L 679.032145 -67.052733 
L 678.847258 -66.124774 
L 678.661091 -65.266046 
L 678.473624 -64.496466 
L 678.28484 -63.840078 
L 678.09472 -63.325667 
L 677.903245 -62.985868 
L 677.710395 -62.854678 
L 677.516152 -62.963644 
L 677.320493 -63.337348 
L 677.123399 -63.989043 
L 676.924849 -64.917265 
L 676.72482 -66.104116 
L 676.523291 -67.515565 
L 676.320239 -69.103767 
L 676.11564 -70.811028 
L 675.909472 -72.57479 
L 675.701709 -74.332914 
L 675.492326 -76.028526 
L 675.281299 -77.613875 
L 675.068602 -79.052836 
L 674.854207 -80.321947 
L 674.638087 -81.4101 
L 674.420215 -82.317129 
L 674.200561 -83.051692 
L 673.979097 -83.628806 
L 673.755792 -84.067404 
L 673.530615 -84.388176 
L 673.303535 -84.611856 
L 673.074519 -84.758027 
L 672.843535 -84.844409 
L 672.610547 -84.886553 
L 672.375521 -84.897803 
L 672.13842 -84.889416 
L 671.899209 -84.870731 
L 671.657849 -84.849316 
L 671.4143 -84.831063 
L 671.168524 -84.820248 
L 670.920478 -84.819575 
L 670.670121 -84.830251 
L 670.417409 -84.852128 
L 670.162298 -84.883919 
L 669.90474 -84.923495 
L 669.64469 -84.96822 
L 669.382098 -85.015309 
L 669.116913 -85.062136 
L 668.849085 -85.106482 
L 668.578561 -85.146688 
L 668.305284 -85.181713 
L 668.0292 -85.211106 
L 667.750248 -85.234912 
z
" style="stroke: #797979; stroke-width: 1.5"/>
    </defs>
    <g clip-path="url(#pd575804868)">
     <use xlink:href="#mdf2875370b" x="0" y="216" style="fill: #f7b89c; stroke: #797979; stroke-width: 1.5"/>
    </g>
   </g>
   <g id="matplotlib.axis_3">
    <g id="xtick_2">
     <g id="line2d_2">
      <g>
       <use xlink:href="#mb905bf4561" x="387.096081" y="170.4" style="stroke: #000000; stroke-width: 0.8"/>
      </g>
     </g>
     <g id="text_5">
      <!-- $\mathdefault{10^{-4}}$ -->
      <g transform="translate(375.346081 184.998437)scale(0.1 -0.1)">
       <defs>
        <path id="DejaVuSans-2212" d="M 678 2272 
L 4684 2272 
L 4684 1741 
L 678 1741 
L 678 2272 
z
" transform="scale(0.015625)"/>
       </defs>
       <use xlink:href="#DejaVuSans-31" transform="translate(0 0.684375)"/>
       <use xlink:href="#DejaVuSans-30" transform="translate(63.623047 0.684375)"/>
       <use xlink:href="#DejaVuSans-2212" transform="translate(128.203125 38.965625)scale(0.7)"/>
       <use xlink:href="#DejaVuSans-34" transform="translate(186.855469 38.965625)scale(0.7)"/>
      </g>
     </g>
    </g>
    <g id="xtick_3">
     <g id="line2d_3">
      <g>
       <use xlink:href="#mb905bf4561" x="448.957648" y="170.4" style="stroke: #000000; stroke-width: 0.8"/>
      </g>
     </g>
     <g id="text_6">
      <!-- $\mathdefault{10^{-3}}$ -->
      <g transform="translate(437.207648 184.998437)scale(0.1 -0.1)">
       <use xlink:href="#DejaVuSans-31" transform="translate(0 0.765625)"/>
       <use xlink:href="#DejaVuSans-30" transform="translate(63.623047 0.765625)"/>
       <use xlink:href="#DejaVuSans-2212" transform="translate(128.203125 39.046875)scale(0.7)"/>
       <use xlink:href="#DejaVuSans-33" transform="translate(186.855469 39.046875)scale(0.7)"/>
      </g>
     </g>
    </g>
    <g id="xtick_4">
     <g id="line2d_4">
      <g>
       <use xlink:href="#mb905bf4561" x="510.819216" y="170.4" style="stroke: #000000; stroke-width: 0.8"/>
      </g>
     </g>
     <g id="text_7">
      <!-- $\mathdefault{10^{-2}}$ -->
      <g transform="translate(499.069216 184.998437)scale(0.1 -0.1)">
       <use xlink:href="#DejaVuSans-31" transform="translate(0 0.765625)"/>
       <use xlink:href="#DejaVuSans-30" transform="translate(63.623047 0.765625)"/>
       <use xlink:href="#DejaVuSans-2212" transform="translate(128.203125 39.046875)scale(0.7)"/>
       <use xlink:href="#DejaVuSans-32" transform="translate(186.855469 39.046875)scale(0.7)"/>
      </g>
     </g>
    </g>
    <g id="xtick_5">
     <g id="line2d_5">
      <g>
       <use xlink:href="#mb905bf4561" x="572.680784" y="170.4" style="stroke: #000000; stroke-width: 0.8"/>
      </g>
     </g>
     <g id="text_8">
      <!-- $\mathdefault{10^{-1}}$ -->
      <g transform="translate(560.930784 184.998437)scale(0.1 -0.1)">
       <use xlink:href="#DejaVuSans-31" transform="translate(0 0.684375)"/>
       <use xlink:href="#DejaVuSans-30" transform="translate(63.623047 0.684375)"/>
       <use xlink:href="#DejaVuSans-2212" transform="translate(128.203125 38.965625)scale(0.7)"/>
       <use xlink:href="#DejaVuSans-31" transform="translate(186.855469 38.965625)scale(0.7)"/>
      </g>
     </g>
    </g>
    <g id="xtick_6">
     <g id="line2d_6">
      <g>
       <use xlink:href="#mb905bf4561" x="634.542352" y="170.4" style="stroke: #000000; stroke-width: 0.8"/>
      </g>
     </g>
     <g id="text_9">
      <!-- $\mathdefault{10^{0}}$ -->
      <g transform="translate(625.742352 184.998437)scale(0.1 -0.1)">
       <use xlink:href="#DejaVuSans-31" transform="translate(0 0.765625)"/>
       <use xlink:href="#DejaVuSans-30" transform="translate(63.623047 0.765625)"/>
       <use xlink:href="#DejaVuSans-30" transform="translate(128.203125 39.046875)scale(0.7)"/>
      </g>
     </g>
    </g>
    <g id="xtick_7">
     <g id="line2d_7">
      <g>
       <use xlink:href="#mb905bf4561" x="696.403919" y="170.4" style="stroke: #000000; stroke-width: 0.8"/>
      </g>
     </g>
     <g id="text_10">
      <!-- $\mathdefault{10^{1}}$ -->
      <g transform="translate(687.603919 184.998437)scale(0.1 -0.1)">
       <use xlink:href="#DejaVuSans-31" transform="translate(0 0.684375)"/>
       <use xlink:href="#DejaVuSans-30" transform="translate(63.623047 0.684375)"/>
       <use xlink:href="#DejaVuSans-31" transform="translate(128.203125 38.965625)scale(0.7)"/>
      </g>
     </g>
    </g>
    <g id="xtick_8">
     <g id="line2d_8">
      <defs>
       <path id="m9fef8ab6f8" d="M 0 0 
L 0 2 
" style="stroke: #000000; stroke-width: 0.6"/>
      </defs>
      <g>
       <use xlink:href="#m9fef8ab6f8" x="405.718268" y="170.4" style="stroke: #000000; stroke-width: 0.6"/>
      </g>
     </g>
    </g>
    <g id="xtick_9">
     <g id="line2d_9">
      <g>
       <use xlink:href="#m9fef8ab6f8" x="416.61155" y="170.4" style="stroke: #000000; stroke-width: 0.6"/>
      </g>
     </g>
    </g>
    <g id="xtick_10">
     <g id="line2d_10">
      <g>
       <use xlink:href="#m9fef8ab6f8" x="424.340456" y="170.4" style="stroke: #000000; stroke-width: 0.6"/>
      </g>
     </g>
    </g>
    <g id="xtick_11">
     <g id="line2d_11">
      <g>
       <use xlink:href="#m9fef8ab6f8" x="430.335461" y="170.4" style="stroke: #000000; stroke-width: 0.6"/>
      </g>
     </g>
    </g>
    <g id="xtick_12">
     <g id="line2d_12">
      <g>
       <use xlink:href="#m9fef8ab6f8" x="435.233737" y="170.4" style="stroke: #000000; stroke-width: 0.6"/>
      </g>
     </g>
    </g>
    <g id="xtick_13">
     <g id="line2d_13">
      <g>
       <use xlink:href="#m9fef8ab6f8" x="439.37517" y="170.4" style="stroke: #000000; stroke-width: 0.6"/>
      </g>
     </g>
    </g>
    <g id="xtick_14">
     <g id="line2d_14">
      <g>
       <use xlink:href="#m9fef8ab6f8" x="442.962643" y="170.4" style="stroke: #000000; stroke-width: 0.6"/>
      </g>
     </g>
    </g>
    <g id="xtick_15">
     <g id="line2d_15">
      <g>
       <use xlink:href="#m9fef8ab6f8" x="446.127018" y="170.4" style="stroke: #000000; stroke-width: 0.6"/>
      </g>
     </g>
    </g>
    <g id="xtick_16">
     <g id="line2d_16">
      <g>
       <use xlink:href="#m9fef8ab6f8" x="467.579836" y="170.4" style="stroke: #000000; stroke-width: 0.6"/>
      </g>
     </g>
    </g>
    <g id="xtick_17">
     <g id="line2d_17">
      <g>
       <use xlink:href="#m9fef8ab6f8" x="478.473117" y="170.4" style="stroke: #000000; stroke-width: 0.6"/>
      </g>
     </g>
    </g>
    <g id="xtick_18">
     <g id="line2d_18">
      <g>
       <use xlink:href="#m9fef8ab6f8" x="486.202023" y="170.4" style="stroke: #000000; stroke-width: 0.6"/>
      </g>
     </g>
    </g>
    <g id="xtick_19">
     <g id="line2d_19">
      <g>
       <use xlink:href="#m9fef8ab6f8" x="492.197029" y="170.4" style="stroke: #000000; stroke-width: 0.6"/>
      </g>
     </g>
    </g>
    <g id="xtick_20">
     <g id="line2d_20">
      <g>
       <use xlink:href="#m9fef8ab6f8" x="497.095305" y="170.4" style="stroke: #000000; stroke-width: 0.6"/>
      </g>
     </g>
    </g>
    <g id="xtick_21">
     <g id="line2d_21">
      <g>
       <use xlink:href="#m9fef8ab6f8" x="501.236738" y="170.4" style="stroke: #000000; stroke-width: 0.6"/>
      </g>
     </g>
    </g>
    <g id="xtick_22">
     <g id="line2d_22">
      <g>
       <use xlink:href="#m9fef8ab6f8" x="504.824211" y="170.4" style="stroke: #000000; stroke-width: 0.6"/>
      </g>
     </g>
    </g>
    <g id="xtick_23">
     <g id="line2d_23">
      <g>
       <use xlink:href="#m9fef8ab6f8" x="507.988586" y="170.4" style="stroke: #000000; stroke-width: 0.6"/>
      </g>
     </g>
    </g>
    <g id="xtick_24">
     <g id="line2d_24">
      <g>
       <use xlink:href="#m9fef8ab6f8" x="529.441404" y="170.4" style="stroke: #000000; stroke-width: 0.6"/>
      </g>
     </g>
    </g>
    <g id="xtick_25">
     <g id="line2d_25">
      <g>
       <use xlink:href="#m9fef8ab6f8" x="540.334685" y="170.4" style="stroke: #000000; stroke-width: 0.6"/>
      </g>
     </g>
    </g>
    <g id="xtick_26">
     <g id="line2d_26">
      <g>
       <use xlink:href="#m9fef8ab6f8" x="548.063591" y="170.4" style="stroke: #000000; stroke-width: 0.6"/>
      </g>
     </g>
    </g>
    <g id="xtick_27">
     <g id="line2d_27">
      <g>
       <use xlink:href="#m9fef8ab6f8" x="554.058596" y="170.4" style="stroke: #000000; stroke-width: 0.6"/>
      </g>
     </g>
    </g>
    <g id="xtick_28">
     <g id="line2d_28">
      <g>
       <use xlink:href="#m9fef8ab6f8" x="558.956872" y="170.4" style="stroke: #000000; stroke-width: 0.6"/>
      </g>
     </g>
    </g>
    <g id="xtick_29">
     <g id="line2d_29">
      <g>
       <use xlink:href="#m9fef8ab6f8" x="563.098306" y="170.4" style="stroke: #000000; stroke-width: 0.6"/>
      </g>
     </g>
    </g>
    <g id="xtick_30">
     <g id="line2d_30">
      <g>
       <use xlink:href="#m9fef8ab6f8" x="566.685779" y="170.4" style="stroke: #000000; stroke-width: 0.6"/>
      </g>
     </g>
    </g>
    <g id="xtick_31">
     <g id="line2d_31">
      <g>
       <use xlink:href="#m9fef8ab6f8" x="569.850154" y="170.4" style="stroke: #000000; stroke-width: 0.6"/>
      </g>
     </g>
    </g>
    <g id="xtick_32">
     <g id="line2d_32">
      <g>
       <use xlink:href="#m9fef8ab6f8" x="591.302971" y="170.4" style="stroke: #000000; stroke-width: 0.6"/>
      </g>
     </g>
    </g>
    <g id="xtick_33">
     <g id="line2d_33">
      <g>
       <use xlink:href="#m9fef8ab6f8" x="602.196253" y="170.4" style="stroke: #000000; stroke-width: 0.6"/>
      </g>
     </g>
    </g>
    <g id="xtick_34">
     <g id="line2d_34">
      <g>
       <use xlink:href="#m9fef8ab6f8" x="609.925159" y="170.4" style="stroke: #000000; stroke-width: 0.6"/>
      </g>
     </g>
    </g>
    <g id="xtick_35">
     <g id="line2d_35">
      <g>
       <use xlink:href="#m9fef8ab6f8" x="615.920164" y="170.4" style="stroke: #000000; stroke-width: 0.6"/>
      </g>
     </g>
    </g>
    <g id="xtick_36">
     <g id="line2d_36">
      <g>
       <use xlink:href="#m9fef8ab6f8" x="620.81844" y="170.4" style="stroke: #000000; stroke-width: 0.6"/>
      </g>
     </g>
    </g>
    <g id="xtick_37">
     <g id="line2d_37">
      <g>
       <use xlink:href="#m9fef8ab6f8" x="624.959873" y="170.4" style="stroke: #000000; stroke-width: 0.6"/>
      </g>
     </g>
    </g>
    <g id="xtick_38">
     <g id="line2d_38">
      <g>
       <use xlink:href="#m9fef8ab6f8" x="628.547346" y="170.4" style="stroke: #000000; stroke-width: 0.6"/>
      </g>
     </g>
    </g>
    <g id="xtick_39">
     <g id="line2d_39">
      <g>
       <use xlink:href="#m9fef8ab6f8" x="631.711721" y="170.4" style="stroke: #000000; stroke-width: 0.6"/>
      </g>
     </g>
    </g>
    <g id="xtick_40">
     <g id="line2d_40">
      <g>
       <use xlink:href="#m9fef8ab6f8" x="653.164539" y="170.4" style="stroke: #000000; stroke-width: 0.6"/>
      </g>
     </g>
    </g>
    <g id="xtick_41">
     <g id="line2d_41">
      <g>
       <use xlink:href="#m9fef8ab6f8" x="664.05782" y="170.4" style="stroke: #000000; stroke-width: 0.6"/>
      </g>
     </g>
    </g>
    <g id="xtick_42">
     <g id="line2d_42">
      <g>
       <use xlink:href="#m9fef8ab6f8" x="671.786726" y="170.4" style="stroke: #000000; stroke-width: 0.6"/>
      </g>
     </g>
    </g>
    <g id="xtick_43">
     <g id="line2d_43">
      <g>
       <use xlink:href="#m9fef8ab6f8" x="677.781732" y="170.4" style="stroke: #000000; stroke-width: 0.6"/>
      </g>
     </g>
    </g>
    <g id="xtick_44">
     <g id="line2d_44">
      <g>
       <use xlink:href="#m9fef8ab6f8" x="682.680008" y="170.4" style="stroke: #000000; stroke-width: 0.6"/>
      </g>
     </g>
    </g>
    <g id="xtick_45">
     <g id="line2d_45">
      <g>
       <use xlink:href="#m9fef8ab6f8" x="686.821441" y="170.4" style="stroke: #000000; stroke-width: 0.6"/>
      </g>
     </g>
    </g>
    <g id="xtick_46">
     <g id="line2d_46">
      <g>
       <use xlink:href="#m9fef8ab6f8" x="690.408914" y="170.4" style="stroke: #000000; stroke-width: 0.6"/>
      </g>
     </g>
    </g>
    <g id="xtick_47">
     <g id="line2d_47">
      <g>
       <use xlink:href="#m9fef8ab6f8" x="693.573289" y="170.4" style="stroke: #000000; stroke-width: 0.6"/>
      </g>
     </g>
    </g>
    <g id="text_11">
     <!-- distribution of time to move (s) -->
     <g transform="translate(463.704687 198.676562)scale(0.1 -0.1)">
      <defs>
       <path id="DejaVuSans-73" d="M 2834 3397 
L 2834 2853 
Q 2591 2978 2328 3040 
Q 2066 3103 1784 3103 
Q 1356 3103 1142 2972 
Q 928 2841 928 2578 
Q 928 2378 1081 2264 
Q 1234 2150 1697 2047 
L 1894 2003 
Q 2506 1872 2764 1633 
Q 3022 1394 3022 966 
Q 3022 478 2636 193 
Q 2250 -91 1575 -91 
Q 1294 -91 989 -36 
Q 684 19 347 128 
L 347 722 
Q 666 556 975 473 
Q 1284 391 1588 391 
Q 1994 391 2212 530 
Q 2431 669 2431 922 
Q 2431 1156 2273 1281 
Q 2116 1406 1581 1522 
L 1381 1569 
Q 847 1681 609 1914 
Q 372 2147 372 2553 
Q 372 3047 722 3315 
Q 1072 3584 1716 3584 
Q 2034 3584 2315 3537 
Q 2597 3491 2834 3397 
z
" transform="scale(0.015625)"/>
       <path id="DejaVuSans-74" d="M 1172 4494 
L 1172 3500 
L 2356 3500 
L 2356 3053 
L 1172 3053 
L 1172 1153 
Q 1172 725 1289 603 
Q 1406 481 1766 481 
L 2356 481 
L 2356 0 
L 1766 0 
Q 1100 0 847 248 
Q 594 497 594 1153 
L 594 3053 
L 172 3053 
L 172 3500 
L 594 3500 
L 594 4494 
L 1172 4494 
z
" transform="scale(0.015625)"/>
       <path id="DejaVuSans-62" d="M 3116 1747 
Q 3116 2381 2855 2742 
Q 2594 3103 2138 3103 
Q 1681 3103 1420 2742 
Q 1159 2381 1159 1747 
Q 1159 1113 1420 752 
Q 1681 391 2138 391 
Q 2594 391 2855 752 
Q 3116 1113 3116 1747 
z
M 1159 2969 
Q 1341 3281 1617 3432 
Q 1894 3584 2278 3584 
Q 2916 3584 3314 3078 
Q 3713 2572 3713 1747 
Q 3713 922 3314 415 
Q 2916 -91 2278 -91 
Q 1894 -91 1617 61 
Q 1341 213 1159 525 
L 1159 0 
L 581 0 
L 581 4863 
L 1159 4863 
L 1159 2969 
z
" transform="scale(0.015625)"/>
       <path id="DejaVuSans-75" d="M 544 1381 
L 544 3500 
L 1119 3500 
L 1119 1403 
Q 1119 906 1312 657 
Q 1506 409 1894 409 
Q 2359 409 2629 706 
Q 2900 1003 2900 1516 
L 2900 3500 
L 3475 3500 
L 3475 0 
L 2900 0 
L 2900 538 
Q 2691 219 2414 64 
Q 2138 -91 1772 -91 
Q 1169 -91 856 284 
Q 544 659 544 1381 
z
M 1991 3584 
L 1991 3584 
z
" transform="scale(0.015625)"/>
       <path id="DejaVuSans-6f" d="M 1959 3097 
Q 1497 3097 1228 2736 
Q 959 2375 959 1747 
Q 959 1119 1226 758 
Q 1494 397 1959 397 
Q 2419 397 2687 759 
Q 2956 1122 2956 1747 
Q 2956 2369 2687 2733 
Q 2419 3097 1959 3097 
z
M 1959 3584 
Q 2709 3584 3137 3096 
Q 3566 2609 3566 1747 
Q 3566 888 3137 398 
Q 2709 -91 1959 -91 
Q 1206 -91 779 398 
Q 353 888 353 1747 
Q 353 2609 779 3096 
Q 1206 3584 1959 3584 
z
" transform="scale(0.015625)"/>
       <path id="DejaVuSans-66" d="M 2375 4863 
L 2375 4384 
L 1825 4384 
Q 1516 4384 1395 4259 
Q 1275 4134 1275 3809 
L 1275 3500 
L 2222 3500 
L 2222 3053 
L 1275 3053 
L 1275 0 
L 697 0 
L 697 3053 
L 147 3053 
L 147 3500 
L 697 3500 
L 697 3744 
Q 697 4328 969 4595 
Q 1241 4863 1831 4863 
L 2375 4863 
z
" transform="scale(0.015625)"/>
       <path id="DejaVuSans-6d" d="M 3328 2828 
Q 3544 3216 3844 3400 
Q 4144 3584 4550 3584 
Q 5097 3584 5394 3201 
Q 5691 2819 5691 2113 
L 5691 0 
L 5113 0 
L 5113 2094 
Q 5113 2597 4934 2840 
Q 4756 3084 4391 3084 
Q 3944 3084 3684 2787 
Q 3425 2491 3425 1978 
L 3425 0 
L 2847 0 
L 2847 2094 
Q 2847 2600 2669 2842 
Q 2491 3084 2119 3084 
Q 1678 3084 1418 2786 
Q 1159 2488 1159 1978 
L 1159 0 
L 581 0 
L 581 3500 
L 1159 3500 
L 1159 2956 
Q 1356 3278 1631 3431 
Q 1906 3584 2284 3584 
Q 2666 3584 2933 3390 
Q 3200 3197 3328 2828 
z
" transform="scale(0.015625)"/>
       <path id="DejaVuSans-76" d="M 191 3500 
L 800 3500 
L 1894 563 
L 2988 3500 
L 3597 3500 
L 2284 0 
L 1503 0 
L 191 3500 
z
" transform="scale(0.015625)"/>
       <path id="DejaVuSans-28" d="M 1984 4856 
Q 1566 4138 1362 3434 
Q 1159 2731 1159 2009 
Q 1159 1288 1364 580 
Q 1569 -128 1984 -844 
L 1484 -844 
Q 1016 -109 783 600 
Q 550 1309 550 2009 
Q 550 2706 781 3412 
Q 1013 4119 1484 4856 
L 1984 4856 
z
" transform="scale(0.015625)"/>
       <path id="DejaVuSans-29" d="M 513 4856 
L 1013 4856 
Q 1481 4119 1714 3412 
Q 1947 2706 1947 2009 
Q 1947 1309 1714 600 
Q 1481 -109 1013 -844 
L 513 -844 
Q 928 -128 1133 580 
Q 1338 1288 1338 2009 
Q 1338 2731 1133 3434 
Q 928 4138 513 4856 
z
" transform="scale(0.015625)"/>
      </defs>
      <use xlink:href="#DejaVuSans-64"/>
      <use xlink:href="#DejaVuSans-69" x="63.476562"/>
      <use xlink:href="#DejaVuSans-73" x="91.259766"/>
      <use xlink:href="#DejaVuSans-74" x="143.359375"/>
      <use xlink:href="#DejaVuSans-72" x="182.568359"/>
      <use xlink:href="#DejaVuSans-69" x="223.681641"/>
      <use xlink:href="#DejaVuSans-62" x="251.464844"/>
      <use xlink:href="#DejaVuSans-75" x="314.941406"/>
      <use xlink:href="#DejaVuSans-74" x="378.320312"/>
      <use xlink:href="#DejaVuSans-69" x="417.529297"/>
      <use xlink:href="#DejaVuSans-6f" x="445.3125"/>
      <use xlink:href="#DejaVuSans-6e" x="506.494141"/>
      <use xlink:href="#DejaVuSans-20" x="569.873047"/>
      <use xlink:href="#DejaVuSans-6f" x="601.660156"/>
      <use xlink:href="#DejaVuSans-66" x="662.841797"/>
      <use xlink:href="#DejaVuSans-20" x="698.046875"/>
      <use xlink:href="#DejaVuSans-74" x="729.833984"/>
      <use xlink:href="#DejaVuSans-69" x="769.042969"/>
      <use xlink:href="#DejaVuSans-6d" x="796.826172"/>
      <use xlink:href="#DejaVuSans-65" x="894.238281"/>
      <use xlink:href="#DejaVuSans-20" x="955.761719"/>
      <use xlink:href="#DejaVuSans-74" x="987.548828"/>
      <use xlink:href="#DejaVuSans-6f" x="1026.757812"/>
      <use xlink:href="#DejaVuSans-20" x="1087.939453"/>
      <use xlink:href="#DejaVuSans-6d" x="1119.726562"/>
      <use xlink:href="#DejaVuSans-6f" x="1217.138672"/>
      <use xlink:href="#DejaVuSans-76" x="1278.320312"/>
      <use xlink:href="#DejaVuSans-65" x="1337.5"/>
      <use xlink:href="#DejaVuSans-20" x="1399.023438"/>
      <use xlink:href="#DejaVuSans-28" x="1430.810547"/>
      <use xlink:href="#DejaVuSans-73" x="1469.824219"/>
      <use xlink:href="#DejaVuSans-29" x="1521.923828"/>
     </g>
    </g>
   </g>
   <g id="matplotlib.axis_4">
    <g id="ytick_1">
     <g id="line2d_48">
      <defs>
       <path id="m9a712191ba" d="M 0 0 
L -3.5 0 
" style="stroke: #000000; stroke-width: 0.8"/>
      </defs>
      <g>
       <use xlink:href="#m9a712191ba" x="387.096081" y="51.301765" style="stroke: #000000; stroke-width: 0.8"/>
      </g>
     </g>
     <g id="text_12">
      <!-- az_200 -->
      <g transform="translate(377.738268 83.05489)rotate(-90)scale(0.1 -0.1)">
       <use xlink:href="#DejaVuSans-61"/>
       <use xlink:href="#DejaVuSans-7a" x="61.279297"/>
       <use xlink:href="#DejaVuSans-5f" x="113.769531"/>
       <use xlink:href="#DejaVuSans-32" x="163.769531"/>
       <use xlink:href="#DejaVuSans-30" x="227.392578"/>
       <use xlink:href="#DejaVuSans-30" x="291.015625"/>
      </g>
     </g>
    </g>
    <g id="ytick_2">
     <g id="line2d_49">
      <g>
       <use xlink:href="#m9a712191ba" x="387.096081" y="130.700588" style="stroke: #000000; stroke-width: 0.8"/>
      </g>
     </g>
     <g id="text_13">
      <!-- az_400 -->
      <g transform="translate(377.738268 162.453713)rotate(-90)scale(0.1 -0.1)">
       <use xlink:href="#DejaVuSans-61"/>
       <use xlink:href="#DejaVuSans-7a" x="61.279297"/>
       <use xlink:href="#DejaVuSans-5f" x="113.769531"/>
       <use xlink:href="#DejaVuSans-34" x="163.769531"/>
       <use xlink:href="#DejaVuSans-30" x="227.392578"/>
       <use xlink:href="#DejaVuSans-30" x="291.015625"/>
      </g>
     </g>
    </g>
    <g id="text_14">
     <!-- player -->
     <g transform="translate(364.236706 106.719926)rotate(-90)scale(0.1 -0.1)">
      <defs>
       <path id="DejaVuSans-70" d="M 1159 525 
L 1159 -1331 
L 581 -1331 
L 581 3500 
L 1159 3500 
L 1159 2969 
Q 1341 3281 1617 3432 
Q 1894 3584 2278 3584 
Q 2916 3584 3314 3078 
Q 3713 2572 3713 1747 
Q 3713 922 3314 415 
Q 2916 -91 2278 -91 
Q 1894 -91 1617 61 
Q 1341 213 1159 525 
z
M 3116 1747 
Q 3116 2381 2855 2742 
Q 2594 3103 2138 3103 
Q 1681 3103 1420 2742 
Q 1159 2381 1159 1747 
Q 1159 1113 1420 752 
Q 1681 391 2138 391 
Q 2594 391 2855 752 
Q 3116 1113 3116 1747 
z
" transform="scale(0.015625)"/>
       <path id="DejaVuSans-6c" d="M 603 4863 
L 1178 4863 
L 1178 0 
L 603 0 
L 603 4863 
z
" transform="scale(0.015625)"/>
       <path id="DejaVuSans-79" d="M 2059 -325 
Q 1816 -950 1584 -1140 
Q 1353 -1331 966 -1331 
L 506 -1331 
L 506 -850 
L 844 -850 
Q 1081 -850 1212 -737 
Q 1344 -625 1503 -206 
L 1606 56 
L 191 3500 
L 800 3500 
L 1894 763 
L 2988 3500 
L 3597 3500 
L 2059 -325 
z
" transform="scale(0.015625)"/>
      </defs>
      <use xlink:href="#DejaVuSans-70"/>
      <use xlink:href="#DejaVuSans-6c" x="63.476562"/>
      <use xlink:href="#DejaVuSans-61" x="91.259766"/>
      <use xlink:href="#DejaVuSans-79" x="152.539062"/>
      <use xlink:href="#DejaVuSans-65" x="211.71875"/>
      <use xlink:href="#DejaVuSans-72" x="273.242188"/>
     </g>
    </g>
   </g>
   <g id="line2d_50">
    <path d="M 655.083763 51.301765 
L 668.153927 51.301765 
" clip-path="url(#pd575804868)" style="fill: none; stroke: #797979; stroke-width: 1.5; stroke-linecap: square"/>
   </g>
   <g id="line2d_51">
    <path d="M 659.602918 51.301765 
L 664.803435 51.301765 
" clip-path="url(#pd575804868)" style="fill: none; stroke: #797979; stroke-width: 4.5; stroke-linecap: square"/>
   </g>
   <g id="line2d_52">
    <path d="M 670.973252 130.700588 
L 685.076485 130.700588 
" clip-path="url(#pd575804868)" style="fill: none; stroke: #797979; stroke-width: 1.5; stroke-linecap: square"/>
   </g>
   <g id="line2d_53">
    <path d="M 677.307138 130.700588 
L 681.212134 130.700588 
" clip-path="url(#pd575804868)" style="fill: none; stroke: #797979; stroke-width: 4.5; stroke-linecap: square"/>
   </g>
   <g id="patch_12">
    <path d="M 387.096081 170.4 
L 387.096081 11.602353 
" style="fill: none; stroke: #000000; stroke-width: 0.8; stroke-linejoin: miter; stroke-linecap: square"/>
   </g>
   <g id="patch_13">
    <path d="M 696.403919 170.4 
L 696.403919 11.602353 
" style="fill: none; stroke: #000000; stroke-width: 0.8; stroke-linejoin: miter; stroke-linecap: square"/>
   </g>
   <g id="patch_14">
    <path d="M 387.096081 170.4 
L 696.403919 170.4 
" style="fill: none; stroke: #000000; stroke-width: 0.8; stroke-linejoin: miter; stroke-linecap: square"/>
   </g>
   <g id="patch_15">
    <path d="M 387.096081 11.602353 
L 696.403919 11.602353 
" style="fill: none; stroke: #000000; stroke-width: 0.8; stroke-linejoin: miter; stroke-linecap: square"/>
   </g>
   <g id="PathCollection_1">
    <defs>
     <path id="m42a9c38f21" d="M 0 1.5 
C 0.397805 1.5 0.77937 1.341951 1.06066 1.06066 
C 1.341951 0.77937 1.5 0.397805 1.5 0 
C 1.5 -0.397805 1.341951 -0.77937 1.06066 -1.06066 
C 0.77937 -1.341951 0.397805 -1.5 0 -1.5 
C -0.397805 -1.5 -0.77937 -1.341951 -1.06066 -1.06066 
C -1.341951 -0.77937 -1.5 -0.397805 -1.5 0 
C -1.5 0.397805 -1.341951 0.77937 -1.06066 1.06066 
C -0.77937 1.341951 -0.397805 1.5 0 1.5 
z
" style="stroke: #797979"/>
    </defs>
    <g clip-path="url(#pd575804868)">
     <use xlink:href="#m42a9c38f21" x="662.096568" y="51.301765" style="fill: #ffffff; stroke: #797979"/>
    </g>
   </g>
   <g id="PathCollection_2">
    <g clip-path="url(#pd575804868)">
     <use xlink:href="#m42a9c38f21" x="678.926476" y="130.700588" style="fill: #ffffff; stroke: #797979"/>
    </g>
   </g>
  </g>
  <g id="axes_3">
   <g id="patch_16">
    <path d="M 759.892161 170.4 
L 1069.2 170.4 
L 1069.2 11.602353 
L 759.892161 11.602353 
z
" style="fill: #ffffff"/>
   </g>
   <g id="patch_17">
    <path d="M 966.097387 170.4 
L 968.495122 170.4 
L 968.495122 72.541506 
L 966.097387 72.541506 
z
" clip-path="url(#pca2c2fef50)" style="fill: #1f77b4; fill-opacity: 0.75; stroke: #000000; stroke-width: 0.520458; stroke-linejoin: miter"/>
   </g>
   <g id="patch_18">
    <path d="M 968.495122 170.4 
L 970.892858 170.4 
L 970.892858 170.4 
L 968.495122 170.4 
z
" clip-path="url(#pca2c2fef50)" style="fill: #1f77b4; fill-opacity: 0.75; stroke: #000000; stroke-width: 0.520458; stroke-linejoin: miter"/>
   </g>
   <g id="patch_19">
    <path d="M 970.892858 170.4 
L 973.290593 170.4 
L 973.290593 170.4 
L 970.892858 170.4 
z
" clip-path="url(#pca2c2fef50)" style="fill: #1f77b4; fill-opacity: 0.75; stroke: #000000; stroke-width: 0.520458; stroke-linejoin: miter"/>
   </g>
   <g id="patch_20">
    <path d="M 973.290593 170.4 
L 975.688328 170.4 
L 975.688328 170.4 
L 973.290593 170.4 
z
" clip-path="url(#pca2c2fef50)" style="fill: #1f77b4; fill-opacity: 0.75; stroke: #000000; stroke-width: 0.520458; stroke-linejoin: miter"/>
   </g>
   <g id="patch_21">
    <path d="M 975.688328 170.4 
L 978.086063 170.4 
L 978.086063 170.4 
L 975.688328 170.4 
z
" clip-path="url(#pca2c2fef50)" style="fill: #1f77b4; fill-opacity: 0.75; stroke: #000000; stroke-width: 0.520458; stroke-linejoin: miter"/>
   </g>
   <g id="patch_22">
    <path d="M 978.086063 170.4 
L 980.483798 170.4 
L 980.483798 170.4 
L 978.086063 170.4 
z
" clip-path="url(#pca2c2fef50)" style="fill: #1f77b4; fill-opacity: 0.75; stroke: #000000; stroke-width: 0.520458; stroke-linejoin: miter"/>
   </g>
   <g id="patch_23">
    <path d="M 980.483798 170.4 
L 982.881533 170.4 
L 982.881533 170.4 
L 980.483798 170.4 
z
" clip-path="url(#pca2c2fef50)" style="fill: #1f77b4; fill-opacity: 0.75; stroke: #000000; stroke-width: 0.520458; stroke-linejoin: miter"/>
   </g>
   <g id="patch_24">
    <path d="M 982.881533 170.4 
L 985.279269 170.4 
L 985.279269 170.4 
L 982.881533 170.4 
z
" clip-path="url(#pca2c2fef50)" style="fill: #1f77b4; fill-opacity: 0.75; stroke: #000000; stroke-width: 0.520458; stroke-linejoin: miter"/>
   </g>
   <g id="patch_25">
    <path d="M 985.279269 170.4 
L 987.677004 170.4 
L 987.677004 170.4 
L 985.279269 170.4 
z
" clip-path="url(#pca2c2fef50)" style="fill: #1f77b4; fill-opacity: 0.75; stroke: #000000; stroke-width: 0.520458; stroke-linejoin: miter"/>
   </g>
   <g id="patch_26">
    <path d="M 987.677004 170.4 
L 990.074739 170.4 
L 990.074739 170.4 
L 987.677004 170.4 
z
" clip-path="url(#pca2c2fef50)" style="fill: #1f77b4; fill-opacity: 0.75; stroke: #000000; stroke-width: 0.520458; stroke-linejoin: miter"/>
   </g>
   <g id="patch_27">
    <path d="M 990.074739 170.4 
L 992.472474 170.4 
L 992.472474 170.4 
L 990.074739 170.4 
z
" clip-path="url(#pca2c2fef50)" style="fill: #1f77b4; fill-opacity: 0.75; stroke: #000000; stroke-width: 0.520458; stroke-linejoin: miter"/>
   </g>
   <g id="patch_28">
    <path d="M 992.472474 170.4 
L 994.870209 170.4 
L 994.870209 170.4 
L 992.472474 170.4 
z
" clip-path="url(#pca2c2fef50)" style="fill: #1f77b4; fill-opacity: 0.75; stroke: #000000; stroke-width: 0.520458; stroke-linejoin: miter"/>
   </g>
   <g id="patch_29">
    <path d="M 994.870209 170.4 
L 997.267945 170.4 
L 997.267945 170.4 
L 994.870209 170.4 
z
" clip-path="url(#pca2c2fef50)" style="fill: #1f77b4; fill-opacity: 0.75; stroke: #000000; stroke-width: 0.520458; stroke-linejoin: miter"/>
   </g>
   <g id="patch_30">
    <path d="M 997.267945 170.4 
L 999.66568 170.4 
L 999.66568 170.4 
L 997.267945 170.4 
z
" clip-path="url(#pca2c2fef50)" style="fill: #1f77b4; fill-opacity: 0.75; stroke: #000000; stroke-width: 0.520458; stroke-linejoin: miter"/>
   </g>
   <g id="patch_31">
    <path d="M 999.66568 170.4 
L 1002.063415 170.4 
L 1002.063415 170.4 
L 999.66568 170.4 
z
" clip-path="url(#pca2c2fef50)" style="fill: #1f77b4; fill-opacity: 0.75; stroke: #000000; stroke-width: 0.520458; stroke-linejoin: miter"/>
   </g>
   <g id="patch_32">
    <path d="M 1002.063415 170.4 
L 1004.46115 170.4 
L 1004.46115 157.05566 
L 1002.063415 157.05566 
z
" clip-path="url(#pca2c2fef50)" style="fill: #1f77b4; fill-opacity: 0.75; stroke: #000000; stroke-width: 0.520458; stroke-linejoin: miter"/>
   </g>
   <g id="patch_33">
    <path d="M 1004.46115 170.4 
L 1006.858885 170.4 
L 1006.858885 170.4 
L 1004.46115 170.4 
z
" clip-path="url(#pca2c2fef50)" style="fill: #1f77b4; fill-opacity: 0.75; stroke: #000000; stroke-width: 0.520458; stroke-linejoin: miter"/>
   </g>
   <g id="patch_34">
    <path d="M 1006.858885 170.4 
L 1009.25662 170.4 
L 1009.25662 170.4 
L 1006.858885 170.4 
z
" clip-path="url(#pca2c2fef50)" style="fill: #1f77b4; fill-opacity: 0.75; stroke: #000000; stroke-width: 0.520458; stroke-linejoin: miter"/>
   </g>
   <g id="patch_35">
    <path d="M 1009.25662 170.4 
L 1011.654356 170.4 
L 1011.654356 170.4 
L 1009.25662 170.4 
z
" clip-path="url(#pca2c2fef50)" style="fill: #1f77b4; fill-opacity: 0.75; stroke: #000000; stroke-width: 0.520458; stroke-linejoin: miter"/>
   </g>
   <g id="patch_36">
    <path d="M 1011.654356 170.4 
L 1014.052091 170.4 
L 1014.052091 170.4 
L 1011.654356 170.4 
z
" clip-path="url(#pca2c2fef50)" style="fill: #1f77b4; fill-opacity: 0.75; stroke: #000000; stroke-width: 0.520458; stroke-linejoin: miter"/>
   </g>
   <g id="patch_37">
    <path d="M 1014.052091 170.4 
L 1016.449826 170.4 
L 1016.449826 170.4 
L 1014.052091 170.4 
z
" clip-path="url(#pca2c2fef50)" style="fill: #1f77b4; fill-opacity: 0.75; stroke: #000000; stroke-width: 0.520458; stroke-linejoin: miter"/>
   </g>
   <g id="patch_38">
    <path d="M 1016.449826 170.4 
L 1018.847561 170.4 
L 1018.847561 165.951887 
L 1016.449826 165.951887 
z
" clip-path="url(#pca2c2fef50)" style="fill: #1f77b4; fill-opacity: 0.75; stroke: #000000; stroke-width: 0.520458; stroke-linejoin: miter"/>
   </g>
   <g id="patch_39">
    <path d="M 1018.847561 170.4 
L 1021.245296 170.4 
L 1021.245296 170.4 
L 1018.847561 170.4 
z
" clip-path="url(#pca2c2fef50)" style="fill: #1f77b4; fill-opacity: 0.75; stroke: #000000; stroke-width: 0.520458; stroke-linejoin: miter"/>
   </g>
   <g id="patch_40">
    <path d="M 1021.245296 170.4 
L 1023.643032 170.4 
L 1023.643032 170.4 
L 1021.245296 170.4 
z
" clip-path="url(#pca2c2fef50)" style="fill: #1f77b4; fill-opacity: 0.75; stroke: #000000; stroke-width: 0.520458; stroke-linejoin: miter"/>
   </g>
   <g id="patch_41">
    <path d="M 1023.643032 170.4 
L 1026.040767 170.4 
L 1026.040767 170.4 
L 1023.643032 170.4 
z
" clip-path="url(#pca2c2fef50)" style="fill: #1f77b4; fill-opacity: 0.75; stroke: #000000; stroke-width: 0.520458; stroke-linejoin: miter"/>
   </g>
   <g id="patch_42">
    <path d="M 1026.040767 170.4 
L 1028.438502 170.4 
L 1028.438502 170.4 
L 1026.040767 170.4 
z
" clip-path="url(#pca2c2fef50)" style="fill: #1f77b4; fill-opacity: 0.75; stroke: #000000; stroke-width: 0.520458; stroke-linejoin: miter"/>
   </g>
   <g id="patch_43">
    <path d="M 1028.438502 170.4 
L 1030.836237 170.4 
L 1030.836237 170.4 
L 1028.438502 170.4 
z
" clip-path="url(#pca2c2fef50)" style="fill: #1f77b4; fill-opacity: 0.75; stroke: #000000; stroke-width: 0.520458; stroke-linejoin: miter"/>
   </g>
   <g id="patch_44">
    <path d="M 1030.836237 170.4 
L 1033.233972 170.4 
L 1033.233972 170.4 
L 1030.836237 170.4 
z
" clip-path="url(#pca2c2fef50)" style="fill: #1f77b4; fill-opacity: 0.75; stroke: #000000; stroke-width: 0.520458; stroke-linejoin: miter"/>
   </g>
   <g id="patch_45">
    <path d="M 1033.233972 170.4 
L 1035.631707 170.4 
L 1035.631707 170.4 
L 1033.233972 170.4 
z
" clip-path="url(#pca2c2fef50)" style="fill: #1f77b4; fill-opacity: 0.75; stroke: #000000; stroke-width: 0.520458; stroke-linejoin: miter"/>
   </g>
   <g id="patch_46">
    <path d="M 1035.631707 170.4 
L 1038.029443 170.4 
L 1038.029443 170.4 
L 1035.631707 170.4 
z
" clip-path="url(#pca2c2fef50)" style="fill: #1f77b4; fill-opacity: 0.75; stroke: #000000; stroke-width: 0.520458; stroke-linejoin: miter"/>
   </g>
   <g id="patch_47">
    <path d="M 1038.029443 170.4 
L 1040.427178 170.4 
L 1040.427178 19.164146 
L 1038.029443 19.164146 
z
" clip-path="url(#pca2c2fef50)" style="fill: #1f77b4; fill-opacity: 0.75; stroke: #000000; stroke-width: 0.520458; stroke-linejoin: miter"/>
   </g>
   <g id="patch_48">
    <path d="M 1040.427178 170.4 
L 1042.824913 170.4 
L 1042.824913 170.4 
L 1040.427178 170.4 
z
" clip-path="url(#pca2c2fef50)" style="fill: #1f77b4; fill-opacity: 0.75; stroke: #000000; stroke-width: 0.520458; stroke-linejoin: miter"/>
   </g>
   <g id="patch_49">
    <path d="M 1042.824913 170.4 
L 1045.222648 170.4 
L 1045.222648 170.4 
L 1042.824913 170.4 
z
" clip-path="url(#pca2c2fef50)" style="fill: #1f77b4; fill-opacity: 0.75; stroke: #000000; stroke-width: 0.520458; stroke-linejoin: miter"/>
   </g>
   <g id="patch_50">
    <path d="M 1045.222648 170.4 
L 1047.620383 170.4 
L 1047.620383 157.05566 
L 1045.222648 157.05566 
z
" clip-path="url(#pca2c2fef50)" style="fill: #1f77b4; fill-opacity: 0.75; stroke: #000000; stroke-width: 0.520458; stroke-linejoin: miter"/>
   </g>
   <g id="patch_51">
    <path d="M 1047.620383 170.4 
L 1050.018119 170.4 
L 1050.018119 170.4 
L 1047.620383 170.4 
z
" clip-path="url(#pca2c2fef50)" style="fill: #1f77b4; fill-opacity: 0.75; stroke: #000000; stroke-width: 0.520458; stroke-linejoin: miter"/>
   </g>
   <g id="patch_52">
    <path d="M 1050.018119 170.4 
L 1052.415854 170.4 
L 1052.415854 170.4 
L 1050.018119 170.4 
z
" clip-path="url(#pca2c2fef50)" style="fill: #1f77b4; fill-opacity: 0.75; stroke: #000000; stroke-width: 0.520458; stroke-linejoin: miter"/>
   </g>
   <g id="patch_53">
    <path d="M 1052.415854 170.4 
L 1054.813589 170.4 
L 1054.813589 152.607547 
L 1052.415854 152.607547 
z
" clip-path="url(#pca2c2fef50)" style="fill: #1f77b4; fill-opacity: 0.75; stroke: #000000; stroke-width: 0.520458; stroke-linejoin: miter"/>
   </g>
   <g id="patch_54">
    <path d="M 1054.813589 170.4 
L 1057.211324 170.4 
L 1057.211324 170.4 
L 1054.813589 170.4 
z
" clip-path="url(#pca2c2fef50)" style="fill: #1f77b4; fill-opacity: 0.75; stroke: #000000; stroke-width: 0.520458; stroke-linejoin: miter"/>
   </g>
   <g id="patch_55">
    <path d="M 1057.211324 170.4 
L 1059.609059 170.4 
L 1059.609059 170.4 
L 1057.211324 170.4 
z
" clip-path="url(#pca2c2fef50)" style="fill: #1f77b4; fill-opacity: 0.75; stroke: #000000; stroke-width: 0.520458; stroke-linejoin: miter"/>
   </g>
   <g id="patch_56">
    <path d="M 1059.609059 170.4 
L 1062.006794 170.4 
L 1062.006794 170.4 
L 1059.609059 170.4 
z
" clip-path="url(#pca2c2fef50)" style="fill: #1f77b4; fill-opacity: 0.75; stroke: #000000; stroke-width: 0.520458; stroke-linejoin: miter"/>
   </g>
   <g id="patch_57">
    <path d="M 1062.006794 170.4 
L 1064.40453 170.4 
L 1064.40453 170.4 
L 1062.006794 170.4 
z
" clip-path="url(#pca2c2fef50)" style="fill: #1f77b4; fill-opacity: 0.75; stroke: #000000; stroke-width: 0.520458; stroke-linejoin: miter"/>
   </g>
   <g id="patch_58">
    <path d="M 1064.40453 170.4 
L 1066.802265 170.4 
L 1066.802265 170.4 
L 1064.40453 170.4 
z
" clip-path="url(#pca2c2fef50)" style="fill: #1f77b4; fill-opacity: 0.75; stroke: #000000; stroke-width: 0.520458; stroke-linejoin: miter"/>
   </g>
   <g id="patch_59">
    <path d="M 1066.802265 170.4 
L 1069.2 170.4 
L 1069.2 23.612259 
L 1066.802265 23.612259 
z
" clip-path="url(#pca2c2fef50)" style="fill: #1f77b4; fill-opacity: 0.75; stroke: #000000; stroke-width: 0.520458; stroke-linejoin: miter"/>
   </g>
   <g id="matplotlib.axis_5">
    <g id="xtick_48">
     <g id="line2d_54">
      <g>
       <use xlink:href="#mb905bf4561" x="759.892161" y="170.4" style="stroke: #000000; stroke-width: 0.8"/>
      </g>
     </g>
     <g id="text_15">
      <!-- 0 -->
      <g transform="translate(756.710911 184.998437)scale(0.1 -0.1)">
       <use xlink:href="#DejaVuSans-30"/>
      </g>
     </g>
    </g>
    <g id="xtick_49">
     <g id="line2d_55">
      <g>
       <use xlink:href="#mb905bf4561" x="796.714523" y="170.4" style="stroke: #000000; stroke-width: 0.8"/>
      </g>
     </g>
     <g id="text_16">
      <!-- 5 -->
      <g transform="translate(793.533273 184.998437)scale(0.1 -0.1)">
       <use xlink:href="#DejaVuSans-35"/>
      </g>
     </g>
    </g>
    <g id="xtick_50">
     <g id="line2d_56">
      <g>
       <use xlink:href="#mb905bf4561" x="833.536885" y="170.4" style="stroke: #000000; stroke-width: 0.8"/>
      </g>
     </g>
     <g id="text_17">
      <!-- 10 -->
      <g transform="translate(827.174385 184.998437)scale(0.1 -0.1)">
       <use xlink:href="#DejaVuSans-31"/>
       <use xlink:href="#DejaVuSans-30" x="63.623047"/>
      </g>
     </g>
    </g>
    <g id="xtick_51">
     <g id="line2d_57">
      <g>
       <use xlink:href="#mb905bf4561" x="870.359247" y="170.4" style="stroke: #000000; stroke-width: 0.8"/>
      </g>
     </g>
     <g id="text_18">
      <!-- 15 -->
      <g transform="translate(863.996747 184.998437)scale(0.1 -0.1)">
       <use xlink:href="#DejaVuSans-31"/>
       <use xlink:href="#DejaVuSans-35" x="63.623047"/>
      </g>
     </g>
    </g>
    <g id="xtick_52">
     <g id="line2d_58">
      <g>
       <use xlink:href="#mb905bf4561" x="907.181608" y="170.4" style="stroke: #000000; stroke-width: 0.8"/>
      </g>
     </g>
     <g id="text_19">
      <!-- 20 -->
      <g transform="translate(900.819108 184.998437)scale(0.1 -0.1)">
       <use xlink:href="#DejaVuSans-32"/>
       <use xlink:href="#DejaVuSans-30" x="63.623047"/>
      </g>
     </g>
    </g>
    <g id="xtick_53">
     <g id="line2d_59">
      <g>
       <use xlink:href="#mb905bf4561" x="944.00397" y="170.4" style="stroke: #000000; stroke-width: 0.8"/>
      </g>
     </g>
     <g id="text_20">
      <!-- 25 -->
      <g transform="translate(937.64147 184.998437)scale(0.1 -0.1)">
       <use xlink:href="#DejaVuSans-32"/>
       <use xlink:href="#DejaVuSans-35" x="63.623047"/>
      </g>
     </g>
    </g>
    <g id="xtick_54">
     <g id="line2d_60">
      <g>
       <use xlink:href="#mb905bf4561" x="980.826332" y="170.4" style="stroke: #000000; stroke-width: 0.8"/>
      </g>
     </g>
     <g id="text_21">
      <!-- 30 -->
      <g transform="translate(974.463832 184.998437)scale(0.1 -0.1)">
       <use xlink:href="#DejaVuSans-33"/>
       <use xlink:href="#DejaVuSans-30" x="63.623047"/>
      </g>
     </g>
    </g>
    <g id="xtick_55">
     <g id="line2d_61">
      <g>
       <use xlink:href="#mb905bf4561" x="1017.648694" y="170.4" style="stroke: #000000; stroke-width: 0.8"/>
      </g>
     </g>
     <g id="text_22">
      <!-- 35 -->
      <g transform="translate(1011.286194 184.998437)scale(0.1 -0.1)">
       <use xlink:href="#DejaVuSans-33"/>
       <use xlink:href="#DejaVuSans-35" x="63.623047"/>
      </g>
     </g>
    </g>
    <g id="xtick_56">
     <g id="line2d_62">
      <g>
       <use xlink:href="#mb905bf4561" x="1054.471055" y="170.4" style="stroke: #000000; stroke-width: 0.8"/>
      </g>
     </g>
     <g id="text_23">
      <!-- 40 -->
      <g transform="translate(1048.108555 184.998437)scale(0.1 -0.1)">
       <use xlink:href="#DejaVuSans-34"/>
       <use xlink:href="#DejaVuSans-30" x="63.623047"/>
      </g>
     </g>
    </g>
    <g id="text_24">
     <!-- game_length -->
     <g transform="translate(881.923424 198.676562)scale(0.1 -0.1)">
      <defs>
       <path id="DejaVuSans-67" d="M 2906 1791 
Q 2906 2416 2648 2759 
Q 2391 3103 1925 3103 
Q 1463 3103 1205 2759 
Q 947 2416 947 1791 
Q 947 1169 1205 825 
Q 1463 481 1925 481 
Q 2391 481 2648 825 
Q 2906 1169 2906 1791 
z
M 3481 434 
Q 3481 -459 3084 -895 
Q 2688 -1331 1869 -1331 
Q 1566 -1331 1297 -1286 
Q 1028 -1241 775 -1147 
L 775 -588 
Q 1028 -725 1275 -790 
Q 1522 -856 1778 -856 
Q 2344 -856 2625 -561 
Q 2906 -266 2906 331 
L 2906 616 
Q 2728 306 2450 153 
Q 2172 0 1784 0 
Q 1141 0 747 490 
Q 353 981 353 1791 
Q 353 2603 747 3093 
Q 1141 3584 1784 3584 
Q 2172 3584 2450 3431 
Q 2728 3278 2906 2969 
L 2906 3500 
L 3481 3500 
L 3481 434 
z
" transform="scale(0.015625)"/>
       <path id="DejaVuSans-68" d="M 3513 2113 
L 3513 0 
L 2938 0 
L 2938 2094 
Q 2938 2591 2744 2837 
Q 2550 3084 2163 3084 
Q 1697 3084 1428 2787 
Q 1159 2491 1159 1978 
L 1159 0 
L 581 0 
L 581 4863 
L 1159 4863 
L 1159 2956 
Q 1366 3272 1645 3428 
Q 1925 3584 2291 3584 
Q 2894 3584 3203 3211 
Q 3513 2838 3513 2113 
z
" transform="scale(0.015625)"/>
      </defs>
      <use xlink:href="#DejaVuSans-67"/>
      <use xlink:href="#DejaVuSans-61" x="63.476562"/>
      <use xlink:href="#DejaVuSans-6d" x="124.755859"/>
      <use xlink:href="#DejaVuSans-65" x="222.167969"/>
      <use xlink:href="#DejaVuSans-5f" x="283.691406"/>
      <use xlink:href="#DejaVuSans-6c" x="333.691406"/>
      <use xlink:href="#DejaVuSans-65" x="361.474609"/>
      <use xlink:href="#DejaVuSans-6e" x="422.998047"/>
      <use xlink:href="#DejaVuSans-67" x="486.376953"/>
      <use xlink:href="#DejaVuSans-74" x="549.853516"/>
      <use xlink:href="#DejaVuSans-68" x="589.0625"/>
     </g>
    </g>
   </g>
   <g id="matplotlib.axis_6">
    <g id="ytick_3">
     <g id="line2d_63">
      <g>
       <use xlink:href="#m9a712191ba" x="759.892161" y="170.4" style="stroke: #000000; stroke-width: 0.8"/>
      </g>
     </g>
     <g id="text_25">
      <!-- 0.0 -->
      <g transform="translate(736.989036 174.199219)scale(0.1 -0.1)">
       <use xlink:href="#DejaVuSans-30"/>
       <use xlink:href="#DejaVuSans-2e" x="63.623047"/>
       <use xlink:href="#DejaVuSans-30" x="95.410156"/>
      </g>
     </g>
    </g>
    <g id="ytick_4">
     <g id="line2d_64">
      <g>
       <use xlink:href="#m9a712191ba" x="759.892161" y="125.918866" style="stroke: #000000; stroke-width: 0.8"/>
      </g>
     </g>
     <g id="text_26">
      <!-- 0.1 -->
      <g transform="translate(736.989036 129.718085)scale(0.1 -0.1)">
       <use xlink:href="#DejaVuSans-30"/>
       <use xlink:href="#DejaVuSans-2e" x="63.623047"/>
       <use xlink:href="#DejaVuSans-31" x="95.410156"/>
      </g>
     </g>
    </g>
    <g id="ytick_5">
     <g id="line2d_65">
      <g>
       <use xlink:href="#m9a712191ba" x="759.892161" y="81.437733" style="stroke: #000000; stroke-width: 0.8"/>
      </g>
     </g>
     <g id="text_27">
      <!-- 0.2 -->
      <g transform="translate(736.989036 85.236951)scale(0.1 -0.1)">
       <use xlink:href="#DejaVuSans-30"/>
       <use xlink:href="#DejaVuSans-2e" x="63.623047"/>
       <use xlink:href="#DejaVuSans-32" x="95.410156"/>
      </g>
     </g>
    </g>
    <g id="ytick_6">
     <g id="line2d_66">
      <g>
       <use xlink:href="#m9a712191ba" x="759.892161" y="36.956599" style="stroke: #000000; stroke-width: 0.8"/>
      </g>
     </g>
     <g id="text_28">
      <!-- 0.3 -->
      <g transform="translate(736.989036 40.755818)scale(0.1 -0.1)">
       <use xlink:href="#DejaVuSans-30"/>
       <use xlink:href="#DejaVuSans-2e" x="63.623047"/>
       <use xlink:href="#DejaVuSans-33" x="95.410156"/>
      </g>
     </g>
    </g>
    <g id="text_29">
     <!-- Probability -->
     <g transform="translate(730.909349 117.430083)rotate(-90)scale(0.1 -0.1)">
      <defs>
       <path id="DejaVuSans-50" d="M 1259 4147 
L 1259 2394 
L 2053 2394 
Q 2494 2394 2734 2622 
Q 2975 2850 2975 3272 
Q 2975 3691 2734 3919 
Q 2494 4147 2053 4147 
L 1259 4147 
z
M 628 4666 
L 2053 4666 
Q 2838 4666 3239 4311 
Q 3641 3956 3641 3272 
Q 3641 2581 3239 2228 
Q 2838 1875 2053 1875 
L 1259 1875 
L 1259 0 
L 628 0 
L 628 4666 
z
" transform="scale(0.015625)"/>
      </defs>
      <use xlink:href="#DejaVuSans-50"/>
      <use xlink:href="#DejaVuSans-72" x="58.552734"/>
      <use xlink:href="#DejaVuSans-6f" x="97.416016"/>
      <use xlink:href="#DejaVuSans-62" x="158.597656"/>
      <use xlink:href="#DejaVuSans-61" x="222.074219"/>
      <use xlink:href="#DejaVuSans-62" x="283.353516"/>
      <use xlink:href="#DejaVuSans-69" x="346.830078"/>
      <use xlink:href="#DejaVuSans-6c" x="374.613281"/>
      <use xlink:href="#DejaVuSans-69" x="402.396484"/>
      <use xlink:href="#DejaVuSans-74" x="430.179688"/>
      <use xlink:href="#DejaVuSans-79" x="469.388672"/>
     </g>
    </g>
   </g>
   <g id="patch_60">
    <path d="M 759.892161 170.4 
L 759.892161 11.602353 
" style="fill: none; stroke: #000000; stroke-width: 0.8; stroke-linejoin: miter; stroke-linecap: square"/>
   </g>
   <g id="patch_61">
    <path d="M 1069.2 170.4 
L 1069.2 11.602353 
" style="fill: none; stroke: #000000; stroke-width: 0.8; stroke-linejoin: miter; stroke-linecap: square"/>
   </g>
   <g id="patch_62">
    <path d="M 759.892161 170.4 
L 1069.2 170.4 
" style="fill: none; stroke: #000000; stroke-width: 0.8; stroke-linejoin: miter; stroke-linecap: square"/>
   </g>
   <g id="patch_63">
    <path d="M 759.892161 11.602353 
L 1069.2 11.602353 
" style="fill: none; stroke: #000000; stroke-width: 0.8; stroke-linejoin: miter; stroke-linecap: square"/>
   </g>
  </g>
 </g>
 <defs>
  <clipPath id="pb9b8951770">
   <rect x="14.3" y="11.602353" width="309.307839" height="158.797647"/>
  </clipPath>
  <clipPath id="pd575804868">
   <rect x="387.096081" y="11.602353" width="309.307839" height="158.797647"/>
  </clipPath>
  <clipPath id="pca2c2fef50">
   <rect x="759.892161" y="11.602353" width="309.307839" height="158.797647"/>
  </clipPath>
 </defs>
</svg>
