<?xml version="1.0" encoding="utf-8" standalone="no"?>
<!DOCTYPE svg PUBLIC "-//W3C//DTD SVG 1.1//EN"
  "http://www.w3.org/Graphics/SVG/1.1/DTD/svg11.dtd">
<svg xmlns:xlink="http://www.w3.org/1999/xlink" width="1080pt" height="216pt" viewBox="0 0 1080 216" xmlns="http://www.w3.org/2000/svg" version="1.1">
 <metadata>
  <rdf:RDF xmlns:dc="http://purl.org/dc/elements/1.1/" xmlns:cc="http://creativecommons.org/ns#" xmlns:rdf="http://www.w3.org/1999/02/22-rdf-syntax-ns#">
   <cc:Work>
    <dc:type rdf:resource="http://purl.org/dc/dcmitype/StillImage"/>
    <dc:date>2022-04-09T22:45:58.464343</dc:date>
    <dc:format>image/svg+xml</dc:format>
    <dc:creator>
     <cc:Agent>
      <dc:title>Matplotlib v3.5.1, https://matplotlib.org/</dc:title>
     </cc:Agent>
    </dc:creator>
   </cc:Work>
  </rdf:RDF>
 </metadata>
 <defs>
  <style type="text/css">*{stroke-linejoin: round; stroke-linecap: butt}</style>
 </defs>
 <g id="figure_1">
  <g id="patch_1">
   <path d="M 0 216 
L 1080 216 
L 1080 0 
L 0 0 
z
" style="fill: #ffffff"/>
  </g>
  <g id="axes_1">
   <g id="patch_2">
    <path d="M 14.3 170.4 
L 323.607839 170.4 
L 323.607839 10.8 
L 14.3 10.8 
z
" style="fill: #ffffff"/>
   </g>
   <g id="patch_3">
    <path d="M 14.3 50.7 
L 215.350095 50.7 
L 215.350095 77.3 
L 14.3 77.3 
z
" clip-path="url(#p07549e1b59)" style="fill: #3b4cc0"/>
   </g>
   <g id="patch_4">
    <path d="M 14.3 77.3 
L 88.533881 77.3 
L 88.533881 103.9 
L 14.3 103.9 
z
" clip-path="url(#p07549e1b59)" style="fill: #dddcdc"/>
   </g>
   <g id="patch_5">
    <path d="M 14.3 103.9 
L 48.323862 103.9 
L 48.323862 130.5 
L 14.3 130.5 
z
" clip-path="url(#p07549e1b59)" style="fill: #b40426"/>
   </g>
   <g id="matplotlib.axis_1">
    <g id="xtick_1">
     <g id="line2d_1">
      <defs>
       <path id="m9f9e1abe2c" d="M 0 0 
L 0 3.5 
" style="stroke: #000000; stroke-width: 0.8"/>
      </defs>
      <g>
       <use xlink:href="#m9f9e1abe2c" x="14.3" y="170.4" style="stroke: #000000; stroke-width: 0.8"/>
      </g>
     </g>
    </g>
    <g id="text_1">
     <!-- winner -->
     <g transform="translate(152.006263 188.998437)scale(0.1 -0.1)">
      <defs>
       <path id="DejaVuSans-77" d="M 269 3500 
L 844 3500 
L 1563 769 
L 2278 3500 
L 2956 3500 
L 3675 769 
L 4391 3500 
L 4966 3500 
L 4050 0 
L 3372 0 
L 2619 2869 
L 1863 0 
L 1184 0 
L 269 3500 
z
" transform="scale(0.015625)"/>
       <path id="DejaVuSans-69" d="M 603 3500 
L 1178 3500 
L 1178 0 
L 603 0 
L 603 3500 
z
M 603 4863 
L 1178 4863 
L 1178 4134 
L 603 4134 
L 603 4863 
z
" transform="scale(0.015625)"/>
       <path id="DejaVuSans-6e" d="M 3513 2113 
L 3513 0 
L 2938 0 
L 2938 2094 
Q 2938 2591 2744 2837 
Q 2550 3084 2163 3084 
Q 1697 3084 1428 2787 
Q 1159 2491 1159 1978 
L 1159 0 
L 581 0 
L 581 3500 
L 1159 3500 
L 1159 2956 
Q 1366 3272 1645 3428 
Q 1925 3584 2291 3584 
Q 2894 3584 3203 3211 
Q 3513 2838 3513 2113 
z
" transform="scale(0.015625)"/>
       <path id="DejaVuSans-65" d="M 3597 1894 
L 3597 1613 
L 953 1613 
Q 991 1019 1311 708 
Q 1631 397 2203 397 
Q 2534 397 2845 478 
Q 3156 559 3463 722 
L 3463 178 
Q 3153 47 2828 -22 
Q 2503 -91 2169 -91 
Q 1331 -91 842 396 
Q 353 884 353 1716 
Q 353 2575 817 3079 
Q 1281 3584 2069 3584 
Q 2775 3584 3186 3129 
Q 3597 2675 3597 1894 
z
M 3022 2063 
Q 3016 2534 2758 2815 
Q 2500 3097 2075 3097 
Q 1594 3097 1305 2825 
Q 1016 2553 972 2059 
L 3022 2063 
z
" transform="scale(0.015625)"/>
       <path id="DejaVuSans-72" d="M 2631 2963 
Q 2534 3019 2420 3045 
Q 2306 3072 2169 3072 
Q 1681 3072 1420 2755 
Q 1159 2438 1159 1844 
L 1159 0 
L 581 0 
L 581 3500 
L 1159 3500 
L 1159 2956 
Q 1341 3275 1631 3429 
Q 1922 3584 2338 3584 
Q 2397 3584 2469 3576 
Q 2541 3569 2628 3553 
L 2631 2963 
z
" transform="scale(0.015625)"/>
      </defs>
      <use xlink:href="#DejaVuSans-77"/>
      <use xlink:href="#DejaVuSans-69" x="81.787109"/>
      <use xlink:href="#DejaVuSans-6e" x="109.570312"/>
      <use xlink:href="#DejaVuSans-6e" x="172.949219"/>
      <use xlink:href="#DejaVuSans-65" x="236.328125"/>
      <use xlink:href="#DejaVuSans-72" x="297.851562"/>
     </g>
    </g>
   </g>
   <g id="matplotlib.axis_2"/>
   <g id="patch_6">
    <path d="M 14.3 170.4 
L 14.3 10.8 
" style="fill: none; stroke: #000000; stroke-width: 0.8; stroke-linejoin: miter; stroke-linecap: square"/>
   </g>
   <g id="patch_7">
    <path d="M 323.607839 170.4 
L 323.607839 10.8 
" style="fill: none; stroke: #000000; stroke-width: 0.8; stroke-linejoin: miter; stroke-linecap: square"/>
   </g>
   <g id="patch_8">
    <path d="M 14.3 170.4 
L 323.607839 170.4 
" style="fill: none; stroke: #000000; stroke-width: 0.8; stroke-linejoin: miter; stroke-linecap: square"/>
   </g>
   <g id="patch_9">
    <path d="M 14.3 10.8 
L 323.607839 10.8 
" style="fill: none; stroke: #000000; stroke-width: 0.8; stroke-linejoin: miter; stroke-linecap: square"/>
   </g>
   <g id="text_2">
    <!-- az_20: 65.0% -->
    <g transform="translate(17.393078 63.320031)scale(0.1 -0.1)">
     <defs>
      <path id="DejaVuSans-61" d="M 2194 1759 
Q 1497 1759 1228 1600 
Q 959 1441 959 1056 
Q 959 750 1161 570 
Q 1363 391 1709 391 
Q 2188 391 2477 730 
Q 2766 1069 2766 1631 
L 2766 1759 
L 2194 1759 
z
M 3341 1997 
L 3341 0 
L 2766 0 
L 2766 531 
Q 2569 213 2275 61 
Q 1981 -91 1556 -91 
Q 1019 -91 701 211 
Q 384 513 384 1019 
Q 384 1609 779 1909 
Q 1175 2209 1959 2209 
L 2766 2209 
L 2766 2266 
Q 2766 2663 2505 2880 
Q 2244 3097 1772 3097 
Q 1472 3097 1187 3025 
Q 903 2953 641 2809 
L 641 3341 
Q 956 3463 1253 3523 
Q 1550 3584 1831 3584 
Q 2591 3584 2966 3190 
Q 3341 2797 3341 1997 
z
" transform="scale(0.015625)"/>
      <path id="DejaVuSans-7a" d="M 353 3500 
L 3084 3500 
L 3084 2975 
L 922 459 
L 3084 459 
L 3084 0 
L 275 0 
L 275 525 
L 2438 3041 
L 353 3041 
L 353 3500 
z
" transform="scale(0.015625)"/>
      <path id="DejaVuSans-5f" d="M 3263 -1063 
L 3263 -1509 
L -63 -1509 
L -63 -1063 
L 3263 -1063 
z
" transform="scale(0.015625)"/>
      <path id="DejaVuSans-32" d="M 1228 531 
L 3431 531 
L 3431 0 
L 469 0 
L 469 531 
Q 828 903 1448 1529 
Q 2069 2156 2228 2338 
Q 2531 2678 2651 2914 
Q 2772 3150 2772 3378 
Q 2772 3750 2511 3984 
Q 2250 4219 1831 4219 
Q 1534 4219 1204 4116 
Q 875 4013 500 3803 
L 500 4441 
Q 881 4594 1212 4672 
Q 1544 4750 1819 4750 
Q 2544 4750 2975 4387 
Q 3406 4025 3406 3419 
Q 3406 3131 3298 2873 
Q 3191 2616 2906 2266 
Q 2828 2175 2409 1742 
Q 1991 1309 1228 531 
z
" transform="scale(0.015625)"/>
      <path id="DejaVuSans-30" d="M 2034 4250 
Q 1547 4250 1301 3770 
Q 1056 3291 1056 2328 
Q 1056 1369 1301 889 
Q 1547 409 2034 409 
Q 2525 409 2770 889 
Q 3016 1369 3016 2328 
Q 3016 3291 2770 3770 
Q 2525 4250 2034 4250 
z
M 2034 4750 
Q 2819 4750 3233 4129 
Q 3647 3509 3647 2328 
Q 3647 1150 3233 529 
Q 2819 -91 2034 -91 
Q 1250 -91 836 529 
Q 422 1150 422 2328 
Q 422 3509 836 4129 
Q 1250 4750 2034 4750 
z
" transform="scale(0.015625)"/>
      <path id="DejaVuSans-3a" d="M 750 794 
L 1409 794 
L 1409 0 
L 750 0 
L 750 794 
z
M 750 3309 
L 1409 3309 
L 1409 2516 
L 750 2516 
L 750 3309 
z
" transform="scale(0.015625)"/>
      <path id="DejaVuSans-20" transform="scale(0.015625)"/>
      <path id="DejaVuSans-36" d="M 2113 2584 
Q 1688 2584 1439 2293 
Q 1191 2003 1191 1497 
Q 1191 994 1439 701 
Q 1688 409 2113 409 
Q 2538 409 2786 701 
Q 3034 994 3034 1497 
Q 3034 2003 2786 2293 
Q 2538 2584 2113 2584 
z
M 3366 4563 
L 3366 3988 
Q 3128 4100 2886 4159 
Q 2644 4219 2406 4219 
Q 1781 4219 1451 3797 
Q 1122 3375 1075 2522 
Q 1259 2794 1537 2939 
Q 1816 3084 2150 3084 
Q 2853 3084 3261 2657 
Q 3669 2231 3669 1497 
Q 3669 778 3244 343 
Q 2819 -91 2113 -91 
Q 1303 -91 875 529 
Q 447 1150 447 2328 
Q 447 3434 972 4092 
Q 1497 4750 2381 4750 
Q 2619 4750 2861 4703 
Q 3103 4656 3366 4563 
z
" transform="scale(0.015625)"/>
      <path id="DejaVuSans-35" d="M 691 4666 
L 3169 4666 
L 3169 4134 
L 1269 4134 
L 1269 2991 
Q 1406 3038 1543 3061 
Q 1681 3084 1819 3084 
Q 2600 3084 3056 2656 
Q 3513 2228 3513 1497 
Q 3513 744 3044 326 
Q 2575 -91 1722 -91 
Q 1428 -91 1123 -41 
Q 819 9 494 109 
L 494 744 
Q 775 591 1075 516 
Q 1375 441 1709 441 
Q 2250 441 2565 725 
Q 2881 1009 2881 1497 
Q 2881 1984 2565 2268 
Q 2250 2553 1709 2553 
Q 1456 2553 1204 2497 
Q 953 2441 691 2322 
L 691 4666 
z
" transform="scale(0.015625)"/>
      <path id="DejaVuSans-2e" d="M 684 794 
L 1344 794 
L 1344 0 
L 684 0 
L 684 794 
z
" transform="scale(0.015625)"/>
      <path id="DejaVuSans-25" d="M 4653 2053 
Q 4381 2053 4226 1822 
Q 4072 1591 4072 1178 
Q 4072 772 4226 539 
Q 4381 306 4653 306 
Q 4919 306 5073 539 
Q 5228 772 5228 1178 
Q 5228 1588 5073 1820 
Q 4919 2053 4653 2053 
z
M 4653 2450 
Q 5147 2450 5437 2106 
Q 5728 1763 5728 1178 
Q 5728 594 5436 251 
Q 5144 -91 4653 -91 
Q 4153 -91 3862 251 
Q 3572 594 3572 1178 
Q 3572 1766 3864 2108 
Q 4156 2450 4653 2450 
z
M 1428 4353 
Q 1159 4353 1004 4120 
Q 850 3888 850 3481 
Q 850 3069 1003 2837 
Q 1156 2606 1428 2606 
Q 1700 2606 1854 2837 
Q 2009 3069 2009 3481 
Q 2009 3884 1853 4118 
Q 1697 4353 1428 4353 
z
M 4250 4750 
L 4750 4750 
L 1831 -91 
L 1331 -91 
L 4250 4750 
z
M 1428 4750 
Q 1922 4750 2215 4408 
Q 2509 4066 2509 3481 
Q 2509 2891 2217 2550 
Q 1925 2209 1428 2209 
Q 931 2209 642 2551 
Q 353 2894 353 3481 
Q 353 4063 643 4406 
Q 934 4750 1428 4750 
z
" transform="scale(0.015625)"/>
     </defs>
     <use xlink:href="#DejaVuSans-61"/>
     <use xlink:href="#DejaVuSans-7a" x="61.279297"/>
     <use xlink:href="#DejaVuSans-5f" x="113.769531"/>
     <use xlink:href="#DejaVuSans-32" x="163.769531"/>
     <use xlink:href="#DejaVuSans-30" x="227.392578"/>
     <use xlink:href="#DejaVuSans-3a" x="291.015625"/>
     <use xlink:href="#DejaVuSans-20" x="324.707031"/>
     <use xlink:href="#DejaVuSans-36" x="356.494141"/>
     <use xlink:href="#DejaVuSans-35" x="420.117188"/>
     <use xlink:href="#DejaVuSans-2e" x="483.740234"/>
     <use xlink:href="#DejaVuSans-30" x="515.527344"/>
     <use xlink:href="#DejaVuSans-25" x="579.150391"/>
    </g>
   </g>
   <g id="text_3">
    <!-- draw: 24.0% -->
    <g transform="translate(17.393078 90.147375)scale(0.1 -0.1)">
     <defs>
      <path id="DejaVuSans-64" d="M 2906 2969 
L 2906 4863 
L 3481 4863 
L 3481 0 
L 2906 0 
L 2906 525 
Q 2725 213 2448 61 
Q 2172 -91 1784 -91 
Q 1150 -91 751 415 
Q 353 922 353 1747 
Q 353 2572 751 3078 
Q 1150 3584 1784 3584 
Q 2172 3584 2448 3432 
Q 2725 3281 2906 2969 
z
M 947 1747 
Q 947 1113 1208 752 
Q 1469 391 1925 391 
Q 2381 391 2643 752 
Q 2906 1113 2906 1747 
Q 2906 2381 2643 2742 
Q 2381 3103 1925 3103 
Q 1469 3103 1208 2742 
Q 947 2381 947 1747 
z
" transform="scale(0.015625)"/>
      <path id="DejaVuSans-34" d="M 2419 4116 
L 825 1625 
L 2419 1625 
L 2419 4116 
z
M 2253 4666 
L 3047 4666 
L 3047 1625 
L 3713 1625 
L 3713 1100 
L 3047 1100 
L 3047 0 
L 2419 0 
L 2419 1100 
L 313 1100 
L 313 1709 
L 2253 4666 
z
" transform="scale(0.015625)"/>
     </defs>
     <use xlink:href="#DejaVuSans-64"/>
     <use xlink:href="#DejaVuSans-72" x="63.476562"/>
     <use xlink:href="#DejaVuSans-61" x="104.589844"/>
     <use xlink:href="#DejaVuSans-77" x="165.869141"/>
     <use xlink:href="#DejaVuSans-3a" x="242.15625"/>
     <use xlink:href="#DejaVuSans-20" x="275.847656"/>
     <use xlink:href="#DejaVuSans-32" x="307.634766"/>
     <use xlink:href="#DejaVuSans-34" x="371.257812"/>
     <use xlink:href="#DejaVuSans-2e" x="434.880859"/>
     <use xlink:href="#DejaVuSans-30" x="466.667969"/>
     <use xlink:href="#DejaVuSans-25" x="530.291016"/>
    </g>
   </g>
   <g id="text_4">
    <!-- raw_pvn: 11.0% -->
    <g transform="translate(17.393078 116.520031)scale(0.1 -0.1)">
     <defs>
      <path id="DejaVuSans-70" d="M 1159 525 
L 1159 -1331 
L 581 -1331 
L 581 3500 
L 1159 3500 
L 1159 2969 
Q 1341 3281 1617 3432 
Q 1894 3584 2278 3584 
Q 2916 3584 3314 3078 
Q 3713 2572 3713 1747 
Q 3713 922 3314 415 
Q 2916 -91 2278 -91 
Q 1894 -91 1617 61 
Q 1341 213 1159 525 
z
M 3116 1747 
Q 3116 2381 2855 2742 
Q 2594 3103 2138 3103 
Q 1681 3103 1420 2742 
Q 1159 2381 1159 1747 
Q 1159 1113 1420 752 
Q 1681 391 2138 391 
Q 2594 391 2855 752 
Q 3116 1113 3116 1747 
z
" transform="scale(0.015625)"/>
      <path id="DejaVuSans-76" d="M 191 3500 
L 800 3500 
L 1894 563 
L 2988 3500 
L 3597 3500 
L 2284 0 
L 1503 0 
L 191 3500 
z
" transform="scale(0.015625)"/>
      <path id="DejaVuSans-31" d="M 794 531 
L 1825 531 
L 1825 4091 
L 703 3866 
L 703 4441 
L 1819 4666 
L 2450 4666 
L 2450 531 
L 3481 531 
L 3481 0 
L 794 0 
L 794 531 
z
" transform="scale(0.015625)"/>
     </defs>
     <use xlink:href="#DejaVuSans-72"/>
     <use xlink:href="#DejaVuSans-61" x="41.113281"/>
     <use xlink:href="#DejaVuSans-77" x="102.392578"/>
     <use xlink:href="#DejaVuSans-5f" x="184.179688"/>
     <use xlink:href="#DejaVuSans-70" x="234.179688"/>
     <use xlink:href="#DejaVuSans-76" x="297.65625"/>
     <use xlink:href="#DejaVuSans-6e" x="356.835938"/>
     <use xlink:href="#DejaVuSans-3a" x="420.214844"/>
     <use xlink:href="#DejaVuSans-20" x="453.90625"/>
     <use xlink:href="#DejaVuSans-31" x="485.693359"/>
     <use xlink:href="#DejaVuSans-31" x="549.316406"/>
     <use xlink:href="#DejaVuSans-2e" x="612.939453"/>
     <use xlink:href="#DejaVuSans-30" x="644.726562"/>
     <use xlink:href="#DejaVuSans-25" x="708.349609"/>
    </g>
   </g>
   <g id="legend_1">
    <g id="patch_10">
     <path d="M 312.607839 23.8 
L 316.607839 23.8 
Q 318.607839 23.8 318.607839 21.8 
L 318.607839 17.8 
Q 318.607839 15.8 316.607839 15.8 
L 312.607839 15.8 
Q 310.607839 15.8 310.607839 17.8 
L 310.607839 21.8 
Q 310.607839 23.8 312.607839 23.8 
z
" style="fill: #ffffff; opacity: 0.8; stroke: #cccccc; stroke-linejoin: miter"/>
    </g>
   </g>
  </g>
  <g id="axes_2">
   <g id="patch_11">
    <path d="M 387.096081 170.4 
L 696.403919 170.4 
L 696.403919 10.8 
L 387.096081 10.8 
z
" style="fill: #ffffff"/>
   </g>
   <g id="PolyCollection_1">
    <defs>
     <path id="mcff1a707cb" d="M 516.046633 -165.295399 
L 516.046633 -165.304601 
L 516.827906 -165.306542 
L 517.59578 -165.309041 
L 518.350707 -165.312156 
L 519.093117 -165.31591 
L 519.823419 -165.320293 
L 520.542 -165.325253 
L 521.249232 -165.330701 
L 521.945466 -165.33653 
L 522.63104 -165.342629 
L 523.306276 -165.348909 
L 523.97148 -165.35533 
L 524.626946 -165.361927 
L 525.272956 -165.368821 
L 525.909778 -165.376235 
L 526.53767 -165.384491 
L 527.156878 -165.393997 
L 527.767641 -165.405236 
L 528.370184 -165.418735 
L 528.964727 -165.435039 
L 529.551479 -165.454672 
L 530.130642 -165.478101 
L 530.702409 -165.505695 
L 531.266967 -165.537682 
L 531.824495 -165.57412 
L 532.375167 -165.614873 
L 532.919149 -165.659609 
L 533.456601 -165.707819 
L 533.987679 -165.758857 
L 534.512531 -165.811998 
L 535.031303 -165.866507 
L 535.544133 -165.921693 
L 536.051156 -165.976954 
L 536.552503 -166.031786 
L 537.048298 -166.085765 
L 537.538663 -166.138504 
L 538.023716 -166.189595 
L 538.503571 -166.238561 
L 538.978339 -166.284819 
L 539.448125 -166.327691 
L 539.913033 -166.366445 
L 540.373164 -166.400372 
L 540.828614 -166.42888 
L 541.279479 -166.451598 
L 541.725849 -166.468438 
L 542.167813 -166.479621 
L 542.605457 -166.485637 
L 543.038866 -166.48715 
L 543.468119 -166.484849 
L 543.893296 -166.479292 
L 544.314474 -166.470759 
L 544.731728 -166.459173 
L 545.145129 -166.444093 
L 545.554748 -166.42481 
L 545.960654 -166.400517 
L 546.362913 -166.370535 
L 546.761591 -166.334542 
L 547.15675 -166.292747 
L 547.548452 -166.245975 
L 547.936758 -166.195633 
L 548.321725 -166.143548 
L 548.703411 -166.091719 
L 549.081871 -166.042017 
L 549.457158 -165.995896 
L 549.829327 -165.954187 
L 550.198427 -165.916991 
L 550.56451 -165.883713 
L 550.927624 -165.853213 
L 551.287817 -165.824049 
L 551.645136 -165.794749 
L 551.999626 -165.764081 
L 552.351331 -165.73125 
L 552.700296 -165.696016 
L 553.046562 -165.658705 
L 553.39017 -165.620133 
L 553.731162 -165.581461 
L 554.069577 -165.544017 
L 554.405454 -165.509101 
L 554.738829 -165.477826 
L 555.069741 -165.450982 
L 555.398226 -165.428967 
L 555.724318 -165.411766 
L 556.048052 -165.398979 
L 556.369463 -165.389904 
L 556.688583 -165.383638 
L 557.005445 -165.3792 
L 557.32008 -165.375653 
L 557.63252 -165.372203 
L 557.942795 -165.368274 
L 558.250934 -165.363538 
L 558.556968 -165.357914 
L 558.860924 -165.351526 
L 559.162831 -165.344644 
L 559.462715 -165.337613 
L 559.760605 -165.330782 
L 560.056526 -165.324455 
L 560.350504 -165.318851 
L 560.642565 -165.314097 
L 560.932733 -165.310224 
L 561.221032 -165.307191 
L 561.221032 -165.292809 
L 561.221032 -165.292809 
L 560.932733 -165.289776 
L 560.642565 -165.285903 
L 560.350504 -165.281149 
L 560.056526 -165.275545 
L 559.760605 -165.269218 
L 559.462715 -165.262387 
L 559.162831 -165.255356 
L 558.860924 -165.248474 
L 558.556968 -165.242086 
L 558.250934 -165.236462 
L 557.942795 -165.231726 
L 557.63252 -165.227797 
L 557.32008 -165.224347 
L 557.005445 -165.2208 
L 556.688583 -165.216362 
L 556.369463 -165.210096 
L 556.048052 -165.201021 
L 555.724318 -165.188234 
L 555.398226 -165.171033 
L 555.069741 -165.149018 
L 554.738829 -165.122174 
L 554.405454 -165.090899 
L 554.069577 -165.055983 
L 553.731162 -165.018539 
L 553.39017 -164.979867 
L 553.046562 -164.941295 
L 552.700296 -164.903984 
L 552.351331 -164.86875 
L 551.999626 -164.835919 
L 551.645136 -164.805251 
L 551.287817 -164.775951 
L 550.927624 -164.746787 
L 550.56451 -164.716287 
L 550.198427 -164.683009 
L 549.829327 -164.645813 
L 549.457158 -164.604104 
L 549.081871 -164.557983 
L 548.703411 -164.508281 
L 548.321725 -164.456452 
L 547.936758 -164.404367 
L 547.548452 -164.354025 
L 547.15675 -164.307253 
L 546.761591 -164.265458 
L 546.362913 -164.229465 
L 545.960654 -164.199483 
L 545.554748 -164.17519 
L 545.145129 -164.155907 
L 544.731728 -164.140827 
L 544.314474 -164.129241 
L 543.893296 -164.120708 
L 543.468119 -164.115151 
L 543.038866 -164.11285 
L 542.605457 -164.114363 
L 542.167813 -164.120379 
L 541.725849 -164.131562 
L 541.279479 -164.148402 
L 540.828614 -164.17112 
L 540.373164 -164.199628 
L 539.913033 -164.233555 
L 539.448125 -164.272309 
L 538.978339 -164.315181 
L 538.503571 -164.361439 
L 538.023716 -164.410405 
L 537.538663 -164.461496 
L 537.048298 -164.514235 
L 536.552503 -164.568214 
L 536.051156 -164.623046 
L 535.544133 -164.678307 
L 535.031303 -164.733493 
L 534.512531 -164.788002 
L 533.987679 -164.841143 
L 533.456601 -164.892181 
L 532.919149 -164.940391 
L 532.375167 -164.985127 
L 531.824495 -165.02588 
L 531.266967 -165.062318 
L 530.702409 -165.094305 
L 530.130642 -165.121899 
L 529.551479 -165.145328 
L 528.964727 -165.164961 
L 528.370184 -165.181265 
L 527.767641 -165.194764 
L 527.156878 -165.206003 
L 526.53767 -165.215509 
L 525.909778 -165.223765 
L 525.272956 -165.231179 
L 524.626946 -165.238073 
L 523.97148 -165.24467 
L 523.306276 -165.251091 
L 522.63104 -165.257371 
L 521.945466 -165.26347 
L 521.249232 -165.269299 
L 520.542 -165.274747 
L 519.823419 -165.279707 
L 519.093117 -165.28409 
L 518.350707 -165.287844 
L 517.59578 -165.290959 
L 516.827906 -165.293458 
L 516.046633 -165.295399 
z
" style="stroke: #797979; stroke-width: 1.5"/>
    </defs>
    <g clip-path="url(#pec77584a4a)">
     <use xlink:href="#mcff1a707cb" x="0" y="216" style="fill: #aac7fd; stroke: #797979; stroke-width: 1.5"/>
    </g>
   </g>
   <g id="PolyCollection_2">
    <defs>
     <path id="mc6991a1794" d="M 412.318855 -84.295698 
L 412.318855 -86.704302 
L 413.154859 -87.44934 
L 413.97554 -88.536668 
L 414.78145 -90.052761 
L 415.573111 -92.069433 
L 416.351018 -94.623518 
L 417.115641 -97.695044 
L 417.867426 -101.189044 
L 418.606797 -104.927137 
L 419.334158 -108.654254 
L 420.049891 -112.063066 
L 420.754364 -114.834211 
L 421.447925 -116.685545 
L 422.130907 -117.42 
L 422.803627 -116.960763 
L 423.46639 -115.364971 
L 424.119486 -112.812461 
L 424.763193 -109.572548 
L 425.397778 -105.957307 
L 426.023494 -102.272528 
L 426.640587 -98.776915 
L 427.249291 -95.656546 
L 427.849831 -93.016774 
L 428.442423 -90.889251 
L 429.027275 -89.248829 
L 429.604587 -88.034305 
L 430.174549 -87.167932 
L 430.737348 -86.570528 
L 431.293161 -86.171091 
L 431.842158 -85.911377 
L 432.384507 -85.746757 
L 432.920364 -85.644845 
L 433.449885 -85.583159 
L 433.973217 -85.546646 
L 434.490503 -85.525524 
L 435.001881 -85.513601 
L 435.507485 -85.507044 
L 436.007443 -85.503539 
L 436.501881 -85.501722 
L 436.990918 -85.50081 
L 437.474673 -85.500368 
L 437.953256 -85.500161 
L 438.426779 -85.500068 
L 438.895346 -85.500028 
L 439.359061 -85.500011 
L 439.818022 -85.500004 
L 440.272327 -85.500001 
L 440.722069 -85.500001 
L 441.167338 -85.5 
L 441.608224 -85.5 
L 442.04481 -85.5 
L 442.477181 -85.500001 
L 442.905416 -85.500003 
L 443.329595 -85.500008 
L 443.749793 -85.500019 
L 444.166085 -85.500047 
L 444.578541 -85.500109 
L 444.987234 -85.500243 
L 445.392229 -85.50052 
L 445.793595 -85.501066 
L 446.191394 -85.502094 
L 446.585691 -85.503947 
L 446.976546 -85.507132 
L 447.364019 -85.51236 
L 447.748167 -85.520545 
L 448.129048 -85.532751 
L 448.506716 -85.550077 
L 448.881225 -85.573448 
L 449.252628 -85.603348 
L 449.620976 -85.639546 
L 449.986318 -85.680881 
L 450.348704 -85.72521 
L 450.70818 -85.769601 
L 451.064793 -85.810782 
L 451.418589 -85.845799 
L 451.769611 -85.872742 
L 452.117902 -85.891336 
L 452.463506 -85.903216 
L 452.806462 -85.911736 
L 453.146811 -85.921307 
L 453.484593 -85.936365 
L 453.819846 -85.960228 
L 454.152608 -85.994092 
L 454.482914 -86.036468 
L 454.810802 -86.083202 
L 455.136307 -86.128121 
L 455.459462 -86.164165 
L 455.780302 -86.184748 
L 456.098859 -86.18505 
L 456.415166 -86.162922 
L 456.729254 -86.119232 
L 457.041154 -86.057599 
L 457.350897 -85.983614 
L 457.658512 -85.903778 
L 457.964027 -85.824405 
L 458.267473 -85.750732 
L 458.568876 -85.686387 
L 458.868263 -85.633235 
L 459.165663 -85.591569 
L 459.461099 -85.560497 
L 459.461099 -85.439503 
L 459.461099 -85.439503 
L 459.165663 -85.408431 
L 458.868263 -85.366765 
L 458.568876 -85.313613 
L 458.267473 -85.249268 
L 457.964027 -85.175595 
L 457.658512 -85.096222 
L 457.350897 -85.016386 
L 457.041154 -84.942401 
L 456.729254 -84.880768 
L 456.415166 -84.837078 
L 456.098859 -84.81495 
L 455.780302 -84.815252 
L 455.459462 -84.835835 
L 455.136307 -84.871879 
L 454.810802 -84.916798 
L 454.482914 -84.963532 
L 454.152608 -85.005908 
L 453.819846 -85.039772 
L 453.484593 -85.063635 
L 453.146811 -85.078693 
L 452.806462 -85.088264 
L 452.463506 -85.096784 
L 452.117902 -85.108664 
L 451.769611 -85.127258 
L 451.418589 -85.154201 
L 451.064793 -85.189218 
L 450.70818 -85.230399 
L 450.348704 -85.27479 
L 449.986318 -85.319119 
L 449.620976 -85.360454 
L 449.252628 -85.396652 
L 448.881225 -85.426552 
L 448.506716 -85.449923 
L 448.129048 -85.467249 
L 447.748167 -85.479455 
L 447.364019 -85.48764 
L 446.976546 -85.492868 
L 446.585691 -85.496053 
L 446.191394 -85.497906 
L 445.793595 -85.498934 
L 445.392229 -85.49948 
L 444.987234 -85.499757 
L 444.578541 -85.499891 
L 444.166085 -85.499953 
L 443.749793 -85.499981 
L 443.329595 -85.499992 
L 442.905416 -85.499997 
L 442.477181 -85.499999 
L 442.04481 -85.5 
L 441.608224 -85.5 
L 441.167338 -85.5 
L 440.722069 -85.499999 
L 440.272327 -85.499999 
L 439.818022 -85.499996 
L 439.359061 -85.499989 
L 438.895346 -85.499972 
L 438.426779 -85.499932 
L 437.953256 -85.499839 
L 437.474673 -85.499632 
L 436.990918 -85.49919 
L 436.501881 -85.498278 
L 436.007443 -85.496461 
L 435.507485 -85.492956 
L 435.001881 -85.486399 
L 434.490503 -85.474476 
L 433.973217 -85.453354 
L 433.449885 -85.416841 
L 432.920364 -85.355155 
L 432.384507 -85.253243 
L 431.842158 -85.088623 
L 431.293161 -84.828909 
L 430.737348 -84.429472 
L 430.174549 -83.832068 
L 429.604587 -82.965695 
L 429.027275 -81.751171 
L 428.442423 -80.110749 
L 427.849831 -77.983226 
L 427.249291 -75.343454 
L 426.640587 -72.223085 
L 426.023494 -68.727472 
L 425.397778 -65.042693 
L 424.763193 -61.427452 
L 424.119486 -58.187539 
L 423.46639 -55.635029 
L 422.803627 -54.039237 
L 422.130907 -53.58 
L 421.447925 -54.314455 
L 420.754364 -56.165789 
L 420.049891 -58.936934 
L 419.334158 -62.345746 
L 418.606797 -66.072863 
L 417.867426 -69.810956 
L 417.115641 -73.304956 
L 416.351018 -76.376482 
L 415.573111 -78.930567 
L 414.78145 -80.947239 
L 413.97554 -82.463332 
L 413.154859 -83.55066 
L 412.318855 -84.295698 
z
" style="stroke: #797979; stroke-width: 1.5"/>
    </defs>
    <g clip-path="url(#pec77584a4a)">
     <use xlink:href="#mc6991a1794" x="0" y="216" style="fill: #f7b89c; stroke: #797979; stroke-width: 1.5"/>
    </g>
   </g>
   <g id="matplotlib.axis_3">
    <g id="xtick_2">
     <g id="line2d_2">
      <g>
       <use xlink:href="#m9f9e1abe2c" x="387.096081" y="170.4" style="stroke: #000000; stroke-width: 0.8"/>
      </g>
     </g>
     <g id="text_5">
      <!-- $\mathdefault{10^{-2}}$ -->
      <g transform="translate(375.346081 184.998437)scale(0.1 -0.1)">
       <defs>
        <path id="DejaVuSans-2212" d="M 678 2272 
L 4684 2272 
L 4684 1741 
L 678 1741 
L 678 2272 
z
" transform="scale(0.015625)"/>
       </defs>
       <use xlink:href="#DejaVuSans-31" transform="translate(0 0.765625)"/>
       <use xlink:href="#DejaVuSans-30" transform="translate(63.623047 0.765625)"/>
       <use xlink:href="#DejaVuSans-2212" transform="translate(128.203125 39.046875)scale(0.7)"/>
       <use xlink:href="#DejaVuSans-32" transform="translate(186.855469 39.046875)scale(0.7)"/>
      </g>
     </g>
    </g>
    <g id="xtick_3">
     <g id="line2d_3">
      <g>
       <use xlink:href="#m9f9e1abe2c" x="490.198694" y="170.4" style="stroke: #000000; stroke-width: 0.8"/>
      </g>
     </g>
     <g id="text_6">
      <!-- $\mathdefault{10^{-1}}$ -->
      <g transform="translate(478.448694 184.998437)scale(0.1 -0.1)">
       <use xlink:href="#DejaVuSans-31" transform="translate(0 0.684375)"/>
       <use xlink:href="#DejaVuSans-30" transform="translate(63.623047 0.684375)"/>
       <use xlink:href="#DejaVuSans-2212" transform="translate(128.203125 38.965625)scale(0.7)"/>
       <use xlink:href="#DejaVuSans-31" transform="translate(186.855469 38.965625)scale(0.7)"/>
      </g>
     </g>
    </g>
    <g id="xtick_4">
     <g id="line2d_4">
      <g>
       <use xlink:href="#m9f9e1abe2c" x="593.301306" y="170.4" style="stroke: #000000; stroke-width: 0.8"/>
      </g>
     </g>
     <g id="text_7">
      <!-- $\mathdefault{10^{0}}$ -->
      <g transform="translate(584.501306 184.998437)scale(0.1 -0.1)">
       <use xlink:href="#DejaVuSans-31" transform="translate(0 0.765625)"/>
       <use xlink:href="#DejaVuSans-30" transform="translate(63.623047 0.765625)"/>
       <use xlink:href="#DejaVuSans-30" transform="translate(128.203125 39.046875)scale(0.7)"/>
      </g>
     </g>
    </g>
    <g id="xtick_5">
     <g id="line2d_5">
      <g>
       <use xlink:href="#m9f9e1abe2c" x="696.403919" y="170.4" style="stroke: #000000; stroke-width: 0.8"/>
      </g>
     </g>
     <g id="text_8">
      <!-- $\mathdefault{10^{1}}$ -->
      <g transform="translate(687.603919 184.998437)scale(0.1 -0.1)">
       <use xlink:href="#DejaVuSans-31" transform="translate(0 0.684375)"/>
       <use xlink:href="#DejaVuSans-30" transform="translate(63.623047 0.684375)"/>
       <use xlink:href="#DejaVuSans-31" transform="translate(128.203125 38.965625)scale(0.7)"/>
      </g>
     </g>
    </g>
    <g id="xtick_6">
     <g id="line2d_6">
      <defs>
       <path id="m52a28ed707" d="M 0 0 
L 0 2 
" style="stroke: #000000; stroke-width: 0.6"/>
      </defs>
      <g>
       <use xlink:href="#m52a28ed707" x="418.13306" y="170.4" style="stroke: #000000; stroke-width: 0.6"/>
      </g>
     </g>
    </g>
    <g id="xtick_7">
     <g id="line2d_7">
      <g>
       <use xlink:href="#m52a28ed707" x="436.288529" y="170.4" style="stroke: #000000; stroke-width: 0.6"/>
      </g>
     </g>
    </g>
    <g id="xtick_8">
     <g id="line2d_8">
      <g>
       <use xlink:href="#m52a28ed707" x="449.170039" y="170.4" style="stroke: #000000; stroke-width: 0.6"/>
      </g>
     </g>
    </g>
    <g id="xtick_9">
     <g id="line2d_9">
      <g>
       <use xlink:href="#m52a28ed707" x="459.161714" y="170.4" style="stroke: #000000; stroke-width: 0.6"/>
      </g>
     </g>
    </g>
    <g id="xtick_10">
     <g id="line2d_10">
      <g>
       <use xlink:href="#m52a28ed707" x="467.325508" y="170.4" style="stroke: #000000; stroke-width: 0.6"/>
      </g>
     </g>
    </g>
    <g id="xtick_11">
     <g id="line2d_11">
      <g>
       <use xlink:href="#m52a28ed707" x="474.227897" y="170.4" style="stroke: #000000; stroke-width: 0.6"/>
      </g>
     </g>
    </g>
    <g id="xtick_12">
     <g id="line2d_12">
      <g>
       <use xlink:href="#m52a28ed707" x="480.207018" y="170.4" style="stroke: #000000; stroke-width: 0.6"/>
      </g>
     </g>
    </g>
    <g id="xtick_13">
     <g id="line2d_13">
      <g>
       <use xlink:href="#m52a28ed707" x="485.480977" y="170.4" style="stroke: #000000; stroke-width: 0.6"/>
      </g>
     </g>
    </g>
    <g id="xtick_14">
     <g id="line2d_14">
      <g>
       <use xlink:href="#m52a28ed707" x="521.235673" y="170.4" style="stroke: #000000; stroke-width: 0.6"/>
      </g>
     </g>
    </g>
    <g id="xtick_15">
     <g id="line2d_15">
      <g>
       <use xlink:href="#m52a28ed707" x="539.391142" y="170.4" style="stroke: #000000; stroke-width: 0.6"/>
      </g>
     </g>
    </g>
    <g id="xtick_16">
     <g id="line2d_16">
      <g>
       <use xlink:href="#m52a28ed707" x="552.272652" y="170.4" style="stroke: #000000; stroke-width: 0.6"/>
      </g>
     </g>
    </g>
    <g id="xtick_17">
     <g id="line2d_17">
      <g>
       <use xlink:href="#m52a28ed707" x="562.264327" y="170.4" style="stroke: #000000; stroke-width: 0.6"/>
      </g>
     </g>
    </g>
    <g id="xtick_18">
     <g id="line2d_18">
      <g>
       <use xlink:href="#m52a28ed707" x="570.428121" y="170.4" style="stroke: #000000; stroke-width: 0.6"/>
      </g>
     </g>
    </g>
    <g id="xtick_19">
     <g id="line2d_19">
      <g>
       <use xlink:href="#m52a28ed707" x="577.33051" y="170.4" style="stroke: #000000; stroke-width: 0.6"/>
      </g>
     </g>
    </g>
    <g id="xtick_20">
     <g id="line2d_20">
      <g>
       <use xlink:href="#m52a28ed707" x="583.309631" y="170.4" style="stroke: #000000; stroke-width: 0.6"/>
      </g>
     </g>
    </g>
    <g id="xtick_21">
     <g id="line2d_21">
      <g>
       <use xlink:href="#m52a28ed707" x="588.58359" y="170.4" style="stroke: #000000; stroke-width: 0.6"/>
      </g>
     </g>
    </g>
    <g id="xtick_22">
     <g id="line2d_22">
      <g>
       <use xlink:href="#m52a28ed707" x="624.338286" y="170.4" style="stroke: #000000; stroke-width: 0.6"/>
      </g>
     </g>
    </g>
    <g id="xtick_23">
     <g id="line2d_23">
      <g>
       <use xlink:href="#m52a28ed707" x="642.493754" y="170.4" style="stroke: #000000; stroke-width: 0.6"/>
      </g>
     </g>
    </g>
    <g id="xtick_24">
     <g id="line2d_24">
      <g>
       <use xlink:href="#m52a28ed707" x="655.375265" y="170.4" style="stroke: #000000; stroke-width: 0.6"/>
      </g>
     </g>
    </g>
    <g id="xtick_25">
     <g id="line2d_25">
      <g>
       <use xlink:href="#m52a28ed707" x="665.36694" y="170.4" style="stroke: #000000; stroke-width: 0.6"/>
      </g>
     </g>
    </g>
    <g id="xtick_26">
     <g id="line2d_26">
      <g>
       <use xlink:href="#m52a28ed707" x="673.530734" y="170.4" style="stroke: #000000; stroke-width: 0.6"/>
      </g>
     </g>
    </g>
    <g id="xtick_27">
     <g id="line2d_27">
      <g>
       <use xlink:href="#m52a28ed707" x="680.433122" y="170.4" style="stroke: #000000; stroke-width: 0.6"/>
      </g>
     </g>
    </g>
    <g id="xtick_28">
     <g id="line2d_28">
      <g>
       <use xlink:href="#m52a28ed707" x="686.412244" y="170.4" style="stroke: #000000; stroke-width: 0.6"/>
      </g>
     </g>
    </g>
    <g id="xtick_29">
     <g id="line2d_29">
      <g>
       <use xlink:href="#m52a28ed707" x="691.686202" y="170.4" style="stroke: #000000; stroke-width: 0.6"/>
      </g>
     </g>
    </g>
    <g id="text_9">
     <!-- distribution of time to move (s) -->
     <g transform="translate(463.704687 198.676562)scale(0.1 -0.1)">
      <defs>
       <path id="DejaVuSans-73" d="M 2834 3397 
L 2834 2853 
Q 2591 2978 2328 3040 
Q 2066 3103 1784 3103 
Q 1356 3103 1142 2972 
Q 928 2841 928 2578 
Q 928 2378 1081 2264 
Q 1234 2150 1697 2047 
L 1894 2003 
Q 2506 1872 2764 1633 
Q 3022 1394 3022 966 
Q 3022 478 2636 193 
Q 2250 -91 1575 -91 
Q 1294 -91 989 -36 
Q 684 19 347 128 
L 347 722 
Q 666 556 975 473 
Q 1284 391 1588 391 
Q 1994 391 2212 530 
Q 2431 669 2431 922 
Q 2431 1156 2273 1281 
Q 2116 1406 1581 1522 
L 1381 1569 
Q 847 1681 609 1914 
Q 372 2147 372 2553 
Q 372 3047 722 3315 
Q 1072 3584 1716 3584 
Q 2034 3584 2315 3537 
Q 2597 3491 2834 3397 
z
" transform="scale(0.015625)"/>
       <path id="DejaVuSans-74" d="M 1172 4494 
L 1172 3500 
L 2356 3500 
L 2356 3053 
L 1172 3053 
L 1172 1153 
Q 1172 725 1289 603 
Q 1406 481 1766 481 
L 2356 481 
L 2356 0 
L 1766 0 
Q 1100 0 847 248 
Q 594 497 594 1153 
L 594 3053 
L 172 3053 
L 172 3500 
L 594 3500 
L 594 4494 
L 1172 4494 
z
" transform="scale(0.015625)"/>
       <path id="DejaVuSans-62" d="M 3116 1747 
Q 3116 2381 2855 2742 
Q 2594 3103 2138 3103 
Q 1681 3103 1420 2742 
Q 1159 2381 1159 1747 
Q 1159 1113 1420 752 
Q 1681 391 2138 391 
Q 2594 391 2855 752 
Q 3116 1113 3116 1747 
z
M 1159 2969 
Q 1341 3281 1617 3432 
Q 1894 3584 2278 3584 
Q 2916 3584 3314 3078 
Q 3713 2572 3713 1747 
Q 3713 922 3314 415 
Q 2916 -91 2278 -91 
Q 1894 -91 1617 61 
Q 1341 213 1159 525 
L 1159 0 
L 581 0 
L 581 4863 
L 1159 4863 
L 1159 2969 
z
" transform="scale(0.015625)"/>
       <path id="DejaVuSans-75" d="M 544 1381 
L 544 3500 
L 1119 3500 
L 1119 1403 
Q 1119 906 1312 657 
Q 1506 409 1894 409 
Q 2359 409 2629 706 
Q 2900 1003 2900 1516 
L 2900 3500 
L 3475 3500 
L 3475 0 
L 2900 0 
L 2900 538 
Q 2691 219 2414 64 
Q 2138 -91 1772 -91 
Q 1169 -91 856 284 
Q 544 659 544 1381 
z
M 1991 3584 
L 1991 3584 
z
" transform="scale(0.015625)"/>
       <path id="DejaVuSans-6f" d="M 1959 3097 
Q 1497 3097 1228 2736 
Q 959 2375 959 1747 
Q 959 1119 1226 758 
Q 1494 397 1959 397 
Q 2419 397 2687 759 
Q 2956 1122 2956 1747 
Q 2956 2369 2687 2733 
Q 2419 3097 1959 3097 
z
M 1959 3584 
Q 2709 3584 3137 3096 
Q 3566 2609 3566 1747 
Q 3566 888 3137 398 
Q 2709 -91 1959 -91 
Q 1206 -91 779 398 
Q 353 888 353 1747 
Q 353 2609 779 3096 
Q 1206 3584 1959 3584 
z
" transform="scale(0.015625)"/>
       <path id="DejaVuSans-66" d="M 2375 4863 
L 2375 4384 
L 1825 4384 
Q 1516 4384 1395 4259 
Q 1275 4134 1275 3809 
L 1275 3500 
L 2222 3500 
L 2222 3053 
L 1275 3053 
L 1275 0 
L 697 0 
L 697 3053 
L 147 3053 
L 147 3500 
L 697 3500 
L 697 3744 
Q 697 4328 969 4595 
Q 1241 4863 1831 4863 
L 2375 4863 
z
" transform="scale(0.015625)"/>
       <path id="DejaVuSans-6d" d="M 3328 2828 
Q 3544 3216 3844 3400 
Q 4144 3584 4550 3584 
Q 5097 3584 5394 3201 
Q 5691 2819 5691 2113 
L 5691 0 
L 5113 0 
L 5113 2094 
Q 5113 2597 4934 2840 
Q 4756 3084 4391 3084 
Q 3944 3084 3684 2787 
Q 3425 2491 3425 1978 
L 3425 0 
L 2847 0 
L 2847 2094 
Q 2847 2600 2669 2842 
Q 2491 3084 2119 3084 
Q 1678 3084 1418 2786 
Q 1159 2488 1159 1978 
L 1159 0 
L 581 0 
L 581 3500 
L 1159 3500 
L 1159 2956 
Q 1356 3278 1631 3431 
Q 1906 3584 2284 3584 
Q 2666 3584 2933 3390 
Q 3200 3197 3328 2828 
z
" transform="scale(0.015625)"/>
       <path id="DejaVuSans-28" d="M 1984 4856 
Q 1566 4138 1362 3434 
Q 1159 2731 1159 2009 
Q 1159 1288 1364 580 
Q 1569 -128 1984 -844 
L 1484 -844 
Q 1016 -109 783 600 
Q 550 1309 550 2009 
Q 550 2706 781 3412 
Q 1013 4119 1484 4856 
L 1984 4856 
z
" transform="scale(0.015625)"/>
       <path id="DejaVuSans-29" d="M 513 4856 
L 1013 4856 
Q 1481 4119 1714 3412 
Q 1947 2706 1947 2009 
Q 1947 1309 1714 600 
Q 1481 -109 1013 -844 
L 513 -844 
Q 928 -128 1133 580 
Q 1338 1288 1338 2009 
Q 1338 2731 1133 3434 
Q 928 4138 513 4856 
z
" transform="scale(0.015625)"/>
      </defs>
      <use xlink:href="#DejaVuSans-64"/>
      <use xlink:href="#DejaVuSans-69" x="63.476562"/>
      <use xlink:href="#DejaVuSans-73" x="91.259766"/>
      <use xlink:href="#DejaVuSans-74" x="143.359375"/>
      <use xlink:href="#DejaVuSans-72" x="182.568359"/>
      <use xlink:href="#DejaVuSans-69" x="223.681641"/>
      <use xlink:href="#DejaVuSans-62" x="251.464844"/>
      <use xlink:href="#DejaVuSans-75" x="314.941406"/>
      <use xlink:href="#DejaVuSans-74" x="378.320312"/>
      <use xlink:href="#DejaVuSans-69" x="417.529297"/>
      <use xlink:href="#DejaVuSans-6f" x="445.3125"/>
      <use xlink:href="#DejaVuSans-6e" x="506.494141"/>
      <use xlink:href="#DejaVuSans-20" x="569.873047"/>
      <use xlink:href="#DejaVuSans-6f" x="601.660156"/>
      <use xlink:href="#DejaVuSans-66" x="662.841797"/>
      <use xlink:href="#DejaVuSans-20" x="698.046875"/>
      <use xlink:href="#DejaVuSans-74" x="729.833984"/>
      <use xlink:href="#DejaVuSans-69" x="769.042969"/>
      <use xlink:href="#DejaVuSans-6d" x="796.826172"/>
      <use xlink:href="#DejaVuSans-65" x="894.238281"/>
      <use xlink:href="#DejaVuSans-20" x="955.761719"/>
      <use xlink:href="#DejaVuSans-74" x="987.548828"/>
      <use xlink:href="#DejaVuSans-6f" x="1026.757812"/>
      <use xlink:href="#DejaVuSans-20" x="1087.939453"/>
      <use xlink:href="#DejaVuSans-6d" x="1119.726562"/>
      <use xlink:href="#DejaVuSans-6f" x="1217.138672"/>
      <use xlink:href="#DejaVuSans-76" x="1278.320312"/>
      <use xlink:href="#DejaVuSans-65" x="1337.5"/>
      <use xlink:href="#DejaVuSans-20" x="1399.023438"/>
      <use xlink:href="#DejaVuSans-28" x="1430.810547"/>
      <use xlink:href="#DejaVuSans-73" x="1469.824219"/>
      <use xlink:href="#DejaVuSans-29" x="1521.923828"/>
     </g>
    </g>
   </g>
   <g id="matplotlib.axis_4">
    <g id="ytick_1">
     <g id="line2d_30">
      <defs>
       <path id="mce6eab2039" d="M 0 0 
L -3.5 0 
" style="stroke: #000000; stroke-width: 0.8"/>
      </defs>
      <g>
       <use xlink:href="#mce6eab2039" x="387.096081" y="50.7" style="stroke: #000000; stroke-width: 0.8"/>
      </g>
     </g>
     <g id="text_10">
      <!-- az_20 -->
      <g transform="translate(377.738268 76.090625)rotate(-90)scale(0.1 -0.1)">
       <use xlink:href="#DejaVuSans-61"/>
       <use xlink:href="#DejaVuSans-7a" x="61.279297"/>
       <use xlink:href="#DejaVuSans-5f" x="113.769531"/>
       <use xlink:href="#DejaVuSans-32" x="163.769531"/>
       <use xlink:href="#DejaVuSans-30" x="227.392578"/>
      </g>
     </g>
    </g>
    <g id="ytick_2">
     <g id="line2d_31">
      <g>
       <use xlink:href="#mce6eab2039" x="387.096081" y="130.5" style="stroke: #000000; stroke-width: 0.8"/>
      </g>
     </g>
     <g id="text_11">
      <!-- raw_pvn -->
      <g transform="translate(377.738268 168.861719)rotate(-90)scale(0.1 -0.1)">
       <use xlink:href="#DejaVuSans-72"/>
       <use xlink:href="#DejaVuSans-61" x="41.113281"/>
       <use xlink:href="#DejaVuSans-77" x="102.392578"/>
       <use xlink:href="#DejaVuSans-5f" x="184.179688"/>
       <use xlink:href="#DejaVuSans-70" x="234.179688"/>
       <use xlink:href="#DejaVuSans-76" x="297.65625"/>
       <use xlink:href="#DejaVuSans-6e" x="356.835938"/>
      </g>
     </g>
    </g>
    <g id="text_12">
     <!-- player -->
     <g transform="translate(364.236706 106.31875)rotate(-90)scale(0.1 -0.1)">
      <defs>
       <path id="DejaVuSans-6c" d="M 603 4863 
L 1178 4863 
L 1178 0 
L 603 0 
L 603 4863 
z
" transform="scale(0.015625)"/>
       <path id="DejaVuSans-79" d="M 2059 -325 
Q 1816 -950 1584 -1140 
Q 1353 -1331 966 -1331 
L 506 -1331 
L 506 -850 
L 844 -850 
Q 1081 -850 1212 -737 
Q 1344 -625 1503 -206 
L 1606 56 
L 191 3500 
L 800 3500 
L 1894 763 
L 2988 3500 
L 3597 3500 
L 2059 -325 
z
" transform="scale(0.015625)"/>
      </defs>
      <use xlink:href="#DejaVuSans-70"/>
      <use xlink:href="#DejaVuSans-6c" x="63.476562"/>
      <use xlink:href="#DejaVuSans-61" x="91.259766"/>
      <use xlink:href="#DejaVuSans-79" x="152.539062"/>
      <use xlink:href="#DejaVuSans-65" x="211.71875"/>
      <use xlink:href="#DejaVuSans-72" x="273.242188"/>
     </g>
    </g>
   </g>
   <g id="line2d_32">
    <path d="M 527.997113 50.7 
L 553.69391 50.7 
" clip-path="url(#pec77584a4a)" style="fill: none; stroke: #797979; stroke-width: 1.5; stroke-linecap: square"/>
   </g>
   <g id="line2d_33">
    <path d="M 539.63674 50.7 
L 547.511381 50.7 
" clip-path="url(#pec77584a4a)" style="fill: none; stroke: #797979; stroke-width: 4.5; stroke-linecap: square"/>
   </g>
   <g id="line2d_34">
    <path d="M 420.317732 130.5 
L 424.196059 130.5 
" clip-path="url(#pec77584a4a)" style="fill: none; stroke: #797979; stroke-width: 1.5; stroke-linecap: square"/>
   </g>
   <g id="line2d_35">
    <path d="M 421.785958 130.5 
L 422.805977 130.5 
" clip-path="url(#pec77584a4a)" style="fill: none; stroke: #797979; stroke-width: 4.5; stroke-linecap: square"/>
   </g>
   <g id="patch_12">
    <path d="M 387.096081 170.4 
L 387.096081 10.8 
" style="fill: none; stroke: #000000; stroke-width: 0.8; stroke-linejoin: miter; stroke-linecap: square"/>
   </g>
   <g id="patch_13">
    <path d="M 696.403919 170.4 
L 696.403919 10.8 
" style="fill: none; stroke: #000000; stroke-width: 0.8; stroke-linejoin: miter; stroke-linecap: square"/>
   </g>
   <g id="patch_14">
    <path d="M 387.096081 170.4 
L 696.403919 170.4 
" style="fill: none; stroke: #000000; stroke-width: 0.8; stroke-linejoin: miter; stroke-linecap: square"/>
   </g>
   <g id="patch_15">
    <path d="M 387.096081 10.8 
L 696.403919 10.8 
" style="fill: none; stroke: #000000; stroke-width: 0.8; stroke-linejoin: miter; stroke-linecap: square"/>
   </g>
   <g id="PathCollection_1">
    <defs>
     <path id="ma926dab12d" d="M 0 1.5 
C 0.397805 1.5 0.77937 1.341951 1.06066 1.06066 
C 1.341951 0.77937 1.5 0.397805 1.5 0 
C 1.5 -0.397805 1.341951 -0.77937 1.06066 -1.06066 
C 0.77937 -1.341951 0.397805 -1.5 0 -1.5 
C -0.397805 -1.5 -0.77937 -1.341951 -1.06066 -1.06066 
C -1.341951 -0.77937 -1.5 -0.397805 -1.5 0 
C -1.5 0.397805 -1.341951 0.77937 -1.06066 1.06066 
C -0.77937 1.341951 -0.397805 1.5 0 1.5 
z
" style="stroke: #797979"/>
    </defs>
    <g clip-path="url(#pec77584a4a)">
     <use xlink:href="#ma926dab12d" x="543.43439" y="50.7" style="fill: #ffffff; stroke: #797979"/>
    </g>
   </g>
   <g id="PathCollection_2">
    <g clip-path="url(#pec77584a4a)">
     <use xlink:href="#ma926dab12d" x="422.196758" y="130.5" style="fill: #ffffff; stroke: #797979"/>
    </g>
   </g>
  </g>
  <g id="axes_3">
   <g id="patch_16">
    <path d="M 759.892161 170.4 
L 1069.2 170.4 
L 1069.2 10.8 
L 759.892161 10.8 
z
" style="fill: #ffffff"/>
   </g>
   <g id="patch_17">
    <path d="M 840.901357 170.4 
L 846.210628 170.4 
L 846.210628 158.707692 
L 840.901357 158.707692 
z
" clip-path="url(#pf7dea952c8)" style="fill: #1f77b4; fill-opacity: 0.75; stroke: #000000; stroke-width: 0.520458; stroke-linejoin: miter"/>
   </g>
   <g id="patch_18">
    <path d="M 846.210628 170.4 
L 851.519899 170.4 
L 851.519899 170.4 
L 846.210628 170.4 
z
" clip-path="url(#pf7dea952c8)" style="fill: #1f77b4; fill-opacity: 0.75; stroke: #000000; stroke-width: 0.520458; stroke-linejoin: miter"/>
   </g>
   <g id="patch_19">
    <path d="M 851.519899 170.4 
L 856.82917 170.4 
L 856.82917 170.4 
L 851.519899 170.4 
z
" clip-path="url(#pf7dea952c8)" style="fill: #1f77b4; fill-opacity: 0.75; stroke: #000000; stroke-width: 0.520458; stroke-linejoin: miter"/>
   </g>
   <g id="patch_20">
    <path d="M 856.82917 170.4 
L 862.13844 170.4 
L 862.13844 170.4 
L 856.82917 170.4 
z
" clip-path="url(#pf7dea952c8)" style="fill: #1f77b4; fill-opacity: 0.75; stroke: #000000; stroke-width: 0.520458; stroke-linejoin: miter"/>
   </g>
   <g id="patch_21">
    <path d="M 862.13844 170.4 
L 867.447711 170.4 
L 867.447711 170.4 
L 862.13844 170.4 
z
" clip-path="url(#pf7dea952c8)" style="fill: #1f77b4; fill-opacity: 0.75; stroke: #000000; stroke-width: 0.520458; stroke-linejoin: miter"/>
   </g>
   <g id="patch_22">
    <path d="M 867.447711 170.4 
L 872.756982 170.4 
L 872.756982 158.707692 
L 867.447711 158.707692 
z
" clip-path="url(#pf7dea952c8)" style="fill: #1f77b4; fill-opacity: 0.75; stroke: #000000; stroke-width: 0.520458; stroke-linejoin: miter"/>
   </g>
   <g id="patch_23">
    <path d="M 872.756982 170.4 
L 878.066253 170.4 
L 878.066253 158.707692 
L 872.756982 158.707692 
z
" clip-path="url(#pf7dea952c8)" style="fill: #1f77b4; fill-opacity: 0.75; stroke: #000000; stroke-width: 0.520458; stroke-linejoin: miter"/>
   </g>
   <g id="patch_24">
    <path d="M 878.066253 170.4 
L 883.375523 170.4 
L 883.375523 170.4 
L 878.066253 170.4 
z
" clip-path="url(#pf7dea952c8)" style="fill: #1f77b4; fill-opacity: 0.75; stroke: #000000; stroke-width: 0.520458; stroke-linejoin: miter"/>
   </g>
   <g id="patch_25">
    <path d="M 883.375523 170.4 
L 888.684794 170.4 
L 888.684794 164.553846 
L 883.375523 164.553846 
z
" clip-path="url(#pf7dea952c8)" style="fill: #1f77b4; fill-opacity: 0.75; stroke: #000000; stroke-width: 0.520458; stroke-linejoin: miter"/>
   </g>
   <g id="patch_26">
    <path d="M 888.684794 170.4 
L 893.994065 170.4 
L 893.994065 170.4 
L 888.684794 170.4 
z
" clip-path="url(#pf7dea952c8)" style="fill: #1f77b4; fill-opacity: 0.75; stroke: #000000; stroke-width: 0.520458; stroke-linejoin: miter"/>
   </g>
   <g id="patch_27">
    <path d="M 893.994065 170.4 
L 899.303336 170.4 
L 899.303336 170.4 
L 893.994065 170.4 
z
" clip-path="url(#pf7dea952c8)" style="fill: #1f77b4; fill-opacity: 0.75; stroke: #000000; stroke-width: 0.520458; stroke-linejoin: miter"/>
   </g>
   <g id="patch_28">
    <path d="M 899.303336 170.4 
L 904.612606 170.4 
L 904.612606 164.553846 
L 899.303336 164.553846 
z
" clip-path="url(#pf7dea952c8)" style="fill: #1f77b4; fill-opacity: 0.75; stroke: #000000; stroke-width: 0.520458; stroke-linejoin: miter"/>
   </g>
   <g id="patch_29">
    <path d="M 904.612606 170.4 
L 909.921877 170.4 
L 909.921877 158.707692 
L 904.612606 158.707692 
z
" clip-path="url(#pf7dea952c8)" style="fill: #1f77b4; fill-opacity: 0.75; stroke: #000000; stroke-width: 0.520458; stroke-linejoin: miter"/>
   </g>
   <g id="patch_30">
    <path d="M 909.921877 170.4 
L 915.231148 170.4 
L 915.231148 170.4 
L 909.921877 170.4 
z
" clip-path="url(#pf7dea952c8)" style="fill: #1f77b4; fill-opacity: 0.75; stroke: #000000; stroke-width: 0.520458; stroke-linejoin: miter"/>
   </g>
   <g id="patch_31">
    <path d="M 915.231148 170.4 
L 920.540419 170.4 
L 920.540419 170.4 
L 915.231148 170.4 
z
" clip-path="url(#pf7dea952c8)" style="fill: #1f77b4; fill-opacity: 0.75; stroke: #000000; stroke-width: 0.520458; stroke-linejoin: miter"/>
   </g>
   <g id="patch_32">
    <path d="M 920.540419 170.4 
L 925.849689 170.4 
L 925.849689 170.4 
L 920.540419 170.4 
z
" clip-path="url(#pf7dea952c8)" style="fill: #1f77b4; fill-opacity: 0.75; stroke: #000000; stroke-width: 0.520458; stroke-linejoin: miter"/>
   </g>
   <g id="patch_33">
    <path d="M 925.849689 170.4 
L 931.15896 170.4 
L 931.15896 170.4 
L 925.849689 170.4 
z
" clip-path="url(#pf7dea952c8)" style="fill: #1f77b4; fill-opacity: 0.75; stroke: #000000; stroke-width: 0.520458; stroke-linejoin: miter"/>
   </g>
   <g id="patch_34">
    <path d="M 931.15896 170.4 
L 936.468231 170.4 
L 936.468231 170.4 
L 931.15896 170.4 
z
" clip-path="url(#pf7dea952c8)" style="fill: #1f77b4; fill-opacity: 0.75; stroke: #000000; stroke-width: 0.520458; stroke-linejoin: miter"/>
   </g>
   <g id="patch_35">
    <path d="M 936.468231 170.4 
L 941.777502 170.4 
L 941.777502 164.553846 
L 936.468231 164.553846 
z
" clip-path="url(#pf7dea952c8)" style="fill: #1f77b4; fill-opacity: 0.75; stroke: #000000; stroke-width: 0.520458; stroke-linejoin: miter"/>
   </g>
   <g id="patch_36">
    <path d="M 941.777502 170.4 
L 947.086772 170.4 
L 947.086772 170.4 
L 941.777502 170.4 
z
" clip-path="url(#pf7dea952c8)" style="fill: #1f77b4; fill-opacity: 0.75; stroke: #000000; stroke-width: 0.520458; stroke-linejoin: miter"/>
   </g>
   <g id="patch_37">
    <path d="M 947.086772 170.4 
L 952.396043 170.4 
L 952.396043 164.553846 
L 947.086772 164.553846 
z
" clip-path="url(#pf7dea952c8)" style="fill: #1f77b4; fill-opacity: 0.75; stroke: #000000; stroke-width: 0.520458; stroke-linejoin: miter"/>
   </g>
   <g id="patch_38">
    <path d="M 952.396043 170.4 
L 957.705314 170.4 
L 957.705314 170.4 
L 952.396043 170.4 
z
" clip-path="url(#pf7dea952c8)" style="fill: #1f77b4; fill-opacity: 0.75; stroke: #000000; stroke-width: 0.520458; stroke-linejoin: miter"/>
   </g>
   <g id="patch_39">
    <path d="M 957.705314 170.4 
L 963.014585 170.4 
L 963.014585 158.707692 
L 957.705314 158.707692 
z
" clip-path="url(#pf7dea952c8)" style="fill: #1f77b4; fill-opacity: 0.75; stroke: #000000; stroke-width: 0.520458; stroke-linejoin: miter"/>
   </g>
   <g id="patch_40">
    <path d="M 963.014585 170.4 
L 968.323856 170.4 
L 968.323856 170.4 
L 963.014585 170.4 
z
" clip-path="url(#pf7dea952c8)" style="fill: #1f77b4; fill-opacity: 0.75; stroke: #000000; stroke-width: 0.520458; stroke-linejoin: miter"/>
   </g>
   <g id="patch_41">
    <path d="M 968.323856 170.4 
L 973.633126 170.4 
L 973.633126 170.4 
L 968.323856 170.4 
z
" clip-path="url(#pf7dea952c8)" style="fill: #1f77b4; fill-opacity: 0.75; stroke: #000000; stroke-width: 0.520458; stroke-linejoin: miter"/>
   </g>
   <g id="patch_42">
    <path d="M 973.633126 170.4 
L 978.942397 170.4 
L 978.942397 170.4 
L 973.633126 170.4 
z
" clip-path="url(#pf7dea952c8)" style="fill: #1f77b4; fill-opacity: 0.75; stroke: #000000; stroke-width: 0.520458; stroke-linejoin: miter"/>
   </g>
   <g id="patch_43">
    <path d="M 978.942397 170.4 
L 984.251668 170.4 
L 984.251668 152.861538 
L 978.942397 152.861538 
z
" clip-path="url(#pf7dea952c8)" style="fill: #1f77b4; fill-opacity: 0.75; stroke: #000000; stroke-width: 0.520458; stroke-linejoin: miter"/>
   </g>
   <g id="patch_44">
    <path d="M 984.251668 170.4 
L 989.560939 170.4 
L 989.560939 164.553846 
L 984.251668 164.553846 
z
" clip-path="url(#pf7dea952c8)" style="fill: #1f77b4; fill-opacity: 0.75; stroke: #000000; stroke-width: 0.520458; stroke-linejoin: miter"/>
   </g>
   <g id="patch_45">
    <path d="M 989.560939 170.4 
L 994.870209 170.4 
L 994.870209 170.4 
L 989.560939 170.4 
z
" clip-path="url(#pf7dea952c8)" style="fill: #1f77b4; fill-opacity: 0.75; stroke: #000000; stroke-width: 0.520458; stroke-linejoin: miter"/>
   </g>
   <g id="patch_46">
    <path d="M 994.870209 170.4 
L 1000.17948 170.4 
L 1000.17948 147.015385 
L 994.870209 147.015385 
z
" clip-path="url(#pf7dea952c8)" style="fill: #1f77b4; fill-opacity: 0.75; stroke: #000000; stroke-width: 0.520458; stroke-linejoin: miter"/>
   </g>
   <g id="patch_47">
    <path d="M 1000.17948 170.4 
L 1005.488751 170.4 
L 1005.488751 164.553846 
L 1000.17948 164.553846 
z
" clip-path="url(#pf7dea952c8)" style="fill: #1f77b4; fill-opacity: 0.75; stroke: #000000; stroke-width: 0.520458; stroke-linejoin: miter"/>
   </g>
   <g id="patch_48">
    <path d="M 1005.488751 170.4 
L 1010.798022 170.4 
L 1010.798022 147.015385 
L 1005.488751 147.015385 
z
" clip-path="url(#pf7dea952c8)" style="fill: #1f77b4; fill-opacity: 0.75; stroke: #000000; stroke-width: 0.520458; stroke-linejoin: miter"/>
   </g>
   <g id="patch_49">
    <path d="M 1010.798022 170.4 
L 1016.107292 170.4 
L 1016.107292 170.4 
L 1010.798022 170.4 
z
" clip-path="url(#pf7dea952c8)" style="fill: #1f77b4; fill-opacity: 0.75; stroke: #000000; stroke-width: 0.520458; stroke-linejoin: miter"/>
   </g>
   <g id="patch_50">
    <path d="M 1016.107292 170.4 
L 1021.416563 170.4 
L 1021.416563 117.784615 
L 1016.107292 117.784615 
z
" clip-path="url(#pf7dea952c8)" style="fill: #1f77b4; fill-opacity: 0.75; stroke: #000000; stroke-width: 0.520458; stroke-linejoin: miter"/>
   </g>
   <g id="patch_51">
    <path d="M 1021.416563 170.4 
L 1026.725834 170.4 
L 1026.725834 141.169231 
L 1021.416563 141.169231 
z
" clip-path="url(#pf7dea952c8)" style="fill: #1f77b4; fill-opacity: 0.75; stroke: #000000; stroke-width: 0.520458; stroke-linejoin: miter"/>
   </g>
   <g id="patch_52">
    <path d="M 1026.725834 170.4 
L 1032.035105 170.4 
L 1032.035105 170.4 
L 1026.725834 170.4 
z
" clip-path="url(#pf7dea952c8)" style="fill: #1f77b4; fill-opacity: 0.75; stroke: #000000; stroke-width: 0.520458; stroke-linejoin: miter"/>
   </g>
   <g id="patch_53">
    <path d="M 1032.035105 170.4 
L 1037.344375 170.4 
L 1037.344375 170.4 
L 1032.035105 170.4 
z
" clip-path="url(#pf7dea952c8)" style="fill: #1f77b4; fill-opacity: 0.75; stroke: #000000; stroke-width: 0.520458; stroke-linejoin: miter"/>
   </g>
   <g id="patch_54">
    <path d="M 1037.344375 170.4 
L 1042.653646 170.4 
L 1042.653646 65.169231 
L 1037.344375 65.169231 
z
" clip-path="url(#pf7dea952c8)" style="fill: #1f77b4; fill-opacity: 0.75; stroke: #000000; stroke-width: 0.520458; stroke-linejoin: miter"/>
   </g>
   <g id="patch_55">
    <path d="M 1042.653646 170.4 
L 1047.962917 170.4 
L 1047.962917 111.938462 
L 1042.653646 111.938462 
z
" clip-path="url(#pf7dea952c8)" style="fill: #1f77b4; fill-opacity: 0.75; stroke: #000000; stroke-width: 0.520458; stroke-linejoin: miter"/>
   </g>
   <g id="patch_56">
    <path d="M 1047.962917 170.4 
L 1053.272188 170.4 
L 1053.272188 170.4 
L 1047.962917 170.4 
z
" clip-path="url(#pf7dea952c8)" style="fill: #1f77b4; fill-opacity: 0.75; stroke: #000000; stroke-width: 0.520458; stroke-linejoin: miter"/>
   </g>
   <g id="patch_57">
    <path d="M 1053.272188 170.4 
L 1058.581458 170.4 
L 1058.581458 158.707692 
L 1053.272188 158.707692 
z
" clip-path="url(#pf7dea952c8)" style="fill: #1f77b4; fill-opacity: 0.75; stroke: #000000; stroke-width: 0.520458; stroke-linejoin: miter"/>
   </g>
   <g id="patch_58">
    <path d="M 1058.581458 170.4 
L 1063.890729 170.4 
L 1063.890729 152.861538 
L 1058.581458 152.861538 
z
" clip-path="url(#pf7dea952c8)" style="fill: #1f77b4; fill-opacity: 0.75; stroke: #000000; stroke-width: 0.520458; stroke-linejoin: miter"/>
   </g>
   <g id="patch_59">
    <path d="M 1063.890729 170.4 
L 1069.2 170.4 
L 1069.2 18.4 
L 1063.890729 18.4 
z
" clip-path="url(#pf7dea952c8)" style="fill: #1f77b4; fill-opacity: 0.75; stroke: #000000; stroke-width: 0.520458; stroke-linejoin: miter"/>
   </g>
   <g id="matplotlib.axis_5">
    <g id="xtick_30">
     <g id="line2d_36">
      <g>
       <use xlink:href="#m9f9e1abe2c" x="759.892161" y="170.4" style="stroke: #000000; stroke-width: 0.8"/>
      </g>
     </g>
     <g id="text_13">
      <!-- 0 -->
      <g transform="translate(756.710911 184.998437)scale(0.1 -0.1)">
       <use xlink:href="#DejaVuSans-30"/>
      </g>
     </g>
    </g>
    <g id="xtick_31">
     <g id="line2d_37">
      <g>
       <use xlink:href="#m9f9e1abe2c" x="796.714523" y="170.4" style="stroke: #000000; stroke-width: 0.8"/>
      </g>
     </g>
     <g id="text_14">
      <!-- 5 -->
      <g transform="translate(793.533273 184.998437)scale(0.1 -0.1)">
       <use xlink:href="#DejaVuSans-35"/>
      </g>
     </g>
    </g>
    <g id="xtick_32">
     <g id="line2d_38">
      <g>
       <use xlink:href="#m9f9e1abe2c" x="833.536885" y="170.4" style="stroke: #000000; stroke-width: 0.8"/>
      </g>
     </g>
     <g id="text_15">
      <!-- 10 -->
      <g transform="translate(827.174385 184.998437)scale(0.1 -0.1)">
       <use xlink:href="#DejaVuSans-31"/>
       <use xlink:href="#DejaVuSans-30" x="63.623047"/>
      </g>
     </g>
    </g>
    <g id="xtick_33">
     <g id="line2d_39">
      <g>
       <use xlink:href="#m9f9e1abe2c" x="870.359247" y="170.4" style="stroke: #000000; stroke-width: 0.8"/>
      </g>
     </g>
     <g id="text_16">
      <!-- 15 -->
      <g transform="translate(863.996747 184.998437)scale(0.1 -0.1)">
       <use xlink:href="#DejaVuSans-31"/>
       <use xlink:href="#DejaVuSans-35" x="63.623047"/>
      </g>
     </g>
    </g>
    <g id="xtick_34">
     <g id="line2d_40">
      <g>
       <use xlink:href="#m9f9e1abe2c" x="907.181608" y="170.4" style="stroke: #000000; stroke-width: 0.8"/>
      </g>
     </g>
     <g id="text_17">
      <!-- 20 -->
      <g transform="translate(900.819108 184.998437)scale(0.1 -0.1)">
       <use xlink:href="#DejaVuSans-32"/>
       <use xlink:href="#DejaVuSans-30" x="63.623047"/>
      </g>
     </g>
    </g>
    <g id="xtick_35">
     <g id="line2d_41">
      <g>
       <use xlink:href="#m9f9e1abe2c" x="944.00397" y="170.4" style="stroke: #000000; stroke-width: 0.8"/>
      </g>
     </g>
     <g id="text_18">
      <!-- 25 -->
      <g transform="translate(937.64147 184.998437)scale(0.1 -0.1)">
       <use xlink:href="#DejaVuSans-32"/>
       <use xlink:href="#DejaVuSans-35" x="63.623047"/>
      </g>
     </g>
    </g>
    <g id="xtick_36">
     <g id="line2d_42">
      <g>
       <use xlink:href="#m9f9e1abe2c" x="980.826332" y="170.4" style="stroke: #000000; stroke-width: 0.8"/>
      </g>
     </g>
     <g id="text_19">
      <!-- 30 -->
      <g transform="translate(974.463832 184.998437)scale(0.1 -0.1)">
       <defs>
        <path id="DejaVuSans-33" d="M 2597 2516 
Q 3050 2419 3304 2112 
Q 3559 1806 3559 1356 
Q 3559 666 3084 287 
Q 2609 -91 1734 -91 
Q 1441 -91 1130 -33 
Q 819 25 488 141 
L 488 750 
Q 750 597 1062 519 
Q 1375 441 1716 441 
Q 2309 441 2620 675 
Q 2931 909 2931 1356 
Q 2931 1769 2642 2001 
Q 2353 2234 1838 2234 
L 1294 2234 
L 1294 2753 
L 1863 2753 
Q 2328 2753 2575 2939 
Q 2822 3125 2822 3475 
Q 2822 3834 2567 4026 
Q 2313 4219 1838 4219 
Q 1578 4219 1281 4162 
Q 984 4106 628 3988 
L 628 4550 
Q 988 4650 1302 4700 
Q 1616 4750 1894 4750 
Q 2613 4750 3031 4423 
Q 3450 4097 3450 3541 
Q 3450 3153 3228 2886 
Q 3006 2619 2597 2516 
z
" transform="scale(0.015625)"/>
       </defs>
       <use xlink:href="#DejaVuSans-33"/>
       <use xlink:href="#DejaVuSans-30" x="63.623047"/>
      </g>
     </g>
    </g>
    <g id="xtick_37">
     <g id="line2d_43">
      <g>
       <use xlink:href="#m9f9e1abe2c" x="1017.648694" y="170.4" style="stroke: #000000; stroke-width: 0.8"/>
      </g>
     </g>
     <g id="text_20">
      <!-- 35 -->
      <g transform="translate(1011.286194 184.998437)scale(0.1 -0.1)">
       <use xlink:href="#DejaVuSans-33"/>
       <use xlink:href="#DejaVuSans-35" x="63.623047"/>
      </g>
     </g>
    </g>
    <g id="xtick_38">
     <g id="line2d_44">
      <g>
       <use xlink:href="#m9f9e1abe2c" x="1054.471055" y="170.4" style="stroke: #000000; stroke-width: 0.8"/>
      </g>
     </g>
     <g id="text_21">
      <!-- 40 -->
      <g transform="translate(1048.108555 184.998437)scale(0.1 -0.1)">
       <use xlink:href="#DejaVuSans-34"/>
       <use xlink:href="#DejaVuSans-30" x="63.623047"/>
      </g>
     </g>
    </g>
    <g id="text_22">
     <!-- game_length -->
     <g transform="translate(881.923424 198.676562)scale(0.1 -0.1)">
      <defs>
       <path id="DejaVuSans-67" d="M 2906 1791 
Q 2906 2416 2648 2759 
Q 2391 3103 1925 3103 
Q 1463 3103 1205 2759 
Q 947 2416 947 1791 
Q 947 1169 1205 825 
Q 1463 481 1925 481 
Q 2391 481 2648 825 
Q 2906 1169 2906 1791 
z
M 3481 434 
Q 3481 -459 3084 -895 
Q 2688 -1331 1869 -1331 
Q 1566 -1331 1297 -1286 
Q 1028 -1241 775 -1147 
L 775 -588 
Q 1028 -725 1275 -790 
Q 1522 -856 1778 -856 
Q 2344 -856 2625 -561 
Q 2906 -266 2906 331 
L 2906 616 
Q 2728 306 2450 153 
Q 2172 0 1784 0 
Q 1141 0 747 490 
Q 353 981 353 1791 
Q 353 2603 747 3093 
Q 1141 3584 1784 3584 
Q 2172 3584 2450 3431 
Q 2728 3278 2906 2969 
L 2906 3500 
L 3481 3500 
L 3481 434 
z
" transform="scale(0.015625)"/>
       <path id="DejaVuSans-68" d="M 3513 2113 
L 3513 0 
L 2938 0 
L 2938 2094 
Q 2938 2591 2744 2837 
Q 2550 3084 2163 3084 
Q 1697 3084 1428 2787 
Q 1159 2491 1159 1978 
L 1159 0 
L 581 0 
L 581 4863 
L 1159 4863 
L 1159 2956 
Q 1366 3272 1645 3428 
Q 1925 3584 2291 3584 
Q 2894 3584 3203 3211 
Q 3513 2838 3513 2113 
z
" transform="scale(0.015625)"/>
      </defs>
      <use xlink:href="#DejaVuSans-67"/>
      <use xlink:href="#DejaVuSans-61" x="63.476562"/>
      <use xlink:href="#DejaVuSans-6d" x="124.755859"/>
      <use xlink:href="#DejaVuSans-65" x="222.167969"/>
      <use xlink:href="#DejaVuSans-5f" x="283.691406"/>
      <use xlink:href="#DejaVuSans-6c" x="333.691406"/>
      <use xlink:href="#DejaVuSans-65" x="361.474609"/>
      <use xlink:href="#DejaVuSans-6e" x="422.998047"/>
      <use xlink:href="#DejaVuSans-67" x="486.376953"/>
      <use xlink:href="#DejaVuSans-74" x="549.853516"/>
      <use xlink:href="#DejaVuSans-68" x="589.0625"/>
     </g>
    </g>
   </g>
   <g id="matplotlib.axis_6">
    <g id="ytick_3">
     <g id="line2d_45">
      <g>
       <use xlink:href="#mce6eab2039" x="759.892161" y="170.4" style="stroke: #000000; stroke-width: 0.8"/>
      </g>
     </g>
     <g id="text_23">
      <!-- 0.00 -->
      <g transform="translate(730.626536 174.199219)scale(0.1 -0.1)">
       <use xlink:href="#DejaVuSans-30"/>
       <use xlink:href="#DejaVuSans-2e" x="63.623047"/>
       <use xlink:href="#DejaVuSans-30" x="95.410156"/>
       <use xlink:href="#DejaVuSans-30" x="159.033203"/>
      </g>
     </g>
    </g>
    <g id="ytick_4">
     <g id="line2d_46">
      <g>
       <use xlink:href="#mce6eab2039" x="759.892161" y="141.169231" style="stroke: #000000; stroke-width: 0.8"/>
      </g>
     </g>
     <g id="text_24">
      <!-- 0.05 -->
      <g transform="translate(730.626536 144.96845)scale(0.1 -0.1)">
       <use xlink:href="#DejaVuSans-30"/>
       <use xlink:href="#DejaVuSans-2e" x="63.623047"/>
       <use xlink:href="#DejaVuSans-30" x="95.410156"/>
       <use xlink:href="#DejaVuSans-35" x="159.033203"/>
      </g>
     </g>
    </g>
    <g id="ytick_5">
     <g id="line2d_47">
      <g>
       <use xlink:href="#mce6eab2039" x="759.892161" y="111.938462" style="stroke: #000000; stroke-width: 0.8"/>
      </g>
     </g>
     <g id="text_25">
      <!-- 0.10 -->
      <g transform="translate(730.626536 115.73768)scale(0.1 -0.1)">
       <use xlink:href="#DejaVuSans-30"/>
       <use xlink:href="#DejaVuSans-2e" x="63.623047"/>
       <use xlink:href="#DejaVuSans-31" x="95.410156"/>
       <use xlink:href="#DejaVuSans-30" x="159.033203"/>
      </g>
     </g>
    </g>
    <g id="ytick_6">
     <g id="line2d_48">
      <g>
       <use xlink:href="#mce6eab2039" x="759.892161" y="82.707692" style="stroke: #000000; stroke-width: 0.8"/>
      </g>
     </g>
     <g id="text_26">
      <!-- 0.15 -->
      <g transform="translate(730.626536 86.506911)scale(0.1 -0.1)">
       <use xlink:href="#DejaVuSans-30"/>
       <use xlink:href="#DejaVuSans-2e" x="63.623047"/>
       <use xlink:href="#DejaVuSans-31" x="95.410156"/>
       <use xlink:href="#DejaVuSans-35" x="159.033203"/>
      </g>
     </g>
    </g>
    <g id="ytick_7">
     <g id="line2d_49">
      <g>
       <use xlink:href="#mce6eab2039" x="759.892161" y="53.476923" style="stroke: #000000; stroke-width: 0.8"/>
      </g>
     </g>
     <g id="text_27">
      <!-- 0.20 -->
      <g transform="translate(730.626536 57.276142)scale(0.1 -0.1)">
       <use xlink:href="#DejaVuSans-30"/>
       <use xlink:href="#DejaVuSans-2e" x="63.623047"/>
       <use xlink:href="#DejaVuSans-32" x="95.410156"/>
       <use xlink:href="#DejaVuSans-30" x="159.033203"/>
      </g>
     </g>
    </g>
    <g id="ytick_8">
     <g id="line2d_50">
      <g>
       <use xlink:href="#mce6eab2039" x="759.892161" y="24.246154" style="stroke: #000000; stroke-width: 0.8"/>
      </g>
     </g>
     <g id="text_28">
      <!-- 0.25 -->
      <g transform="translate(730.626536 28.045373)scale(0.1 -0.1)">
       <use xlink:href="#DejaVuSans-30"/>
       <use xlink:href="#DejaVuSans-2e" x="63.623047"/>
       <use xlink:href="#DejaVuSans-32" x="95.410156"/>
       <use xlink:href="#DejaVuSans-35" x="159.033203"/>
      </g>
     </g>
    </g>
    <g id="text_29">
     <!-- Probability -->
     <g transform="translate(724.546849 117.028906)rotate(-90)scale(0.1 -0.1)">
      <defs>
       <path id="DejaVuSans-50" d="M 1259 4147 
L 1259 2394 
L 2053 2394 
Q 2494 2394 2734 2622 
Q 2975 2850 2975 3272 
Q 2975 3691 2734 3919 
Q 2494 4147 2053 4147 
L 1259 4147 
z
M 628 4666 
L 2053 4666 
Q 2838 4666 3239 4311 
Q 3641 3956 3641 3272 
Q 3641 2581 3239 2228 
Q 2838 1875 2053 1875 
L 1259 1875 
L 1259 0 
L 628 0 
L 628 4666 
z
" transform="scale(0.015625)"/>
      </defs>
      <use xlink:href="#DejaVuSans-50"/>
      <use xlink:href="#DejaVuSans-72" x="58.552734"/>
      <use xlink:href="#DejaVuSans-6f" x="97.416016"/>
      <use xlink:href="#DejaVuSans-62" x="158.597656"/>
      <use xlink:href="#DejaVuSans-61" x="222.074219"/>
      <use xlink:href="#DejaVuSans-62" x="283.353516"/>
      <use xlink:href="#DejaVuSans-69" x="346.830078"/>
      <use xlink:href="#DejaVuSans-6c" x="374.613281"/>
      <use xlink:href="#DejaVuSans-69" x="402.396484"/>
      <use xlink:href="#DejaVuSans-74" x="430.179688"/>
      <use xlink:href="#DejaVuSans-79" x="469.388672"/>
     </g>
    </g>
   </g>
   <g id="patch_60">
    <path d="M 759.892161 170.4 
L 759.892161 10.8 
" style="fill: none; stroke: #000000; stroke-width: 0.8; stroke-linejoin: miter; stroke-linecap: square"/>
   </g>
   <g id="patch_61">
    <path d="M 1069.2 170.4 
L 1069.2 10.8 
" style="fill: none; stroke: #000000; stroke-width: 0.8; stroke-linejoin: miter; stroke-linecap: square"/>
   </g>
   <g id="patch_62">
    <path d="M 759.892161 170.4 
L 1069.2 170.4 
" style="fill: none; stroke: #000000; stroke-width: 0.8; stroke-linejoin: miter; stroke-linecap: square"/>
   </g>
   <g id="patch_63">
    <path d="M 759.892161 10.8 
L 1069.2 10.8 
" style="fill: none; stroke: #000000; stroke-width: 0.8; stroke-linejoin: miter; stroke-linecap: square"/>
   </g>
  </g>
 </g>
 <defs>
  <clipPath id="p07549e1b59">
   <rect x="14.3" y="10.8" width="309.307839" height="159.6"/>
  </clipPath>
  <clipPath id="pec77584a4a">
   <rect x="387.096081" y="10.8" width="309.307839" height="159.6"/>
  </clipPath>
  <clipPath id="pf7dea952c8">
   <rect x="759.892161" y="10.8" width="309.307839" height="159.6"/>
  </clipPath>
 </defs>
</svg>
